<?xml version="1.0" encoding="UTF-8"?> <svg xmlns="http://www.w3.org/2000/svg" width="69" height="20" viewBox="0 0 69 20" fill="none"><g clip-path="url(#clip0_4149_2)"><path d="M19.397 19.6482L23.6181 5.8794C23.9531 4.79062 24.33 3.97822 24.7487 3.44221C25.1675 2.9062 25.5695 2.54606 25.9548 2.36181V1.8593C25.7035 1.87605 25.402 1.8928 25.0503 1.90955C24.6985 1.9263 24.3551 1.93467 24.0201 1.93467C23.4506 1.93467 22.9188 1.9263 22.4246 1.90955C21.9305 1.8928 21.3652 1.87605 20.7286 1.8593V2.36181C21.3987 2.37856 21.9263 2.57538 22.3116 2.95226C22.6968 3.32915 22.8978 3.94891 22.9146 4.81156C22.9313 5.6742 22.7052 6.85092 22.2362 8.34171L20.2981 14.5363L16.9849 4.47236C16.8241 4.00335 16.741 3.62814 16.7357 3.34673L16.7462 3.15327C16.7881 2.86013 16.9514 2.65913 17.2362 2.55025C17.5209 2.44137 17.9229 2.37856 18.4422 2.36181V1.8593C18.0235 1.87605 17.4665 1.8928 16.7714 1.90955C16.0762 1.9263 15.335 1.93467 14.5477 1.93467C13.7605 1.93467 12.9816 1.9263 12.2111 1.90955C11.4405 1.8928 10.7705 1.87605 10.201 1.8593V2.36181C10.4858 2.37856 10.737 2.47069 10.9548 2.63819C11.1725 2.8057 11.3484 3.1072 11.4824 3.54271L13.1875 8.75286L10.9788 14.7305L7.33668 4.47236C7.28085 4.30486 7.23432 4.12433 7.1971 3.93076L7.14824 3.63065C7.10637 3.32077 7.13149 3.04439 7.22362 2.80151C7.31575 2.55863 7.50419 2.41206 7.78894 2.36181V1.8593C7.43719 1.87605 6.97655 1.8928 6.40704 1.90955C5.83752 1.9263 5.18425 1.93467 4.44724 1.93467C3.71022 1.93467 2.93551 1.9263 2.12312 1.90955C1.31072 1.8928 0.603015 1.87605 0 1.8593V2.36181C0.234506 2.37856 0.485762 2.50419 0.753769 2.73869C1.02178 2.9732 1.26466 3.38358 1.48241 3.96985L7.31156 19.6482C7.51256 19.6315 7.72613 19.6189 7.95226 19.6106C8.17839 19.6022 8.40034 19.598 8.61809 19.598C8.8526 19.598 9.08291 19.6022 9.30905 19.6106C9.53518 19.6189 9.74874 19.6315 9.94975 19.6482L13.4845 9.66194L16.7588 19.6482C16.8593 19.6399 16.9629 19.6325 17.0697 19.6263L17.3995 19.6106C17.6256 19.6022 17.8476 19.598 18.0653 19.598C18.2998 19.598 18.5302 19.6022 18.7563 19.6106C18.9824 19.6189 19.196 19.6315 19.397 19.6482ZM40.1233 19.6482V19.1206C39.6041 19.1206 39.2398 18.995 39.0304 18.7437C38.821 18.4925 38.7163 18.0151 38.7163 17.3116V10.5025C38.7163 9.64824 38.6577 8.96985 38.5404 8.46734C38.4232 7.96482 38.2389 7.56281 37.9877 7.26131C37.7532 6.97655 37.414 6.73786 36.9701 6.54523C36.5262 6.3526 35.919 6.25628 35.1485 6.25628C34.2439 6.25628 33.4525 6.40285 32.7741 6.69598C32.0957 6.98911 31.5555 7.47069 31.1535 8.1407V0C30.5337 0.117253 29.8595 0.205193 29.1309 0.263819C28.4022 0.322445 27.6192 0.351759 26.7816 0.351759C26.2791 0.351759 25.7599 0.326633 25.2238 0.276382V0.80402C25.7599 0.80402 26.1284 0.984087 26.3294 1.34422C26.5304 1.70436 26.6309 2.26131 26.6309 3.01508V17.3116C26.6309 18.0151 26.5262 18.4925 26.3168 18.7437C26.1074 18.995 25.7431 19.1206 25.2238 19.1206V19.6482C25.5924 19.6315 26.1367 19.6106 26.857 19.5854C27.5773 19.5603 28.2892 19.5477 28.9927 19.5477C29.646 19.5477 30.2825 19.5603 30.9022 19.5854C31.522 19.6106 31.991 19.6315 32.3093 19.6482V19.1206C31.8905 19.1206 31.5932 18.995 31.4173 18.7437C31.2414 18.4925 31.1535 18.0151 31.1535 17.3116V9.37186C31.1535 8.83585 31.3378 8.40033 31.7063 8.06533C32.0748 7.73032 32.4935 7.56281 32.9625 7.56281C33.264 7.56281 33.5027 7.62144 33.6786 7.73869C33.8545 7.85595 33.9843 8.03183 34.0681 8.26633C34.1518 8.50084 34.1937 8.79397 34.1937 9.14573V17.3116C34.1937 18.0151 34.1099 18.4925 33.9424 18.7437C33.7749 18.995 33.4734 19.1206 33.0379 19.1206V19.6482C33.3729 19.6315 33.8754 19.6106 34.5455 19.5854C35.2155 19.5603 35.9022 19.5477 36.6058 19.5477C37.259 19.5477 37.9248 19.5603 38.6032 19.5854C39.2816 19.6106 39.7883 19.6315 40.1233 19.6482ZM44.2165 4.32161C45.0876 4.32161 45.7618 4.14154 46.2391 3.78141C46.7165 3.42127 46.9552 2.88107 46.9552 2.1608C46.9552 1.44054 46.7165 0.900335 46.2391 0.540201C45.7618 0.180067 45.0876 0 44.2165 0C43.3455 0 42.6713 0.180067 42.1939 0.540201C41.7165 0.900335 41.4778 1.44054 41.4778 2.1608C41.4778 2.88107 41.7165 3.42127 42.1939 3.78141C42.6713 4.14154 43.3455 4.32161 44.2165 4.32161ZM48.0356 19.6482V19.1206C47.5164 19.1206 47.152 18.995 46.9427 18.7437C46.7333 18.4925 46.6286 18.0151 46.6286 17.3116V6.33166C46.0088 6.44891 45.3346 6.53685 44.606 6.59548C43.8773 6.6541 43.0943 6.68342 42.2567 6.68342C41.7542 6.68342 41.235 6.65829 40.6989 6.60804V7.13568C41.235 7.13568 41.6035 7.31575 41.8045 7.67588C42.0055 8.03601 42.106 8.59296 42.106 9.34673V17.3116C42.106 18.0151 42.0013 18.4925 41.7919 18.7437C41.5825 18.995 41.2182 19.1206 40.6989 19.1206V19.6482C41.0675 19.6315 41.6118 19.6106 42.3321 19.5854C43.0524 19.5603 43.7643 19.5477 44.4678 19.5477C45.1713 19.5477 45.8581 19.5603 46.5281 19.5854C47.1981 19.6106 47.7006 19.6315 48.0356 19.6482ZM53.4856 20C54.3566 20 55.0811 19.8199 55.659 19.4598C56.2369 19.0997 56.7017 18.6181 57.0534 18.0151L56.6766 17.7136C56.4588 17.9816 56.2243 18.17 55.973 18.2789C55.7218 18.3878 55.504 18.4422 55.3198 18.4422C55.0518 18.4422 54.8591 18.371 54.7419 18.2286C54.6246 18.0863 54.566 17.8559 54.566 17.5377V7.11055H57.0283V6.60804H54.566V2.53769C53.896 2.92295 53.1967 3.20352 52.468 3.3794C51.7394 3.55528 50.9312 3.64322 50.0434 3.64322V6.60804H48.1339V7.11055H50.0434V15.6533C50.0434 16.5243 50.0936 17.232 50.1941 17.7764C50.2947 18.3208 50.5292 18.7772 50.8977 19.1457C51.1824 19.4305 51.5467 19.6441 51.9906 19.7864C52.4345 19.9288 52.9328 20 53.4856 20ZM63.2321 20C64.2371 20 65.0914 19.7864 65.7949 19.3593C66.4984 18.9322 67.0721 18.3878 67.516 17.7261C67.9599 17.0645 68.2823 16.3987 68.4833 15.7286L68.0562 15.5779C67.5034 16.3484 66.9423 16.8216 66.3728 16.9975C65.8033 17.1734 65.351 17.2613 65.016 17.2613C64.5637 17.2613 64.1157 17.1357 63.6718 16.8844C63.2279 16.6332 62.8594 16.1809 62.5662 15.5276C62.2731 14.8744 62.1265 13.9615 62.1265 12.7889V12.2613C62.1265 12.0938 62.1349 11.9263 62.1517 11.7588L62.1414 11.8844H68.6341C68.6341 10.0419 68.2845 8.68039 67.5854 7.79995L67.3652 7.55025C66.5193 6.6876 65.3594 6.25628 63.8853 6.25628C62.6793 6.25628 61.5863 6.49497 60.6064 6.97236C59.6265 7.44975 58.8518 8.19514 58.2823 9.20854C57.7128 10.2219 57.428 11.5327 57.428 13.1407C57.428 14.8325 57.6877 16.1809 58.2069 17.1859C58.7262 18.191 59.4255 18.9112 60.3049 19.3467C61.1843 19.7822 62.16 20 63.2321 20ZM62.0828 11.0015C62.1771 9.56795 62.3508 8.5348 62.6039 7.90201C62.8887 7.19012 63.2572 6.83417 63.7095 6.83417C64.0277 6.83417 64.279 7.04355 64.4632 7.46231C64.6475 7.88107 64.7815 8.43802 64.8652 9.13317C64.949 9.82831 64.9825 10.5863 64.9657 11.407H62.0592L62.0828 11.0015Z" fill="#2B180A"></path></g><defs><clipPath id="clip0_4149_2"><rect width="69" height="20" fill="white"></rect></clipPath></defs></svg> 