<svg width="164" height="24" viewBox="0 0 164 24" fill="none" xmlns="http://www.w3.org/2000/svg">
<path fill-rule="evenodd" clip-rule="evenodd" d="M84.5005 22.4868V15.506C84.4514 14.5561 84.5188 13.6037 84.7011 12.6701V12.6003C84.8925 11.9736 85.3259 11.4491 85.9053 11.1431C86.9698 10.4643 88.3312 10.4643 89.3957 11.1431C89.9667 11.4506 90.3932 11.9712 90.5825 12.5916V12.6614C90.7648 13.595 90.8322 14.5474 90.7831 15.4973V22.4781H93.9856V14.5375C94.0609 13.2366 93.874 11.9339 93.4358 10.7068C92.9364 9.52724 91.9976 8.58838 90.8181 8.08897C89.8361 7.62867 88.7609 7.4017 87.6767 7.4258C86.5525 7.43774 85.4556 7.77407 84.5179 8.39438V0H81.298V22.4868H84.5005ZM27.9214 8.05186C26.9395 7.59156 25.8643 7.36459 24.7801 7.38868C23.6559 7.40062 22.559 7.73696 21.6213 8.35726V7.92097H18.4101V22.4846H21.6388V15.5038C21.5897 14.5539 21.6571 13.6015 21.8394 12.6679V12.5981C22.0308 11.9714 22.4642 11.4469 23.0436 11.1408C24.1081 10.4621 25.4695 10.4621 26.534 11.1408L27.9214 8.05186ZM163.9 14.9052C163.9 10.1582 160.663 7.39204 156.396 7.39204C154.32 7.31695 152.307 8.11313 150.843 9.58808C149.38 11.063 148.6 13.0825 148.691 15.1582C148.601 17.2414 149.379 19.2687 150.839 20.7571C152.3 22.2455 154.312 23.0618 156.396 23.0115C157.968 23.0328 159.517 22.6417 160.89 21.8772C162.315 21.0639 163.353 19.7117 163.77 18.125H160.637C159.869 19.5037 158.499 20.1756 156.562 20.1756C153.944 20.1756 151.998 18.125 151.998 16.1704H163.866L163.9 14.9052ZM151.961 13.4144C152.401 11.4171 154.231 10.0387 156.272 10.1683C158.514 10.1683 160.356 11.5121 160.635 13.4144H152.005H151.961ZM6.85502 19.5967C8.9221 20.0728 11.0411 19.0415 11.942 17.1211H11.9943H15.4847C14.5459 20.9849 10.8675 23.5373 6.91961 23.0645C2.97169 22.5918 0 19.243 0 15.2669C0 11.2907 2.97169 7.94197 6.91961 7.46921C10.8675 6.99645 14.5459 9.5489 15.4847 13.4126H11.9943C11.148 11.4675 9.05898 10.3769 6.97928 10.7944C4.89959 11.212 3.39336 13.0244 3.36341 15.1454C3.33347 17.2664 4.78793 19.1206 6.85502 19.5967ZM40.1104 14.9035V7.92276H43.2779V22.4864H40.093V22.0065C39.1553 22.6268 38.0584 22.9631 36.9342 22.9751C35.8499 22.9992 34.7748 22.7722 33.7928 22.3119C32.6133 21.8125 31.6744 20.8736 31.175 19.6941C30.7369 18.4669 30.5499 17.1642 30.6253 15.8634V7.92276H33.8452V14.9035C33.7961 15.8535 33.8635 16.8059 34.0459 17.7395V17.8093C34.2351 18.4296 34.6616 18.9502 35.2326 19.2578C36.2971 19.9365 37.6585 19.9365 38.723 19.2578C39.294 18.9502 39.7205 18.4296 39.9097 17.8093V17.7395C40.0921 16.8059 40.1595 15.8535 40.1104 14.9035ZM50.4737 22.4878V15.507C50.4297 14.5534 50.5029 13.5981 50.6918 12.6624V12.5925C50.8811 11.9722 51.3075 11.4516 51.8786 11.144C52.943 10.4653 54.3045 10.4653 55.3689 11.144C55.94 11.4516 56.3665 11.9722 56.5557 12.5925V12.6624C56.7329 13.5995 56.7944 14.5549 56.7389 15.507V22.4878H59.9414V14.5472C60.0251 13.2481 59.8471 11.9454 59.4178 10.7165C58.9184 9.53694 57.9795 8.59808 56.8 8.09867C55.818 7.63838 54.7429 7.4114 53.6587 7.4355C52.5344 7.44744 51.4376 7.78378 50.4999 8.40408V7.96778H47.2713V22.4878H50.4737ZM69.7169 19.5967C71.784 20.0728 73.903 19.0415 74.8038 17.1211H74.8562H78.3466C77.4078 20.9849 73.7294 23.5373 69.7815 23.0645C65.8336 22.5918 62.8619 19.243 62.8619 15.2669C62.8619 11.2907 65.8336 7.94197 69.7815 7.46921C73.7294 6.99645 77.4078 9.5489 78.3466 13.4126H74.8562C74.0099 11.4675 71.9208 10.3769 69.8411 10.7944C67.7615 11.212 66.2552 13.0244 66.2253 15.1454C66.1953 17.2664 67.6498 19.1206 69.7169 19.5967ZM105.529 7.3909H104.953C103.575 7.4915 102.25 7.95846 101.113 8.74342V0H97.9284V22.4868H101.131V21.6666C103.914 23.6242 107.641 23.5672 110.362 21.5255C113.084 19.4837 114.181 15.9216 113.08 12.7023C111.979 9.48292 108.931 7.33861 105.529 7.3909ZM110.03 15.8036V15.9433C110.001 16.1289 109.96 16.3125 109.908 16.493C109.848 16.6868 109.775 16.8763 109.689 17.0602V17.13C109.08 18.3977 107.916 19.3102 106.539 19.5994L106.112 19.6692H106.016C105.853 19.6782 105.69 19.6782 105.527 19.6692C105.323 19.6686 105.119 19.654 104.916 19.6256H104.777C104.382 19.5611 103.997 19.4437 103.634 19.2766H103.546C103.18 19.0965 102.839 18.8675 102.534 18.596C102.227 18.3166 101.96 17.9966 101.74 17.6448C101.631 17.4656 101.535 17.279 101.452 17.0864C100.933 15.9008 100.952 14.5483 101.504 13.3778C102.179 11.9529 103.549 10.9836 105.117 10.8211C105.271 10.8131 105.425 10.8131 105.579 10.8211C107.997 10.8528 109.96 12.7848 110.03 15.2015C110.043 15.402 110.043 15.6032 110.03 15.8036ZM146.105 12.2759V12.2061C146.105 9.83264 144.281 7.41555 140.214 7.37192C136.148 7.32829 134.386 9.76283 134.333 12.1014V12.2759C134.42 13.6459 135.206 15.3911 138.242 16.1066L140.947 16.7174C141.646 16.8745 142.832 17.2672 142.928 18.1572C142.928 19.3876 141.349 20.0333 140.214 20.0333C138.906 20.0333 137.501 19.309 137.501 18.1485V18.0787H134.333V18.1223C134.333 20.4958 136.157 22.9129 140.223 22.9565C144.29 23.0001 146.113 20.5045 146.113 18.1223V18.0787C146.043 16.6913 145.293 14.9199 142.204 14.2044L139.499 13.5935C138.906 13.4626 137.518 13.0612 137.518 12.1799C137.518 10.8012 138.923 10.3126 140.232 10.3126C141.541 10.3126 142.946 11.0368 142.946 12.1974V12.2759H146.105ZM115.964 15.2004C115.991 18.0851 117.597 20.723 120.148 22.0711C122.698 23.4192 125.782 23.2604 128.181 21.6576V22.4866H131.383V7.92295H128.198V8.79555C127.062 8.01059 125.736 7.54363 124.359 7.44302H123.783C119.496 7.46176 116.017 10.9142 115.964 15.2004ZM119.273 15.2029C119.278 12.7182 121.291 10.7051 123.776 10.7003C123.93 10.6923 124.084 10.6923 124.238 10.7003C125.806 10.8628 127.176 11.8321 127.851 13.257C128.403 14.4275 128.423 15.78 127.903 16.9656C127.82 17.1582 127.724 17.3448 127.615 17.524C127.395 17.8758 127.128 18.1958 126.821 18.4752C126.516 18.7467 126.175 18.9757 125.809 19.1558H125.721C125.358 19.3229 124.973 19.4403 124.578 19.5048H124.439C124.236 19.5332 124.032 19.5478 123.828 19.5485C123.665 19.5574 123.502 19.5574 123.339 19.5485H123.278L122.851 19.4786C121.504 19.1737 120.37 18.2709 119.77 17.0266V16.9568C119.685 16.773 119.612 16.5835 119.552 16.3897C119.5 16.2092 119.459 16.0255 119.43 15.8399V15.7003C119.368 15.5377 119.316 15.3716 119.273 15.2029Z" fill="white"/>
</svg>
