<svg width="183" height="24" viewBox="0 0 183 24" fill="none" xmlns="http://www.w3.org/2000/svg">
<path fill-rule="evenodd" clip-rule="evenodd" d="M154.061 20.6429C153.076 22.199 151.742 23.12 149.742 23.12C147.995 23.12 146.534 22.1673 145.581 20.7064C144.279 18.7056 143.549 15.3392 143.549 11.8141C143.549 8.2889 144.216 4.95429 145.454 2.89C146.534 1.11154 147.932 0 149.837 0C151.647 0 153.076 0.920989 154.22 2.89C155.363 4.76374 156.093 8.25714 156.093 11.433C156.093 14.7676 155.458 18.3563 154.061 20.6429ZM149.808 0.538652C147.045 0.538652 146.124 4.28613 146.124 11.654C146.124 18.8632 146.886 22.6106 149.808 22.6106C152.602 22.6106 153.428 18.7361 153.428 11.527C153.428 4.28613 152.634 0.538652 149.808 0.538652ZM75.5499 23.1178C71.3896 23.1178 69.1665 18.7987 69.1665 11.8437C69.1665 4.38048 71.9612 0.0295963 75.5499 0.0295963C77.0425 0.0295963 78.0588 1.10938 78.4717 1.99861L79.3609 0.188387H79.7738L79.8373 8.15971H79.3291C78.6622 3.99938 77.6777 0.537728 75.5181 0.537728C72.7869 0.537728 71.7707 4.69806 71.7707 11.5896C71.7707 18.0683 72.5646 21.9745 75.804 21.9745C78.0588 21.9745 79.3609 19.6562 79.9961 16.6074L80.5995 16.7662C80.0278 20.1643 78.5034 23.1178 75.5499 23.1178ZM45.066 22.2316V22.5809H53.0373V22.1998C52.4974 22.041 51.4494 21.4694 51.1 21.2153C50.3696 20.7072 50.2743 20.6119 50.052 19.7227C49.6673 18.216 48.9671 15.3663 48.1025 11.8475L48.1019 11.845L48.1015 11.8436L48.0998 11.8366C47.2519 8.38572 46.2461 4.29241 45.2248 0.191332H44.2085C42.7476 6.35243 41.0644 13.2122 39.6035 18.7699C39.3177 19.8814 38.7778 20.6436 38.3332 21.0883C37.9839 21.4376 36.6183 22.1998 36.2689 22.2316V22.6127H42.9699V22.2316C42.3983 22.1363 40.334 21.2153 40.334 20.3261C40.334 19.5792 40.4255 19.0763 40.5487 18.399L40.5563 18.357C40.6743 17.7476 40.7679 17.3694 40.905 16.8156L40.9051 16.8151L40.9051 16.8149L40.9055 16.8132L40.9056 16.8129L40.9057 16.8126C40.9899 16.4724 41.0905 16.0658 41.2232 15.4988H46.6856L47.6701 19.7544C47.7337 20.0402 47.7972 20.5166 47.7972 20.7389C47.7972 21.3423 45.7329 22.0728 45.066 22.2316ZM41.4483 14.8307L43.9889 4.03293L46.5931 14.8307H41.4483ZM11.9729 0.538652V5.77876H11.6235C11.4012 4.34964 10.0991 1.42788 9.24165 1.23733C8.76528 1.14206 8.25714 1.1103 7.62198 1.1103H5.36714V10.9871H6.95505C8.06659 10.9871 8.54297 10.3837 8.79703 9.97085C9.08286 9.49448 9.4322 7.68426 9.49571 6.82678H9.94033V15.8461H9.49571C9.46396 14.9251 9.01934 12.9561 8.79703 12.5433C8.54297 12.0987 8.03483 11.527 6.95505 11.527H5.36714V20.2605C5.36714 20.8619 5.53183 20.9692 5.90171 21.2101C5.96157 21.2491 6.0268 21.2916 6.09758 21.3403C6.51044 21.5944 7.84429 22.1343 8.44769 22.2613V22.5789H0V22.2613C0.476374 22.166 1.87374 21.5944 2.35011 21.3403L2.42101 21.3027C2.85165 21.0749 3.08055 20.9538 3.08055 20.2605V2.857C3.08055 2.18639 2.87574 2.07168 2.40996 1.81079L2.35011 1.77722C1.90549 1.55492 0.53989 0.983268 0 0.856235V0.538652H11.9729ZM15.4968 1.81274C15.0522 1.59043 13.6866 1.01878 13.1467 0.89175V0.574168H21.6261V0.89175C21.1815 0.987025 19.7206 1.55867 19.276 1.81274C19.227 1.84214 19.1803 1.86919 19.1361 1.89486L19.136 1.89489C18.75 2.1187 18.5456 2.23725 18.5456 2.89252V20.296C18.5456 20.8995 18.7536 21.0349 19.146 21.2905L19.1462 21.2906L19.1466 21.2908L19.1467 21.2909L19.148 21.2918C19.1887 21.3183 19.2314 21.3461 19.276 21.3758C19.6889 21.6299 21.0862 22.1698 21.6261 22.2968V22.6144H13.1467V22.2968C13.5913 22.2015 15.0204 21.6299 15.4968 21.3758L15.5677 21.3382C15.9983 21.1104 16.2272 20.9894 16.2272 20.296V2.89252C16.2272 2.1992 15.9983 2.07813 15.5677 1.85035L15.4968 1.81274ZM34.9334 6.22714C34.9334 4.09933 35.0604 2.70197 35.5686 2.16208C36.2672 1.39988 37.347 1.01878 38.0139 0.89175V0.574168H30.9636V0.89175C31.6305 1.05054 32.8691 1.52692 33.5678 2.2256C33.9806 2.67021 34.203 4.13109 34.203 6.44944V17.5648L26.3587 0.574168H22.0078V0.89175C23.0241 1.20933 24.2626 1.87626 24.7072 2.47966C25.0883 2.98779 25.3106 3.90878 25.3106 5.24263V16.7709C25.3106 19.2798 25.2154 20.296 24.9613 20.7407C24.6755 21.217 22.9605 22.0745 22.2619 22.2968V22.6144H29.2169V22.2968C28.3594 22.0427 26.708 21.1853 26.4222 20.7089C26.1681 20.2643 26.0728 19.2798 26.0728 16.6121V5.30615L34.33 22.8367H34.9334V6.22714ZM65.8023 6.22714C65.8023 4.09933 65.9293 2.70197 66.4375 2.16208C67.1679 1.39988 68.2159 1.01878 68.8829 0.89175V0.574168H61.8325V0.89175C62.4995 1.05054 63.738 1.52692 64.4367 2.2256C64.8496 2.67021 65.0719 4.13109 65.0719 6.44944V17.5648L57.2276 0.574168H52.8767V0.89175C53.893 1.20933 55.1315 1.87626 55.5762 2.47966C55.9573 2.98779 56.1796 3.90878 56.1796 5.24263V16.7709C56.1796 19.2798 56.0843 20.296 55.8302 20.7407C55.5444 21.217 53.8295 22.0745 53.1308 22.2968V22.6144H60.0858V22.2968C59.2284 22.0427 57.5769 21.1853 57.2911 20.7089C57.037 20.2643 56.9418 19.2798 56.9418 16.6121V5.30615L65.1989 22.8367H65.8023V6.22714ZM81.7767 0.89175C82.3166 1.01878 83.6822 1.59043 84.1268 1.81274L84.1962 1.84959C84.6277 2.07786 84.8556 2.19843 84.8255 2.89252V20.296C84.8255 20.9894 84.5966 21.1104 84.1659 21.3382L84.095 21.3758C83.6187 21.6299 82.1895 22.2015 81.7449 22.2968V22.6144H90.2244V22.2968C89.6845 22.1698 88.2871 21.6299 87.8743 21.3758C87.8503 21.3598 87.8269 21.3444 87.804 21.3295L87.7447 21.2907L87.7443 21.2905C87.3518 21.0349 87.1438 20.8995 87.1438 20.296V2.89252C87.1438 2.23725 87.3483 2.1187 87.7343 1.89489C87.7786 1.86922 87.8252 1.84215 87.8743 1.81274C88.3189 1.55867 89.7798 0.987025 90.2244 0.89175V0.574168H81.7767V0.89175ZM99.3718 22.2316V22.5809H107.343V22.1998C106.803 22.041 105.755 21.4694 105.406 21.2153C104.675 20.7072 104.58 20.6119 104.358 19.7227C103.973 18.2164 103.273 15.3678 102.409 11.8503L102.408 11.845L102.407 11.8407C101.559 8.38899 100.552 4.29405 99.5306 0.191332H98.5143C97.0535 6.35243 95.3703 13.2122 93.9094 18.7699C93.5918 19.8814 93.0837 20.6436 92.6391 21.0883C92.2897 21.4376 90.9241 22.1998 90.5748 22.2316V22.6127H97.2758V22.2316C96.7041 22.1363 94.6398 21.2153 94.6398 20.3261C94.6398 19.5792 94.7313 19.0763 94.8545 18.399V18.399L94.8621 18.357C94.9801 17.7476 95.0737 17.3694 95.2108 16.8156L95.2108 16.8156L95.2109 16.8151L95.2109 16.815L95.211 16.8148L95.2115 16.8129C95.2957 16.4726 95.3963 16.066 95.5291 15.4988H100.991L101.976 19.7544C102.039 20.0402 102.103 20.5166 102.103 20.7389C102.103 21.3423 100.039 22.0728 99.3718 22.2316ZM95.7837 14.8307L98.3244 4.03293L100.929 14.8307H95.7837ZM107.884 0.951509C108.424 1.07854 110.044 1.65019 110.425 1.80898C110.965 2.03129 111.187 2.15832 111.187 2.88876V20.3558C111.187 21.0862 110.965 21.2133 110.457 21.4356C110.076 21.5944 108.361 22.1978 107.916 22.293V22.6106H121.35L121.636 16.4178H121.286C120.937 17.5293 119.857 20.2923 119.349 21.1815C118.904 21.9755 118.714 22.0707 115.792 22.0707C113.601 22.0707 113.474 21.9755 113.474 19.0855V2.857C113.474 2.12656 113.696 1.99953 114.204 1.77722C114.585 1.61843 116.3 1.01503 116.745 0.919751V0.538652H107.884V0.951509ZM135.735 12.4793C138.848 12.4793 142.023 10.6691 142.023 6.28648C142.023 2.95187 139.927 0.538242 136.275 0.538242H128.526V0.855824C129.066 0.982857 130.432 1.55451 130.876 1.77681L130.936 1.81038C131.402 2.07126 131.607 2.18598 131.607 2.85659V20.2601C131.607 20.9534 131.378 21.0745 130.947 21.3023L130.876 21.3399C130.4 21.594 129.003 22.1656 128.526 22.2609V22.5785H137.006V22.2609C136.402 22.1338 135.068 21.594 134.655 21.3399C134.585 21.2912 134.519 21.2487 134.46 21.2097C134.09 20.9688 133.925 20.8615 133.925 20.2601V12.4793H135.735ZM133.925 1.11241H135.227C138.434 1.11241 139.45 3.84362 139.45 6.57483C139.45 9.30604 138.18 11.8785 135.195 11.8785H133.925V1.11241ZM163.553 23.0258C161.775 23.0258 160.6 22.073 160.028 21.2791L159.139 22.6129H158.726L158.535 15.372H158.917C159.933 20.2628 161.457 22.5176 163.585 22.5176C165.363 22.5176 166.443 20.9615 166.443 18.4526C166.443 16.7694 165.332 15.0227 164.347 13.9429C163.688 13.2368 162.959 12.5481 162.29 11.9157C162.056 11.6948 161.83 11.4807 161.616 11.2752C160.187 9.87784 158.567 7.84531 158.567 4.98707C158.567 1.55718 160.886 0.15982 163.109 0.15982C164.188 0.15982 165.332 0.69971 166.157 1.74773L167.078 0.572677H167.396V7.17839H167.047C166.157 3.30389 165.236 0.667952 163.14 0.667952C161.616 0.667952 160.536 1.93828 160.536 4.22487C160.536 5.97158 161.394 7.49597 162.41 8.44872C163.267 9.27444 164.315 10.2907 165.078 11.0529L165.258 11.2327C166.835 12.8056 168.603 14.5681 168.603 17.6269C168.571 21.5331 166.03 23.0258 163.553 23.0258ZM181.845 6.31865H182.162V0.538652H169.332V6.31865H169.681C170.92 1.36437 171.015 1.33261 172.603 1.17382C172.984 1.14206 173.429 1.1103 174.128 1.1103H174.604V20.2605C174.604 20.9538 174.375 21.0749 173.944 21.3027C173.921 21.3149 173.898 21.3274 173.874 21.3403C173.334 21.6579 171.968 22.1978 171.523 22.293V22.6106H179.971V22.293C179.431 22.1343 178.034 21.5626 177.621 21.3403C177.573 21.3106 177.528 21.2831 177.486 21.257C177.073 21.0053 176.891 20.8938 176.891 20.2605V1.1103H177.399C178.129 1.1103 178.542 1.14206 178.923 1.17382C180.543 1.33261 180.606 1.39612 181.845 6.31865Z" fill="white"/>
</svg>
