<svg width="89" height="24" viewBox="0 0 89 24" fill="none" xmlns="http://www.w3.org/2000/svg">
<path fill-rule="evenodd" clip-rule="evenodd" d="M49.2455 23.0558C48.6152 22.9919 46.6891 22.6714 46.0163 22.5184L45.5509 22.4126L45.5871 19.9269C45.6746 13.9424 45.6856 10.6754 45.6289 7.49822C45.5735 4.38584 45.5574 4.0568 45.4373 3.59638C45.2852 3.01301 45.0657 2.60615 44.8017 2.41815C44.6992 2.34515 44.4205 2.24166 44.1825 2.18816L44.0694 2.16283C43.6584 2.07103 43.5122 2.03836 43.4561 1.94907C43.4251 1.89973 43.4216 1.83311 43.4162 1.72968L43.4133 1.67805C43.4012 1.47017 43.4237 1.33281 43.4769 1.29069C43.5482 1.23414 50.0367 -0.00348695 50.2434 7.38539e-06C50.3028 0.00102392 50.3112 0.830643 50.2807 3.68628C50.2591 5.71299 50.2563 7.37121 50.2746 7.37121C50.2927 7.37121 50.5298 7.26854 50.8014 7.14307C51.6201 6.76485 52.3746 6.60075 53.4705 6.5625C54.2 6.53708 54.5381 6.55303 54.9124 6.63042C57.3599 7.13684 59.1711 9.14011 59.804 12.0409C59.9691 12.7975 60.0305 14.6783 59.921 15.6202C59.8275 16.4231 59.5609 17.5049 59.2835 18.2068C58.2367 20.8559 55.9909 22.584 53.0114 23.0331C52.3251 23.1365 50.17 23.1495 49.2455 23.0558ZM50.5689 21.939C50.4405 21.9255 50.3031 21.8755 50.2636 21.828C50.1548 21.6967 50.0368 13.0723 50.1094 10.5491L50.167 8.54777L50.6752 8.4012C51.4251 8.18506 52.2324 8.21861 52.8047 8.4899C53.9541 9.03457 54.7091 10.38 55.1012 12.5821C55.229 13.2995 55.21 15.7908 55.0702 16.6774C54.7781 18.5286 54.2466 19.9572 53.5068 20.8803C53.1481 21.3276 52.5525 21.7509 52.0867 21.8893C51.7864 21.9785 51.1423 21.9996 50.5689 21.939ZM21.9547 23.0561C20.4142 22.8318 19.0668 22.1797 18.0378 21.1605C17.1796 20.3103 16.6231 19.3754 16.2129 18.0945C15.5724 16.0944 15.5722 13.5231 16.2123 11.5638C16.8326 9.66512 18.2293 8.01236 19.9387 7.15428C22.3059 5.96595 25.6378 6.0406 27.8303 7.33109C29.8035 8.49248 30.9986 10.5562 31.3312 13.3757C31.4328 14.2365 31.3669 16.0548 31.207 16.8053C30.5524 19.8774 28.6463 22.0234 25.8536 22.8322C25.5527 22.9193 25.086 23.0213 24.8167 23.0587C24.2466 23.1381 22.5065 23.1364 21.9547 23.0561ZM22.8775 21.9179C21.8339 21.4445 21.0939 20.0054 20.723 17.7285C20.4879 16.2851 20.4657 13.0751 20.6799 11.5022C20.9808 9.29339 21.6163 7.98848 22.6059 7.54769C23.2843 7.24552 24.2243 7.4243 24.8287 7.97037C26.1711 9.1831 26.8486 12.6318 26.5562 16.7635C26.3464 19.7285 25.703 21.3366 24.5028 21.8954C24.0677 22.0981 23.2981 22.1087 22.8775 21.9179ZM61.3645 16.9317C62.101 20.2189 64.3552 22.4542 67.5071 23.0226C68.2012 23.1478 69.7766 23.1507 70.4779 23.0279C71.4792 22.8528 72.6341 22.4073 73.3622 21.9154C74.2513 21.3148 75.1629 20.4121 75.1629 20.132C75.1629 19.9611 74.8573 19.5678 74.7246 19.5678C74.6666 19.5678 74.4198 19.6966 74.1762 19.8541C73.3067 20.4162 72.4753 20.6469 71.3191 20.6469C69.7246 20.6469 68.7138 20.2498 67.6977 19.2239C67.2479 18.7698 67.0628 18.5246 66.8302 18.0748C66.3184 17.0853 66.0418 15.9471 66.0003 14.6603L65.9824 14.1048L70.6839 14.0885L75.3853 14.0722L75.4062 13.7545C75.4177 13.5798 75.3949 13.1224 75.3554 12.738C75.0621 9.88307 73.9062 7.91728 71.9416 6.93277C70.1967 6.05835 67.5011 6.12132 65.5295 7.08251C63.6615 7.9932 62.3755 9.51267 61.658 11.6569C61.2843 12.7737 61.1665 13.6725 61.2041 15.1205C61.2279 16.0358 61.2697 16.509 61.3645 16.9317ZM70.5658 11.8457L70.6056 12.6309L69.5003 12.6693C68.8923 12.6904 67.8588 12.7163 67.2036 12.7271L66.0123 12.7463L66.0135 12.4893C66.0141 12.348 66.0545 11.975 66.1033 11.6605C66.5002 9.1019 67.4546 7.56643 68.649 7.5651C69.7479 7.56382 70.4255 9.07694 70.5658 11.8457ZM76.6828 22.313C77.2826 22.5709 79.0841 22.9653 80.216 23.0866C80.3557 23.1016 81.1276 23.1066 81.9313 23.0979C83.3259 23.0826 83.426 23.0731 84.1273 22.89C86.198 22.3491 87.5383 21.1954 88.1321 19.4432C88.3143 18.9057 88.3399 18.7412 88.3661 17.9407C88.401 16.8739 88.3027 16.3197 87.9556 15.6258C87.421 14.5574 86.4379 13.8264 84.3773 12.9654C82.6949 12.2623 81.8503 11.7754 81.3349 11.2114C80.9166 10.7538 80.7943 10.3837 80.8349 9.69924C80.8723 9.06746 81.027 8.69122 81.4232 8.26758C81.9313 7.7245 82.6301 7.53421 83.4667 7.71122C84.8395 8.00163 85.7205 8.95228 86.4788 10.9615C86.7494 11.6782 86.7814 11.7009 87.2677 11.5203L87.5753 11.4061L87.5645 10.5802C87.5586 10.1259 87.5353 9.17217 87.5128 8.46066L87.472 7.16699L87.243 7.07004C85.9875 6.53845 83.5913 6.20738 82.0303 6.34982C80.2576 6.51158 78.9563 7.07436 77.9539 8.11268C76.9578 9.1444 76.5084 10.3552 76.5881 11.7915C76.6541 12.9801 77.0056 13.8334 77.7381 14.5832C78.4171 15.2782 78.9874 15.6068 80.6221 16.2453C83.2607 17.276 83.9591 17.8865 83.9533 19.1572C83.9483 20.2301 83.3795 21.0156 82.3422 21.3816C81.972 21.5124 81.0341 21.5113 80.5339 21.3794C79.2227 21.0339 78.2188 19.898 77.3628 17.7912L77.1434 17.2512L76.8859 17.2631C76.7443 17.2698 76.5494 17.313 76.4528 17.3593L76.2772 17.4435L76.2936 18.3639C76.3026 18.8701 76.3279 19.9375 76.3499 20.7358L76.3899 22.1872L76.6828 22.313ZM0.0844359 22.7027C0.0316396 22.6813 0.00501914 22.523 0.00501914 22.2299C0.00501914 22.2131 0.00498513 22.1969 0.00495225 22.1812C0.004583 22.0051 0.00435489 21.8963 0.0539896 21.8198C0.134213 21.6963 0.344694 21.6574 0.895371 21.5556C0.925793 21.5499 0.957253 21.5441 0.989787 21.5381C1.77087 21.3932 2.05022 21.245 2.39515 20.7928C3.06383 19.916 3.20837 18.2279 3.2099 11.277C3.2113 4.74919 3.0855 3.37598 2.39394 2.36707C2.08707 1.91948 1.56997 1.6764 0.703823 1.57271L0.0367223 1.49285L0.0184247 0.972005L0 0.451222L0.209025 0.413992C0.32402 0.393534 4.36265 0.384893 9.18388 0.394741L17.9498 0.412784L17.9908 0.666918C18.0134 0.806691 18.0505 2.24039 18.0733 3.85286L18.1146 6.78468L17.6627 6.92197L17.6542 6.92454C17.3421 7.01933 17.1756 7.06991 17.0562 7.01604C16.9196 6.95443 16.8447 6.75619 16.6841 6.3312L16.6804 6.32133C15.9286 4.33222 15.0666 3.18608 13.8871 2.60729C13.0735 2.20811 12.6974 2.15989 10.4 2.15989H8.40058L8.36608 2.49344C8.3014 3.11893 8.19943 7.14256 8.20013 9.03738L8.20083 10.9275L8.78851 10.9241C9.11177 10.9223 9.74914 10.8985 10.2049 10.8713C10.89 10.8303 11.0936 10.794 11.3803 10.6612C12.0846 10.3352 12.5637 9.61763 12.8573 8.44925L13.0088 7.84606L13.5273 7.82758L14.0459 7.80909V15.4435L13.5271 15.425L13.0084 15.4065L12.8611 14.8029C12.5845 13.6688 12.052 12.857 11.3941 12.566C11.0902 12.4316 10.3383 12.3552 8.88381 12.3109L8.20083 12.2901V13.7242C8.20083 15.2868 8.28679 17.4009 8.39689 18.5483C8.55039 20.1478 8.95916 21.0315 9.69316 21.3514C9.83332 21.4125 10.2768 21.5116 10.6786 21.5718C11.0805 21.632 11.4593 21.7071 11.5204 21.7387C11.6755 21.8188 11.6847 22.6472 11.5312 22.706C11.411 22.7523 0.198923 22.7488 0.0844359 22.7027ZM31.3374 22.2008C31.3241 22.509 31.343 22.6556 31.4009 22.6924C31.4464 22.7214 33.5992 22.7382 36.1851 22.7298L40.8866 22.7146L40.9052 22.2223C40.9153 21.9515 40.9011 21.7299 40.8734 21.7299C40.5082 21.7295 39.3891 21.5761 39.2122 21.5023C38.6821 21.2808 38.4253 20.8051 38.3146 19.839C38.1846 18.7049 38.1076 15.8852 38.1434 13.5735C38.1796 11.2392 38.1803 11.2298 38.3261 11.0735C38.6667 10.7081 39.5297 10.4235 40.3023 10.4219C40.9226 10.4205 41.5616 10.5803 42.2429 10.9072C42.5695 11.064 42.8707 11.1791 42.9122 11.1633C42.9972 11.1307 44.5398 7.05487 44.5398 6.86274C44.5398 6.57697 43.6645 6.29132 42.789 6.29132C42.0508 6.29132 41.6521 6.37303 41.0545 6.64692C39.966 7.14572 39.1474 7.96289 38.4175 9.27917L38.1895 9.69036L38.2188 8.95973C38.235 8.55788 38.262 7.80736 38.2789 7.29197L38.3097 6.35486H38.1528C37.9517 6.35486 31.6577 7.61295 31.4677 7.69109C31.3438 7.74204 31.3247 7.79675 31.3247 8.09948C31.3247 8.41086 31.3403 8.45235 31.4677 8.47884C31.5462 8.49523 31.8353 8.55178 32.11 8.60451C32.6667 8.71137 32.8321 8.79772 33.0615 9.10147C33.4848 9.66183 33.572 10.6505 33.5674 14.8366C33.5637 18.2595 33.4923 19.964 33.3303 20.4967C33.1313 21.1508 32.7778 21.4846 32.1626 21.5996C31.9638 21.6367 31.7011 21.6884 31.5788 21.7145L31.3565 21.7618L31.3374 22.2008Z" fill="white"/>
</svg>
