<svg width="116" height="24" viewBox="0 0 116 24" fill="none" xmlns="http://www.w3.org/2000/svg">
<path fill-rule="evenodd" clip-rule="evenodd" d="M17.5029 0.118862C17.4997 0.0792404 17.4965 0.0396202 17.494 0H14.6113C14.6093 0.0212295 14.6067 0.0424648 14.6041 0.0637004V0.0637039V0.0637073V0.0637108V0.0637142V0.0637176V0.0637211L14.6041 0.0637411C14.5986 0.109077 14.593 0.154413 14.593 0.199696L14.5926 4.43541C14.5923 8.67043 14.5919 12.9055 14.5883 17.1405C14.5881 17.3758 14.6628 17.4602 14.9018 17.4564C15.4103 17.4484 15.919 17.4499 16.4277 17.4514C16.6395 17.452 16.8514 17.4526 17.0632 17.4525C17.517 17.4524 17.5175 17.452 17.5175 16.9959C17.5177 11.4545 17.5178 5.91302 17.5167 0.37159C17.5166 0.287327 17.5098 0.20309 17.5029 0.118862ZM70.7646 11.6493C70.7617 13.6335 72.1535 15.0389 74.0934 15.0712C75.9022 15.1014 77.4617 13.7707 77.4679 11.6561C77.4741 9.57766 75.9195 8.2107 74.1284 8.23205C72.1681 8.25541 70.7675 9.65374 70.7646 11.6493ZM70.822 0C70.8239 0.0421574 70.8264 0.084309 70.8289 0.126457C70.8344 0.218044 70.8398 0.309612 70.8399 0.401181C70.8403 1.22774 70.8404 2.0543 70.8406 2.88086C70.8408 4.22079 70.841 5.56072 70.8424 6.90065C70.8425 6.92857 70.8404 6.95693 70.8383 6.9854L70.8383 6.98572C70.8322 7.06948 70.826 7.15414 70.8727 7.23117C70.9366 7.23913 70.9659 7.20099 70.9937 7.16487C71.0001 7.1565 71.0064 7.14823 71.0131 7.14067C71.8887 6.15199 73.0149 5.67121 74.3075 5.57609C75.8789 5.46044 77.2983 5.86652 78.4838 6.93855C79.5128 7.86908 80.1021 9.05013 80.3235 10.4027C80.5739 11.9318 80.4343 13.4252 79.7023 14.8184C78.8222 16.4939 77.4209 17.4369 75.545 17.686C74.4858 17.8267 73.458 17.7276 72.4748 17.2893C71.7735 16.9767 71.2163 16.4892 70.7151 15.8699L70.7151 16.1292L70.715 16.7861C70.715 16.8303 70.7143 16.8744 70.7137 16.9186C70.7124 17.0087 70.7111 17.0988 70.7149 17.1887C70.7231 17.3877 70.6287 17.4562 70.4353 17.4547C69.6765 17.4486 68.9176 17.4474 68.1588 17.4553C67.9469 17.4575 67.8562 17.3764 67.8712 17.1685C67.874 17.1303 67.8731 17.092 67.8721 17.0536C67.8717 17.0344 67.8712 17.0152 67.8712 16.996C67.8712 11.436 67.8711 5.87598 67.8716 0.315984C67.8716 0.243851 67.8747 0.171718 67.8777 0.0995843C67.8791 0.0663896 67.8805 0.0331948 67.8817 0H70.822ZM109.187 8.24443C107.176 8.24091 105.79 9.59725 105.784 11.5761C105.778 13.459 107.249 14.9382 109.135 14.9448C111.138 14.9517 112.547 13.5796 112.551 11.6194C112.556 9.57845 111.229 8.248 109.187 8.24443ZM115.335 17.5513C115.207 18.3755 115.054 19.1923 114.705 19.9594C113.94 21.6396 112.63 22.7261 110.836 22.9852C109.413 23.1909 107.932 23.1413 106.495 22.9906C105.279 22.8632 104.197 22.2733 103.243 21.4855C103.065 21.339 103.065 21.2376 103.196 21.0642C103.68 20.4207 104.158 19.7717 104.625 19.1152C104.762 18.9232 104.858 18.9212 105.028 19.0747C105.85 19.8174 106.791 20.3468 107.901 20.496C109.052 20.6507 110.189 20.6177 111.189 19.9112C111.85 19.4446 112.138 18.7522 112.293 17.9902C112.401 17.4621 112.396 16.9304 112.39 16.4033V16.4027V16.402V16.4014V16.4007V16.4001C112.389 16.2977 112.388 16.1955 112.388 16.0935C112.303 16.0711 112.272 16.1056 112.244 16.1367L112.235 16.1468C111.389 17.0449 110.326 17.4662 109.117 17.5732C105.923 17.8558 103.3 15.7653 102.885 12.5547C102.638 10.6439 103.027 8.86881 104.314 7.36733C105.183 6.35334 106.318 5.81199 107.628 5.62567C108.613 5.48568 109.581 5.54803 110.519 5.90578C111.264 6.1901 111.882 6.644 112.361 7.2837C112.389 7.32151 112.418 7.35855 112.461 7.41295L112.462 7.41404C112.487 7.44497 112.516 7.48151 112.551 7.52694C112.551 7.37568 112.552 7.23163 112.553 7.0926C112.555 6.77812 112.557 6.48935 112.547 6.201C112.538 5.94656 112.613 5.84146 112.887 5.84821C113.474 5.86269 114.061 5.86509 114.648 5.86748C114.877 5.86841 115.106 5.86935 115.335 5.871V17.5513ZM3.09847 5.15564C3.09847 5.32956 3.09908 5.50349 3.0997 5.67742C3.10126 6.11684 3.10282 6.55625 3.09443 6.99547C3.0901 7.21987 3.16358 7.29698 3.39133 7.29433C3.77367 7.28993 4.15611 7.29123 4.53853 7.29254H4.53862H4.53863H4.53864H4.53866H4.53867H4.53868C5.06851 7.29435 5.5983 7.29616 6.12774 7.28279C6.73481 7.26751 7.32901 7.15349 7.86774 6.84304C8.5751 6.4354 8.86802 5.80688 8.82361 5.01497C8.78156 4.26419 8.43103 3.70845 7.72771 3.39361C7.42729 3.25912 7.1147 3.16828 6.7904 3.12641C6.01816 3.02681 5.24312 3.03578 4.46806 3.04476C4.09154 3.04911 3.71501 3.05347 3.33879 3.04538C3.14512 3.04123 3.09535 3.1421 3.09679 3.31575C3.10057 3.77168 3.09981 4.22767 3.09906 4.68365L3.09906 4.68425V4.68426V4.68426V4.68427V4.68427C3.0988 4.8414 3.09854 4.99852 3.09847 5.15564ZM3.10058 12.9453V12.9453V12.9453C3.10233 13.4476 3.10408 13.9498 3.09447 14.4519C3.08974 14.6977 3.1596 14.7907 3.41836 14.7869C4.087 14.7771 4.75574 14.7766 5.42449 14.7761C5.74457 14.7758 6.06466 14.7756 6.38473 14.7743C6.88686 14.7723 7.37756 14.6889 7.85788 14.5474C8.95609 14.2237 9.48071 13.5627 9.54734 12.4268C9.61546 11.2661 9.10047 10.5286 7.98836 10.1898C7.56341 10.0604 7.12456 9.99035 6.68577 9.98187C6.02769 9.96915 5.36941 9.96951 4.7111 9.96986C4.26533 9.97011 3.81956 9.97035 3.37383 9.96653C3.15544 9.96468 3.09332 10.049 3.09591 10.2554C3.10234 10.765 3.10121 11.2746 3.10008 11.7842C3.09966 11.974 3.09923 12.1638 3.0992 12.3537C3.0992 12.5508 3.09989 12.748 3.10058 12.9452V12.9452V12.9453V12.9453V12.9453ZM9.03219 8.42683C9.83986 8.55834 10.5388 8.82795 11.1373 9.31848C12.225 10.21 12.7015 11.3848 12.6581 12.764C12.6065 14.4062 11.9051 15.6897 10.448 16.5198C9.76424 16.9092 9.024 17.1366 8.2551 17.2786C7.51705 17.4149 6.77208 17.4603 6.02123 17.4571C4.13871 17.4489 2.25602 17.4486 0.373497 17.4604C0.081105 17.4622 -0.000227057 17.3743 0.00017672 17.0854C0.00796384 11.6405 0.0080792 6.19567 1.82897e-06 0.750864C-0.000457786 0.458761 0.0856042 0.377544 0.374881 0.378986C1.37416 0.383983 2.37347 0.383459 3.37277 0.382936H3.37277H3.37277C4.61149 0.382287 5.8502 0.381638 7.08882 0.391503C8.12179 0.399752 9.10937 0.647671 10.0022 1.17991C11.3438 1.97956 11.9463 3.18442 11.9265 4.73325C11.9081 6.16245 11.2817 7.22403 10.0661 7.95827C9.7635 8.14103 9.4364 8.26886 9.06719 8.41315L9.03219 8.42683ZM54.7168 5.60355C52.993 5.39451 51.3907 5.88729 50.4328 7.60386C50.4328 7.44375 50.4321 7.29033 50.4315 7.1416V7.14131C50.4299 6.7944 50.4285 6.47302 50.4361 6.15183C50.4413 5.93223 50.3685 5.84334 50.139 5.84646C49.3993 5.85638 48.6594 5.85655 47.9197 5.84634C47.6879 5.84317 47.6255 5.93638 47.6257 6.15338C47.6301 9.81627 47.6305 13.4792 47.6249 17.1421C47.6246 17.381 47.707 17.4584 47.9421 17.455C48.4606 17.4473 48.9791 17.4487 49.4977 17.4501C49.7094 17.4506 49.921 17.4512 50.1327 17.4512C50.5954 17.451 50.5958 17.4507 50.5962 16.9967C50.5968 16.4045 50.5969 15.8122 50.597 15.22C50.5971 13.7507 50.5973 12.2814 50.6056 10.8121C50.609 10.194 50.7945 9.62055 51.1769 9.12547C51.7435 8.39175 52.5312 8.20537 53.4085 8.24131C54.127 8.27079 54.6943 8.67456 54.9438 9.34824C55.0925 9.74959 55.1312 10.1656 55.1305 10.5909C55.1289 11.4721 55.129 12.3532 55.129 13.2343C55.1291 14.5203 55.1292 15.8062 55.1242 17.0921C55.1231 17.3641 55.2034 17.4626 55.4842 17.4566C56.2332 17.4407 56.9832 17.4385 57.7321 17.4574C58.0306 17.4651 58.1057 17.3595 58.1042 17.0762C58.0976 15.8512 58.0979 14.6261 58.0981 13.4011C58.0983 12.7084 58.0984 12.0157 58.0974 11.323C58.097 11.0155 58.1087 10.7102 58.1606 10.4071C58.3786 9.13619 59.1828 8.15825 60.7024 8.23618C61.599 8.28215 62.2266 8.72919 62.4872 9.59471C62.57 9.8698 62.6254 10.1515 62.6257 10.4424C62.6274 12.6478 62.6312 14.8531 62.6353 17.0586C62.636 17.4444 62.6427 17.4504 63.017 17.4509C63.7473 17.452 64.4774 17.4519 65.2076 17.4509C65.5962 17.4505 65.5973 17.4493 65.5974 17.0468C65.5975 16.3892 65.5972 15.7316 65.597 15.074C65.5964 13.4879 65.5958 11.9017 65.5995 10.3155C65.6006 9.86265 65.5572 9.4163 65.4735 8.97324C65.2879 7.98935 64.938 7.07376 64.1292 6.43562C62.7825 5.37323 61.2608 5.35881 59.7021 5.84115C58.8521 6.10418 58.2391 6.69975 57.7522 7.42943C57.7428 7.44358 57.7335 7.4593 57.7243 7.47507C57.6705 7.56669 57.6156 7.66004 57.5137 7.45822C56.9346 6.31189 55.9639 5.7548 54.7168 5.60355ZM39.6036 15.065C41.5375 15.0655 42.9621 13.6215 42.9619 11.6608C42.9616 9.69053 41.5466 8.243 39.6183 8.24052C37.667 8.23798 36.2492 9.67848 36.2495 11.661C36.2498 13.6125 37.7178 15.1267 39.6036 15.065ZM39.6067 17.7454C37.3864 17.6899 35.5041 16.9276 34.2523 15.0162C32.1375 11.7872 33.3908 6.59886 38.2846 5.68483C40.1244 5.34121 41.8659 5.63522 43.4235 6.71232C44.8903 7.72673 45.6877 9.15148 45.8832 10.9168C46.065 12.5576 45.7176 14.0666 44.7005 15.3833C43.6552 16.7366 42.2363 17.4491 40.5576 17.6821C40.243 17.7257 39.9282 17.7521 39.6067 17.7454ZM29.067 11.6467C29.0685 13.6251 27.6666 15.0617 25.7314 15.0649C23.7909 15.068 22.3586 13.6302 22.3544 11.675C22.3502 9.6933 23.7728 8.24034 25.7171 8.24051C27.6546 8.24063 29.0656 9.67536 29.067 11.6467ZM21.2959 16.1165C22.5419 17.248 24.0401 17.7212 25.7021 17.7365C25.7489 17.7365 25.7958 17.7371 25.8427 17.7378C25.9496 17.7392 26.0565 17.7406 26.163 17.7346C26.2754 17.7282 26.3873 17.7139 26.4991 17.6995C26.5395 17.6943 26.5798 17.6891 26.6202 17.6843C28.0182 17.5182 29.258 16.9887 30.2629 15.9991C31.7023 14.5815 32.2237 12.8307 31.9832 10.8519C31.7167 8.6585 30.5555 7.08591 28.5544 6.1537C27.3597 5.59713 26.0893 5.44629 24.7854 5.62205C22.9316 5.87187 21.4136 6.70099 20.3683 8.27987C19.5539 9.51001 19.2825 10.8782 19.4323 12.3392C19.5853 13.8304 20.1814 15.1047 21.2959 16.1165ZM87.5597 10.4578C87.7975 10.4578 88.0352 10.4573 88.273 10.4569C88.9086 10.4558 89.5442 10.4546 90.1797 10.4617C90.4079 10.4642 90.4952 10.3872 90.4686 10.161C90.421 9.75652 90.3139 9.37173 90.0985 9.0239C89.6264 8.26135 88.903 7.94386 88.0415 7.82223C86.4018 7.59079 85.0347 8.52665 84.6987 10.1371C84.648 10.3805 84.7173 10.4645 84.9686 10.4616C85.5944 10.4544 86.2204 10.4556 86.8463 10.4568C87.0841 10.4573 87.3219 10.4578 87.5597 10.4578ZM89.0395 12.7107L87.896 12.7106H87.8933C86.9403 12.7105 85.9873 12.7104 85.0343 12.7113C84.6671 12.7116 84.634 12.7575 84.7222 13.1157C85.0455 14.4278 86.1604 15.2992 87.5172 15.3569C88.7693 15.4101 89.7862 14.9588 90.6008 14.0324C90.7634 13.8473 90.8702 13.8264 91.0674 13.983C91.6083 14.4125 92.1625 14.8258 92.7208 15.2328C92.8999 15.3632 92.9013 15.4562 92.7578 15.6179C91.2624 17.301 89.3765 17.9396 87.1687 17.6899C85.2528 17.4733 83.6994 16.6163 82.624 14.9921C82.0353 14.1032 81.7506 13.1099 81.6939 12.041C81.6096 10.4545 81.9967 9.01732 83.0135 7.78344C84.0647 6.50774 85.4527 5.8336 87.0791 5.62047C88.1647 5.47822 89.2266 5.56123 90.2426 5.99038C91.6076 6.56703 92.4725 7.60837 92.9845 8.97192C93.4107 10.1069 93.4748 11.287 93.4458 12.4814C93.4402 12.7086 93.2964 12.7089 93.1464 12.7092L93.1313 12.7092C92.6392 12.7109 92.1471 12.7108 91.655 12.7107L91.1719 12.7107L89.0395 12.7107ZM100.507 5.72422C99.5076 6.01909 98.7754 6.64662 98.2283 7.53625C98.2283 7.40393 98.2274 7.27158 98.2265 7.13924C98.2245 6.82141 98.2224 6.50359 98.2322 6.18614C98.2398 5.94382 98.1691 5.84276 97.9083 5.84726C97.1307 5.86087 96.3525 5.85851 95.5748 5.8483C95.3397 5.84518 95.2535 5.9238 95.2538 6.16243C95.2587 9.82365 95.2588 13.4849 95.2537 17.1461C95.2534 17.3876 95.3458 17.46 95.5772 17.4569C96.0946 17.4499 96.612 17.4511 97.1295 17.4524C97.3515 17.4529 97.5736 17.4534 97.7956 17.4533C98.2272 17.4531 98.2281 17.4525 98.2283 17.0313C98.2284 16.4068 98.2281 15.7823 98.2278 15.1577C98.2271 13.8558 98.2264 12.5539 98.2302 11.252C98.2341 9.95245 99.0648 8.8453 100.279 8.50261C100.991 8.30153 101.703 8.34761 102.41 8.52741C102.645 8.58711 102.736 8.53664 102.732 8.27517C102.718 7.51826 102.722 6.76089 102.73 6.00381C102.731 5.80815 102.664 5.71476 102.468 5.66573C101.806 5.50099 101.154 5.53347 100.507 5.72422Z" fill="white"/>
</svg>
