<svg width="70" height="24" viewBox="0 0 70 24" fill="none" xmlns="http://www.w3.org/2000/svg">
<path fill-rule="evenodd" clip-rule="evenodd" d="M18.8724 13.7658C17.5098 13.5359 17.0833 12.5361 17.0978 11.7334C17.1135 10.8769 17.7075 10.1025 18.5309 9.86524C19.3285 9.63536 20.2121 9.96395 20.7044 10.6426C20.8728 10.875 21.0557 11.2453 21.0557 11.2453C21.0557 11.2453 22.0799 11.272 22.5067 11.272C22.4857 9.68207 20.8611 8.26256 19.1355 8.24468C17.2421 8.22504 15.6601 9.70313 15.5722 11.574C15.4792 13.5527 16.9253 15.1541 18.9242 15.2859C20.6065 15.3967 22.3287 14.0667 22.479 12.4732C22.2178 12.4972 20.99 12.469 20.99 12.469C20.99 12.469 20.5139 13.9791 18.8724 13.7658ZM7.7125 15.2423C7.7125 15.2423 7.71438 12.8519 7.71215 11.7065C7.70768 9.42686 5.95783 7.82794 3.67963 8.01982C1.99896 8.16135 0.6291 9.60803 0.53922 11.3364C0.444398 13.1606 1.62955 14.8162 3.33176 15.0438C5.2996 15.307 5.921 14.5236 5.921 14.5236V15.2426L7.7125 15.2423ZM9.69168 8.55155C9.69168 8.11603 9.69109 6.29571 9.69109 6.29571H7.96418C7.96418 6.29571 7.9656 10.2116 8.02171 11.9284C8.07018 13.4156 9.1704 14.7441 10.5899 15.1527C12.3533 15.6602 14.2094 14.8476 14.9185 13.2575C15.7295 11.4391 15.1846 9.58224 13.5311 8.57026C12.3062 7.82062 11.0532 7.86745 9.69168 8.55155ZM23.1762 11.6351C23.0949 18.1332 17.8683 23.2109 11.3558 23.1188C5.00639 23.0289 -0.0745817 17.7599 0.000828667 11.3439C0.0751803 5.01956 5.37767 -0.0798745 11.7953 0.000947622C18.0952 0.080358 23.2548 5.35485 23.1762 11.6351ZM47.2912 5.53044H50.8533C50.8292 5.57422 50.8121 5.61219 50.7981 5.64324C50.7749 5.69463 50.7603 5.72706 50.7369 5.73549C49.9961 6.00443 49.9181 6.09854 50.1801 6.82053C50.8063 8.54693 51.4497 10.267 52.0932 11.9871C52.2708 12.462 52.4485 12.9369 52.6257 13.4119C52.6457 13.4658 52.6791 13.5148 52.7243 13.5809C52.7495 13.6179 52.7784 13.6602 52.8107 13.7118C52.9174 13.4274 53.0232 13.1464 53.128 12.8681L53.129 12.8654L53.1293 12.8647C53.4916 11.9024 53.842 10.9714 54.1806 10.0361C54.2269 9.90801 54.1837 9.72871 54.1359 9.58883C53.9022 8.90532 53.6672 8.22157 53.4056 7.54828C53.372 7.46198 53.3397 7.37441 53.3073 7.28676L53.3073 7.28671C53.0225 6.51573 52.7351 5.73764 51.5912 5.74726C51.6217 5.68643 51.6521 5.62561 51.6826 5.56467H56.1445L56.1684 5.6949C56.1168 5.70304 56.0653 5.71243 56.0138 5.72181C55.9022 5.74216 55.7906 5.76251 55.678 5.77008C54.8477 5.82596 54.6983 6.00349 54.9732 6.80218C55.4131 8.07964 55.873 9.35027 56.333 10.6209L56.3332 10.6214C56.4913 11.0582 56.6494 11.495 56.8067 11.9321C57.0141 12.5083 57.2286 13.0821 57.5838 13.6538C57.6696 13.4067 57.7562 13.1598 57.8428 12.9129L57.8438 12.9103C58.0378 12.357 58.2319 11.8036 58.4181 11.2477C58.8273 10.0259 59.234 8.80308 59.6247 7.57534C60.0585 6.21195 60.0047 6.11066 58.7391 5.56232H61.4363C61.3578 5.66793 61.2742 5.76953 61.1912 5.87028L61.1912 5.87037C61.0088 6.09192 60.8298 6.30942 60.7156 6.55677C60.4824 7.06137 60.3037 7.592 60.1255 8.12132C60.0917 8.22163 60.0579 8.32189 60.0238 8.42191C59.7295 9.28509 59.4364 10.1487 59.1434 11.0123L59.1422 11.0157L59.1421 11.0159L59.1421 11.0161L59.142 11.0164L59.1419 11.0166L59.1418 11.0168C58.5568 12.7409 57.9718 14.4649 57.3762 16.1853C57.3341 16.307 57.2174 16.4029 57.1007 16.4988C57.0465 16.5434 56.9923 16.588 56.9455 16.6352C56.9005 16.5845 56.8492 16.5361 56.798 16.4878C56.6874 16.3835 56.5769 16.2792 56.529 16.1514C56.1683 15.1897 55.8193 14.2236 55.4703 13.2574L55.4701 13.2571L55.4698 13.256L55.4694 13.255L55.469 13.254L55.4687 13.2532C55.2808 12.733 55.0929 12.2127 54.9031 11.6931C54.8477 11.5415 54.778 11.3951 54.6934 11.2177L54.6934 11.2175L54.6933 11.2174L54.6933 11.2173L54.6927 11.2162C54.6488 11.1241 54.601 11.0236 54.5491 10.9098L52.9563 15.127C52.9154 15.2354 52.8766 15.3449 52.8378 15.4543L52.8377 15.4545L52.8377 15.4546L52.8376 15.4548L52.8376 15.4548C52.7456 15.7143 52.6536 15.9736 52.5337 16.2195C52.4535 16.3842 52.2668 16.6018 52.1266 16.6032C51.9868 16.6045 51.778 16.3907 51.7147 16.227C51.3355 15.2456 50.9701 14.259 50.6048 13.2724L50.6045 13.2718C50.4477 12.8484 50.2909 12.425 50.1331 12.0021C49.9728 11.5727 49.814 11.1428 49.6551 10.7129L49.6548 10.7121L49.6545 10.7113L49.6541 10.7102C49.1767 9.41854 48.6993 8.12683 48.1853 6.84994C48.0562 6.5293 47.8354 6.24553 47.6075 5.95277C47.5007 5.81554 47.3924 5.67634 47.2912 5.53044ZM35.214 11.1985V13.1738C35.1335 13.0993 35.065 13.038 35.005 12.9843L35.005 12.9843C34.8973 12.8878 34.8171 12.816 34.7444 12.7371C34.185 12.1289 33.626 11.5203 33.067 10.9116L33.0653 10.9098L33.0644 10.9088L33.063 10.9073C31.4954 9.20044 29.9278 7.49362 28.3498 5.79649C28.1895 5.62403 27.8988 5.49474 27.6626 5.4845C26.9843 5.4551 26.3044 5.4631 25.6246 5.47109L25.6245 5.47109L25.6244 5.47109L25.6243 5.47109L25.6242 5.47109C25.4635 5.47298 25.3029 5.47487 25.1423 5.47627C25.0274 5.47723 24.9127 5.49506 24.798 5.51288C24.7454 5.52106 24.6927 5.52924 24.64 5.53579L24.6419 5.70508C24.6913 5.71458 24.7408 5.72355 24.7903 5.73252C24.899 5.75221 25.0076 5.7719 25.115 5.7972C25.7753 5.95261 26.3249 6.47248 26.3256 6.96412V6.9652C26.3299 9.64209 26.3341 12.319 26.3241 14.9959C26.3212 15.7847 26.1414 15.9698 25.361 16.1476C25.2357 16.1761 25.1131 16.2164 24.9905 16.2567L24.9904 16.2567L24.9904 16.2567L24.9904 16.2567L24.9903 16.2567L24.9902 16.2568C24.9345 16.2751 24.8788 16.2933 24.8228 16.3105L24.8613 16.4229H28.9023L28.915 16.2576C28.8582 16.2514 28.8014 16.2447 28.7447 16.2381C28.6233 16.2238 28.502 16.2096 28.3803 16.1996C27.5602 16.1321 27.2485 15.8697 27.1086 15.0897C27.0641 14.8415 27.0555 14.5843 27.055 14.3313C27.052 12.762 27.0524 11.1928 27.0527 9.62364L27.0529 8.11751V7.50917C27.1158 7.53947 27.1636 7.55973 27.2006 7.57541C27.2584 7.59992 27.2898 7.61322 27.3108 7.63611C28.2214 8.62621 29.1315 9.61673 30.0417 10.6073C31.762 12.4796 33.4824 14.3519 35.206 16.2214C35.3172 16.3421 35.4546 16.4387 35.5921 16.5353L35.5922 16.5354L35.5923 16.5354C35.6561 16.5803 35.72 16.6252 35.7812 16.6725L35.9272 16.5634V15.9925L35.9273 13.4637C35.9275 11.3949 35.9277 9.32608 35.9263 7.25729C35.9255 6.08073 35.9377 6.06096 37.0725 5.73414C37.0876 5.72972 37.0976 5.70746 37.1167 5.66443C37.1292 5.63645 37.1456 5.59968 37.1699 5.55332H33.3665C33.3906 5.59109 33.4077 5.62239 33.4212 5.64693C33.4428 5.68629 33.4548 5.70827 33.4708 5.71167C33.6022 5.73967 33.7357 5.76285 33.8696 5.7732C34.8976 5.85273 35.2078 6.17719 35.2124 7.21188C35.2166 8.14429 35.2156 9.07669 35.2147 10.0091C35.2143 10.4056 35.214 10.802 35.214 11.1985ZM45.893 7.79827L45.893 7.79823L45.893 7.7982C45.8672 7.75317 45.8414 7.70813 45.8395 7.66209C45.7925 6.57564 44.9847 6.07753 43.8242 6.09365C43.1199 6.10341 42.4148 6.10541 41.7106 6.09271C41.4104 6.08729 41.286 6.19835 41.288 6.50082C41.2907 6.89274 41.2903 7.28471 41.29 7.67666C41.2892 8.43797 41.2885 9.1992 41.3102 9.95981C41.3142 10.1016 41.5599 10.3452 41.7066 10.3555C42.3256 10.3986 42.9496 10.3833 43.5712 10.3681L43.5841 10.3678C44.2469 10.3516 44.7572 10.0962 44.9786 9.41665C45.0153 9.30394 45.1107 9.21018 45.294 9.13748V12.4013C44.7307 10.8784 43.6402 10.9265 42.5226 10.9758C42.1167 10.9937 41.7072 11.0118 41.3182 10.9549C41.3117 11.0677 41.3044 11.1738 41.2973 11.2755L41.2973 11.2756C41.2828 11.4835 41.2697 11.6727 41.2687 11.862L41.2672 12.1612C41.2625 13.0387 41.2578 13.9164 41.2731 14.7937C41.2866 15.5639 41.5289 15.8048 42.306 15.8217C42.9902 15.8365 43.6754 15.8217 44.3599 15.8032C45.3202 15.7774 46.0228 15.3111 46.5268 14.5108C46.5812 14.4244 46.6555 14.3506 46.7298 14.2767L46.7299 14.2767C46.764 14.2428 46.7981 14.2089 46.8303 14.1737L46.8919 14.2087L46.9929 14.2659C46.9406 14.4261 46.8888 14.5865 46.837 14.7469C46.6652 15.2793 46.4933 15.8116 46.3035 16.3376C46.274 16.4195 46.0804 16.4856 45.9625 16.486C43.3206 16.495 40.6785 16.494 38.0365 16.491C37.997 16.4909 37.9577 16.475 37.8786 16.4429L37.8785 16.4429C37.8263 16.4217 37.7568 16.3935 37.6586 16.3583C37.7686 16.3279 37.8553 16.3017 37.9274 16.2799C38.051 16.2426 38.1319 16.2181 38.2146 16.2077C39.0627 16.1014 39.2508 15.9071 39.2587 15.0403C39.2663 14.2064 39.265 13.3724 39.2637 12.5384L39.2637 12.5327C39.2631 12.1764 39.2625 11.8202 39.2627 11.4639L39.2631 10.1887V10.1827C39.2633 9.18304 39.2636 8.18339 39.2657 7.18375C39.2682 5.98765 39.199 5.90718 38.0229 5.76142C37.9729 5.75518 37.9273 5.71342 37.8865 5.57048H46.0555V7.83985L45.9263 7.86067C45.9168 7.83983 45.9049 7.81907 45.893 7.79831L45.893 7.79827ZM61.5777 14.1244L61.5777 14.1244L61.5776 14.1243C61.5459 14.0839 61.5142 14.0434 61.4845 14.0019L61.3153 14.0628C61.3443 14.2107 61.373 14.3586 61.4018 14.5066C61.5218 15.1245 61.6419 15.7425 61.7793 16.3566C61.7912 16.4103 62.0004 16.4448 62.118 16.4455C62.2573 16.4462 62.398 16.4363 62.5384 16.4265C62.7814 16.4094 63.0238 16.3923 63.2578 16.4303C64.3853 16.6128 65.5111 16.7497 66.6336 16.4572C67.816 16.149 68.7418 15.4814 69.1193 14.2825C69.4856 13.119 69.2933 12.0163 68.3518 11.1689C67.8927 10.7558 67.3556 10.4151 66.8156 10.1085C66.4224 9.88522 66.018 9.68104 65.6136 9.47694C65.0762 9.20567 64.5391 8.93452 64.0292 8.61887C63.0333 8.00241 63.0533 6.77513 64.0039 6.14915C65.3648 5.25269 67.674 5.92691 68.3208 7.4083C68.3636 7.50621 68.4123 7.60165 68.4609 7.69706C68.4834 7.74128 68.506 7.78549 68.5279 7.82994L68.6082 7.78712V5.61833C68.4472 5.60864 68.2975 5.59985 68.1554 5.59152L68.1519 5.59131L68.1516 5.59129L68.1515 5.59128C67.8521 5.57372 67.5869 5.55816 67.3218 5.54033C67.0099 5.51941 66.6969 5.4861 66.3839 5.45279C65.6868 5.37859 64.9897 5.3044 64.3053 5.36716C63.1394 5.4741 62.2032 6.09538 61.8395 7.31289C61.4783 8.52228 61.8567 9.52873 62.8229 10.2764C63.3246 10.6646 63.8804 10.9849 64.4344 11.3043L64.4345 11.3044L64.4346 11.3045C64.5736 11.3846 64.7125 11.4647 64.8504 11.5458C65.1132 11.7002 65.3849 11.8419 65.6564 11.9834L65.6564 11.9834C66.1312 12.231 66.6054 12.4782 67.03 12.793C68.0918 13.5803 67.922 15.0423 66.7588 15.698C65.2536 16.5466 62.6119 16.1185 61.762 14.3956C61.7142 14.2985 61.646 14.2114 61.5777 14.1244ZM11.6874 13.6554C10.593 13.6441 9.71751 12.7526 9.73069 11.6627C9.74387 10.568 10.6281 9.6905 11.7178 9.6905C12.7912 9.69038 13.6765 10.5974 13.672 11.6925C13.6677 12.7842 12.7756 13.6664 11.6874 13.6554ZM6.04818 11.6275C6.06948 10.5825 5.19396 9.67284 4.14187 9.6466C3.07953 9.62025 2.19061 10.4705 2.16296 11.5393C2.13579 12.591 3.00824 13.5098 4.0541 13.5307C5.09008 13.5511 6.02724 12.6568 6.04818 11.6275Z" fill="white"/>
</svg>
