<svg width="165" height="24" viewBox="0 0 165 24" fill="none" xmlns="http://www.w3.org/2000/svg">
<path fill-rule="evenodd" clip-rule="evenodd" d="M0.214683 0.0249733L0.214684 0.0249733C0.363547 0.0184984 0.512376 0.0120251 0.661205 0.0119505C7.92805 0.0108459 15.1949 0.0108459 22.4616 0.0112878C23.2807 0.0113982 23.2828 0.0129447 23.2833 0.838401C23.2837 1.35423 23.2849 1.87006 23.2862 2.38589V2.38625C23.29 3.92242 23.2939 5.45857 23.2726 6.99447C23.2649 7.5556 23.4517 7.71864 24.0029 7.71157C26.0813 7.68484 28.1605 7.68793 30.2391 7.71002C30.7428 7.71544 30.9099 7.55781 30.9043 7.05059C30.8929 6.01497 30.894 4.97921 30.8951 3.94346C30.8963 2.87216 30.8974 1.80086 30.8847 0.72971C30.8783 0.187248 31.0345 -0.00229863 31.602 2.09975e-05C36.3298 0.0195722 41.058 0.0178048 45.7859 0.00189879C46.3118 2.09975e-05 46.4929 0.162726 46.4874 0.691491C46.4651 2.85316 46.4693 5.0155 46.4852 7.17739C46.4886 7.62574 46.3503 7.77067 45.8835 7.7689C42.0979 7.75491 38.3123 7.75594 34.5267 7.75698C33.621 7.75723 32.7154 7.75748 31.8097 7.75752C31.0211 7.75763 31.0193 7.75973 31.0188 8.55282C31.018 10.5866 31.0176 12.6203 31.0192 14.654C31.0197 15.389 31.0256 15.3957 31.7531 15.3958C32.6632 15.396 33.5733 15.3965 34.4834 15.3969C38.2645 15.3987 42.0455 15.4006 45.8266 15.383C46.3451 15.3806 46.4915 15.5307 46.4869 16.0296C46.471 17.7736 46.4715 19.5176 46.4721 21.2616V21.2712C46.4722 21.8875 46.4724 22.5037 46.4719 23.12H23.1807C23.1789 23.0307 23.1766 22.9415 23.1742 22.8522L23.1742 22.8514V22.8513V22.8512V22.8512V22.8511V22.851V22.851V22.8509V22.8509V22.8508C23.1694 22.6662 23.1645 22.4816 23.1645 22.297C23.1643 21.3383 23.1637 20.3795 23.1632 19.4208C23.1611 15.7673 23.1591 12.1138 23.1753 8.46037C23.1777 7.90167 23.0085 7.73819 22.454 7.74581C20.3777 7.77431 18.3008 7.76934 16.2244 7.74868C15.7275 7.74371 15.5491 7.89427 15.5508 8.40492C15.5636 12.2243 15.5637 16.0437 15.5638 19.8632C15.5638 20.9488 15.5638 22.0344 15.5642 23.12H7.7269C7.72434 23.0378 7.72106 22.9556 7.71777 22.8734C7.71083 22.7 7.70389 22.5266 7.70382 22.3532C7.70295 19.5719 7.70289 16.7905 7.70283 14.0091C7.70279 12.2013 7.70275 10.3935 7.70249 8.58563C7.70227 7.7604 7.70051 7.76039 6.88422 7.75709L6.88289 7.75708C5.04894 7.74984 3.21506 7.74232 1.38114 7.73479L0 7.72913V0.0336004C0.0715714 0.0311979 0.143131 0.0280854 0.214683 0.0249733L0.214683 0.0249733ZM104.615 19.5326C101.262 19.6392 98.9468 17.4163 98.4456 13.9664C98.1531 11.9528 98.3922 10.017 99.4669 8.24803C101.413 5.04396 105.641 4.99779 107.865 6.23139C109.075 6.90297 109.695 8.04368 110.176 9.27695C110.269 9.51476 110.175 9.65306 109.944 9.74209C109.002 10.106 108.061 10.4741 107.124 10.8492C106.865 10.9527 106.702 10.8861 106.599 10.6344C106.522 10.4481 106.444 10.2619 106.354 10.0819C105.978 9.32853 105.412 8.90227 104.518 8.94149C103.637 8.98015 103.131 9.4898 102.834 10.2273C102.423 11.2515 102.394 12.3344 102.504 13.4185C102.553 13.9092 102.639 14.3981 102.84 14.8573C103.487 16.3403 105.155 16.6114 106.24 15.4089C106.314 15.3274 106.385 15.2433 106.45 15.1543L106.45 15.1541C106.776 14.703 106.94 14.476 107.146 14.4282C107.355 14.3799 107.606 14.5157 108.112 14.7893L108.121 14.7937C108.251 14.8638 108.38 14.9353 108.509 15.0068L108.509 15.0069C108.927 15.2378 109.345 15.469 109.782 15.6559C110.31 15.882 110.29 16.1457 110.029 16.578C108.816 18.5875 107.102 19.5345 104.615 19.5326ZM161.481 8.89907C160.57 8.87245 159.729 9.04675 158.945 9.59894C158.832 9.39667 158.84 9.22589 158.848 9.06601C158.85 9.02455 158.851 8.98383 158.851 8.94348C158.845 7.86297 158.843 6.78225 158.85 5.70174C158.853 5.31414 158.732 5.14525 158.324 5.31193C157.406 5.68738 156.487 6.06007 155.562 6.41884C155.253 6.53857 155.165 6.74336 155.165 7.05464C155.171 10.9743 155.174 14.8939 155.163 18.8134C155.162 19.2622 155.37 19.3853 155.767 19.3811C156.19 19.3766 156.614 19.3778 157.037 19.3791C157.404 19.3801 157.772 19.3812 158.14 19.3785C158.801 19.3735 158.846 19.3265 158.847 18.6421C158.849 17.8422 158.849 17.0424 158.849 16.2427C158.849 15.3574 158.849 14.4721 158.851 13.5869C158.851 13.5445 158.851 13.502 158.851 13.4594C158.849 13.1914 158.848 12.9224 158.931 12.6607C159.094 12.1486 159.461 11.9253 159.98 11.9591C160.504 11.9933 160.84 12.2757 160.908 12.8047C160.963 13.2396 161.001 13.6797 161.004 14.1178C161.016 15.6563 161.023 17.1951 161.001 18.7332C160.994 19.204 161.145 19.3996 161.629 19.3857C162.419 19.3629 163.211 19.3628 164.001 19.3858C164.481 19.3998 164.633 19.215 164.627 18.7393C164.61 17.0894 164.612 15.4393 164.615 13.7892V13.7855C164.616 13.3488 164.616 12.9121 164.617 12.4754C164.617 11.9941 164.534 11.5262 164.393 11.0699C163.969 9.69846 162.919 8.94116 161.481 8.89907ZM86.8777 12.9063C86.8776 12.3895 86.8784 11.8727 86.8793 11.3558C86.8815 9.98686 86.8837 8.61789 86.8693 7.2492C86.8642 6.77765 87.0152 6.5141 87.4761 6.35349C88.0136 6.16615 88.541 5.95061 89.0685 5.73504C89.3236 5.63081 89.5786 5.52658 89.8349 5.42553C90.4375 5.18793 90.5047 5.22814 90.5084 5.86007C90.5151 6.95847 90.5191 8.0572 90.5066 9.15549C90.502 9.55038 90.5909 9.65686 90.9675 9.43197C91.7901 8.94054 92.699 8.82964 93.6311 8.95788C95.0893 9.15858 96.0574 10.2353 96.245 11.935C96.4127 13.4561 96.3899 14.9824 96.367 16.5088C96.3553 17.2888 96.3436 18.069 96.3573 18.8484C96.3638 19.2154 96.148 19.307 95.8225 19.3035C94.9768 19.2947 94.1308 19.2859 93.2858 19.307C92.8476 19.3179 92.7081 19.1329 92.7112 18.7182C92.7227 17.1323 92.7181 15.5463 92.7135 13.9603L92.7129 13.7202C92.712 13.4466 92.7092 13.1682 92.6606 12.9004C92.5317 12.1909 92.1892 11.9052 91.5515 11.9354C90.9282 11.9648 90.5719 12.309 90.535 13.0051C90.5067 13.5403 90.5086 14.0771 90.5105 14.6138V14.6141C90.5111 14.7916 90.5118 14.969 90.5113 15.1463C90.5107 15.3963 90.5097 15.6463 90.5087 15.8962C90.5051 16.818 90.5015 17.7398 90.5165 18.6614C90.5241 19.1222 90.3805 19.3288 89.8852 19.3096C89.0959 19.279 88.3038 19.2806 87.5145 19.3093C87.0332 19.3267 86.8665 19.1481 86.8708 18.6733C86.8833 17.2609 86.8813 15.8483 86.8792 14.4359C86.8785 13.926 86.8777 13.4162 86.8777 12.9063ZM133.004 12.918C133.003 13.3352 133.002 13.7524 133.002 14.1696C133.002 14.594 133.003 15.0185 133.005 15.443V15.4454C133.008 16.5213 133.011 17.5973 132.993 18.6728C132.985 19.1883 133.152 19.4054 133.687 19.3847C134.165 19.3661 134.645 19.37 135.124 19.3738C135.398 19.376 135.673 19.3782 135.947 19.3762C136.625 19.3714 136.674 19.3242 136.675 18.6619C136.677 17.7914 136.677 16.9209 136.677 16.0504C136.677 15.1818 136.677 14.3132 136.679 13.4446L136.679 13.3934C136.679 13.1191 136.679 12.8454 136.787 12.5793C136.96 12.1487 137.29 11.9575 137.731 11.9557C138.192 11.9539 138.549 12.1394 138.713 12.6027C138.819 12.9012 138.838 13.2089 138.837 13.5222C138.836 14.089 138.837 14.6558 138.838 15.2226C138.84 16.3949 138.842 17.5672 138.828 18.7393C138.822 19.2237 139.009 19.3915 139.473 19.3814C140.263 19.364 141.054 19.355 141.844 19.3848C142.385 19.4052 142.536 19.1743 142.53 18.666C142.518 17.5098 142.519 16.3535 142.52 15.1971V15.1886C142.52 14.4073 142.521 13.6259 142.517 12.8446C142.514 12.1254 142.391 11.4203 142.106 10.7568C141.604 9.58784 140.729 8.94277 139.427 8.90179C138.566 8.87461 137.74 8.96607 136.999 9.45706C136.987 9.46505 136.974 9.47423 136.961 9.48381C136.857 9.55757 136.721 9.65472 136.679 9.40846C136.619 9.05785 136.363 9.05603 136.11 9.05422L136.094 9.05411C135.794 9.05189 135.493 9.05337 135.192 9.05484C134.684 9.05734 134.176 9.05984 133.668 9.0445C133.168 9.02937 132.987 9.22223 132.994 9.72128C133.01 10.7866 133.007 11.8523 133.004 12.918ZM130.63 14.2695C130.63 14.6855 130.629 15.1016 130.628 15.5177C130.625 16.6026 130.622 17.6876 130.638 18.7723C130.644 19.2269 130.48 19.3947 130.032 19.3843C129.54 19.3727 129.048 19.3747 128.556 19.3767C128.239 19.3779 127.923 19.3792 127.606 19.3769L127.564 19.3767C127.307 19.3761 127.07 19.3755 126.991 18.9989C126.94 18.7565 126.8 18.8754 126.695 18.9653L126.695 18.9653L126.695 18.9654L126.695 18.9654C126.666 18.9895 126.641 19.0116 126.619 19.024C125.68 19.5786 124.668 19.6454 123.633 19.451C122.585 19.2543 121.91 18.5888 121.544 17.6132C121.311 16.9935 121.181 16.346 121.179 15.681C121.178 15.0129 121.179 14.3447 121.18 13.6765C121.181 12.3677 121.183 11.059 121.166 9.75053C121.16 9.22198 121.344 9.02857 121.866 9.04624C122.637 9.07231 123.411 9.07364 124.182 9.04591C124.717 9.02669 124.88 9.24772 124.873 9.76213C124.856 11.0758 124.86 12.3898 124.864 13.7036C124.866 14.1104 124.867 14.5171 124.868 14.9239C124.868 15.2342 124.874 15.5419 124.979 15.8447C125.155 16.3506 125.542 16.4967 126.019 16.47C126.496 16.4434 126.824 16.1874 126.9 15.7105C126.969 15.2785 127.005 14.8371 127.008 14.3995C127.021 12.8437 127.028 11.2876 127.004 9.73208C126.997 9.24231 127.141 9.02802 127.657 9.04591C128.446 9.0732 129.237 9.06668 130.027 9.04812C130.472 9.03774 130.644 9.19879 130.638 9.65686C130.622 10.7676 130.625 11.8787 130.628 12.9897C130.629 13.4163 130.63 13.8429 130.63 14.2695ZM61.4253 5.74454C60.9594 5.74345 60.4934 5.74236 60.0276 5.74242C59.576 5.74251 59.1244 5.74321 58.6728 5.74392C57.4139 5.74588 56.155 5.74784 54.8963 5.73646C54.4513 5.73237 54.2637 5.87895 54.2806 6.33978C54.3072 7.07146 54.3007 7.80523 54.2832 8.53746C54.2734 8.9434 54.444 9.09009 54.841 9.08224C55.4384 9.07066 56.0361 9.07353 56.6337 9.07641C56.8453 9.07743 57.057 9.07844 57.2686 9.07882C58.0492 9.08015 58.0507 9.08092 58.0508 9.8771C58.051 10.5653 58.0516 11.2536 58.0523 11.9418C58.0544 14.166 58.0566 16.3901 58.0425 18.6143C58.0392 19.1358 58.2044 19.3346 58.7384 19.311C59.2804 19.2871 59.8236 19.2923 60.3669 19.2976C60.6148 19.3 60.8628 19.3024 61.1106 19.302C61.9269 19.3008 61.9291 19.2998 61.9294 18.4706C61.9297 17.8256 61.9303 17.1807 61.9309 16.5357C61.9331 14.2682 61.9353 12.0007 61.921 9.73329C61.9178 9.23313 62.0725 9.04922 62.5838 9.06954C63.0506 9.0881 63.5183 9.08439 63.986 9.08068C64.3645 9.07767 64.7431 9.07467 65.1212 9.08346C65.5519 9.0934 65.7133 8.92528 65.7008 8.50123C65.6804 7.80579 65.6673 7.10769 65.7049 6.41368C65.7345 5.86691 65.5034 5.72652 64.9933 5.73369C63.8042 5.75012 62.6147 5.74733 61.4253 5.74454ZM69.8979 12.9974V12.9952C69.9977 12.9952 70.0976 12.9948 70.1974 12.9944C70.4279 12.9935 70.6584 12.9926 70.8888 12.9965C71.1991 13.0018 71.2579 12.8537 71.1951 12.5767C71.0691 12.0199 70.6308 11.641 70.0229 11.5924C69.3328 11.5373 68.8905 11.7967 68.674 12.3837C68.4993 12.8576 68.5756 12.9796 69.0722 12.9958C69.262 13.0019 69.4521 13.0004 69.6421 12.9988C69.7274 12.9981 69.8126 12.9974 69.8979 12.9974ZM71.4759 15.3063C71.2376 15.3063 70.9992 15.3067 70.7608 15.3071C70.1898 15.3081 69.6188 15.3091 69.048 15.3044C68.5822 15.3006 68.5053 15.5142 68.6864 15.895C68.9384 16.4248 69.3611 16.6985 69.9451 16.7354C70.7888 16.7888 71.6011 16.6552 72.3514 16.2656C72.7106 16.0793 72.9159 16.1479 73.1047 16.4922C73.3776 16.9902 73.6746 17.476 73.9816 17.9543C74.1574 18.2285 74.1414 18.3977 73.8341 18.5647C72.3644 19.363 70.793 19.6764 69.1444 19.46C67.5238 19.2473 66.343 18.3614 65.729 16.8444C64.9386 14.8919 64.9516 12.9123 65.9763 11.0586C66.9631 9.27372 68.6534 8.73976 70.5924 8.94974C72.4901 9.15531 73.6376 10.286 74.1696 12.0713C74.4221 12.9191 74.5122 13.7901 74.5158 14.676C74.5176 15.1617 74.3088 15.3201 73.8487 15.3088C73.2914 15.2952 72.7338 15.2981 72.1762 15.301H72.1761C71.9427 15.3022 71.7093 15.3034 71.4759 15.3034V15.3063ZM144.379 14.9255C144.577 17.8399 146.341 19.5246 149.155 19.5307C150.939 19.5344 152.084 18.9267 153.114 17.4684C153.334 17.1573 153.311 16.966 153 16.7507C152.717 16.5549 152.447 16.3389 152.178 16.123L152.178 16.1229L152.178 16.1228L152.178 16.1226C152.089 16.0513 152 15.98 151.91 15.9094L151.908 15.9077C151.52 15.6014 151.329 15.4503 151.15 15.4641C150.977 15.4775 150.815 15.6469 150.496 15.9812L150.491 15.9863C150.365 16.1183 150.231 16.2496 150.079 16.3495C149.404 16.7946 148.575 16.6 148.27 15.8779C147.799 14.7642 147.824 13.6188 148.291 12.513C148.601 11.7769 149.495 11.6341 150.077 12.188C150.26 12.362 150.414 12.5796 150.534 12.8021C150.705 13.1178 150.884 13.1099 151.142 12.9096L151.256 12.8214C151.784 12.4114 152.312 12.001 152.862 11.6229C153.221 11.3764 153.233 11.1631 152.992 10.8179C151.823 9.1438 150.189 8.67557 148.254 8.95801C147.155 9.1184 146.223 9.59392 145.519 10.4599C144.452 11.7711 144.269 13.321 144.379 14.9255ZM80.9655 19.5125C78.2372 19.5095 76.5105 17.9783 76.1604 15.3734C76.0319 14.4177 76.0658 13.4764 76.2621 12.5365C76.7078 10.4016 78.2863 9.06614 80.4719 8.92276C82.2058 8.8091 83.605 9.36338 84.6342 10.7947C84.8993 11.1636 84.8646 11.3859 84.4882 11.6402C83.941 12.01 83.4188 12.418 82.9022 12.83C82.6109 13.0622 82.4033 13.088 82.2137 12.7202C82.1229 12.544 81.9893 12.3834 81.8504 12.2393C81.1648 11.5277 80.2092 11.7178 79.8814 12.651C79.551 13.591 79.5479 14.5626 79.7971 15.5185C80.1057 16.7019 81.2257 16.9709 82.1267 16.1216C82.2091 16.0439 82.2741 15.9358 82.3388 15.8281C82.4727 15.6055 82.6053 15.3851 82.8874 15.4411C83.1035 15.4839 83.2939 15.6574 83.4837 15.8304C83.5646 15.9041 83.6455 15.9778 83.7281 16.0411C83.8372 16.1249 83.9448 16.2109 84.0523 16.2969L84.0526 16.2972C84.2607 16.4636 84.4687 16.6301 84.6883 16.7797C84.9954 16.9887 84.9754 17.1849 84.7756 17.4602C83.8092 18.7916 82.5737 19.6 80.9655 19.5125ZM112.237 12.9659C112.236 13.3855 112.234 13.8052 112.234 14.2248C112.234 14.6066 112.234 14.9884 112.234 15.3702C112.234 16.452 112.233 17.5339 112.235 18.6157C112.236 19.3478 112.265 19.3758 113.02 19.3801C113.7 19.3839 114.379 19.3824 115.059 19.3807C115.902 19.3784 115.913 19.3663 115.915 18.5161C115.916 18.0123 115.916 17.5085 115.916 17.0047C115.915 15.8252 115.914 14.6458 115.931 13.4666C115.945 12.5818 116.377 12.2235 117.263 12.2502C117.732 12.2645 118.121 12.453 118.448 12.7613C118.765 13.0588 118.906 12.9528 118.987 12.5843C119.04 12.3412 119.091 12.0974 119.143 11.8537C119.279 11.2023 119.416 10.5508 119.595 9.91084C119.745 9.37335 119.515 9.16193 119.067 9.04264C118.084 8.78052 117.142 8.8342 116.266 9.41356C116.247 9.42614 116.225 9.4475 116.201 9.47066C116.105 9.5622 115.979 9.68204 115.917 9.4013C115.841 9.0596 115.594 9.05832 115.344 9.05701L115.322 9.05689C115.017 9.05485 114.713 9.05612 114.408 9.05739C113.904 9.05949 113.401 9.06159 112.897 9.04871C112.405 9.03612 112.217 9.21783 112.225 9.72417C112.244 10.8045 112.24 11.8852 112.237 12.9659Z" fill="white"/>
</svg>
