<svg width="83" height="24" viewBox="0 0 83 24" fill="none" xmlns="http://www.w3.org/2000/svg">
<path fill-rule="evenodd" clip-rule="evenodd" d="M33.7759 6.78206L34.1912 6.78202V6.78296L34.6052 6.7831C34.9502 6.78328 35.2952 6.78346 35.6402 6.78252C35.8259 6.78202 35.8477 6.76 35.8482 6.572C35.8488 6.37838 35.8484 6.18476 35.848 5.99114C35.8474 5.69126 35.8468 5.3914 35.8497 5.09156C35.8581 4.21279 35.6109 3.40542 35.163 2.65823C34.4688 1.50032 33.4699 0.713878 32.1965 0.276995C31.5661 0.0607113 30.9165 -0.0147958 30.248 0.00234053C29.6931 0.0165474 29.1491 0.0784777 28.6204 0.238879C27.5925 0.550705 26.7315 1.12065 26.077 1.97665C25.5738 2.63479 25.2532 3.38111 25.0559 4.18702C24.8954 4.84283 24.8119 5.50321 24.8183 6.17745C24.8232 6.70194 24.8335 7.22419 24.9084 7.74606C24.9914 8.3236 25.1125 8.88913 25.3356 9.42767C25.5417 9.92516 25.8247 10.3701 26.2149 10.7551C26.7231 11.2565 27.3024 11.6445 27.9488 11.929C28.4559 12.1521 28.9684 12.3625 29.481 12.573L29.4811 12.573L29.4811 12.573L29.4812 12.573L29.4812 12.5731L29.4818 12.5733L29.4819 12.5733L29.4821 12.5734L29.4823 12.5735C29.7507 12.6837 30.0191 12.7939 30.2868 12.9059C30.3702 12.9408 30.4541 12.975 30.5379 13.0091L30.538 13.0091L30.538 13.0091L30.5381 13.0091L30.5383 13.0093C30.9637 13.1824 31.3892 13.3555 31.7629 13.6342C32.0318 13.8347 32.2201 14.0924 32.3274 14.4092C32.4618 14.8057 32.4839 15.2171 32.506 15.628C32.5134 15.7658 32.5208 15.9035 32.5324 16.0406C32.564 16.4123 32.5367 16.7843 32.5095 17.1562C32.4984 17.3079 32.4873 17.4596 32.4802 17.6112C32.4613 18.0132 32.4076 18.4068 32.2394 18.7724C32.0054 19.2809 31.6024 19.6058 31.057 19.7205C30.5409 19.8289 30.016 19.8432 29.4967 19.7239C29.1694 19.6487 28.8642 19.5147 28.6341 19.2639C28.1726 18.761 27.9865 18.1489 27.9712 17.4779C27.9674 17.3073 27.9683 17.1366 27.9693 16.9659C27.9698 16.8793 27.9703 16.7927 27.9702 16.7062C27.9698 16.4803 27.9483 16.4587 27.7156 16.4565C27.5978 16.4554 27.4799 16.4557 27.362 16.4559L27.2117 16.4561L26.7467 16.4561C26.1405 16.4561 25.5342 16.456 24.928 16.4562C24.637 16.4562 24.6343 16.459 24.6341 16.7419C24.6341 16.8481 24.6343 16.9543 24.6344 17.0605C24.6348 17.2693 24.6351 17.4781 24.6338 17.6869C24.631 18.1453 24.6868 18.5982 24.8044 19.0391C25.0766 20.0589 25.573 20.9488 26.3618 21.6662C26.8808 22.1382 27.467 22.4977 28.1215 22.7442C28.8511 23.019 29.6056 23.1332 30.3873 23.1088C30.9611 23.0908 31.5256 23.0383 32.0814 22.8899C32.905 22.67 33.6239 22.266 34.2322 21.6712C34.6928 21.2207 35.0173 20.6769 35.2619 20.0849C35.4744 19.5704 35.6121 19.0361 35.6977 18.4848L35.6988 18.4775L35.6988 18.4774C35.7627 18.0659 35.8262 17.6565 35.8194 17.2389C35.8191 17.2165 35.8227 17.1942 35.8263 17.1718L35.8263 17.1717C35.8293 17.1525 35.8324 17.1332 35.833 17.114C35.8372 16.9769 35.8438 16.8396 35.8504 16.7023V16.7023V16.7023V16.7023V16.7022V16.7021V16.702V16.7019C35.8659 16.378 35.8815 16.054 35.8652 15.7317C35.8424 15.2779 35.818 14.8229 35.7664 14.3689C35.708 13.8541 35.6014 13.3567 35.425 12.8746C35.0502 11.8504 34.3381 11.1158 33.388 10.6136C32.7593 10.2812 32.0961 10.0277 31.4328 9.77417C31.1555 9.66816 30.8782 9.56215 30.6034 9.45038C30.5079 9.41154 30.412 9.37355 30.3161 9.33556L30.3161 9.33555C29.9294 9.18237 29.5429 9.02923 29.1811 8.82024C28.6964 8.54032 28.3639 8.15044 28.2286 7.59102C28.1821 7.39884 28.1752 7.20718 28.1682 7.01555V7.01553C28.165 6.92613 28.1618 6.83674 28.1545 6.7473C28.0947 6.00874 28.1401 5.28098 28.3822 4.57473C28.6418 3.81736 29.3427 3.32088 30.1447 3.3164C30.3915 3.31502 30.6347 3.32456 30.8789 3.37534C31.1887 3.43979 31.4725 3.55152 31.7075 3.76321C32.1895 4.19745 32.3703 4.77766 32.4798 5.39113C32.5391 5.72376 32.5385 6.05885 32.5378 6.39412L32.5378 6.39716C32.5377 6.44376 32.5376 6.49037 32.5377 6.53697C32.5381 6.77307 32.5474 6.78173 32.7895 6.78192C33.1183 6.78217 33.4471 6.78211 33.7759 6.78206ZM58.4655 11.5615L58.4654 10.156V10.1471C58.4652 8.66048 58.465 7.17385 58.4668 5.68722C58.4671 5.41887 58.451 5.15477 58.3986 4.89016C58.293 4.35723 58.029 3.93846 57.5605 3.65502C56.8799 3.24333 56.1638 3.20185 55.4345 3.48718C54.9151 3.69036 54.5238 4.04761 54.3351 4.58804C54.2221 4.91174 54.1829 5.25314 54.1824 5.59326C54.1781 8.86372 54.1743 12.1342 54.1832 15.4047C54.1839 15.6483 54.1795 15.8921 54.1751 16.136V16.1361V16.1362V16.1363V16.1364V16.1365V16.1366V16.1366C54.1632 16.8 54.1512 17.4636 54.241 18.1245C54.2898 18.4842 54.405 18.8193 54.6591 19.0886C55.1117 19.5681 55.6699 19.7936 56.3309 19.7981C56.9034 19.802 57.4035 19.6239 57.8361 19.2597C58.307 18.8631 58.4538 18.3101 58.4586 17.7349C58.471 16.2478 58.469 14.7606 58.467 13.2734C58.4663 12.7027 58.4655 12.1321 58.4655 11.5615ZM61.8072 13.4321L61.8072 13.4383C61.81 14.9625 61.8129 16.4867 61.7985 18.0108C61.7898 18.9236 61.4962 19.7684 61.0292 20.5548C60.4916 21.4601 59.7295 22.1142 58.7891 22.5604C58.0718 22.9006 57.3133 23.0855 56.5118 23.1056C55.5688 23.1292 54.6791 22.937 53.8287 22.5375C53.2573 22.2689 52.7541 21.9032 52.311 21.4582C51.988 21.1338 51.7433 20.7487 51.5121 20.3533C51.2573 19.9176 51.0905 19.4482 50.9862 18.9621C50.8875 18.5024 50.8404 18.031 50.8403 17.5581C50.8402 16.5005 50.8403 15.4428 50.8404 14.3852C50.8407 11.553 50.841 8.72086 50.836 5.8887C50.8352 5.44127 50.8551 4.99493 50.9165 4.55585C51.0189 3.82434 51.2664 3.13743 51.6625 2.50569C51.9893 1.98432 52.3747 1.51641 52.872 1.15405C53.4347 0.744135 54.045 0.423489 54.7197 0.229539C55.3932 0.0358728 56.079 -0.0320112 56.7744 0.0136963C57.3854 0.0538282 57.9737 0.205347 58.5407 0.437948C59.1996 0.708255 59.786 1.09219 60.2844 1.59859C60.9062 2.2305 61.328 2.98091 61.5848 3.83256C61.7551 4.39765 61.8092 4.96932 61.8081 5.55404C61.8053 7.00731 61.8057 8.46058 61.8062 9.91384V9.9189C61.8064 10.4745 61.8066 11.03 61.8066 11.5856H61.8049C61.8049 12.2011 61.8061 12.8166 61.8072 13.4321ZM75.7007 13.6146V12.6555L75.7014 0.512466C75.7014 0.479992 75.7018 0.447533 75.7021 0.415068V0.415051L75.7026 0.370744C75.7036 0.237559 75.7615 0.169643 75.904 0.169958C76.4309 0.171182 76.9578 0.171095 77.4847 0.171007C77.9343 0.170932 78.3838 0.170857 78.8334 0.171597C79.0108 0.17188 79.0783 0.233117 79.064 0.41264C79.0315 0.821796 79.0387 1.23083 79.0458 1.63994L79.0489 1.82809C79.0506 1.93884 79.0542 2.04958 79.0578 2.16032C79.0628 2.31155 79.0677 2.46278 79.0677 2.614L79.0684 5.23486C79.0697 10.3776 79.0711 15.5204 79.064 20.6632C79.0636 20.9663 79.0581 21.2696 79.0526 21.5729V21.5731V21.5733V21.5736V21.5738V21.574C79.0471 21.8788 79.0416 22.1836 79.0412 22.4884C79.0411 22.5566 79.0427 22.625 79.0494 22.6927C79.0679 22.8823 79.0197 22.9408 78.8251 22.9411C78.4996 22.9416 78.1741 22.9416 77.8486 22.9415C77.2711 22.9414 76.6936 22.9413 76.1162 22.9444C75.9746 22.9452 75.9083 22.8823 75.864 22.7594C75.4967 21.7384 75.1242 20.7194 74.7384 19.7051C74.5615 19.24 74.3944 18.7711 74.2273 18.3023L74.227 18.3013C74.1408 18.0595 74.0546 17.8176 73.9671 17.5763C73.8183 17.1661 73.6689 16.7561 73.5196 16.346L73.5189 16.3442C73.3652 15.9223 73.2115 15.5004 73.0585 15.0783C72.962 14.8123 72.8664 14.5459 72.7708 14.2796L72.7696 14.2762C72.6392 13.9129 72.5087 13.5495 72.3761 13.1869C72.1411 12.544 71.9045 11.9016 71.668 11.2593L71.6675 11.258L71.6672 11.2572L71.6669 11.2564L71.6665 11.2551L71.666 11.2539C71.5192 10.8551 71.3723 10.4562 71.2258 10.0572C71.1769 9.92402 71.1296 9.79019 71.0823 9.65632L71.0819 9.65509L71.0806 9.65142L71.0648 9.60663L71.0163 9.46985C70.9571 9.48766 70.9586 9.52575 70.9598 9.55831L70.96 9.56388C70.9819 10.2355 70.9783 10.9072 70.9746 11.579C70.973 11.8678 70.9714 12.1566 70.9719 12.4454C70.9727 12.9329 70.9738 13.4204 70.9749 13.9079C70.9794 15.8406 70.9838 17.7734 70.966 19.7059C70.9615 20.1917 70.9584 20.6775 70.9554 21.1632C70.9521 21.6796 70.9488 22.1961 70.9439 22.7124C70.942 22.9074 70.9086 22.9414 70.7121 22.9415C69.7672 22.9423 68.8222 22.9421 67.8772 22.9414C67.6653 22.9412 67.635 22.91 67.6348 22.691C67.6336 21.5045 67.6329 20.318 67.633 19.1316C67.6333 14.3929 67.6338 9.65417 67.6342 4.91548L67.6347 0.515364L67.6347 0.493967C67.6347 0.469599 67.6346 0.44523 67.6348 0.420862C67.6366 0.197585 67.663 0.171502 67.8929 0.170809C68.0399 0.170368 68.1869 0.170515 68.3339 0.170662L68.5544 0.170809C68.737 0.170809 68.9195 0.171148 69.1021 0.171487C69.5968 0.172405 70.0915 0.173323 70.5861 0.167501C70.7549 0.165517 70.8483 0.224612 70.9035 0.381643C70.9727 0.578327 71.0414 0.775225 71.1101 0.972129C71.335 1.61704 71.56 2.26202 71.8038 2.89975C71.9885 3.38284 72.1639 3.86913 72.3392 4.35541C72.404 4.53506 72.4688 4.71472 72.534 4.89421C72.7311 5.43649 72.9235 5.98047 73.116 6.52445L73.1162 6.52515L73.1164 6.52576L73.1166 6.52626L73.1168 6.52686L73.117 6.52746C73.2547 6.91669 73.3923 7.30592 73.5318 7.69453C73.6426 8.00346 73.7559 8.3115 73.8691 8.61953C73.9803 8.92184 74.0915 9.22415 74.2003 9.52731C74.2882 9.77198 74.373 10.0178 74.4578 10.2635L74.4578 10.2637L74.4579 10.2638L74.4579 10.264L74.458 10.2641L74.458 10.2642C74.5338 10.484 74.6096 10.7038 74.6877 10.9228C74.9442 11.6429 75.2031 12.3622 75.462 13.0815L75.4626 13.0831L75.4632 13.0846L75.4638 13.0865L75.4645 13.0883L75.6118 13.4976C75.6224 13.527 75.6364 13.5553 75.6504 13.5835C75.6569 13.5966 75.6634 13.6098 75.6695 13.623L75.7007 13.6146ZM0.00226968 11.554C0.00226042 10.9146 0.00169766 10.2752 0.0011349 9.63583C-0.000215167 8.10192 -0.00156523 6.56803 0.00472674 5.03414C0.00970385 3.81636 0.362417 2.707 1.13277 1.75073C1.71562 1.02725 2.46906 0.554962 3.35687 0.286355C4.18613 0.0354837 5.03479 -0.0399289 5.89252 0.0189459C6.45572 0.0575972 6.9941 0.224204 7.50388 0.471989C8.50236 0.957352 9.29677 1.6653 9.8532 2.63161C10.1889 3.21469 10.4226 3.83828 10.5075 4.50414C10.5554 4.88017 10.5801 5.26148 10.5594 5.64683C10.5396 6.01583 10.5438 6.38613 10.5481 6.75643V6.75644V6.75645V6.75646L10.5481 6.75667C10.55 6.92208 10.5519 7.0875 10.5516 7.2528C10.5513 7.4872 10.5365 7.51281 10.3007 7.54635C10.1451 7.56849 9.98865 7.58405 9.83217 7.5996C9.7177 7.61098 9.60323 7.62236 9.48908 7.63632C9.25544 7.66487 9.02216 7.69638 8.78889 7.7279L8.78856 7.72794L8.78823 7.72799L8.7879 7.72803C8.68944 7.74133 8.59098 7.75463 8.4925 7.76771L8.18317 7.80883C7.92821 7.84275 7.67325 7.87667 7.41823 7.91016C7.26 7.93095 7.21565 7.89585 7.21467 7.73737C7.21339 7.52715 7.21352 7.31691 7.21366 7.10668C7.21377 6.9232 7.21389 6.73973 7.21306 6.55626C7.21051 5.97891 7.1764 5.4038 7.0846 4.83301C6.96065 4.06228 6.46373 3.5176 5.7073 3.36823C5.24512 3.27691 4.79718 3.296 4.36225 3.45596C3.83357 3.65044 3.59329 4.10046 3.44341 4.6029C3.33526 4.96531 3.30389 5.33986 3.30439 5.72101C3.30874 9.12725 3.30807 12.5335 3.3074 15.9397L3.3071 17.5639C3.30701 18.1156 3.43389 18.6327 3.70965 19.1127C3.86693 19.3865 4.1065 19.5645 4.3952 19.6623C4.98212 19.8613 5.57002 19.8606 6.14213 19.5982C6.59395 19.391 6.88174 19.0394 7.01565 18.563C7.11765 18.2001 7.14657 17.827 7.17553 17.4534L7.18465 17.3368C7.21783 16.9203 7.21514 16.5036 7.21245 16.0869C7.21095 15.8532 7.20944 15.6195 7.21426 15.3858C7.21779 15.2161 7.25553 15.1786 7.4222 15.1985C7.6625 15.2273 7.90265 15.2574 8.1428 15.2875C8.44854 15.3258 8.75427 15.3641 9.06033 15.3998C9.50231 15.4512 9.94487 15.4983 10.388 15.5382C10.5193 15.55 10.5799 15.6046 10.5801 15.7327C10.5805 15.9322 10.5823 16.1318 10.5841 16.3314C10.5883 16.782 10.5924 17.2326 10.5794 17.6827C10.5572 18.4452 10.4553 19.1953 10.1403 19.9042C9.78226 20.7098 9.27554 21.3968 8.58958 21.9541C7.83829 22.5645 6.98616 22.9577 6.03034 23.0778C5.44937 23.1508 4.85839 23.1258 4.27348 23.0285C3.5587 22.9095 2.87406 22.7152 2.24899 22.3355C1.64957 21.9714 1.17917 21.482 0.80223 20.895C0.51885 20.4538 0.301054 19.9811 0.183588 19.473C0.0836675 19.0408 0.000379641 18.6023 0.000978155 18.1526C0.00317265 16.5225 0.00284107 14.8924 0.00250949 13.2623L0.00226968 11.554ZM41.488 18.8254C41.4867 19.1129 41.4854 19.4004 41.4854 19.6879L41.4854 20.1079L41.4854 22.6804C41.4855 22.9313 41.4951 22.9409 41.7387 22.9408L44.1641 22.9402C44.189 22.9402 44.2139 22.9403 44.2388 22.9404L44.2803 22.9405C44.3886 22.9409 44.4969 22.9413 44.6051 22.9382C44.7491 22.934 44.8297 22.8628 44.8243 22.7107C44.8231 22.6761 44.8235 22.6415 44.824 22.6069C44.8242 22.589 44.8244 22.5711 44.8244 22.5532L44.8245 5.62518L44.8245 4.73225C44.8245 3.38141 44.8245 2.03058 44.8235 0.67976C44.8234 0.632192 44.819 0.584595 44.8146 0.537014L44.8146 0.53694V0.536891V0.536842C44.8097 0.485163 44.8049 0.433503 44.8057 0.38192C44.8087 0.203406 44.7114 0.166739 44.5544 0.167464C43.9081 0.170366 43.2619 0.170022 42.6157 0.169677C42.3222 0.16952 42.0287 0.169364 41.7352 0.169511C41.5177 0.169606 41.4873 0.200224 41.4857 0.413295C41.4764 1.62023 41.4749 2.82719 41.4733 4.03416C41.4721 4.94236 41.471 5.85057 41.4665 6.75877L41.4621 7.65082C41.4463 10.7496 41.4306 13.8486 41.4831 16.9474C41.4937 17.5733 41.4908 18.1993 41.488 18.8254ZM19.031 11.5604L19.0309 22.6317C19.0309 22.6435 19.0307 22.6554 19.0304 22.6672C19.0298 22.6922 19.0291 22.7172 19.0313 22.7419C19.044 22.8903 18.9793 22.9474 18.8291 22.946C18.3994 22.942 17.9696 22.9425 17.5398 22.943H17.5392C17.3865 22.9431 17.2337 22.9433 17.0809 22.9433L16.5606 22.9433L15.9942 22.9434C15.7412 22.9433 15.7191 22.9213 15.7191 22.6618L15.7191 18.436L15.7191 13.8262C15.719 13.2234 15.7188 12.6206 15.7185 12.0178C15.7182 11.2984 15.7179 10.579 15.718 9.85968C15.7181 7.56514 15.7185 5.27062 15.7189 2.9761L15.7194 0.523027C15.7194 0.17359 15.7195 0.172614 16.061 0.172393C16.964 0.171826 17.867 0.171826 18.77 0.172488C19.0264 0.172708 19.031 0.178315 19.031 0.441031C19.0312 4.14747 19.0311 7.85393 19.031 11.5604ZM82.0185 1.06401C82.0347 1.16945 81.9132 1.2328 81.7133 1.23484C81.6239 1.2378 81.5512 1.21632 81.5629 1.10641L81.5637 1.09913C81.5745 0.995921 81.5862 0.883534 81.7362 0.900368C81.7505 0.901969 81.7652 0.903215 81.78 0.904471C81.8853 0.913397 81.9967 0.922845 82.0185 1.06401ZM81.9305 1.8655C81.9961 1.96913 82.0627 2.07429 82.2441 2.07167C82.0647 2.24278 81.8782 2.25721 81.6913 2.24073C81.2679 2.2034 80.9526 1.8993 80.8992 1.49124C80.8455 1.08176 81.0922 0.628307 81.4794 0.5144C81.9361 0.380081 82.3563 0.539034 82.5732 1.03167C82.7075 1.33679 82.6418 1.61648 82.4654 1.87989C82.4095 1.96353 82.3468 2.02057 82.278 1.8764C82.2372 1.79072 82.1778 1.71317 82.1191 1.63662C82.1105 1.62538 82.1019 1.61416 82.0934 1.60294C82.0309 1.52069 82.0422 1.46815 82.1329 1.41564C82.2811 1.32986 82.3283 1.19116 82.3137 1.02566C82.2967 0.830573 82.1685 0.687843 81.9732 0.674802C81.8547 0.666906 81.7356 0.667998 81.6165 0.66909C81.557 0.669636 81.4975 0.670182 81.438 0.669604C81.3467 0.668691 81.3026 0.71191 81.3027 0.80323C81.303 0.996288 81.3031 1.18935 81.3031 1.3824C81.3032 1.56203 81.3032 1.74166 81.3035 1.92128C81.3036 2.01125 81.3481 2.05894 81.44 2.05365C81.528 2.04858 81.5773 2.00567 81.5657 1.91165C81.5601 1.86636 81.5646 1.82117 81.5692 1.77591C81.5752 1.71702 81.5811 1.658 81.5647 1.5985C81.5539 1.55915 81.5548 1.50815 81.6021 1.48865C81.6578 1.46569 81.6902 1.51092 81.717 1.54851C81.7666 1.61798 81.8139 1.68906 81.8612 1.76014C81.8749 1.78084 81.8887 1.80155 81.9025 1.82221C81.912 1.83641 81.9212 1.85094 81.9305 1.8655ZM81.7846 2.5295C82.354 2.52717 82.961 2.02933 82.909 1.348C82.9372 0.591671 82.327 0.176461 81.752 0.183706C81.1397 0.191455 80.5967 0.616053 80.6022 1.38026C80.607 2.02738 81.1257 2.53218 81.7846 2.5295Z" fill="white"/>
</svg>
