<svg width="78" height="24" viewBox="0 0 78 24" fill="none" xmlns="http://www.w3.org/2000/svg">
<path fill-rule="evenodd" clip-rule="evenodd" d="M69.5598 0.713182C69.5598 0.120668 69.5637 0.0827481 70.142 0.0446782C71.1354 -0.0205417 72.1327 -0.00707884 73.1269 0.0385452C73.5832 0.0595621 73.6676 0.189927 73.6692 0.66165C73.6712 1.24686 73.6707 1.83207 73.6703 2.41728C73.6701 2.66422 73.67 2.91116 73.67 3.15811V3.15832C73.67 3.88704 73.67 3.88719 74.3821 3.88719C74.6466 3.88719 74.9111 3.8869 75.1756 3.88661C75.7575 3.88597 76.3395 3.88532 76.9215 3.88779C77.4334 3.89003 77.5552 4.01397 77.5571 4.53281C77.5604 5.45195 77.561 6.37108 77.5568 7.29022C77.5544 7.77765 77.4221 7.90816 76.9325 7.91026C76.4926 7.91203 76.0527 7.91167 75.6127 7.9113H75.6125C75.1438 7.91092 74.6751 7.91053 74.2064 7.91273C73.764 7.91475 73.6772 7.99829 73.6767 8.43666C73.6728 11.7778 73.6716 15.1188 73.6721 18.4599C73.6722 18.8944 73.7283 18.9459 74.1763 18.9472C74.5973 18.9485 75.0182 18.9482 75.4392 18.9479C75.9394 18.9475 76.4395 18.9471 76.9397 18.9494C77.4257 18.9516 77.5562 19.0834 77.5582 19.575C77.5623 20.5562 77.5628 21.5375 77.5578 22.5186C77.5556 22.9544 77.4642 23.047 77.029 23.0479C74.7262 23.0522 72.4233 23.0535 70.1204 23.0515C69.6385 23.0511 69.562 22.9627 69.5619 22.4367C69.5607 18.7975 69.5593 4.31516 69.5598 0.713182ZM27.6979 0.0369001C27.1591 0.0515596 27.1203 0.130542 27.1197 0.67601C27.1165 3.40852 27.1172 20.144 27.1178 22.4428C27.1181 23.0449 27.1851 23.1175 27.7724 23.1183C30.0015 23.1215 32.2306 23.1225 34.4599 23.1212C35.0491 23.1209 35.1781 22.9924 35.1822 22.3914C35.1885 21.4719 35.1872 20.5523 35.1827 19.6328C35.18 19.0708 35.0556 18.9465 34.5046 18.9448C34.0308 18.9433 33.557 18.9436 33.0832 18.9439H33.0816C32.6344 18.9442 32.1871 18.9445 31.7399 18.9433C31.2835 18.9421 31.233 18.8967 31.2329 18.4635C31.2318 15.1085 31.2323 11.7534 31.2348 8.39836C31.2351 7.96239 31.2835 7.91886 31.7406 7.91759C32.1339 7.91654 32.5272 7.91687 32.9205 7.91721C33.4488 7.91766 33.977 7.91811 34.5053 7.9152C34.9728 7.91265 35.1088 7.77758 35.1115 7.31356C35.1163 6.49563 35.1148 5.67765 35.1134 4.85971L35.113 4.5922C35.112 4.0133 34.9937 3.89205 34.4128 3.88951C33.949 3.88746 33.4852 3.88781 33.0214 3.88816C32.5885 3.88849 32.1556 3.88882 31.7228 3.88719C31.2787 3.88547 31.2349 3.84045 31.2334 3.38899C31.2328 3.1857 31.2317 2.98239 31.2306 2.77908C31.2266 2.05033 31.2227 1.32158 31.2393 0.593289C31.248 0.206607 31.085 0.0330109 30.7231 0.0308419C30.5434 0.0297626 30.3638 0.0283891 30.1841 0.0270156C29.3552 0.0206785 28.5261 0.0143407 27.6979 0.0369001ZM7.7679 11.8486L7.76809 10.8702C7.76832 10.0657 7.76855 9.26114 7.76738 8.45659C7.7667 7.95854 7.72512 7.91441 7.24457 7.91291C6.41025 7.9103 5.57585 7.91 4.74161 7.91321C4.25739 7.91501 4.18357 7.99294 4.17841 8.48112C4.15421 10.7684 4.18448 13.0554 4.21475 15.3424V15.3425C4.22919 16.4334 4.24363 17.5244 4.25216 18.6153C4.25276 18.6897 4.2559 18.7645 4.26517 18.8382C4.28544 18.9987 4.38522 19.0994 4.54146 19.0798C4.76323 19.0519 4.98509 19.0653 5.20699 19.0787H5.20701H5.20703H5.20705H5.20706H5.20708C5.46882 19.0945 5.73062 19.1103 5.99245 19.0584C6.31145 18.9951 6.6359 19.0113 6.95871 19.0604C7.64255 19.1644 7.84381 18.9935 7.83656 18.2928C7.82522 17.1911 7.81065 16.0895 7.79607 14.9878L7.79607 14.9877L7.79607 14.9876L7.79607 14.9875L7.79606 14.9874L7.79606 14.9873C7.78699 14.3014 7.77791 13.6154 7.76962 12.9295C7.76691 12.7047 7.76735 12.4797 7.76779 12.2548C7.76806 12.1194 7.76832 11.984 7.7679 11.8486ZM11.8735 13.4868L11.8735 15.905C11.8736 18.0556 11.8736 20.2062 11.8733 22.3568C11.8733 23.0089 11.8317 23.0508 11.1713 23.0505C7.71003 23.049 4.24889 23.0469 0.78775 23.044C0.120517 23.0434 0.0773614 22.9877 0.0649457 22.3198C0.00586496 19.136 0.00571292 10.5824 0.00561738 5.20811C0.00557505 2.82629 0.00554381 1.06894 0.00039891 0.680243C-0.00655688 0.153248 0.072799 0.0810726 0.608245 0.0798011C1.64167 0.0771833 2.67501 0.0759866 3.70843 0.0811474C4.16512 0.0833912 4.25099 0.172545 4.25323 0.63417C4.25542 1.11506 4.25507 1.59598 4.25473 2.07689V2.07716C4.25441 2.51548 4.25409 2.9538 4.2557 3.3921C4.25727 3.83608 4.30424 3.8832 4.75225 3.88335C5.95387 3.88377 7.15553 3.88295 8.3572 3.88213C9.30946 3.88149 10.2617 3.88084 11.214 3.88081C11.8178 3.88073 11.8751 3.93914 11.8752 4.54235C11.8756 6.69648 11.8756 8.8506 11.8755 11.0047L11.8754 13.4868H11.8735ZM21.2229 9.73659H21.2242C21.2242 9.60114 21.2237 9.46569 21.2232 9.33025C21.2221 9.00622 21.2209 8.6822 21.2264 8.35829C21.2305 8.11312 21.1398 7.98971 20.8796 7.99106C19.9463 7.99607 19.013 7.99502 18.0796 7.99136C17.8318 7.99031 17.712 8.09801 17.7126 8.3482C17.715 9.27945 17.7146 10.2107 17.7139 11.142C17.7137 11.3688 17.8151 11.4891 18.0508 11.4888C18.9965 11.4878 19.9423 11.4868 20.8881 11.4905C21.124 11.4915 21.2269 11.3859 21.2244 11.1521C21.2209 10.8181 21.2216 10.484 21.2223 10.1499C21.2226 10.0121 21.2229 9.87434 21.2229 9.73659ZM25.405 14.9644C25.4044 15.5028 25.3192 15.5789 24.7718 15.5917C23.6604 15.6176 22.5497 15.5883 21.4389 15.559C20.4226 15.5322 19.4062 15.5054 18.3893 15.5208C17.7321 15.5308 17.7329 15.5503 17.7571 16.1876L17.7573 16.1915C17.785 16.9228 17.7722 17.6567 17.7454 18.3883C17.7255 18.9328 17.7841 19.0262 18.3298 19.0207C19.2981 19.011 20.2664 18.9999 21.2347 18.9888L21.2389 18.9888H21.2389H21.239H21.239H21.239H21.2391C22.3842 18.9757 23.5293 18.9626 24.6744 18.9517C25.3118 18.9456 25.4022 19.0437 25.403 19.6907C25.4041 20.5975 25.4037 21.5043 25.403 22.4112C25.4026 23.0569 25.3439 23.1235 24.7054 23.1182C23.6251 23.1091 22.5448 23.0982 21.4646 23.0872C20.2057 23.0744 18.9469 23.0616 17.6881 23.0519C17.002 23.0465 16.316 23.0474 15.6299 23.0484C15.1706 23.049 14.7113 23.0496 14.2519 23.0483C13.755 23.0469 13.677 22.9707 13.6717 22.4961C13.6466 20.2493 13.5225 5.90552 13.5219 4.51549C13.5216 3.96718 13.6486 3.82148 14.1976 3.81983C14.7585 3.81819 15.3194 3.81435 15.8803 3.81051C17.5856 3.79884 19.291 3.78717 20.9945 3.83704C21.697 3.85761 22.3992 3.86194 23.1012 3.86627H23.1012C23.6676 3.86976 24.234 3.87325 24.8003 3.88528C25.3285 3.8965 25.404 3.96217 25.4045 4.49245C25.4064 6.24397 25.4068 13.2253 25.405 14.9644ZM44.4565 16.8763C44.457 17.0116 44.4576 17.147 44.4576 17.2823C44.4576 17.4147 44.4571 17.5472 44.4565 17.6796C44.4552 17.9815 44.4538 18.2834 44.4602 18.5851C44.4663 18.8745 44.3617 19.0246 44.0503 19.0219C43.1674 19.0141 42.2844 19.0159 41.4014 19.0204C41.0916 19.0221 40.9417 18.8845 40.9426 18.5727C40.9455 17.6793 40.9461 16.7858 40.9427 15.8924C40.9417 15.6232 41.0722 15.5154 41.3334 15.5165C42.2537 15.5204 43.174 15.522 44.0943 15.5153C44.3728 15.5133 44.465 15.6451 44.46 15.9049C44.4539 16.2285 44.4552 16.5521 44.4565 16.8758V16.8763ZM47.7983 23.1125C48.5293 23.1116 48.6199 22.9988 48.6363 22.259C48.6662 20.9202 48.6258 14.5771 48.5954 9.79444V9.79403L48.5953 9.79293V9.79248V9.7923L48.5953 9.79C48.58 7.38737 48.5672 5.37921 48.5671 4.59832C48.567 3.95487 48.5041 3.88905 47.8692 3.88838C46.8124 3.88724 45.7555 3.88755 44.6986 3.88787L43.4992 3.88815L41.8547 3.88813C40.4233 3.88802 38.9919 3.88792 37.5605 3.88965C36.9457 3.89047 36.8347 4.00229 36.8337 4.60243C36.8321 5.45956 36.8324 6.31677 36.8332 7.1739C36.8338 7.81645 36.9257 7.90905 37.5684 7.90942C38.4049 7.90989 39.2414 7.90996 40.0779 7.91003H40.081C41.3973 7.91014 42.7136 7.91025 44.0299 7.91189C44.4781 7.91249 44.5266 7.96208 44.5283 8.40381C44.5316 9.24853 44.5305 10.0933 44.5287 10.938C44.5276 11.4567 44.4964 11.4893 43.9786 11.4891C42.8949 11.4888 41.8113 11.4876 40.7277 11.4865C39.6201 11.4853 38.5126 11.4841 37.405 11.4838C36.8243 11.4837 36.7571 11.5507 36.757 12.1241C36.7559 15.5527 36.7559 18.9814 36.7569 22.4101C36.757 22.995 36.8712 23.1153 37.4523 23.1155C40.901 23.117 44.3497 23.1166 47.7983 23.1125ZM50.357 13.4724L50.357 11.2548C50.3569 9.03723 50.3569 6.81961 50.3572 4.60194C50.3573 3.97046 50.4386 3.88661 51.0612 3.88512C51.9576 3.8831 52.8542 3.88332 53.7506 3.88504C54.4116 3.88639 54.4638 3.94129 54.464 4.61667L54.4644 6.06952C54.4646 7.62268 54.4648 9.17585 54.4679 10.729C54.4679 10.7588 54.4646 10.7913 54.4611 10.8245C54.4497 10.9356 54.4374 11.0544 54.5501 11.1024C54.6643 11.1509 54.7381 11.0588 54.8072 10.9724C54.8286 10.9457 54.8495 10.9195 54.8711 10.8982C55.1075 10.6651 55.3425 10.4305 55.5775 10.1959C56.2752 9.49963 56.9728 8.80333 57.7071 8.14491C57.9576 7.92023 58.0595 7.65852 58.0548 7.3221C58.0431 6.48825 58.0464 5.65418 58.0497 4.82018L58.0511 4.45228C58.0528 4.00396 58.1544 3.89088 58.5942 3.88751C59.1249 3.88338 59.6555 3.88403 60.1862 3.88468C60.664 3.88527 61.1419 3.88585 61.6197 3.88295C61.9255 3.88108 62.0763 4.02461 62.1209 4.31585C62.1966 4.81076 62.1959 6.97072 62.1232 7.55321C62.086 7.85119 61.9598 8.08649 61.7419 8.29561C60.8094 9.19097 59.8849 10.0945 58.9618 10.9996C58.937 11.024 58.9073 11.0479 58.8771 11.0723C58.7736 11.1558 58.663 11.2451 58.7118 11.38C58.7635 11.523 58.904 11.5086 59.0353 11.4951C59.0742 11.4911 59.1123 11.4871 59.1471 11.4874C59.6016 11.4911 60.0562 11.4907 60.5107 11.4904C60.8779 11.4901 61.2451 11.4898 61.6123 11.4916C62.0722 11.4939 62.1598 11.5792 62.1603 12.0393C62.1608 12.6267 62.1638 13.5131 62.1672 14.5212C62.1768 17.3718 62.1897 21.1951 62.1595 21.9824C62.158 22.0253 62.1583 22.0683 62.1587 22.1113C62.159 22.1429 62.1592 22.1745 62.1587 22.2061C62.1465 23.0015 62.0991 23.0486 61.3127 23.0486C61.0515 23.0486 60.7904 23.0488 60.5293 23.049C59.9064 23.0494 59.2835 23.0498 58.6606 23.0479C58.13 23.0463 58.0568 22.9734 58.0564 22.4424C58.0549 20.2389 58.0542 18.0354 58.0535 15.8319L58.0523 12.2674C58.052 11.6523 58.041 11.6419 57.4265 11.6415L57.1152 11.6413C56.4096 11.6409 55.7041 11.6404 54.9985 11.6419C54.5038 11.6431 54.4655 11.6789 54.4654 12.1722C54.4649 14.4014 54.4653 16.6307 54.4658 18.8599L54.4664 22.3097C54.4664 23.02 54.4358 23.0506 53.7357 23.0511L53.6465 23.0512C52.7798 23.0517 51.913 23.0523 51.0463 23.0509C50.3997 23.0499 50.3561 23.0047 50.3559 22.3428C50.3555 19.386 50.3566 13.4724 50.357 13.4724ZM67.2998 23.0528C67.8914 23.0519 67.9158 23.0284 67.9161 22.4494C67.917 20.1145 67.915 10.7256 67.9137 8.36598C67.9133 7.76839 67.798 7.63525 67.1989 7.62508C66.3154 7.61005 65.4313 7.61124 64.5479 7.62373C63.9297 7.63256 63.8092 7.76704 63.8091 8.38199C63.8086 9.8712 63.8569 19.9454 63.8798 21.9309C63.881 22.0372 63.8806 22.1434 63.8802 22.2497C63.88 22.3049 63.8798 22.3601 63.8798 22.4153C63.8801 23.0313 63.8986 23.0521 64.4993 23.053C65.4328 23.0544 66.3663 23.0542 67.2998 23.0528Z" fill="white"/>
</svg>
