<svg width="183" height="24" viewBox="0 0 183 24" fill="none" xmlns="http://www.w3.org/2000/svg">
<path fill-rule="evenodd" clip-rule="evenodd" d="M0 0H9.79567V4.58344H7.81704L11.0963 17.3486L11.1954 17.368L14.7281 4.628H12.7862V0.0258378H21.7052V4.61503C21.6058 4.61503 21.5065 4.61957 21.4079 4.62407C21.1903 4.63401 20.9762 4.64378 20.7717 4.60426C20.3137 4.51555 20.1857 4.72916 20.0649 5.11756C19.1729 7.9876 18.2758 10.8562 17.3788 13.7247C16.4934 16.556 15.608 19.3873 14.7275 22.22C14.6082 22.6035 14.4337 22.7151 14.0346 22.7113C12.3374 22.6951 10.64 22.6973 8.92811 22.6994H8.92783H8.92755H8.92727H8.92698H8.9267H8.92642H8.92614H8.92585H8.92557L8.92159 22.6994C8.33525 22.7001 7.7472 22.7009 7.15687 22.7009C6.98077 22.1481 6.80508 21.5971 6.62977 21.0473L6.62856 21.0435C6.26701 19.9097 5.90709 18.7809 5.54865 17.6517C5.30368 16.8799 5.05853 16.1082 4.81338 15.3365L4.81308 15.3356L4.80946 15.3241L4.80734 15.3175C3.72852 11.9214 2.6497 8.52534 1.58688 5.12436C1.45361 4.69757 1.28059 4.53135 0.830262 4.60645C0.645514 4.63733 0.452607 4.61945 0.259707 4.60157H0.259703H0.259699H0.259695H0.259691H0.259687H0.259683H0.259679H0.259675H0.259672L0.259664 4.60157C0.17286 4.59352 0.0860572 4.58547 0 4.58187V0ZM72.4546 23.1181C72.3602 23.0928 72.2655 23.0685 72.1708 23.0441C71.9659 22.9914 71.7609 22.9387 71.5586 22.8771C69.7123 22.3158 68.5472 20.8394 68.4859 18.8047C68.4332 17.0558 68.4244 15.3055 68.4156 13.5552C68.4119 12.8079 68.4082 12.0605 68.401 11.3133C68.3996 11.1759 68.3999 11.0385 68.4003 10.8881C68.4005 10.8148 68.4007 10.7383 68.4007 10.6572H67.0801V6.07807H74.4522V6.66146C74.4522 7.3912 74.4517 8.12093 74.4513 8.85067C74.4499 11.1922 74.4486 13.5337 74.4613 15.8753C74.4635 16.283 74.5375 16.7072 74.6687 17.0933C74.876 17.7033 75.3977 18.0175 76.0478 18.0021C76.6854 17.9868 77.1424 17.6882 77.3736 17.0896L77.3813 17.0696C77.4658 16.8509 77.556 16.6176 77.5577 16.3905C77.5691 14.9437 77.568 13.4969 77.5668 12.0235L77.5668 12.0025C77.5664 11.5584 77.5661 11.112 77.5661 10.6623H76.4246V6.07179H83.6426V18.0821H84.9913V22.6758H78.1868V20.9C78.0801 21.0135 77.987 21.1151 77.9021 21.2079L77.902 21.208C77.7379 21.3873 77.604 21.5335 77.4598 21.6688C76.6611 22.4186 75.6855 22.8049 74.6259 23.0139C74.535 23.0317 74.4455 23.0574 74.3561 23.0832L74.2884 23.1025C74.2696 23.1078 74.2507 23.113 74.2319 23.1181H72.4546ZM163.639 15.2957C163.794 15.2987 163.961 15.302 164.143 15.302C164.122 15.5801 164.105 15.8525 164.089 16.1205V16.1208C164.053 16.7289 164.017 17.3139 163.922 17.8889C163.818 18.5216 163.374 18.9628 162.739 19.1597C161.831 19.4414 161.051 18.9974 160.82 18.0799C160.47 16.684 161.358 15.431 162.804 15.3072C163.066 15.2847 163.331 15.2898 163.639 15.2957ZM158.885 23.0712C158.965 23.0863 159.044 23.1014 159.123 23.1168H160.169C160.209 23.1052 160.249 23.0919 160.288 23.0787C160.375 23.0499 160.461 23.0212 160.55 23.0094C161.593 22.8706 162.523 22.4835 163.327 21.7975C163.546 21.6105 163.778 21.4381 163.992 21.2786L163.993 21.2776C164.086 21.2087 164.175 21.1422 164.259 21.078L164.339 21.9872L164.399 22.6604H171.31V18.0917H169.983V17.4811C169.983 16.8688 169.983 16.2564 169.983 15.6441C169.982 14.2783 169.981 12.9125 169.984 11.5469C169.987 9.44186 169.247 7.717 167.283 6.75399C164.348 5.3145 161.32 5.20393 158.305 6.49311C156.333 7.33571 155.193 9.20168 155.398 11.4064H160.934C160.942 11.3307 160.949 11.2581 160.955 11.1878L160.955 11.1852L160.956 11.1842L160.956 11.1838L160.956 11.1833C160.969 11.0357 160.982 10.8976 161.002 10.7604C161.111 9.98874 161.709 9.42418 162.468 9.36916C163.167 9.31842 163.825 9.74239 163.972 10.4705C164.058 10.8953 164.07 11.3346 164.083 11.7671C164.089 11.9568 164.094 12.1451 164.106 12.3304C163.716 12.3491 163.335 12.3586 162.962 12.368C162.132 12.3888 161.339 12.4086 160.562 12.5275C159.528 12.6858 158.455 12.9203 157.528 13.3806C155.158 14.5585 154.448 16.68 154.805 19.095C155.137 21.3403 156.304 22.5381 158.367 22.9694C158.539 23.0053 158.712 23.0382 158.885 23.0711L158.885 23.0712ZM29.9681 12.3261C30.1277 11.3967 29.8182 10.5596 29.1767 10.1423C28.4902 9.69565 27.4941 9.67421 26.858 10.1401C26.1228 10.6783 25.9984 11.4601 26.0285 12.3261H29.9681ZM26.643 23.0177L26.6428 23.0176C26.1734 22.9471 25.704 22.8767 25.2469 22.759C22.4948 22.0504 20.7354 20.3198 20.0464 17.5664C19.4661 15.2481 19.4667 12.9295 20.2692 10.6547C21.311 7.70151 23.492 6.15511 26.5403 5.73344C27.8644 5.55017 29.1819 5.64233 30.4727 5.98627C33.6419 6.83066 35.3304 8.98953 35.8483 12.1253C35.9575 12.7866 35.9908 13.4605 36.0241 14.1339C36.0371 14.3962 36.0501 14.6583 36.0675 14.9197C36.0757 15.0433 36.0627 15.1683 36.0485 15.3036L36.0485 15.3038C36.0416 15.3697 36.0345 15.438 36.0294 15.5098H25.848C25.8217 16.5209 25.8455 17.4847 26.4251 18.3226C27.1875 19.4247 29.0525 19.2997 29.6821 18.1106C29.8012 17.8856 29.8798 17.6394 29.9626 17.3804L29.9626 17.3804L29.9626 17.3804L29.9626 17.3803C30.0019 17.2573 30.0421 17.1314 30.088 17.0035H35.7848C35.6454 18.1962 35.2951 19.2969 34.594 20.2654C33.3236 22.0205 31.5012 22.7681 29.4181 23.0202C29.2661 23.0386 29.1148 23.0626 28.9635 23.0866L28.9635 23.0866C28.8933 23.0977 28.8231 23.1089 28.7528 23.1195H27.2891C27.0745 23.0825 26.8587 23.0501 26.643 23.0177ZM109.443 10.1115C110.286 10.5937 110.363 11.4234 110.383 12.3209H106.343C106.35 11.4462 106.458 10.6361 107.221 10.129C107.935 9.65553 108.71 9.69308 109.443 10.1115ZM107.02 23.0167C107.242 23.0486 107.463 23.0806 107.683 23.1174H109.147C109.438 23.0535 109.732 22.9982 110.026 22.9429C110.669 22.822 111.312 22.701 111.924 22.4899C114.353 21.6517 116.059 19.3478 116.09 16.9964H110.391C110.375 17.0611 110.359 17.1242 110.344 17.1861C110.312 17.3148 110.282 17.4384 110.247 17.5605C109.961 18.5427 109.334 19.0403 108.369 19.0559C107.361 19.0721 106.689 18.6138 106.421 17.5988C106.302 17.15 106.246 16.6846 106.188 16.1986C106.162 15.975 106.134 15.747 106.1 15.5143H116.459C116.425 15.1158 116.402 14.7217 116.378 14.3317C116.327 13.488 116.278 12.6638 116.131 11.8573C115.607 8.98995 114.023 6.96257 111.149 6.08095C109.768 5.65729 108.351 5.53982 106.918 5.7279C103.934 6.11996 101.757 7.59826 100.671 10.4626C99.8014 12.7562 99.8037 15.1154 100.358 17.4697C101.017 20.2697 102.787 22.0407 105.585 22.7573C106.054 22.8776 106.537 22.9472 107.02 23.0167ZM144.204 12.382C144.452 12.382 144.699 12.3822 144.945 12.3823C145.964 12.383 146.97 12.3836 147.976 12.3735C148.062 12.3725 148.201 12.2615 148.222 12.1784C148.436 11.3264 147.747 10.1841 146.867 9.90547C145.263 9.39729 144.024 10.5052 144.204 12.382ZM144.973 23.0319L144.973 23.0319L144.973 23.0318C144.565 22.9679 144.157 22.904 143.755 22.8159C140.532 22.1111 138.521 19.9835 138.028 16.7284C137.686 14.4701 137.726 12.2308 138.662 10.097C139.832 7.4333 141.976 6.0777 144.808 5.74965C146.82 5.51659 148.769 5.77894 150.559 6.78955C152.612 7.94827 153.605 9.82659 153.975 12.0561C154.102 12.821 154.15 13.5989 154.199 14.3948L154.199 14.3959C154.222 14.7611 154.245 15.1301 154.275 15.5034H143.976C143.965 16.5046 143.995 17.4487 144.53 18.2859C144.962 18.9614 145.639 19.1352 146.398 19.0673C147.116 19.0031 147.645 18.6485 147.935 17.9884C148.024 17.7858 148.085 17.5711 148.149 17.3459L148.149 17.3457L148.149 17.3456L148.149 17.3454C148.179 17.2402 148.21 17.1328 148.244 17.0232H153.913C153.791 18.209 153.426 19.3026 152.728 20.2713C151.62 21.8114 150.044 22.5785 148.216 22.907C147.915 22.9611 147.613 23.0087 147.311 23.0563C147.172 23.0781 147.033 23.1 146.895 23.1225H145.535C145.348 23.0907 145.161 23.0613 144.973 23.0319ZM125.931 5.33981C125.932 5.06288 125.932 4.78584 125.932 4.50867C126.21 4.50867 126.48 4.50151 126.745 4.49451C127.32 4.47929 127.866 4.46482 128.404 4.52614C129.498 4.65083 130.198 5.5358 130.262 6.69945C130.322 7.7883 129.636 8.84472 128.597 9.03562C127.998 9.14575 127.376 9.14367 126.758 9.1416C126.575 9.14098 126.393 9.14037 126.212 9.14264C126.12 9.14379 125.945 8.96376 125.944 8.86616C125.93 7.69192 125.931 6.51747 125.931 5.34109V5.34077V5.34045V5.34013V5.33981ZM125.932 16.3268C125.931 16.1422 125.931 15.9577 125.931 15.7731C125.931 15.5877 125.932 15.4023 125.933 15.2168C125.935 14.7774 125.938 14.3379 125.925 13.8989C125.916 13.5743 126.004 13.4195 126.362 13.4387C126.669 13.4554 126.977 13.4606 127.285 13.4658C127.761 13.4739 128.237 13.482 128.708 13.5323C130.853 13.7606 131.154 16.0846 130.424 17.197C130.071 17.7336 129.512 17.9594 128.912 18.0091C128.369 18.054 127.823 18.067 127.277 18.08C126.953 18.0877 126.629 18.0954 126.305 18.1098C125.992 18.1237 125.923 17.9716 125.927 17.6994C125.935 17.2419 125.933 16.7843 125.932 16.3268ZM117.959 18.1246V22.7423C119.155 22.7276 120.347 22.7151 121.536 22.7025L121.537 22.7025L121.537 22.7025L121.538 22.7025L121.539 22.7025C124.682 22.6694 127.802 22.6364 130.921 22.5669C132.087 22.541 133.222 22.2197 134.236 21.5877C136.316 20.2912 137.262 17.8459 136.689 15.3358C136.227 13.3105 135.104 11.9047 133.051 11.3202C132.948 11.2907 132.848 11.2462 132.731 11.1935C132.671 11.1664 132.605 11.137 132.532 11.1065C132.632 11.055 132.726 11.0107 132.815 10.9689L132.816 10.9687C132.996 10.884 133.153 10.8097 133.291 10.7086C133.452 10.5913 133.617 10.4777 133.783 10.364L133.783 10.3639L133.783 10.3637C134.25 10.043 134.719 9.72088 135.084 9.3091C136.157 8.09859 136.368 6.61287 136.106 5.06061C135.7 2.6556 134.54 1.09926 132.239 0.546523C130.949 0.236783 129.6 0.0675298 128.273 0.0386584C125.952 -0.011613 123.629 -0.00189535 121.306 0.00782241C120.371 0.0117337 119.436 0.0156449 118.502 0.0156449H117.971V4.61091H119.97V18.1246H117.959ZM44.5631 18.0908H45.6614V22.6723H37.2219V18.0837C37.3127 18.0837 37.404 18.0827 37.4956 18.0817C37.7066 18.0795 37.9193 18.0772 38.1314 18.0869C38.4042 18.0992 38.5476 18.0312 38.5461 17.7163C38.5392 16.2056 38.5387 14.6949 38.5381 13.1841V13.1729C38.5378 12.4324 38.5375 11.6919 38.5365 10.9513C38.5364 10.9089 38.5247 10.8665 38.5091 10.8099L38.5091 10.8098L38.5091 10.8096C38.5005 10.7785 38.4907 10.743 38.481 10.7009H37.2161V6.06882H43.8087L44.014 8.38345C44.1428 8.23706 44.2642 8.08898 44.3834 7.94335C44.6363 7.63467 44.8801 7.33702 45.1677 7.08989C47.0396 5.48146 49.1914 5.18375 51.4607 6.01108C53.2062 6.64751 53.9144 8.08888 53.9387 9.8629C53.9632 11.6374 53.961 13.4123 53.9588 15.1872C53.9578 15.9449 53.9569 16.7026 53.958 17.4603C53.9581 17.581 53.9581 17.7017 53.958 17.8354L53.958 18.0648H55.296V22.675H47.9064V22.0755V12.8645C47.9064 12.8241 47.9067 12.7838 47.907 12.7434V12.7431C47.9077 12.6448 47.9083 12.5465 47.9049 12.4483C47.873 11.5249 47.5089 11.0046 46.7896 10.8504C45.9964 10.6804 45.2051 11.0534 44.8481 11.8224C44.6982 12.1451 44.5812 12.5158 44.5756 12.8668C44.5553 14.1299 44.5581 15.3936 44.561 16.6887V16.689V16.6893V16.6896C44.562 17.1522 44.5631 17.6188 44.5631 18.0908ZM65.9035 19.273C65.9032 18.9857 65.9028 18.6955 65.9028 18.4017C65.8299 18.4139 65.7659 18.4244 65.7078 18.4339C65.5987 18.4518 65.5102 18.4663 65.422 18.4826C64.3187 18.6866 63.5952 18.1667 63.4423 17.0527C63.414 16.8476 63.3975 16.639 63.397 16.432C63.3935 14.7152 63.3942 12.9983 63.3964 11.2813C63.3965 11.1595 63.4045 11.0378 63.4134 10.9031L63.4135 10.9025L63.4135 10.9024V10.9023V10.9022C63.4179 10.8363 63.4224 10.7672 63.4264 10.6935H66.0453V6.02874H63.395V0.831572C63.0373 0.912144 62.6823 0.991776 62.3295 1.07091L62.3284 1.07116L62.3278 1.07129L62.3276 1.07135L62.3273 1.0714C60.9272 1.38548 59.5622 1.69168 58.2019 2.0175C58.0698 2.04909 57.9056 2.29439 57.8999 2.44576C57.8774 3.0388 57.8804 3.63283 57.8834 4.22689C57.8844 4.43078 57.8855 4.63467 57.8855 4.83853L57.8854 5.62505L57.8855 6.06159H55.9991V10.711H57.4227V11.3757C57.4227 12.1464 57.4224 12.9172 57.4221 13.6879V13.6929C57.4213 15.5045 57.4206 17.3161 57.4239 19.1277C57.4277 21.1788 58.3385 22.3181 60.332 22.7997C62.1041 23.2278 63.8585 22.9831 65.6083 22.659C65.7234 22.6376 65.8882 22.4399 65.8901 22.322C65.9061 21.3185 65.9048 20.3147 65.9035 19.2732V19.2731V19.273ZM181.997 18.4346V22.6173C181.756 22.6525 181.514 22.6904 181.27 22.7285L181.27 22.7285C180.725 22.8137 180.174 22.8999 179.62 22.9597C178.345 23.0974 177.084 23.0203 175.862 22.5929C174.533 22.1286 173.717 21.2263 173.652 19.8054C173.591 18.4562 173.582 17.1045 173.572 15.753C173.57 15.4224 173.567 15.0918 173.564 14.7612C173.556 13.8441 173.558 12.9268 173.56 11.9839V11.9769V11.9722C173.561 11.5485 173.562 11.1196 173.562 10.6832C173.451 10.6832 173.343 10.6852 173.238 10.6872C172.982 10.6918 172.74 10.6963 172.501 10.6715C172.372 10.6582 172.153 10.5134 172.152 10.4258C172.134 9.25373 172.135 8.08131 172.136 6.87943V6.87797C172.136 6.60767 172.136 6.33587 172.136 6.06225H174.06V3.00701C174.06 2.09098 174.061 2.09073 174.942 1.89363L174.958 1.89023C175.989 1.65942 177.02 1.42526 178.082 1.18416L178.087 1.18289C178.558 1.07605 179.034 0.967845 179.519 0.857971V3.45472V6.0497H182.186V10.681H179.64C179.631 10.6936 179.623 10.7046 179.616 10.7142C179.603 10.7304 179.594 10.7427 179.586 10.7524C179.569 10.7745 179.562 10.7828 179.562 10.7911C179.563 11.3999 179.558 12.0089 179.554 12.618V12.6189C179.543 14.1231 179.533 15.6275 179.597 17.1286C179.643 18.2051 180.489 18.7058 181.561 18.5143C181.649 18.4985 181.737 18.4824 181.835 18.4642L181.997 18.4346ZM97.8707 11.2621C98.1521 11.2574 98.4391 11.2526 98.7324 11.2383C98.7324 10.8213 98.7334 10.3995 98.7343 9.9745C98.7366 8.97149 98.7389 7.94998 98.7289 6.92858C98.7239 6.41112 98.7828 6.177 98.6916 6.05755C98.6005 5.93819 98.3594 5.93333 97.7546 5.87467C95.7411 5.67926 93.9145 6.30125 93.2018 8.47958C93.1931 8.5064 93.1722 8.52937 93.1405 8.56446C93.1217 8.58522 93.0991 8.61022 93.0728 8.64277L92.8847 6.07781H86.3955V10.7228H87.7023V18.1012H86.3911V22.6695H95.5379V18.0598H93.6838C93.6838 17.6539 93.6816 17.2551 93.6795 16.8612C93.6747 15.9904 93.67 15.1436 93.6895 14.2974C93.7267 12.6741 94.521 11.6817 96.1229 11.3858C96.6852 11.2818 97.2651 11.2722 97.8707 11.2621Z" fill="white"/>
</svg>
