<svg width="157" height="24" viewBox="0 0 157 24" fill="none" xmlns="http://www.w3.org/2000/svg">
<path fill-rule="evenodd" clip-rule="evenodd" d="M141.751 19.9512L141.751 19.921C141.758 18.2998 141.764 16.6785 141.788 15.0575L141.791 14.8414C141.799 14.2845 141.807 13.7272 141.824 13.1704L141.825 13.1348V13.1347C141.827 13.0432 141.829 12.9518 141.867 12.8656C141.891 12.8118 141.926 12.7672 141.989 12.7612C142.066 12.7538 142.114 12.8004 142.137 12.8663C142.161 12.9367 142.176 13.0108 142.189 13.0844C142.224 13.2944 142.249 13.5059 142.274 13.7175V13.7176C142.305 13.9816 142.335 14.2455 142.387 14.5067C142.593 15.5351 142.938 16.5167 143.378 17.4658L143.422 17.5607L143.479 17.685L143.479 17.6852L143.479 17.6853L143.479 17.6855C143.617 17.9879 143.756 18.2904 143.919 18.5812C144.205 19.0912 144.543 19.5635 144.916 20.0129C145.496 20.7118 146.145 21.3308 146.934 21.7927C148.071 22.4582 149.273 22.6947 150.561 22.3371C151.208 22.1576 151.717 21.7569 152.159 21.2724C152.895 20.4654 153.264 19.5137 153.206 18.415C153.169 17.6951 153.012 17.0014 152.673 16.3579C152.396 15.8313 151.989 15.4237 151.51 15.0763C150.641 14.4447 149.663 14.0413 148.66 13.6818C148.32 13.5598 147.975 13.4505 147.631 13.3412L147.63 13.3411C147.035 13.1522 146.44 12.9634 145.867 12.7091C144.782 12.227 143.858 11.5388 143.166 10.56C142.514 9.63685 142.192 8.59858 142.107 7.48153C142.049 6.71961 142.108 5.96446 142.246 5.21188C142.374 4.50948 142.619 3.85478 142.978 3.24142C143.48 2.38274 144.079 1.60958 144.897 1.0188C146.129 0.12829 147.495 -0.15819 148.983 0.0804165C149.835 0.217101 150.633 0.517566 151.397 0.911944C151.861 1.15123 152.33 1.34875 152.873 1.30629C153.431 1.26254 153.704 1.04908 153.845 0.501016C153.852 0.47192 153.859 0.442549 153.865 0.413183C153.875 0.369132 153.885 0.325091 153.898 0.282004C153.926 0.191022 153.957 0.0896924 154.078 0.101647C154.198 0.113434 154.211 0.220068 154.221 0.310674L154.222 0.314512C154.235 0.426076 154.238 0.539529 154.236 0.652023C154.221 1.58181 154.207 2.51156 154.189 3.44129C154.182 3.79762 154.173 4.15393 154.165 4.51023C154.144 5.38405 154.123 6.25787 154.126 7.13218C154.127 7.34221 154.114 7.5523 154.101 7.76238C154.095 7.85236 154.09 7.94233 154.085 8.0323C154.084 8.06966 154.08 8.10763 154.071 8.14375C154.051 8.22162 154.011 8.28624 153.922 8.28751C153.835 8.28875 153.789 8.22814 153.759 8.15365C153.731 8.08191 153.728 8.00704 153.725 7.93207C153.724 7.90395 153.723 7.87582 153.72 7.84783L153.706 7.68554C153.642 6.95363 153.577 6.22148 153.339 5.51846C152.932 4.32066 152.421 3.17348 151.654 2.15745C151.096 1.41944 150.364 0.905939 149.517 0.549284C149.315 0.463848 149.098 0.434063 148.881 0.404409L148.881 0.404328C148.846 0.399494 148.81 0.394663 148.775 0.389593C148.059 0.286177 147.356 0.306871 146.671 0.584667C146.268 0.748362 145.934 0.999233 145.654 1.32067C145.128 1.92482 144.807 2.61151 144.76 3.4317C144.729 3.96184 144.728 4.48402 144.837 5.00042C145.047 5.98699 145.511 6.81722 146.327 7.44459C147.009 7.96838 147.771 8.31596 148.577 8.58753C148.828 8.67231 149.081 8.75516 149.333 8.83801L149.333 8.83812C149.938 9.03671 150.542 9.23531 151.137 9.46058C151.989 9.78349 152.818 10.1688 153.576 10.6815C154.496 11.3032 155.147 12.1501 155.595 13.1622C155.852 13.7453 155.966 14.3601 156.053 14.9854C156.118 15.4442 156.132 15.9061 156.107 16.3631C156.083 16.811 155.978 17.2541 155.825 17.6812C155.457 18.7094 154.934 19.6505 154.21 20.4688C153.102 21.7205 151.754 22.5577 150.07 22.7761C149.459 22.8553 148.852 22.7766 148.249 22.6692C147.418 22.5214 146.649 22.1918 145.882 21.8606L145.735 21.7974L145.735 21.7972C145.422 21.6614 145.109 21.5256 144.786 21.4133C144.267 21.2325 143.732 21.197 143.207 21.3585C142.559 21.558 142.157 21.994 142.076 22.6897C142.074 22.7068 142.073 22.7246 142.071 22.7425L142.071 22.743L142.071 22.7434C142.064 22.8474 142.056 22.9556 141.914 22.9767C141.812 22.9918 141.762 22.8872 141.759 22.6632C141.757 22.453 141.758 22.2427 141.758 22.0324C141.758 21.942 141.758 21.8516 141.758 21.7612L141.743 21.7612C141.746 21.1579 141.749 20.5546 141.751 19.9512ZM13.0675 18.1728C12.5263 18.248 11.985 18.2911 11.5504 18.2813C9.66113 18.2963 7.96864 17.9074 6.36499 17.1545C4.81254 16.4258 3.49185 15.3838 2.37243 14.0844C1.79876 13.4185 1.33618 12.6799 0.909636 11.9152C0.822403 11.7589 0.820148 11.6204 0.896892 11.463C1.11159 11.0226 1.36613 10.6057 1.63783 10.1995C2.09895 9.5102 2.62378 8.87296 3.22654 8.30175C4.45693 7.13578 5.85986 6.24324 7.46027 5.67942C8.97387 5.14618 10.5358 4.89373 12.142 4.99884C13.9182 5.11508 15.5982 5.57422 17.1648 6.4404C18.1678 6.99501 19.0844 7.65982 19.8825 8.47917C20.6926 9.31081 21.382 10.2348 21.9173 11.2706C22.0181 11.4655 22.0251 11.6324 21.9266 11.8268C21.5558 12.5592 21.1134 13.2462 20.5999 13.8841C19.9851 14.6479 19.2883 15.3324 18.5003 15.9192C16.8791 17.1265 15.0755 17.8939 13.0675 18.1728ZM11.617 0.130007C5.17658 0.0347954 -0.00557145 5.24393 0.000264726 11.5716C-0.0425339 17.9517 5.10971 23.0498 11.4144 23.0414C17.647 23.0332 22.823 18.1123 22.8448 11.6299C22.866 5.34512 17.9743 0.224006 11.617 0.130007ZM97.0622 14.244C97.0641 14.3433 97.066 14.4455 97.0214 14.5503C96.9172 14.5028 96.8661 14.4207 96.818 14.3433C96.8081 14.3274 96.7984 14.3117 96.7883 14.2965C96.5966 14.0078 96.4071 13.7175 96.2176 13.4273L96.2173 13.4268C95.9496 13.0169 95.682 12.6071 95.4081 12.2014C95.0397 11.6557 94.6876 11.0993 94.3356 10.5428C93.8437 9.76536 93.3517 8.98788 92.815 8.23953C92.2784 7.49127 91.7747 6.72072 91.271 5.95015L91.2706 5.94948C90.9878 5.51687 90.705 5.08426 90.4163 4.65558C89.5868 3.42352 88.7705 2.18255 87.9543 0.941626L87.8934 0.849128C87.7478 0.62772 87.5772 0.501241 87.2973 0.5011C85.0798 0.499916 82.8625 0.512913 80.6455 0.564114C80.5894 0.565411 80.5321 0.568286 80.4778 0.581002C80.3892 0.601837 80.3193 0.651064 80.3226 0.752817C80.3259 0.85268 80.3966 0.904247 80.485 0.920346C80.5674 0.935401 80.6531 0.937037 80.7374 0.937234C80.9756 0.937791 81.2138 0.937729 81.452 0.937667C81.7682 0.937585 82.0845 0.937502 82.4007 0.938869C82.5225 0.939405 82.6453 0.945974 82.7657 0.963173C82.9898 0.995173 83.0179 1.0223 83.0205 1.25264C83.0229 1.47527 83.032 1.69757 83.041 1.91984C83.0461 2.04458 83.0512 2.16931 83.0551 2.29407C83.0707 2.79232 83.0752 3.2907 83.0797 3.78915V3.78923V3.78931V3.78938V3.78946V3.78954V3.78962C83.0851 4.38054 83.0904 4.97155 83.1142 5.56253C83.138 6.15321 83.1416 6.7445 83.1451 7.33595V7.33604V7.33613V7.33621V7.3363V7.33638V7.33647C83.1481 7.82531 83.151 8.31427 83.1654 8.8031C83.1894 9.62017 83.1904 10.4379 83.1915 11.2557V11.2565C83.192 11.6876 83.1925 12.1186 83.1964 12.5496C83.1986 12.7946 83.2056 13.0396 83.2126 13.2845C83.22 13.5465 83.2275 13.8086 83.2291 14.0706C83.2327 14.6369 83.2355 15.2031 83.2384 15.7694C83.2479 17.6367 83.2573 19.5041 83.2904 21.3712C83.2925 21.4912 83.2906 21.6113 83.2886 21.7314V21.7321L83.2867 21.8504C83.2848 21.9965 83.2057 22.0768 83.065 22.094C82.9814 22.1043 82.8963 22.1049 82.8118 22.1055C82.4615 22.1079 82.1112 22.1099 81.7609 22.1119L81.7528 22.1119C81.4949 22.1134 81.2371 22.1148 80.9793 22.1164L80.9459 22.1166C80.8537 22.1167 80.7613 22.1168 80.6728 22.1501C80.5954 22.1792 80.5421 22.23 80.5524 22.3178C80.5611 22.3917 80.6169 22.4367 80.6852 22.4454C80.7964 22.4596 80.9095 22.4667 81.0217 22.4653C81.8706 22.4547 82.7194 22.4431 83.5682 22.4316L83.573 22.4315C84.0378 22.4252 84.5025 22.4188 84.9672 22.4127C85.0983 22.411 85.2294 22.41 85.3604 22.409C85.5583 22.4075 85.7561 22.406 85.9539 22.402C86.047 22.4001 86.1409 22.3863 86.2325 22.3679C86.3096 22.3525 86.3777 22.3128 86.372 22.2189C86.3665 22.1286 86.2965 22.0888 86.2207 22.0758C86.1289 22.06 86.0341 22.0559 85.9406 22.0563C85.6655 22.0573 85.3904 22.0592 85.1153 22.0611C84.742 22.0637 84.3687 22.0663 83.9954 22.0667C83.6791 22.0671 83.6532 22.0409 83.6481 21.7342C83.6444 21.5066 83.6403 21.279 83.6363 21.0513L83.6363 21.0497C83.6233 20.3198 83.6104 19.5899 83.6075 18.8599C83.6035 17.853 83.6029 16.8462 83.6023 15.8393C83.6017 14.7411 83.6011 13.6429 83.5961 12.5447C83.5919 11.6344 83.592 10.7239 83.5921 9.81352C83.5923 7.83002 83.5925 5.84649 83.5486 3.86321C83.5451 3.70361 83.5494 3.54375 83.5538 3.38408C83.5554 3.32919 83.5579 3.26384 83.6252 3.24678C83.6724 3.23484 83.6988 3.27169 83.723 3.3055C83.7267 3.31064 83.7304 3.31572 83.734 3.32053C83.7907 3.39542 83.847 3.47081 83.9004 3.54812C84.008 3.70395 84.1161 3.85955 84.2241 4.01516L84.2245 4.01581C84.4967 4.40801 84.769 4.80022 85.0358 5.19606C85.5291 5.92784 86.0209 6.66064 86.5127 7.39344L86.5135 7.39467L86.5145 7.39605L86.5152 7.39713L86.516 7.39836L86.5166 7.39928L86.5176 7.40067C87.2284 8.45982 87.9392 9.51898 88.6545 10.5751C89.3786 11.6439 90.107 12.7098 90.8355 13.7757L90.8357 13.776L90.8359 13.7764L90.8362 13.7767L90.8364 13.777L90.8366 13.7773L90.8369 13.7776C91.3645 14.5497 91.8922 15.3217 92.4181 16.0949C92.9977 16.9469 93.5757 17.8001 94.1537 18.6533L94.1547 18.6547L94.1557 18.6561L94.1599 18.6624C94.7657 19.5565 95.3715 20.4507 95.9791 21.3436C96.3121 21.8329 96.6563 22.3147 97.0029 22.7944C97.0178 22.815 97.0323 22.8385 97.0471 22.8627L97.0472 22.8628L97.0473 22.863L97.0474 22.8631L97.0476 22.8634C97.1098 22.9644 97.1788 23.0764 97.3098 23.0325C97.4236 22.9943 97.4169 22.8717 97.4108 22.7595C97.4092 22.7313 97.4077 22.7038 97.4082 22.6784C97.4125 22.4333 97.4141 22.188 97.4157 21.9428V21.9422C97.4185 21.5115 97.4213 21.0809 97.439 20.6508C97.4642 20.0394 97.4632 19.4281 97.4621 18.8168V18.8162C97.4619 18.6482 97.4616 18.4801 97.4618 18.312C97.4675 14.7413 97.4726 11.1707 97.4771 7.60006C97.4774 7.36046 97.4774 7.12087 97.4775 6.88127V6.85949C97.4778 5.58545 97.4782 4.31143 97.5123 3.03752C97.5218 2.68182 97.5186 2.3258 97.5154 1.96976V1.96911C97.5135 1.76143 97.5116 1.55374 97.5122 1.3461C97.5138 0.840077 97.5288 0.82364 98.0343 0.820285C98.4558 0.817478 98.8773 0.816882 99.2988 0.816285C99.6479 0.815791 99.9969 0.815297 100.346 0.813547C100.88 0.810896 100.888 0.813688 100.891 1.33829C100.896 2.27346 100.894 3.20866 100.892 4.14387C100.887 5.90538 100.883 7.66691 100.931 9.42827C100.945 9.93759 100.942 10.4473 100.939 10.9571V10.9578C100.938 11.2091 100.937 11.4604 100.937 11.7117L100.939 12.2466C100.944 14.4544 100.95 16.6622 100.99 18.8698C101.002 19.5314 101.002 20.1932 101.002 20.8549V20.8562C101.002 21.0962 101.002 21.3362 101.002 21.5763C101.003 21.9865 100.994 21.9944 100.57 21.998C100.282 22.0005 99.9945 22.0015 99.7069 22.0024C99.5528 22.0029 99.3987 22.0035 99.2446 22.0042L99.1357 22.0045L99.0489 22.0044H99.0487C98.879 22.0043 98.7094 22.0042 98.5399 22.0105C98.2993 22.0194 98.1975 22.0764 98.1967 22.1822C98.1958 22.2928 98.2993 22.3477 98.536 22.3512C98.7233 22.3541 98.9107 22.354 99.0981 22.3539C99.1832 22.3538 99.2683 22.3538 99.3534 22.354C102.022 22.3613 104.69 22.3482 107.359 22.313C109.062 22.2906 110.766 22.2919 112.469 22.2932C113.247 22.2937 114.024 22.2943 114.802 22.2927L114.821 22.2926C114.937 22.2925 115.053 22.2923 115.167 22.2781C115.381 22.2516 115.441 22.1859 115.454 21.9682L115.462 21.8416L115.462 21.8411C115.479 21.574 115.495 21.3067 115.496 21.0394C115.505 19.0177 115.509 16.9959 115.514 14.9742V14.9741V14.974V14.974V14.9739V14.9738V14.9738L115.515 14.5269C115.515 14.4428 115.509 14.3578 115.496 14.2747C115.485 14.2062 115.446 14.149 115.371 14.1399C115.282 14.1292 115.232 14.1848 115.204 14.2609C115.172 14.3464 115.165 14.4359 115.158 14.5257C115.156 14.5484 115.155 14.5712 115.152 14.5939C115.125 14.8835 115.096 15.1732 115.06 15.4617C114.956 16.2827 114.66 17.0454 114.321 17.7902C113.999 18.4977 113.557 19.1372 112.988 19.6629C111.956 20.6155 110.758 21.2834 109.387 21.6239C108.267 21.9019 107.13 22.0031 105.979 21.9861C105.495 21.9789 105.468 21.9555 105.471 21.4749C105.477 20.4381 105.478 19.4013 105.478 18.3645C105.478 16.3756 105.479 14.3868 105.521 12.3982C105.523 12.2885 105.523 12.1787 105.524 12.069C105.524 11.9626 105.524 11.8561 105.526 11.7498C105.533 11.3808 105.552 11.3629 105.908 11.3604C106.405 11.357 106.877 11.469 107.33 11.6675C107.702 11.8306 108.039 12.0536 108.372 12.2832C109.188 12.8456 109.745 13.584 109.931 14.5736C110.017 15.0265 110.075 15.4826 110.074 15.9448C110.074 16.048 110.074 16.1521 110.088 16.254C110.1 16.3417 110.143 16.4199 110.248 16.4183C110.339 16.4169 110.371 16.345 110.393 16.2695C110.427 16.1498 110.428 16.0269 110.428 15.9041L110.428 15.8778C110.43 15.3766 110.431 14.8755 110.433 14.3743C110.438 13.1379 110.442 11.9014 110.444 10.6649C110.445 9.83694 110.443 9.00893 110.441 8.18092C110.44 7.88123 110.439 7.58155 110.438 7.28186L110.438 7.26552C110.438 7.177 110.438 7.08814 110.429 7.00026C110.418 6.89123 110.382 6.78759 110.248 6.79199C110.135 6.79576 110.093 6.88742 110.079 6.98602C110.062 7.11076 110.048 7.23597 110.035 7.36118V7.36128L110.02 7.48965C109.966 7.97041 109.855 8.43215 109.589 8.84638C108.75 10.1509 107.52 10.767 106.007 10.8782C105.562 10.9109 105.528 10.8731 105.528 10.4183C105.527 7.8951 105.528 5.37184 105.53 2.84859L105.53 1.31219C105.53 1.24647 105.531 1.18027 105.538 1.11508C105.56 0.916878 105.62 0.837878 105.82 0.833142C105.892 0.83145 105.963 0.82956 106.035 0.827669C106.639 0.811691 107.243 0.795707 107.844 0.899905C108.686 1.04578 109.48 1.31986 110.219 1.74998C110.88 2.13492 111.495 2.57525 111.991 3.16947C112.238 3.46576 112.471 3.77266 112.695 4.08496C113.278 4.89376 113.709 5.77486 113.938 6.74972C114.016 7.08331 114.047 7.42258 114.077 7.76183C114.093 7.93682 114.109 8.11181 114.131 8.28602C114.134 8.30422 114.135 8.32248 114.137 8.34073C114.144 8.4065 114.151 8.47204 114.179 8.53384C114.212 8.60785 114.262 8.66221 114.349 8.65719C114.439 8.65192 114.479 8.58716 114.492 8.50765C114.502 8.44408 114.502 8.37863 114.502 8.31395L114.502 8.311C114.505 7.91379 114.504 7.51658 114.504 7.11938C114.504 6.19195 114.503 5.26453 114.533 4.33702C114.554 3.71241 114.548 3.08689 114.542 2.46149V2.4614V2.46132V2.46123V2.46115V2.46107V2.46098C114.54 2.27819 114.538 2.09541 114.537 1.91266C114.534 1.5277 114.52 1.14271 114.503 0.758089C114.493 0.52608 114.425 0.46301 114.193 0.448941C114.123 0.444744 114.054 0.445403 113.984 0.446061C113.96 0.446292 113.935 0.446523 113.911 0.446544L110.765 0.449384C106.72 0.453023 102.675 0.456663 98.6306 0.460783C97.8191 0.461625 97.0077 0.463527 96.1962 0.465428C95.7585 0.466454 95.3209 0.467479 94.8832 0.468339L94.8673 0.468365C94.7314 0.468571 94.5954 0.468778 94.4645 0.511786C94.3988 0.533382 94.3476 0.574094 94.3402 0.649542C94.3316 0.737564 94.3802 0.79054 94.4551 0.823358C94.5341 0.857952 94.6187 0.866411 94.7036 0.86548C94.8813 0.863482 95.059 0.864769 95.2368 0.866056C95.6509 0.869055 96.065 0.872054 96.4785 0.833508C96.6097 0.8213 96.7416 0.819045 96.8718 0.844504C97.0571 0.880733 97.0927 0.916934 97.1024 1.10389C97.1094 1.23647 97.1093 1.36945 97.1092 1.50237L97.1092 1.58305C97.1097 1.90261 97.1104 2.22219 97.1112 2.54177C97.1131 3.34043 97.115 4.13911 97.1119 4.93775C97.1081 5.87404 97.1087 6.81036 97.1094 7.74668C97.1108 9.883 97.1122 12.0193 97.0617 14.1553C97.061 14.1846 97.0616 14.2142 97.0622 14.244ZM127.025 15.1504C127.128 14.9641 127.181 14.7856 127.232 14.6112L127.252 14.5447C127.937 12.2588 128.62 9.97236 129.302 7.68549C129.339 7.55949 129.373 7.43231 129.407 7.30514L129.407 7.30503L129.407 7.3049L129.407 7.30477L129.407 7.30462L129.407 7.30371C129.446 7.15882 129.484 7.01396 129.528 6.87085C129.597 6.64594 129.589 6.43046 129.519 6.20722C129.248 5.3359 128.981 4.46339 128.713 3.5909L128.582 3.16321C128.505 2.91279 128.429 2.66218 128.353 2.41157L128.352 2.41086L128.352 2.41014L128.352 2.40942L128.352 2.40862L128.35 2.40242C128.233 2.01788 128.116 1.63334 127.997 1.24951C127.889 0.900782 127.86 0.881582 127.502 0.87865C127.264 0.876696 127.026 0.876093 126.787 0.875491C126.603 0.875024 126.418 0.874557 126.233 0.873462C126.149 0.872983 126.064 0.872249 125.98 0.86038C125.872 0.844929 125.769 0.802215 125.777 0.671339C125.784 0.557998 125.879 0.523545 125.979 0.513536C126.025 0.508884 126.073 0.506601 126.12 0.507503C126.784 0.520217 127.447 0.501913 128.111 0.483607C128.678 0.467977 129.244 0.452346 129.812 0.45602C130.999 0.463741 132.187 0.46343 133.375 0.463118C133.935 0.462971 134.495 0.462824 135.055 0.46352L135.093 0.463509C135.222 0.463364 135.35 0.463219 135.476 0.496479C135.562 0.519344 135.641 0.554333 135.646 0.656734C135.653 0.774698 135.569 0.824038 135.471 0.841264C135.37 0.85897 135.266 0.86709 135.163 0.867851C134.754 0.870912 134.345 0.872378 133.935 0.873843L133.935 0.873844C133.734 0.874565 133.532 0.875286 133.331 0.876197L133.282 0.876305C133.204 0.876387 133.126 0.87647 133.049 0.882597C132.794 0.902868 132.754 0.956409 132.826 1.20395C133.072 2.04233 133.321 2.88006 133.572 3.71689C134.299 6.13729 135.027 8.55764 135.757 10.9771C136.132 12.2181 136.512 13.4575 136.894 14.6966C136.901 14.7179 136.906 14.7424 136.911 14.7676C136.928 14.853 136.947 14.9463 137.034 14.9485C137.139 14.9512 137.162 14.8497 137.184 14.7579C137.189 14.734 137.195 14.7108 137.202 14.6903C137.706 13.1353 138.21 11.5802 138.707 10.0228C139.111 8.75831 139.511 7.49296 139.912 6.2276L139.913 6.2254L139.913 6.22321L139.914 6.22156L139.914 6.21992L139.915 6.21828C140.146 5.48924 140.376 4.76021 140.608 4.03134C140.718 3.68398 140.829 3.3369 140.94 2.98982L140.941 2.98917C141.116 2.44169 141.291 1.89422 141.463 1.34566C141.613 0.86819 141.577 0.825081 141.086 0.824714C140.823 0.824497 140.561 0.824673 140.298 0.824849C139.912 0.825108 139.526 0.825366 139.14 0.824376C139.047 0.824122 138.952 0.819724 138.861 0.799199C138.784 0.781634 138.732 0.722426 138.737 0.633953C138.741 0.559887 138.787 0.515482 138.852 0.488218C138.927 0.456605 139.006 0.456767 139.085 0.456928L139.102 0.456951C140.878 0.457148 142.654 0.457769 144.431 0.458699L144.444 0.458697C144.543 0.458651 144.644 0.458604 144.733 0.510266C144.853 0.57968 144.849 0.710331 144.728 0.776559C144.646 0.821016 144.556 0.820117 144.468 0.819227C144.453 0.819081 144.438 0.818935 144.424 0.818991C144.011 0.820543 143.599 0.821151 143.186 0.821758L142.648 0.822628C142.612 0.822706 142.576 0.823346 142.54 0.823986C142.472 0.825188 142.405 0.826389 142.338 0.823868C142.118 0.815636 141.991 0.91595 141.926 1.12726C141.796 1.54663 141.662 1.96458 141.528 2.38253L141.528 2.38304L141.527 2.38359C141.461 2.5915 141.394 2.79941 141.328 3.0075C141.189 3.44426 141.05 3.88092 140.91 4.31757L140.91 4.31838C140.555 5.43002 140.201 6.54166 139.852 7.65501C139.259 9.54661 138.669 11.4392 138.099 13.338C137.731 14.5612 137.352 15.7809 136.973 17.0006L136.973 17.0029L136.972 17.0052L136.971 17.0075C136.871 17.3287 136.772 17.6499 136.672 17.9711L136.47 18.6241C136.043 20.0041 135.616 21.3841 135.154 22.7528C135.149 22.7657 135.145 22.7787 135.141 22.7917L135.136 22.8071C135.107 22.8964 135.078 22.9858 135.021 23.0623C134.964 23.1396 134.897 23.1432 134.837 23.0646C134.769 22.9746 134.735 22.8688 134.7 22.7636L134.7 22.7613C134.693 22.7422 134.687 22.7231 134.681 22.7042C134.274 21.5061 133.9 20.2974 133.527 19.0887L133.366 18.5675C133.097 17.6978 132.822 16.8299 132.547 15.962C132.305 15.1998 132.063 14.4377 131.826 13.6743C131.559 12.8169 131.298 11.9577 131.036 11.0985L131.036 11.0978L131.036 11.0972L131.036 11.0966L131.036 11.0959L131.035 11.0953C130.873 10.5625 130.711 10.0297 130.548 9.49735C130.424 9.09312 130.296 8.69005 130.168 8.28697L130.168 8.28572L130.167 8.28439L130.167 8.28287C130.122 8.14102 130.077 7.99916 130.032 7.85725C130.015 7.80359 129.994 7.75104 129.973 7.69888C129.959 7.6635 129.936 7.62868 129.896 7.62462C129.839 7.61881 129.812 7.66572 129.797 7.70869L129.778 7.76382C129.707 7.96726 129.636 8.17082 129.573 8.37681C129.401 8.94084 129.228 9.50452 129.055 10.0682C128.621 11.4803 128.187 12.8924 127.772 14.3102C127.146 16.4511 126.493 18.5835 125.839 20.716L125.839 20.7168L125.839 20.7178C125.724 21.0908 125.61 21.4638 125.496 21.8368C125.428 22.0581 125.353 22.2772 125.278 22.4963C125.256 22.5618 125.234 22.6273 125.212 22.6928C125.188 22.7638 125.159 22.8338 125.127 22.9014L125.116 22.9245C125.088 22.9859 125.058 23.0519 124.979 23.0551C124.886 23.0588 124.855 22.9845 124.826 22.9161C124.822 22.9066 124.818 22.8971 124.814 22.888C124.771 22.794 124.737 22.6962 124.704 22.5981C124.203 21.0814 123.703 19.5645 123.203 18.0475C123.047 17.5714 122.889 17.0955 122.732 16.6196C122.349 15.4632 121.967 14.3067 121.593 13.1475C121.141 11.7477 120.696 10.3458 120.251 8.94394L120.251 8.94319L120.25 8.94244L120.25 8.9417L120.25 8.94133L120.25 8.94058C120.033 8.25713 119.816 7.57368 119.598 6.89047C119.151 5.48792 118.703 4.08557 118.256 2.68322L117.842 1.38578C117.832 1.35568 117.822 1.32579 117.811 1.29591C117.794 1.2458 117.777 1.19571 117.763 1.14469C117.711 0.956944 117.6 0.855784 117.396 0.867795C117.337 0.871332 117.277 0.868906 117.217 0.86648C117.192 0.865483 117.167 0.864487 117.143 0.863904L116.615 0.851776C116.125 0.840537 115.634 0.829298 115.143 0.81682C114.923 0.811238 114.808 0.752763 114.833 0.656255C114.868 0.520183 114.981 0.517899 115.088 0.515719C115.103 0.515405 115.118 0.515093 115.133 0.514382C115.204 0.510996 115.275 0.51101 115.346 0.511024C115.388 0.511033 115.43 0.511041 115.471 0.51035C118.093 0.467242 120.714 0.440063 123.336 0.468651C123.558 0.471078 123.781 0.47999 124.004 0.488907C124.203 0.496878 124.403 0.504854 124.602 0.508208C124.64 0.508828 124.678 0.51238 124.714 0.520698C124.801 0.540772 124.878 0.580525 124.883 0.682081C124.888 0.80168 124.8 0.844507 124.703 0.860887C124.62 0.874815 124.534 0.876056 124.45 0.876338C124.22 0.877109 123.991 0.876963 123.761 0.876818C123.596 0.876714 123.431 0.876609 123.266 0.876845L123.186 0.876728C123.081 0.876419 122.976 0.876109 122.871 0.883132C122.639 0.898752 122.59 0.965318 122.656 1.19158C122.823 1.7594 122.994 2.32625 123.168 2.89196C124.005 5.61274 124.843 8.33344 125.683 11.0533C126.072 12.3099 126.466 13.5649 126.86 14.8196C126.866 14.8374 126.871 14.8555 126.876 14.8739C126.901 14.963 126.927 15.0585 127.025 15.1504ZM54.4052 4.08642C54.5504 4.77779 54.5887 5.48061 54.5929 6.34234C54.6258 7.14998 54.4246 8.07681 54.0767 8.96393C53.6921 9.94435 52.9636 10.5102 51.8911 10.6161C51.5113 10.6535 51.1306 10.6728 50.7508 10.692L50.7507 10.692L50.7507 10.692L50.7507 10.692L50.7506 10.692L50.6561 10.6968C50.3125 10.7142 49.9665 10.6935 49.6213 10.6728C49.5444 10.6682 49.4676 10.6636 49.3909 10.6594C49.1978 10.6489 49.149 10.5842 49.145 10.3572C49.1351 9.79408 49.1288 9.23079 49.1284 8.66756C49.1269 6.85318 49.1271 5.03879 49.1274 3.2244L49.1276 1.90814C49.1276 1.87143 49.1274 1.83469 49.1273 1.79796C49.1267 1.66565 49.1262 1.53328 49.1327 1.4013C49.1438 1.17473 49.1921 1.12006 49.4238 1.11442L49.4783 1.11309C49.8355 1.10431 50.1939 1.09551 50.55 1.11724C50.9613 1.14231 51.3729 1.1859 51.7765 1.27959C52.6076 1.4724 53.3273 1.84166 53.8154 2.57364C54.1226 3.03421 54.2929 3.55121 54.4052 4.08642ZM50.5794 22.1678V22.166C50.4609 22.166 50.3425 22.1663 50.224 22.1665C49.9479 22.1671 49.6718 22.1678 49.3957 22.1651C49.1094 22.1623 49.0571 22.1075 49.0394 21.8182C49.0246 21.5772 49.0379 21.337 49.0512 21.0967V21.0966V21.0965V21.0964V21.0963C49.0602 20.9335 49.0693 20.7707 49.0696 20.6076C49.0743 17.9489 49.0824 15.2902 49.094 12.6316C49.0954 12.3046 49.111 11.9776 49.1266 11.6508L49.1266 11.6501L49.1266 11.6497L49.1267 11.6493L49.1267 11.6489L49.1267 11.6484C49.1303 11.5728 49.1339 11.4971 49.1374 11.4214C49.1472 11.2037 49.192 11.1495 49.4043 11.1419C50.4095 11.1056 51.4145 11.0831 52.4043 11.3176C53.6793 11.6198 54.559 12.3789 55.0303 13.6012C55.1844 14.001 55.2375 14.4255 55.2903 14.8476L55.3069 14.979C55.4321 15.959 55.4766 16.9439 55.4257 17.9309C55.3953 18.5214 55.3577 19.1128 55.2073 19.6889C55.0248 20.3884 54.6969 20.9986 54.1112 21.4471C53.9152 21.5972 53.6946 21.7011 53.463 21.7821C52.7577 22.0286 52.0372 22.1888 51.284 22.1688C51.1231 22.1645 50.962 22.1656 50.8009 22.1668L50.6973 22.1674C50.658 22.1677 50.6187 22.1678 50.5794 22.1678ZM54.6405 11.0204C54.5714 11.008 54.4988 10.9949 54.4555 10.9179C54.5123 10.8531 54.5873 10.8368 54.6597 10.8211C54.6775 10.8173 54.6951 10.8135 54.7123 10.809C55.5022 10.602 56.2309 10.2606 56.9054 9.80458C57.4223 9.45506 57.9124 9.0615 58.2304 8.51902C58.9009 7.37515 59.0422 6.15249 58.542 4.91793C57.9372 3.42477 56.8459 2.36642 55.3923 1.68706C54.2999 1.17644 53.1369 0.926129 51.9433 0.796492C51.3772 0.734977 50.8093 0.728706 50.2415 0.722435C49.9268 0.71896 49.6121 0.715485 49.2977 0.702606C48.6944 0.677879 48.0899 0.681821 47.4854 0.685763C47.2346 0.687399 46.9837 0.689035 46.7329 0.688622C45.2108 0.686084 43.6887 0.684421 42.1665 0.682955C42.0915 0.682898 42.0158 0.68318 41.9415 0.691949C41.8535 0.702296 41.7679 0.73345 41.7651 0.838614C41.7625 0.939634 41.8419 0.980459 41.927 1.00738C42.0201 1.03682 42.1162 1.03741 42.212 1.03799L42.2343 1.03814C42.4137 1.03955 42.5931 1.0407 42.7724 1.04186C43.1192 1.0441 43.466 1.04634 43.8128 1.05035C43.9534 1.05196 44.0948 1.05802 44.2342 1.07494C44.5308 1.11088 44.5533 1.13254 44.557 1.42175C44.5606 1.70118 44.563 1.98062 44.5654 2.26006C44.5709 2.91028 44.5764 3.56052 44.5973 4.21071C44.6101 4.60704 44.6066 5.0039 44.603 5.40077C44.6013 5.59599 44.5996 5.79121 44.5998 5.98637L44.6065 12.1917V12.192V12.1924V12.1927V12.193C44.6099 15.3483 44.6133 18.5035 44.6165 21.6588C44.6166 21.7621 44.613 21.8654 44.6077 21.9686C44.6013 22.0916 44.5345 22.1571 44.411 22.1619C44.3265 22.1652 44.242 22.168 44.1575 22.168C43.9047 22.1683 43.652 22.1683 43.3993 22.1683C43.0319 22.1683 42.6645 22.1683 42.2971 22.1689C42.2127 22.169 42.1272 22.1697 42.0445 22.1836C41.9588 22.1979 41.8748 22.2336 41.8773 22.3407C41.8796 22.4429 41.9585 22.4855 42.0443 22.5038C42.1171 22.5193 42.1934 22.5235 42.2682 22.5238C43.4612 22.529 44.6539 22.5465 45.8468 22.5649C47.0298 22.5831 48.2134 22.5936 49.3973 22.5435C50.1095 22.5134 50.8236 22.5222 51.5372 22.531H51.5373L51.5376 22.531C51.6697 22.5327 51.8018 22.5343 51.9339 22.5357C52.857 22.5454 53.7735 22.4652 54.6849 22.3365C55.7887 22.1807 56.7635 21.7037 57.6602 21.0598C58.0567 20.7751 58.4479 20.4819 58.7685 20.1062C59.4737 19.2799 59.8606 18.3209 59.9845 17.2469C60.0974 16.2675 59.9304 15.3432 59.4957 14.4575C59.1666 13.7871 58.7039 13.2297 58.1547 12.7341C57.7263 12.3476 57.2529 12.0328 56.7352 11.777C56.083 11.4548 55.3992 11.226 54.7007 11.0331C54.6816 11.0278 54.6612 11.0241 54.6405 11.0204ZM61.4246 17.9561C61.4264 18.2986 61.4282 18.6412 61.4282 18.9836H61.4066L61.4065 19.7599V19.779C61.4065 20.6979 61.4064 21.6169 61.407 22.5359C61.407 22.5579 61.4066 22.58 61.4061 22.6021V22.6022V22.6022C61.4045 22.6929 61.4028 22.7837 61.4297 22.872C61.4503 22.9394 61.4931 22.9896 61.569 22.9909C61.6443 22.9922 61.6948 22.9476 61.7128 22.8785C61.7364 22.7879 61.7567 22.6953 61.7657 22.6024C61.7958 22.2889 61.9316 22.0314 62.1508 21.8082C62.4848 21.4679 62.8934 21.3078 63.3616 21.2834C63.8808 21.2565 64.3651 21.3911 64.8354 21.5995L64.9224 21.6381C65.4945 21.8917 66.0665 22.1453 66.6521 22.3675C67.4059 22.6533 68.1844 22.8205 68.9883 22.8433C69.9506 22.8707 70.8511 22.6114 71.6873 22.1516C73.0089 21.4248 73.9936 20.3612 74.7009 19.0358C75.07 18.3442 75.3722 17.6265 75.4841 16.8439C75.604 16.0059 75.5341 15.1717 75.3557 14.3518C75.0372 12.8884 74.2795 11.6973 73.0448 10.8344C72.2779 10.2985 71.4236 9.9233 70.5559 9.58624C70.0759 9.39981 69.5887 9.23169 69.1016 9.06358C68.9047 8.99565 68.7079 8.92772 68.5115 8.85858C67.8018 8.60869 67.0991 8.34527 66.4588 7.9386C65.4912 7.324 64.8131 6.49222 64.5208 5.37131C64.3309 4.64286 64.2944 3.898 64.4276 3.16239C64.6346 2.01844 65.2498 1.16481 66.3415 0.691827C66.6042 0.577979 66.8809 0.531713 67.1615 0.501066C67.8158 0.429566 68.4664 0.482261 69.0782 0.712127C69.921 1.0288 70.6178 1.57069 71.1783 2.27673C71.7623 3.01234 72.1598 3.85379 72.5224 4.71247C72.7899 5.34585 73.0165 5.994 73.1111 6.67799C73.1594 7.02726 73.192 7.37872 73.2245 7.73012C73.2352 7.84629 73.246 7.96244 73.2573 8.0785C73.2594 8.09961 73.2608 8.1208 73.2623 8.14197L73.2623 8.14215C73.268 8.22412 73.2737 8.30572 73.3133 8.38063C73.3407 8.43251 73.3833 8.47001 73.447 8.46764C73.5099 8.4653 73.5492 8.42667 73.576 8.37361C73.6201 8.28618 73.6181 8.19066 73.6162 8.09734C73.6068 7.65624 73.6256 7.2139 73.6454 6.77532C73.6663 6.31206 73.6725 5.84869 73.6787 5.38533C73.6844 4.96591 73.69 4.5465 73.7065 4.12719C73.7379 3.33085 73.7401 2.53337 73.7423 1.73591V1.73206C73.7433 1.41232 73.7442 1.09258 73.747 0.772913C73.7479 0.669836 73.74 0.566307 73.7302 0.46354C73.7236 0.39407 73.691 0.33458 73.615 0.32209C73.521 0.306724 73.4761 0.370358 73.454 0.446398C73.4321 0.521699 73.4133 0.597912 73.3945 0.674137C73.3796 0.734703 73.3647 0.795277 73.3482 0.855409C73.2581 1.18345 73.0478 1.38771 72.7163 1.47063C72.2588 1.5851 71.8199 1.52124 71.3977 1.32935C71.2637 1.26843 71.1331 1.19997 71.0025 1.1315C70.9083 1.08209 70.8141 1.03268 70.7185 0.986089C69.6323 0.456576 68.5051 0.0874873 67.2762 0.169955C66.599 0.215404 65.9392 0.333791 65.321 0.649987C63.7749 1.44072 62.7724 2.70911 62.171 4.29511C61.7142 5.49976 61.6309 6.76672 61.8152 8.04287C61.94 8.90783 62.216 9.72673 62.6962 10.4608C63.4851 11.6671 64.5907 12.4824 65.9323 12.9789C66.3721 13.1417 66.8163 13.2927 67.2605 13.4437L67.2606 13.4437L67.2607 13.4437C67.6348 13.5709 68.009 13.6981 68.3806 13.8323C69.2478 14.1456 70.0935 14.5035 70.8539 15.0422C71.4711 15.4793 71.9965 15.984 72.2952 16.6964C72.66 17.5666 72.7916 18.4659 72.6372 19.3982C72.4989 20.2334 72.0888 20.931 71.4972 21.5245C70.7829 22.2409 69.9179 22.5853 68.9038 22.552C68.0278 22.5232 67.2215 22.2703 66.4865 21.7965C65.9321 21.4391 65.4209 21.0331 64.9842 20.5294C64.5032 19.9745 64.0275 19.4195 63.6649 18.7768C63.4198 18.3424 63.2142 17.889 63.009 17.4351C62.617 16.5678 62.3011 15.6753 62.099 14.7436C62.0063 14.3162 61.9572 13.883 61.9082 13.4497L61.8905 13.2945C61.8755 13.1633 61.8601 13.0329 61.8116 12.9095C61.7866 12.8456 61.744 12.7926 61.6689 12.7908C61.5786 12.7886 61.5313 12.85 61.5144 12.9279C61.4946 13.019 61.4797 13.1129 61.4775 13.2059C61.4683 13.5948 61.4624 13.9837 61.4564 14.3726V14.3727V14.3728C61.4504 14.7633 61.4445 15.1539 61.4352 15.5444C61.4161 16.3479 61.4203 17.152 61.4246 17.9561ZM40.8421 4.91149L40.8421 5.80731C40.8421 6.85243 40.8422 7.89755 40.8419 8.94267L40.8419 8.96858C40.842 9.10088 40.8422 9.23357 40.8001 9.36158C40.7781 9.42826 40.7398 9.48093 40.6617 9.48008C40.5854 9.47926 40.54 9.42792 40.52 9.36294C40.501 9.30102 40.4948 9.23429 40.4899 9.16916C40.3185 6.89511 39.4966 4.86477 38.174 3.02663C37.7054 2.37551 37.1568 1.7988 36.493 1.33583C35.5022 0.64485 34.4083 0.380812 33.2294 0.613583C32.4849 0.76053 31.8589 1.16915 31.3653 1.75804C30.9621 2.23917 30.6825 2.78785 30.4698 3.37649C30.1951 4.13711 29.9277 4.90142 29.7778 5.69638C29.5724 6.78543 29.4325 7.88421 29.347 8.99077L29.3316 9.19055L29.3316 9.191C29.2846 9.79803 29.2376 10.4052 29.1991 11.0127C29.1755 11.3845 29.1759 11.7581 29.1763 12.1312V12.1313L29.1764 12.2807C29.1764 12.5061 29.1745 12.7316 29.1727 12.9571V12.9571C29.1676 13.5684 29.1626 14.1798 29.1942 14.7891C29.2629 16.1116 29.3766 17.4329 29.7155 18.72C29.8928 19.3933 30.1252 20.051 30.4926 20.6484C31.1312 21.6867 32.0655 22.2675 33.2777 22.3785C33.9362 22.4389 34.5913 22.3883 35.2344 22.2168C35.5365 22.1362 35.8199 22.017 36.0879 21.8566C37.0471 21.2828 37.8255 20.5219 38.4395 19.5905C38.9678 18.7892 39.4618 17.9674 39.8184 17.0736C40.2482 15.9964 40.5387 14.8796 40.7121 13.7327L40.7178 13.693C40.7291 13.6131 40.7404 13.5334 40.7786 13.4606C40.8012 13.4175 40.8368 13.3831 40.8877 13.383C40.9531 13.3828 40.9914 13.428 41.0045 13.4857C41.0189 13.5492 41.0276 13.6155 41.0274 13.6805C41.0259 14.136 41.0266 14.5915 41.0273 15.0471C41.0291 16.161 41.0309 17.2749 40.9995 18.3879C40.9821 19.006 40.98 19.624 40.9778 20.2419V20.2419V20.2424C40.9757 20.8361 40.9737 21.4297 40.9581 22.0233C40.9563 22.0895 40.9558 22.1558 40.9552 22.2221V22.2224C40.9544 22.3158 40.9536 22.4092 40.9495 22.5024C40.9454 22.595 40.9346 22.6873 40.9239 22.7796L40.9238 22.7798L40.917 22.8387C40.9093 22.906 40.8924 22.9807 40.8155 22.9898C40.722 23.0009 40.6919 22.9206 40.6681 22.8475C40.6507 22.794 40.6359 22.7393 40.624 22.6843C40.5653 22.4153 40.454 22.167 40.3217 21.9278C40.0254 21.3918 39.4389 21.1259 38.8397 21.2532C38.498 21.3258 38.1739 21.4499 37.8535 21.5865C37.75 21.6306 37.6466 21.6751 37.5432 21.7196C36.8788 22.0054 36.2146 22.2912 35.5146 22.4864C34.5382 22.7586 33.5561 22.8081 32.56 22.6125C31.4111 22.387 30.3433 21.9497 29.3658 21.3192C28.5107 20.7676 27.7634 20.077 27.0832 19.3175C26.0193 18.1294 25.2731 16.764 24.7936 15.2464C24.6369 14.7503 24.5576 14.2398 24.4932 13.7282C24.4029 13.0109 24.3514 12.2902 24.3654 11.5647C24.381 10.7525 24.491 9.95543 24.6898 9.16981C25.0409 7.78212 25.6035 6.48596 26.399 5.29509C27.0439 4.32981 27.793 3.45549 28.6806 2.70034L28.6911 2.69142C29.2962 2.17657 29.8992 1.66355 30.5869 1.25652C31.3953 0.778095 32.2493 0.428545 33.1758 0.260734C33.9578 0.119087 34.7288 0.178633 35.4915 0.381094C36.3762 0.615979 37.2114 0.97926 38.0356 1.37088C38.1802 1.43957 38.3275 1.50255 38.4748 1.56551C38.5262 1.5875 38.5776 1.60948 38.6289 1.6317C38.9224 1.75888 39.2329 1.78223 39.5421 1.73822C39.8773 1.69048 40.127 1.49476 40.2988 1.20405C40.3901 1.04952 40.4534 0.88309 40.4951 0.707892C40.5124 0.635377 40.5367 0.563256 40.568 0.495675C40.5927 0.442529 40.6427 0.408837 40.7049 0.414194C40.767 0.419579 40.8047 0.462209 40.8266 0.517638C40.862 0.607185 40.8604 0.700829 40.8589 0.794058V0.794111C40.8585 0.813464 40.8582 0.832799 40.8582 0.852076C40.8583 1.73414 40.8577 2.61623 40.8571 3.4983L40.8566 4.2913L40.8565 4.72218L40.8565 4.91149H40.8421ZM11.4318 17.6934C15.0136 17.6844 17.4969 14.7016 17.4582 11.5967C17.4795 8.35152 14.8168 5.63579 11.5629 5.58529C8.23209 5.53361 5.42332 8.20909 5.41624 11.6482C5.40947 14.94 8.09307 17.7018 11.4318 17.6934Z" fill="white"/>
</svg>
