<?xml version="1.0" encoding="UTF-8"?>
<svg width="25px" height="25px" viewBox="0 0 25 25" version="1.1" xmlns="http://www.w3.org/2000/svg" xmlns:xlink="http://www.w3.org/1999/xlink">
    <!-- Generator: Sketch 64 (93537) - https://sketch.com -->
    <title>ic-text-button2</title>
    <desc>Created with Sketch.</desc>
    <g id="Symbols" stroke="none" stroke-width="1" fill="none" fill-rule="evenodd">
        <g id="text-button-/-active" transform="translate(-206.000000, -2.000000)" fill="#FFA8A6">
            <g id="Group-4" transform="translate(206.000000, 2.000000)">
                <path d="M12.5,0 C19.4035594,-1.26816328e-15 25,5.59644063 25,12.5 C25,19.4035594 19.4035594,25 12.5,25 C5.59644063,25 7.18954142e-13,19.4035594 7.181087e-13,12.5 C7.17263258e-13,5.59644063 5.59644063,1.26816328e-15 12.5,0 Z M13.0008673,7.04079936 C12.7242459,6.76417799 12.2757541,6.76417799 11.9991327,7.04079936 C11.7225113,7.31742074 11.7225113,7.7659126 11.9991327,8.04253397 L11.9991327,8.04253397 L15.7483333,11.7913333 L7.54166667,11.7916667 C7.15046497,11.7916667 6.83333333,12.1087983 6.83333333,12.5 C6.83333333,12.8912017 7.15046497,13.2083333 7.54166667,13.2083333 L7.54166667,13.2083333 L15.7473333,13.2083333 L11.9991327,16.957466 C11.7225113,17.2340874 11.7225113,17.6825793 11.9991327,17.9592006 C12.2757541,18.235822 12.7242459,18.235822 13.0008673,17.9592006 L13.0008673,17.9592006 L17.9592006,13.0008673 L18.0190765,12.9328414 C18.0220376,12.929011 18.0249602,12.9251495 18.0277844,12.9214221 C18.0340856,12.9129298 18.0401723,12.9043285 18.0460337,12.8955333 C18.059978,12.874855 18.0728597,12.853401 18.0845411,12.8314615 C18.0899799,12.8211946 18.0951485,12.8108222 18.1000575,12.8002742 C18.1091651,12.7808436 18.1174162,12.7609317 18.1248377,12.7403027 C18.1294053,12.7276072 18.1335988,12.7148073 18.1372832,12.7025507 C18.1426377,12.6845758 18.1472979,12.6663017 18.1513516,12.6468971 C18.1715358,12.5512328 18.171769,12.4522006 18.15207,12.356244 C18.1479644,12.3363275 18.1430227,12.3167165 18.1373826,12.2979593 C18.1335727,12.2851129 18.1293911,12.2723533 18.1247622,12.2594131 C18.1176368,12.2396794 18.1096599,12.2203529 18.1009659,12.2016169 C18.0951475,12.1890826 18.0889425,12.1766835 18.0821147,12.1641025 C18.0720941,12.1455328 18.0612686,12.1274616 18.049967,12.1102508 L18.049967,12.1102508 L18.018,12.067 L18.0270176,12.0776297 L18.0270176,12.0776297 L18.011,12.058 L17.9592006,11.9991327 Z" id="ic-text-button2"></path>
            </g>
        </g>
    </g>
</svg>