<?xml version="1.0" encoding="UTF-8"?>
<svg width="30px" height="40px" viewBox="0 0 30 40" version="1.1" xmlns="http://www.w3.org/2000/svg" xmlns:xlink="http://www.w3.org/1999/xlink">
    <!-- Generator: Sketch 64 (93537) - https://sketch.com -->
    <title>Number / 1 Copy</title>
    <desc>Created with Sketch.</desc>
    <g id="Number-/-1-Copy" stroke="none" stroke-width="1" fill="none" fill-rule="evenodd">
        <path d="M24.75,36.1 L24.75,30.35 L10.2,30.35 C10.6666667,29.9166667 11.5083333,29.1583333 12.725,28.075 C13.9416667,26.9916667 14.85,26.15 15.45,25.55 C16.05,24.95 16.875,24.1166667 17.925,23.05 C18.975,21.9833333 19.7833333,21.0416667 20.35,20.225 C20.9166667,19.4083333 21.5,18.4666667 22.1,17.4 C23.3,15.4 23.9,13.2333333 23.9,10.9 C23.9,7.76666667 22.8666667,5.16666667 20.8,3.1 C18.7333333,1.03333333 15.8833333,0 12.25,0 C8.61666667,0 5.675,1.01666667 3.425,3.05 C1.175,5.08333333 0.0333333333,8.05 0,11.95 L0,11.95 L6.8,11.95 C6.83333333,10.0833333 7.3,8.61666667 8.2,7.55 C9.1,6.48333333 10.35,5.95 11.95,5.95 C15.2166667,5.95 16.85,7.71666667 16.85,11.25 C16.85,13.05 16.0333333,15.1166667 14.4,17.45 C13.7666667,18.35 12.7916667,19.4583333 11.475,20.775 C10.1583333,22.0916667 9.05,23.15 8.15,23.95 C7.25,24.75 5.9,25.925 4.1,27.475 C2.3,29.025 0.966666667,30.1833333 0.1,30.95 L0.1,30.95 L0.1,36.1 L24.75,36.1 Z" id="2" fill="#FFA8A6" fill-rule="nonzero"></path>
    </g>
</svg>