<?xml version="1.0" encoding="UTF-8"?>
<svg width="30px" height="40px" viewBox="0 0 30 40" version="1.1" xmlns="http://www.w3.org/2000/svg" xmlns:xlink="http://www.w3.org/1999/xlink">
    <!-- Generator: Sketch 64 (93537) - https://sketch.com -->
    <title>Number / 1 Copy 2</title>
    <desc>Created with Sketch.</desc>
    <g id="Number-/-1-Copy-2" stroke="none" stroke-width="1" fill="none" fill-rule="evenodd">
        <path d="M12.85,37.45 C16.5833333,37.45 19.5166667,36.5 21.65,34.6 C23.7833333,32.7 24.85,30.2 24.85,27.1 C24.85,22.4333333 22.85,19.4166667 18.85,18.05 L18.85,18.05 L18.85,17.85 C20.2166667,17.3833333 21.45,16.425 22.55,14.975 C23.65,13.525 24.2,11.7333333 24.2,9.6 C24.2,6.83333333 23.1833333,4.54166667 21.15,2.725 C19.1166667,0.908333333 16.3083333,-3.55271368e-15 12.725,-3.55271368e-15 C9.14166667,-3.55271368e-15 6.24166667,0.908333333 4.025,2.725 C1.80833333,4.54166667 0.65,7.08333333 0.55,10.35 L0.55,10.35 L7.4,10.35 C7.53333333,9.25 8,8.25 8.8,7.35 C9.6,6.45 10.8,6 12.4,6 C14,6 15.2333333,6.4 16.1,7.2 C16.9666667,8 17.4,9.08333333 17.4,10.45 C17.4,13.6166667 15.0333333,15.2 10.3,15.2 L10.3,15.2 L8.85,15.2 L8.85,20.95 L10.3,20.95 C13,20.95 14.975,21.375 16.225,22.225 C17.475,23.075 18.1,24.3833333 18.1,26.15 C18.1,27.9166667 17.6416667,29.275 16.725,30.225 C15.8083333,31.175 14.4666667,31.65 12.7,31.65 C10.9333333,31.65 9.525,31.1583333 8.475,30.175 C7.425,29.1916667 6.86666667,27.8833333 6.8,26.25 L6.8,26.25 L-6.82121026e-13,26.25 C0.1,29.9166667 1.33333333,32.7 3.7,34.6 C6.06666667,36.5 9.11666667,37.45 12.85,37.45 Z" id="3" fill="#FFA8A6" fill-rule="nonzero"></path>
    </g>
</svg>