<?xml version="1.0" encoding="UTF-8"?>
<svg width="133px" height="62px" viewBox="0 0 133 62" version="1.1" xmlns="http://www.w3.org/2000/svg" xmlns:xlink="http://www.w3.org/1999/xlink">
    <!-- Generator: Sketch 64 (93537) - https://sketch.com -->
    <title>T.White</title>
    <desc>Created with Sketch.</desc>
    <g id="Design" stroke="none" stroke-width="1" fill="none" fill-rule="evenodd">
        <g id="Desktop-/-About" transform="translate(-121.000000, -894.000000)" fill="#2E2752" fill-rule="nonzero">
            <path d="M132.586346,949.536 C134.218346,951.456 137.194346,948.096 137.194346,948.096 C137.386346,947.904 137.194346,947.376 136.810346,946.992 C136.426346,946.56 135.946346,946.416 135.754346,946.608 C135.754346,946.608 133.546346,949.104 133.450346,949.008 C133.162346,948.672 151.882346,919.44 158.074346,909.792 C162.394346,909.696 166.810346,909.6 171.178346,909.504 C178.378346,909.312 185.530346,909.168 192.394346,908.88 C192.298346,909.072 192.442346,909.408 192.682346,909.744 C193.018346,910.176 193.498346,910.416 193.786346,910.32 L193.786346,910.32 L197.722346,908.592 C197.962346,908.544 197.962346,908.16 197.722346,907.776 C197.434346,907.296 196.954346,906.912 196.618346,906.96 C188.266346,907.392 179.194346,907.632 170.170346,907.824 C166.522346,907.92 162.826346,907.968 159.178346,908.064 L159.178346,908.064 L160.042346,906.768 C160.186346,906.528 159.946346,906.048 159.562346,905.616 C159.130346,905.232 158.698346,905.088 158.554346,905.328 C158.554346,905.376 157.882346,906.384 156.730346,908.16 C143.434346,908.544 130.858346,909.264 121.210346,911.088 C120.922346,911.184 120.922346,911.568 121.258346,912.048 C121.546346,912.48 122.074346,912.816 122.362346,912.768 C131.386346,910.992 143.146346,910.272 155.626346,909.888 C148.666346,920.88 131.482346,948.192 132.586346,949.536 Z M161.626346,939.12 C162.250346,939.12 162.778346,938.592 162.778346,937.968 C162.778346,937.296 162.250346,936.816 161.626346,936.816 C160.954346,936.816 160.426346,937.296 160.426346,937.968 C160.426346,938.592 160.954346,939.12 161.626346,939.12 Z M178.858346,955.152 C179.578346,955.536 180.394346,955.68 181.162346,955.584 C183.706346,955.296 186.634346,952.704 189.706346,948.768 C191.962346,945.84 194.266346,942.144 196.474346,938.064 C199.354346,940.176 202.954346,939.744 205.882346,938.304 C208.666346,936.864 210.970346,934.416 211.690346,933.552 C211.834346,933.36 211.690346,932.88 211.258346,932.448 C210.874346,932.016 210.394346,931.872 210.250346,932.064 C209.530346,932.88 207.226346,934.848 204.538346,936.24 C202.426346,937.296 199.210346,938.352 197.002346,937.104 C197.530346,936.048 198.106346,934.992 198.634346,933.888 C204.970346,921.072 209.866346,906 209.050346,898.944 C208.762346,896.736 208.042346,895.392 207.034346,894.72 C206.026346,894.096 204.922346,894.48 203.818346,895.584 C202.810346,896.64 201.706346,898.272 200.602346,900.288 C195.994346,908.736 191.146346,924.144 192.826346,931.776 C193.306346,933.744 193.978346,935.28 194.842346,936.432 L194.842346,936.432 L194.986346,936.624 C192.826346,940.656 190.474346,944.352 188.266346,947.28 C185.290346,951.12 182.458346,953.616 180.106346,953.904 C179.482346,954 179.002346,953.904 178.522346,953.712 C173.771306,951.36 183.172721,926.649888 183.595855,925.481715 L183.610346,925.44 C183.706346,925.152 183.514346,924.672 183.130346,924.336 C182.746346,923.904 182.266346,923.808 182.122346,924.048 C182.074346,924.096 171.034346,941.712 168.202346,939.504 C167.434346,938.928 169.018346,933.984 170.698346,928.704 C172.810346,922.08 175.114346,914.928 172.042346,912.192 C169.882346,910.272 166.954346,909.792 164.410346,910.992 C161.050346,912.624 158.266346,916.896 157.354346,920.496 C157.258346,920.784 157.546346,921.312 157.978346,921.648 C158.410346,922.032 158.794346,922.032 158.890346,921.744 C159.802346,918.288 162.874346,914.688 166.090346,913.152 C167.770346,912.336 170.122346,911.808 171.658346,913.2 C173.290346,914.64 171.130346,921.264 169.162346,927.408 C167.290346,933.312 165.514346,938.784 168.010346,940.704 C170.554346,942.624 175.930346,936.336 179.674346,931.248 C177.034346,939.648 173.914346,952.752 178.858346,955.152 Z M195.562346,935.616 C195.082346,934.848 194.698346,933.84 194.410346,932.496 C192.730346,925.152 197.530346,909.984 202.090346,901.68 C203.194346,899.712 204.250346,898.08 205.210346,897.12 C206.074346,896.256 206.698346,895.824 207.034346,896.064 C207.178346,896.112 207.322346,896.736 207.466346,898.032 C208.282346,904.896 203.434346,919.824 197.098346,932.496 C196.618346,933.552 196.090346,934.608 195.562346,935.616 Z M206.506346,940.224 C206.890346,940.608 207.322346,940.752 207.466346,940.56 C207.514346,940.512 215.146346,931.92 215.290346,933.12 C215.434346,934.8 215.050346,937.056 216.202346,938.304 C217.306346,939.456 219.610346,938.352 224.362346,933.936 C224.554346,933.744 224.554346,933.408 224.170346,932.976 C223.786346,932.592 223.498346,933.024 223.306346,933.216 C219.082346,937.152 217.546346,937.536 217.354346,937.296 C217.354346,937.296 217.306346,934.176 217.258346,933.744 C216.970346,930.576 214.282346,931.776 211.642346,933.792 L211.642346,933.792 L222.154346,916.752 C222.298346,916.512 222.106346,915.984 221.674346,915.6 C221.290346,915.216 220.810346,915.072 220.666346,915.312 L220.666346,915.312 L206.026346,939.072 C205.882346,939.312 206.074346,939.84 206.506346,940.224 Z M228.394346,927.696 C228.778346,928.08 229.258346,928.272 229.450346,928.032 L229.450346,928.032 L232.138346,924.96 C232.282346,924.72 232.138346,924.24 231.754346,923.808 C231.322346,923.424 230.890346,923.232 230.698346,923.472 L230.698346,923.472 L228.010346,926.544 C227.818346,926.784 228.010346,927.264 228.394346,927.696 Z M222.058346,939.024 C224.122346,942.624 232.090346,933.984 232.138346,933.984 C232.330346,933.792 232.522346,933.648 232.090346,933.216 C231.706346,932.784 231.370346,933.168 231.178346,933.36 C231.178346,933.408 225.850346,938.592 223.882346,938.304 C223.402346,938.064 223.354346,937.296 224.026346,935.952 C225.082346,933.936 226.810346,931.872 227.866346,930.96 C228.106346,930.768 227.962346,930.288 227.578346,929.856 C227.194346,929.424 226.714346,929.232 226.474346,929.424 C225.370346,930.336 223.594346,932.496 222.538346,934.56 C221.722346,936.192 221.386346,937.824 222.058346,939.024 Z M228.778346,940.032 C231.130346,944.352 242.026346,933.6 242.074346,933.552 C242.266346,933.408 242.554346,933.168 242.170346,932.736 C241.786346,932.304 241.498346,932.4 241.306346,932.544 C241.306346,932.592 231.562346,940.368 230.698346,938.736 C230.170346,937.776 231.754346,935.04 234.682346,930.288 C234.778346,930.288 234.874346,930.192 234.874346,930 L234.874346,930 L234.874346,929.952 C235.834346,928.416 236.842346,926.832 237.850346,925.296 L237.850346,925.296 L252.202346,925.296 C252.538346,925.296 252.586346,924.912 252.298346,924.432 C252.058346,924 251.530346,923.616 251.194346,923.616 L251.194346,923.616 L238.954346,923.616 C242.698346,918 246.202346,913.152 246.202346,913.104 C246.346346,912.912 246.154346,912.384 245.770346,912 C245.386346,911.568 244.906346,911.472 244.762346,911.664 C244.714346,911.712 240.682346,917.328 236.650346,923.616 L236.650346,923.616 L220.426346,923.616 C220.090346,923.616 220.042346,924 220.330346,924.432 C220.570346,924.912 221.098346,925.296 221.434346,925.296 C221.434346,925.296 233.722346,924.816 233.626346,928.464 C233.626346,928.464 233.290346,928.992 233.338346,928.992 C230.266346,934.08 228.058346,938.688 228.778346,940.032 Z M234.154346,927.6 C233.386346,926.592 231.034346,925.632 229.594346,925.056 L229.594346,925.056 L235.594346,925.296 C235.114346,926.064 234.634346,926.832 234.154346,927.6 Z M241.786346,939.744 C245.098346,941.616 252.586346,936.432 253.930346,934.08 C254.074346,933.792 254.074346,933.6 253.690346,933.216 C253.258346,932.832 252.778346,933.168 252.634346,933.456 C251.146346,936.144 238.186346,942.096 241.450346,935.088 C241.594346,935.088 244.138346,934.8 246.394346,933.648 C247.546346,933.072 248.506346,932.016 249.034346,931.008 C249.274346,930.528 249.466346,930.096 249.514346,929.664 C249.610346,929.088 249.418346,928.464 248.938346,927.936 C248.602346,927.552 248.218346,927.312 247.786346,927.216 C247.258346,927.12 245.962346,927.696 244.570346,928.656 C243.514346,929.424 242.410346,930.432 241.450346,931.488 C240.490346,932.592 239.770346,933.84 239.530346,935.04 C239.146346,936.912 240.154346,938.832 241.786346,939.744 Z M242.986346,932.88 C243.850346,931.872 244.954346,930.96 245.914346,930.24 C246.634346,929.712 247.258346,929.328 247.786346,929.088 C247.690346,929.28 247.642346,929.424 247.546346,929.616 C247.018346,930.528 246.154346,931.536 245.146346,932.064 C244.378346,932.4 243.658346,932.688 242.986346,932.88 Z" id="T.White"></path>
        </g>
    </g>
</svg>