<?xml version="1.0" encoding="UTF-8"?>
<svg width="121px" height="46px" viewBox="0 0 121 46" version="1.1" xmlns="http://www.w3.org/2000/svg" xmlns:xlink="http://www.w3.org/1999/xlink">
    <!-- Generator: Sketch 64 (93537) - https://sketch.com -->
    <title>Social Proof / _parts / proof2</title>
    <desc>Created with Sketch.</desc>
    <g id="Social-Proof-/-_parts-/-proof2" stroke="none" stroke-width="1" fill="none" fill-rule="evenodd">
        <path d="M107.850114,2.88592948 C109.227924,2.88608257 110.605734,2.88656371 111.983544,2.88728542 C112.063764,2.88732916 112.145754,2.88544834 112.217925,2.92728565 C112.310873,2.98112959 112.308445,3.08247517 112.214032,3.1338478 C112.140199,3.17400112 112.058034,3.16645597 111.978361,3.16676215 C111.519091,3.16848988 111.059821,3.16870858 110.600551,3.16958338 C110.520376,3.16975834 110.440091,3.17354185 110.360025,3.17054566 C110.189789,3.16415962 110.091177,3.24197308 110.040526,3.40588873 C109.889907,3.89328355 109.731306,4.37820706 109.576663,4.86437716 C109.194441,6.06587122 108.808983,7.26635926 108.431747,8.46942796 C107.97169,9.93673 107.514038,11.4047756 107.07187,12.8776764 C106.711475,14.0781863 106.336404,15.2743222 105.965227,16.4715735 C105.581124,17.7106183 105.202838,18.951544 104.787571,20.1807255 C104.759577,20.263569 104.737926,20.3494307 104.684826,20.4207925 C104.640189,20.48076 104.588051,20.4835156 104.542014,20.4225421 C104.479379,20.3395673 104.453353,20.2393808 104.420636,20.1430216 C104.059606,19.0801177 103.732693,18.0064319 103.400838,16.9341896 C103.008709,15.6671293 102.600243,14.405099 102.206102,13.1385855 C101.870506,12.0601976 101.546152,10.9782669 101.2148,9.89852311 C101.084389,9.47354527 100.948686,9.05022955 100.814842,8.62630147 C100.801698,8.58468286 100.785514,8.54391718 100.769002,8.50345768 C100.757826,8.47601083 100.740265,8.44900138 100.709406,8.4458521 C100.665163,8.44134688 100.644102,8.47773856 100.632489,8.51106844 C100.572631,8.68311973 100.512051,8.85510541 100.458951,9.02932183 C99.9911955,10.56289 99.5115645,12.0930026 99.0616767,13.6317977 C98.4910884,15.5834765 97.8909538,17.5260137 97.2959804,19.4701692 C97.227746,19.6931338 97.150195,19.9132335 97.0754433,20.1341424 L97.0449183,20.2160565 L97.0449183,20.2160565 L97.0095709,20.2960022 C96.9848797,20.3476373 96.9638626,20.4124381 96.8952345,20.4151719 C96.8128065,20.4184742 96.792708,20.343154 96.7667264,20.2855703 C96.7338121,20.2126994 96.7069776,20.1367886 96.6818708,20.0607248 C96.293394,18.8842281 95.9053546,17.7075565 95.5177088,16.5307974 C95.100473,15.264087 94.6778352,13.9991044 94.2683413,12.7299227 C93.7469387,11.1138827 93.2367334,9.49425616 92.7210607,7.87637917 C92.2673457,6.45290461 91.8127996,5.02969249 91.358516,3.60641476 C91.3385487,3.54393217 91.3146448,3.48258682 91.2973675,3.41940439 C91.2575422,3.27377206 91.1708058,3.1953025 91.0132324,3.20461912 C90.9479505,3.20849011 90.8820999,3.20315383 90.8165118,3.20160106 C90.29933,3.18959443 89.7821264,3.17822203 89.2649884,3.16507816 C89.0943367,3.1607479 89.0057195,3.11538952 89.0250526,3.04052851 C89.0562611,2.91976237 89.1655673,2.93485267 89.2576838,2.93047867 C89.3449888,2.9263015 89.4326,2.92879468 89.52008,2.92735126 C91.5533995,2.89391203 93.5868503,2.87282935 95.6203447,2.89500553 C95.9471482,2.89857034 96.2750232,2.9201779 96.6027233,2.92568914 C96.631701,2.92617028 96.6612255,2.9289259 96.689416,2.93537755 C96.757213,2.95094899 96.8166337,2.98178569 96.8201986,3.06056143 C96.8244195,3.15333397 96.7563382,3.1865545 96.6807773,3.19926097 C96.616567,3.21006475 96.5502134,3.21102703 96.4848002,3.21124573 L95.5662602,3.21163939 C95.4642148,3.21179248 95.3618632,3.20969296 95.2601896,3.2165164 C95.079609,3.22863238 95.0415771,3.28026745 95.0931903,3.4557742 C95.2227263,3.896236 95.3549086,4.33593235 95.4899777,4.7747539 C96.1395823,6.88525264 96.7894931,8.99568577 97.4414815,11.1054847 C97.7427189,12.0802306 98.0481991,13.0536861 98.3541822,14.0269667 C98.3794858,14.1073827 98.3906395,14.1975746 98.4822092,14.2835456 C98.5722261,14.1206141 98.6127075,13.9654464 98.6581971,13.8136905 C99.1897037,12.0405584 99.7195263,10.2669889 100.248321,8.49306943 C100.310738,8.28362044 100.359289,8.06997241 100.423631,7.86115765 C100.477344,7.68670066 100.470892,7.51954825 100.416982,7.34638159 C100.172126,6.56006761 99.9312717,5.77250704 99.6897613,4.98516517 C99.5380053,4.49048764 99.3894205,3.99484783 99.2359806,3.50071705 C99.1519561,3.23020702 99.1294519,3.21531355 98.8522059,3.21303907 C98.5241777,3.21034906 98.1961277,3.21096142 97.8680777,3.20901499 C97.8025771,3.2086432 97.7364203,3.20807458 97.6717945,3.19886731 C97.5878137,3.18688255 97.5079007,3.1537495 97.514068,3.05222896 C97.5194262,2.96431156 97.5928438,2.93758642 97.6705916,2.92982257 L97.7251135,2.92586683 L97.7251135,2.92586683 L97.7797667,2.92514239 C98.7347858,2.94342571 99.6885365,2.87901856 100.643599,2.88520777 C101.999452,2.89402138 103.355392,2.8893412 104.71131,2.89102519 C104.820463,2.89117828 104.930185,2.8882477 105.037414,2.91659122 C105.104423,2.93432779 105.165266,2.96146846 105.169618,3.0409003 C105.17467,3.13240438 105.109956,3.17067688 105.033893,3.18403945 C104.955445,3.19777381 104.874832,3.20407237 104.795072,3.20466286 C104.321237,3.2082058 103.847401,3.20899312 103.373544,3.21113638 C103.300673,3.21146443 103.227518,3.21034906 103.154975,3.21610087 C102.95727,3.2318254 102.925865,3.27335653 102.982202,3.46537513 C103.173018,4.11570145 103.365693,4.76552476 103.560708,5.41464823 C104.124735,7.29214399 104.689025,9.16959601 105.255654,11.0463263 C105.54635,12.0090218 105.841464,12.970427 106.137431,13.9315261 C106.15976,14.0040032 106.158885,14.1247475 106.245709,14.1269783 C106.348389,14.1295808 106.350926,14.0038283 106.375967,13.9266491 C106.767396,12.7204748 107.158388,11.5141694 107.543869,10.3060924 C108.03789,8.75774017 108.526488,7.20766018 109.018235,5.65856434 C109.238728,4.9639294 109.463683,4.27073788 109.681596,3.57529375 C109.797638,3.2049253 109.770082,3.17148607 109.388953,3.17120176 C108.885943,3.17078623 108.382933,3.17222965 107.879923,3.17093932 C107.807555,3.17074249 107.733482,3.16733077 107.663388,3.15140941 C107.603377,3.1377844 107.562961,3.0918574 107.566679,3.02322934 C107.569785,2.96577685 107.606176,2.9313316 107.656215,2.91018331 C107.718326,2.88391744 107.784657,2.88592948 107.850114,2.88592948 Z M8.96111491,2.63355405 C13.8924062,2.70646863 17.6868731,6.67889169 17.6705019,11.5539771 C17.6535214,16.5823057 13.6385612,20.3994517 8.80395709,20.4058238 C3.91343143,20.4122894 -0.0831361126,16.457756 -0.0499374526,11.50875 C-0.0544645426,6.60040026 3.96530707,2.55969906 8.96111491,2.63355405 Z M88.5274576,2.88086876 C88.7075352,2.89178189 88.7606355,2.94070508 88.7683775,3.12067331 C88.7812152,3.41902385 88.7924783,3.7176587 88.7943153,4.01627168 C88.7981645,4.64315336 88.8119863,5.27058179 88.7917128,5.89682924 C88.7584267,6.92443493 88.7732983,7.9519094 88.7675465,8.97942761 C88.7672403,9.03034097 88.7670434,9.08191043 88.759214,9.13197086 C88.7495474,9.19364426 88.7182296,9.24387965 88.6485299,9.24796934 C88.5813671,9.2518622 88.5422636,9.20969684 88.5164789,9.15228809 C88.4889664,9.09105209 88.4880479,9.0250703 88.4797154,8.96005079 C88.4288458,8.5629572 88.4220879,8.16059294 88.3297965,7.76835449 C88.1518403,7.0121555 87.8174918,6.32869613 87.3660075,5.70131144 C87.1916599,5.45905745 87.0113417,5.2210025 86.8195199,4.99117067 C86.4348048,4.53023855 85.9580825,4.18867289 85.4448811,3.89008178 C84.8714278,3.55643306 84.2557655,3.34383479 83.6028803,3.23067941 C83.0813902,3.1402907 82.5568382,3.16649096 82.0328768,3.17889125 C81.877906,3.18256541 81.8308199,3.24384515 81.8138269,3.39759125 C81.8082719,3.44815469 81.8080969,3.49950545 81.8080751,3.55048442 C81.8069378,5.90500862 81.8053194,8.25955469 81.8060849,10.6140789 C81.8062161,10.9668639 81.8326569,10.9961478 82.1779842,10.9707567 C83.3514847,10.8845014 84.3057165,10.4066419 84.9563272,9.39471704 C85.1629112,9.073403 85.2489478,8.71523801 85.2910256,8.34231077 C85.3057004,8.21203118 85.3186912,8.08151102 85.3366027,7.95164696 C85.3471222,7.87516757 85.3795117,7.8040682 85.4677134,7.80113762 C85.5714209,7.7977259 85.5995676,7.87812002 85.6078782,7.96269131 C85.6150078,8.03505914 85.6147235,8.1082799 85.6148985,8.18112887 C85.6169761,9.05586326 85.6210221,9.93061952 85.6196224,10.8053758 C85.6174354,12.1532239 85.6114649,13.5010938 85.6070253,14.8489419 C85.6066972,14.9509874 85.6085562,15.0533171 85.5798409,15.1528256 C85.5629354,15.2113716 85.5383097,15.2671401 85.4675384,15.2682336 C85.3859633,15.2694802 85.3524585,15.2088128 85.3433387,15.1407971 C85.3327536,15.061737 85.3322725,14.9809493 85.3324256,14.9009488 C85.3331473,14.542412 85.2882482,14.1885992 85.2219383,13.8373014 C85.0770714,13.0696862 84.644964,12.4969328 84.0121337,12.0606482 C83.7538052,11.882517 83.4928305,11.7095691 83.2040153,11.583073 C82.8524113,11.4290863 82.4865699,11.3421749 82.101308,11.3448431 C81.8250024,11.3467458 81.8103714,11.3606332 81.8046852,11.6468678 C81.8013172,11.8144794 81.8043572,11.9822223 81.8007923,12.149834 C81.7506663,14.4965506 81.7761886,16.8436609 81.7622793,19.1905743 C81.7600704,19.5633922 81.7809781,19.5815662 82.1557643,19.5870993 C83.0484977,19.6003088 83.9310178,19.5217955 84.7994318,19.3061792 C85.8630355,19.0420552 86.7926636,18.5239549 87.5926682,17.7850332 C88.0341797,17.3772233 88.3767952,16.8811898 88.6267693,16.332384 C88.8898654,15.754688 89.1196753,15.1630608 89.2000913,14.5262282 C89.2283692,14.3023888 89.2503486,14.0776745 89.271803,13.8530696 C89.2801136,13.7659177 89.280726,13.6778909 89.3115627,13.5947412 C89.3334983,13.5356703 89.3726237,13.4926083 89.4415142,13.500897 C89.4998197,13.5079392 89.5301315,13.5523353 89.538289,13.6054356 C89.5482398,13.6699084 89.5529017,13.7358246 89.5529017,13.8011065 C89.5490928,15.4849872 89.5455498,17.1688897 89.5383983,18.8527703 C89.5373705,19.0929904 89.5205087,19.3332761 89.506162,19.5732556 C89.4960362,19.7421357 89.4490813,19.7931147 89.283416,19.8136725 C89.1897905,19.8252636 89.0943061,19.8247606 88.9996528,19.8249356 C87.0752021,19.829069 85.1505109,19.8154002 83.2263227,19.8407476 C81.8463694,19.8589143 80.4664842,19.8694993 79.0865633,19.8728592 L77.0166424,19.8725247 C76.8052907,19.8719561 76.5938953,19.8735744 76.3825655,19.8703814 C76.1989887,19.8676477 76.1186383,19.8250449 76.1193381,19.7392708 C76.1199942,19.6571489 76.1989449,19.6129934 76.3856054,19.6060825 C76.5676294,19.5993028 76.7500033,19.6020803 76.932246,19.6011836 C77.2748615,19.5995215 77.6174769,19.5993246 77.9600704,19.5963941 C78.2893451,19.5935728 78.2962342,19.5874274 78.2954906,19.2692189 C78.2938941,18.5694226 78.2985743,17.8694733 78.2859334,17.1698738 C78.2524942,15.3191251 78.2501978,13.4682232 78.2453864,11.6172995 C78.2438555,11.0268751 78.2564089,10.4361227 78.2403782,9.84609197 C78.1835162,7.75444517 78.2215263,5.66249219 78.2091697,3.57073604 C78.2067859,3.16380095 78.2011653,3.16163582 77.7865976,3.1636916 C77.1888686,3.16668779 76.5911396,3.16493819 75.9934325,3.16891853 C75.6013034,3.17152106 75.5896686,3.18427127 75.5884439,3.57679403 C75.5870879,4.01415029 75.6001881,4.45179086 75.5884876,4.88881907 C75.5568855,6.06844313 75.5626373,7.24819841 75.5611501,8.42795369 L75.5493403,16.737154 L75.5493403,16.737154 C75.5483999,17.3419032 75.5565356,17.9464994 75.5316475,18.5513799 C75.5101055,19.075057 75.5169946,19.5998714 75.5076998,20.124139 C75.5059721,20.2222041 75.5418608,20.3617128 75.4313954,20.3988044 C75.3052711,20.4411228 75.2532861,20.297087 75.1933623,20.214156 C74.9244488,19.8420379 74.6574817,19.4682796 74.399197,19.0887258 C73.4765455,17.732917 72.5593614,16.3733466 71.6369504,15.0173409 C70.6653538,13.5890769 69.6863214,12.165821 68.7175679,10.7356542 C67.7774859,9.34780589 66.847486,7.95313412 65.9105315,6.56318627 C65.6213007,6.13414061 65.3239125,5.71058432 65.0297828,5.28488477 C64.9883611,5.22491723 64.9447304,5.16643685 64.900728,5.10835013 C64.8792735,5.08002848 64.8584751,5.04046565 64.8163316,5.05113821 C64.7641498,5.06436956 64.7621815,5.11506422 64.7609787,5.15764511 C64.7575232,5.28149492 64.7541552,5.40549782 64.7569109,5.52930389 C64.8065776,7.77384386 64.7834392,10.0187994 64.7937181,12.2635143 C64.8012195,13.8963722 64.7961238,15.5292739 64.8025754,17.1621537 C64.805506,17.9053838 64.8219085,18.6485701 64.834112,19.3917565 C64.8380267,19.6296583 64.8581252,19.6499318 65.1035066,19.6496913 C65.6064729,19.6491226 66.1094391,19.6434802 66.6123835,19.6415775 C66.6849044,19.6412932 66.7584314,19.6444862 66.829662,19.6567115 C66.8884048,19.6668155 66.9427736,19.6976959 66.9470164,19.7677455 C66.9514123,19.8405289 66.8985743,19.8713656 66.8387599,19.8833285 C66.767748,19.8975658 66.6949209,19.9082603 66.6226624,19.9097256 C66.3675926,19.9149525 66.1124353,19.9146682 65.8573218,19.9180362 C64.8371519,19.9315737 63.816982,19.9461391 62.7968121,19.9588237 C62.7097914,19.9599172 62.6220489,19.9544278 62.5357718,19.9434054 C62.4828245,19.9366475 62.4395438,19.9017867 62.4328078,19.8444217 C62.4248034,19.7763404 62.4661596,19.7369088 62.5261927,19.714339 C62.6031533,19.6853831 62.6838973,19.6887729 62.7639196,19.6882481 C63.237755,19.6852519 63.7115686,19.6830211 64.1853821,19.6797625 C64.2509047,19.6793032 64.3169302,19.6788221 64.3817966,19.6708395 C64.4908842,19.657477 64.552317,19.5952131 64.5537823,19.4818827 C64.5553788,19.3579673 64.5588343,19.2340082 64.5566254,19.1101802 C64.523208,17.2226461 64.5208679,15.3348715 64.5091019,13.4471406 L64.4837327,12.2673197 L64.4837327,12.2673197 C64.4749628,11.2985661 64.4881067,10.3292659 64.4596757,9.36114659 C64.4350501,8.52306632 64.4536396,7.68448304 64.4199598,6.84745253 C64.3859519,6.00224264 64.4005173,5.1569234 64.3741202,4.31212904 C64.3656784,4.04290934 64.3501945,3.77390834 64.347242,3.50429498 C64.3452737,3.32561708 64.3234475,3.30457814 64.1496466,3.27975569 C64.0562398,3.26641499 63.9609741,3.26131928 63.8665175,3.26090375 C63.436444,3.2590448 63.0063486,3.26064131 62.5762532,3.25963529 C62.5108837,3.2594822 62.4444427,3.25821374 62.3804948,3.24653516 C62.3119105,3.23404739 62.2570605,3.19404716 62.2544584,3.11658362 C62.2519867,3.03765479 62.3061805,2.99946977 62.3749179,2.98330784 C62.4169958,2.97344447 62.4614794,2.97121373 62.5050007,2.97020771 C64.2247044,2.93049179 65.9446487,2.92040972 67.6647898,2.92132826 C67.8818714,2.92143761 68.0141849,3.01954643 68.1271653,3.19129154 C68.7760701,4.17778163 69.4247343,5.16449042 70.0841804,6.14393837 C70.7069943,7.06893002 71.2947287,8.01754127 71.9448363,8.92398716 C72.6591105,9.91994696 73.2711206,10.9823916 73.9563077,11.9972252 C74.319284,12.5348116 74.6680449,13.0819553 75.0268879,13.6223411 C75.0727055,13.6913191 75.1102126,13.7747969 75.2076872,13.8192367 C75.2527175,13.713539 75.2366431,13.6112749 75.2389832,13.5128599 C75.2952984,11.1297516 75.2683327,8.74618406 75.277868,6.36281333 C75.2813235,5.49542726 75.2770151,4.62797558 75.2758122,3.76058951 C75.2756373,3.63667409 75.2770588,3.51256184 75.2705634,3.38890886 C75.2629745,3.24388889 75.2353965,3.21580781 75.091645,3.18770486 C74.9906712,3.16795625 74.8883196,3.16970585 74.7865366,3.17917556 C74.328207,3.22190954 73.8687402,3.19881482 73.4097764,3.20397614 C73.3439258,3.20469785 73.2783377,3.19813685 73.2170579,3.17130236 C73.1589056,3.14584568 73.1212017,3.10475195 73.1278939,3.03647381 C73.1336457,2.97794969 73.1733617,2.94636941 73.2242969,2.92961699 C73.3298196,2.89495304 73.439607,2.89613402 73.5491101,2.89591532 C74.5180605,2.89401263 75.4870108,2.89106018 76.4559612,2.89005416 C80.4069079,2.88603008 84.3578765,2.88259649 88.3088232,2.87900981 C88.3817159,2.8789442 88.4548055,2.87647289 88.5274576,2.88086876 Z M54.8042763,3.29897067 C54.981139,3.38520408 55.1521405,3.48388152 55.3311246,3.56523792 C55.6586059,3.71408514 55.9990781,3.76362069 56.3539845,3.67482849 C56.6110663,3.61050882 56.7742165,3.45206067 56.8440912,3.19760322 C56.8730033,3.09225543 56.8956606,2.98515804 56.9261693,2.88033513 C56.9433154,2.82135174 56.9781543,2.77199115 57.0510251,2.7839103 C57.1100522,2.79359871 57.1352683,2.83974441 57.1404078,2.89363209 C57.1479967,2.97334824 57.1541203,3.05365488 57.1534204,3.1336116 C57.1458534,4.00099767 57.1561542,4.86912732 57.1220589,5.73550737 C57.095115,6.42010398 57.1055033,7.10502864 57.0746447,7.78964712 C57.0593138,8.12985684 57.0447265,8.47297527 57.0519874,8.81513142 C57.0534964,8.88752112 57.0550492,8.96161668 57.0208008,9.02943555 C57.0000461,9.07059489 56.9695594,9.10055679 56.9207674,9.102372 C56.8712974,9.10420908 56.8383175,9.07512198 56.8170161,9.03488118 C56.7783281,8.96172603 56.7813899,8.88034776 56.7736042,8.80052226 C56.7382622,8.43813636 56.7100718,8.07463509 56.6602082,7.71415188 C56.5868344,7.18358568 56.4110214,6.68081625 56.2035626,6.1895067 C55.9222925,5.52343398 55.6139037,4.87072383 55.1609322,4.30011366 C54.7261566,3.75244512 54.1856396,3.33210372 53.5318578,3.08645988 C53.0573007,2.90815377 52.5526723,2.86727874 52.0451133,2.92274106 C51.8274193,2.94651375 51.6128528,2.98240242 51.4090681,3.07071348 C50.5622398,3.4376046 50.0849927,4.09976259 49.9244013,4.98711597 C49.821153,5.55772614 49.8494091,6.13550967 49.9967473,6.70056486 C50.2234954,7.57005045 50.749447,8.21525919 51.5000254,8.69200332 C51.9966713,9.0074562 52.541781,9.21178761 53.0923364,9.40562142 C53.6216123,9.59197569 54.1553059,9.76702317 54.6781082,9.97006425 C55.3512231,10.2315201 56.013906,10.5225442 56.6087918,10.9382929 C57.5664791,11.6075805 58.1542791,12.5315443 58.4013008,13.6667066 C58.5396941,14.3026862 58.5939317,14.9497758 58.5009405,15.599774 C58.4140947,16.2068852 58.1796702,16.7635861 57.8934138,17.3000135 C57.3447611,18.3281222 56.5809513,19.1531679 55.5557513,19.7169546 C54.9071527,20.0736543 54.2086031,20.2747709 53.4621362,20.2535351 C52.8385788,20.2358204 52.2346825,20.1061094 51.6500099,19.8843914 C51.1726534,19.7033296 50.7069974,19.4953459 50.240729,19.2887182 C49.8759592,19.127077 49.5002983,19.0226259 49.0975185,19.0435336 C48.7343671,19.0624293 48.4174052,19.1866509 48.1583332,19.4505562 C47.9883158,19.6237228 47.8829899,19.8234834 47.8596109,20.0666122 C47.8526562,20.1386957 47.8368879,20.2105387 47.8185609,20.2807851 C47.8045859,20.3343885 47.7654168,20.3690306 47.7070676,20.3680249 C47.648128,20.3669748 47.6149293,20.3280243 47.5989861,20.2757331 C47.5730264,20.1905714 47.5813807,20.1022166 47.581337,20.0150209 L47.5810308,17.2595758 L47.5810308,17.2595758 L47.5978051,17.2595758 C47.5978051,16.3702541 47.5821462,15.4805825 47.6032507,14.5917857 C47.6175974,13.9871021 47.6217746,13.3823747 47.6360776,12.7778005 C47.6378053,12.7056513 47.6493527,12.632868 47.6646835,12.5621841 C47.6778055,12.5017136 47.7144815,12.4541245 47.7845093,12.4558085 C47.8427928,12.4571863 47.8758165,12.4983456 47.895259,12.5478812 C47.9328316,12.643628 47.9447726,12.7447768 47.9564293,12.8465597 C47.9995789,13.2227456 48.0376545,13.599522 48.1181361,13.970634 C48.2749003,14.69335 48.5199755,15.3856667 48.824056,16.0584098 C48.9831821,16.4104731 49.1426581,16.7621645 49.3327959,17.0991156 C49.6141097,17.5976642 49.9830785,18.0282188 50.3562244,18.4586423 C50.6949251,18.8493061 51.0914501,19.1642779 51.5214799,19.441502 C52.0916308,19.8090273 52.7170909,20.0051794 53.3965918,20.0275086 C54.183212,20.0533808 54.8542492,19.7862388 55.4082819,19.2305002 C55.867202,18.7701586 56.185323,18.2289854 56.2926172,17.5811523 C56.4123774,16.857977 56.3102663,16.1604115 56.0272685,15.4853939 C55.7955778,14.9327828 55.3880303,14.5413098 54.9093179,14.2021936 C54.3194402,13.7843235 53.6634277,13.5067713 52.9907284,13.26373 C52.36026,13.0359539 51.7202126,12.8344 51.0916251,12.601747 C50.050963,12.2165944 49.1933747,11.5842015 48.5813865,10.6484935 C48.2089185,10.0790425 47.9948331,9.44382831 47.8979927,8.77287858 C47.7550723,7.78297677 47.8196981,6.80020458 48.1740358,5.86576509 C48.6405448,4.63551198 49.4181545,3.65162442 50.6174179,3.0382584 C51.0969832,2.79298635 51.6088068,2.70115422 52.1340805,2.66589978 C53.08735,2.60193003 53.9616689,2.8882302 54.8042763,3.29897067 Z M27.4802963,2.83036437 C28.1664894,3.01256334 28.81441,3.29435829 29.4537139,3.59813259 C29.6049887,3.67001928 29.7601563,3.73383594 29.9139243,3.80045196 C30.141591,3.89910753 30.3824234,3.91721589 30.6222717,3.88307682 C30.882306,3.84605091 31.0760086,3.69422937 31.2092406,3.4687278 C31.2800557,3.34885833 31.3291539,3.21975972 31.3615433,3.08385954 C31.3749715,3.0276099 31.3937797,2.97166644 31.4180991,2.91924405 C31.4372135,2.8780191 31.4760328,2.85188445 31.524278,2.85603975 C31.5724795,2.86021692 31.6017197,2.89328436 31.6186908,2.93628078 C31.6518457,3.0201741 31.6431633,3.10870386 31.6431852,3.19570272 L31.642797,4.52959776 L31.642797,4.52959776 L31.6418949,6.34456719 L31.6418949,6.34456719 L31.6306974,6.34456719 L31.6305006,9.47153979 L31.6305006,9.47153979 C31.6304787,9.58080231 31.6328844,9.69069906 31.5980892,9.79648425 C31.5810744,9.8482068 31.5513749,9.88905996 31.490795,9.88840386 C31.4315929,9.88776963 31.3963385,9.84794436 31.3808545,9.79753401 C31.3661142,9.74950749 31.3613028,9.6977412 31.3574974,9.6472215 C31.2245715,7.88325291 30.5869954,6.3083286 29.56103,4.88249208 C29.1975724,4.3774263 28.772026,3.93007545 28.2570968,3.57094818 C27.488585,3.03495822 26.6400509,2.83014567 25.725535,3.01070439 C25.1480358,3.12469083 24.6624343,3.44165274 24.2795781,3.89845143 C23.9668152,4.27166298 23.7499085,4.69727505 23.584965,5.15387691 C23.3718637,5.74388577 23.1644486,6.3367596 23.0481658,6.95340612 C22.8888648,7.79817861 22.7803021,8.65049625 22.714036,9.50885001 C22.673664,10.0314774 22.6323953,10.5541704 22.5992403,11.0772133 C22.5785076,11.4041698 22.5816787,11.7328759 22.5816569,12.0607947 C22.5816131,12.7095026 22.5619083,13.3595009 22.5954787,14.0066123 C22.6487322,15.0324028 22.7369557,16.0573841 22.9998331,17.0557496 C23.1373736,17.5780489 23.3176261,18.0882104 23.6026359,18.5516139 C24.0980352,19.3570422 24.8226976,19.8075642 25.7629983,19.8936664 C26.2738159,19.9404682 26.7819435,19.9012116 27.2807982,19.7681982 C27.5151789,19.7056938 27.7349724,19.6132274 27.9429124,19.4888308 C28.6869079,19.0436889 29.2906949,18.4535269 29.7670454,17.7310296 C30.1768454,17.1094405 30.559986,16.4719956 30.8366196,15.7786291 C31.1700277,14.9430639 31.3953543,14.0767713 31.529833,13.1871434 C31.5407461,13.1149287 31.5469134,13.0419048 31.5814462,12.9760761 C31.5989859,12.942615 31.6266077,12.9159554 31.6660393,12.915868 C31.7167777,12.9157586 31.7464772,12.9507506 31.7566686,12.9955404 C31.7678661,13.0447697 31.7746239,13.0962298 31.7744489,13.1466621 C31.7703374,14.3639244 31.7870898,15.5817553 31.7528195,16.7981866 C31.7263568,17.7383998 31.74534,18.6783505 31.7206487,19.6180825 C31.7173901,19.7419542 31.7194677,19.8660009 31.7140221,19.9897413 C31.710173,20.0768933 31.6986694,20.1638047 31.688806,20.2506504 C31.6828574,20.3028541 31.6697135,20.3607877 31.6100303,20.3678299 C31.5375093,20.3764248 31.5141741,20.3141609 31.4957595,20.257452 C31.4822439,20.2159427 31.470784,20.1735368 31.4614892,20.1308684 C31.4159778,19.922163 31.3296131,19.7295758 31.2270428,19.5440745 C30.9971673,19.1282602 30.5422713,18.9220261 30.0774244,19.0207691 C29.8123819,19.0770844 29.5610081,19.1733124 29.3124555,19.2792944 C28.7160825,19.5335769 28.12568,19.802381 27.4981641,19.9773192 C26.740806,20.188474 25.9789864,20.2268559 25.2062756,20.0751874 C24.3151387,19.9002712 23.4868124,19.5610456 22.7286233,19.0719668 C22.0653062,18.6441021 21.4856418,18.1083746 20.9580062,17.5192186 C20.132698,16.5976606 19.5539303,15.5385184 19.1819654,14.3613219 C19.0603682,13.9765192 18.9988916,13.5805191 18.9489405,13.1836661 C18.8789128,12.6272058 18.8389563,12.0681868 18.8497819,11.505406 C18.8618979,10.875397 18.9472128,10.2571321 19.1014182,9.64772451 C19.3737653,8.57130498 19.8102249,7.56587547 20.4272869,6.64213041 C20.9274757,5.89336722 21.5086053,5.21515665 22.1970729,4.62939057 C22.6692243,4.22770428 23.1392981,3.82698027 23.6757911,3.50942787 C24.3028696,3.13831584 24.9652682,2.86717158 25.683982,2.73700134 C26.2905464,2.62712646 26.8886691,2.6733159 27.4802963,2.83036437 Z M115.514994,2.59534279 C116.176124,2.70136855 116.79487,2.93443714 117.387525,3.2403547 C117.747068,3.42596539 118.111357,3.57918661 118.53207,3.54625039 C118.965489,3.51230815 119.176797,3.34673038 119.286257,2.92159945 C119.3008,2.86517485 119.31062,2.80741618 119.327503,2.75171329 C119.348849,2.6811388 119.372993,2.60253802 119.467275,2.6118109 C119.5616,2.62108378 119.570239,2.70602686 119.578571,2.7769294 C119.588741,2.86346899 119.590928,2.95147387 119.589572,3.03873517 C119.57844,3.75996403 119.567024,4.48117102 119.553005,5.20235614 C119.534481,6.15663172 119.50067,7.11062299 119.504344,8.06535784 C119.505241,8.29805464 119.484399,8.53086079 119.472873,8.76357946 C119.471452,8.79255721 119.468652,8.8220161 119.46161,8.85003157 C119.446389,8.91043651 119.414874,8.96056255 119.345831,8.9615467 C119.278493,8.96250898 119.242998,8.91548848 119.220034,8.85770794 C119.189657,8.78118481 119.196546,8.70006898 119.189438,8.62048405 C119.135222,8.01094528 119.092532,7.39924138 118.893581,6.81360652 C118.577931,5.88448144 118.181756,4.99461301 117.586564,4.20648382 C117.15426,3.6340147 116.586033,3.23569639 115.929452,2.95904089 C115.746422,2.8819054 115.548346,2.86325029 115.353899,2.83516921 C114.798226,2.75495005 114.253051,2.77100263 113.721894,2.98648774 C113.409,3.11346496 113.1496,3.30806422 112.932497,3.55740409 C112.524446,4.02603445 112.275959,4.55870017 112.238933,5.19492034 C112.214986,5.60614195 112.214308,6.01119622 112.299273,6.41176714 C112.46157,7.17704218 112.821638,7.82104807 113.454971,8.30769931 C113.983766,8.71400017 114.575109,8.98361353 115.199935,9.19426537 C115.862683,9.41771116 116.53208,9.62381404 117.185643,9.87149179 C117.846664,10.1219689 118.489992,10.4208881 119.078054,10.8185721 C119.791169,11.3008275 120.296585,11.9577367 120.643684,12.7428478 C120.843576,13.1950976 120.931406,13.6720385 120.999443,14.1570714 C121.049372,14.5129181 121.060417,14.8712581 121.041346,15.2257489 C121.022669,15.5731539 120.940853,15.9169065 120.82234,16.2481496 C120.537068,17.0457485 120.131226,17.7757472 119.569451,18.4105458 C118.71031,19.3814207 117.664574,20.0308941 116.358039,20.2002554 C115.884116,20.2617101 115.413298,20.2006272 114.94539,20.1173681 C114.300859,20.0026818 113.704617,19.7470434 113.109185,19.4901584 C112.828111,19.3688892 112.548591,19.2438584 112.259535,19.1431908 C111.856668,19.0028948 111.441881,18.9754042 111.034728,19.1006755 C110.531761,19.2554058 110.220289,19.5936035 110.157281,20.1332238 C110.146674,20.2241812 110.16078,20.3366148 110.031507,20.3558823 C109.952775,20.3676046 109.913278,20.2864669 109.911484,20.1127316 C109.909079,19.8795318 109.910894,19.6462883 109.910894,19.4130447 L109.898712,19.4130229 L109.898712,19.4130229 C109.908335,17.6796285 109.908576,15.9461249 109.933617,14.2129711 C109.940637,13.725292 109.946454,13.2369567 109.961588,12.7491464 C109.964082,12.6690584 109.961982,12.5882925 109.995378,12.5127536 C110.013814,12.4710475 110.040845,12.4364273 110.089528,12.4317689 C110.149496,12.4260609 110.18709,12.4621682 110.204586,12.5133003 C110.223307,12.5678878 110.235029,12.6253841 110.244696,12.6824648 C110.306872,13.048656 110.325986,13.4207741 110.398857,13.7857188 C110.558136,14.5834489 110.826,15.3448529 111.167282,16.0811065 C111.302023,16.3718025 111.4297,16.6660415 111.586945,16.9463274 C111.808882,17.341912 112.070709,17.7082782 112.360181,18.0568423 C112.810418,18.5990215 113.313669,19.0791336 113.925898,19.4374517 C114.807871,19.953693 115.740146,20.1371386 116.739364,19.8597395 C117.240734,19.7205369 117.635553,19.4096549 117.978518,19.0338408 C118.549784,18.4078777 118.83556,17.6696777 118.791011,16.8174257 C118.761814,16.2589533 118.64037,15.7208857 118.377493,15.2217248 C118.162379,14.813237 117.846467,14.4970405 117.475443,14.2275584 C116.800972,13.7376704 116.042061,13.4247326 115.26456,13.1458682 C114.544709,12.887671 113.799052,12.7028039 113.098271,12.3913751 C112.256604,12.0173543 111.539422,11.4835514 111.003082,10.7243124 C110.49725,10.008223 110.246948,9.20283841 110.180923,8.33634901 C110.135914,7.74533413 110.18241,7.15956805 110.289114,6.57579214 C110.388688,6.03094483 110.578104,5.52310156 110.856575,5.04731971 C111.246407,4.38124699 111.711254,3.78150598 112.345462,3.323242 C113.301487,2.63247805 114.36098,2.41025698 115.514994,2.59534279 Z M38.1915793,3.07643686 C38.8755198,3.10445233 39.5612537,3.07510279 40.2437726,3.14926396 C41.1696391,3.24982222 42.0718203,3.44398408 42.9191953,3.84007165 C44.0467032,4.36705117 44.8932253,5.18800723 45.3624024,6.34624243 C45.7503325,7.30388599 45.6407856,8.25230041 45.1206733,9.13958818 C44.8739797,9.56038885 44.4938353,9.86567218 44.0928489,10.1367946 C43.569631,10.4905418 43.0044009,10.7553656 42.3916472,10.9158914 C42.3240689,10.9335843 42.2473927,10.9377614 42.1924771,11.0003753 C42.2360859,11.07797 42.3180765,11.0718683 42.3827024,11.0897142 C42.9245098,11.2393925 43.4549447,11.4168894 43.9608197,11.6667979 C44.3624404,11.8652025 44.7296377,12.109403 45.0619305,12.4092407 C45.4879362,12.7936715 45.8468666,13.2259977 46.1021114,13.7460225 C46.4393687,14.4330905 46.5689047,15.1500547 46.4812935,15.9097747 C46.3851967,16.7428468 46.0850747,17.4867329 45.5380404,18.1277208 C45.2893785,18.4191167 44.9858885,18.6465647 44.6783744,18.867386 C43.9827991,19.366875 43.2266438,19.7368935 42.3704552,19.8577471 C41.6634856,19.9575399 40.9525575,20.019782 40.2364899,20.0122368 C39.5806086,20.0053696 38.9236776,19.9906292 38.268846,20.0183385 C37.3505029,20.0571797 36.4323784,20.049044 35.5147569,20.0348941 C34.5894591,20.020613 33.6642269,20.0070536 32.7388197,20.0030295 C32.6808423,20.0027671 32.6216621,19.9995522 32.5652156,19.9875456 C32.4986215,19.9733519 32.4374511,19.9402845 32.4356359,19.8610058 C32.4337113,19.7778998 32.4988839,19.7502342 32.5653031,19.7391024 C32.6294697,19.7283423 32.6958233,19.7278393 32.7612364,19.72773 L34.2043503,19.7270739 L34.2043503,19.7270739 C34.2698947,19.7270301 34.3354828,19.7248431 34.4010053,19.7223062 C34.4967959,19.7186102 34.5486497,19.6677624 34.5535704,19.5723655 C34.5577039,19.4923432 34.5605251,19.4121677 34.5604376,19.3320579 C34.5563042,15.2797219 34.5517333,11.2273859 34.5474468,7.17502795 C34.5469657,6.71588917 34.5603064,6.25631299 34.5455441,5.79765535 C34.5223401,5.07655771 34.5235648,4.35539446 34.5142919,3.63427495 C34.5114269,3.40993249 34.4939309,3.39313633 34.2639023,3.36525208 C34.1557333,3.35213008 34.0460552,3.34742803 33.9369895,3.34618144 C33.5288516,3.34145752 33.1207136,3.33990475 32.7125757,3.33671173 C32.6324878,3.3360775 32.552028,3.33745531 32.4742146,3.31285156 C32.408189,3.29196571 32.3465594,3.26029795 32.3485651,3.18193774 C32.3507365,3.10036264 32.4171557,3.07619629 32.4854339,3.06817 C32.5431051,3.06136843 32.6017604,3.06110434 32.6599783,3.06110434 L36.202131,3.06558934 L36.202131,3.06558934 C36.8653388,3.06668284 37.5293776,3.04929619 38.1915793,3.07643686 Z M38.2743791,11.1748979 C38.1097199,11.1808028 38.0749685,11.222815 38.067314,11.3917389 C38.0531203,11.7045236 38.035012,12.0174833 38.033656,12.3304212 C38.0246456,14.3927403 38.0184127,16.4550594 38.0147166,18.5173786 C38.0141699,18.8307757 37.972092,19.1428168 37.9912939,19.4564326 C38.0050501,19.6808844 38.0455971,19.723356 38.2677088,19.7254992 C38.5737576,19.7284954 38.8798501,19.7262428 39.1858989,19.7262428 L39.1858989,19.7276425 C39.3680978,19.7276425 39.5503843,19.7235309 39.732452,19.7283861 C40.3166872,19.7439575 40.8755969,19.6196484 41.4227187,19.428439 C41.602337,19.3656503 41.7734917,19.2850374 41.92551,19.1686016 C42.3798155,18.8206936 42.6341855,18.3473612 42.7757719,17.8047665 C42.8923609,17.3579186 42.9215354,16.8991517 42.945155,16.4410845 C42.9846085,15.6754814 42.9500758,14.9114748 42.852973,14.1512955 C42.8068929,13.7905717 42.7704137,13.4249053 42.6384283,13.0825742 C42.2728712,12.134466 41.5904398,11.5456162 40.6014346,11.3112136 C39.8336445,11.1292552 39.0541321,11.146773 38.2743791,11.1748979 Z M5.73570544,6.93761379 C4.49427676,7.37497005 3.40602556,8.06730864 2.45161876,8.97174249 C1.98406003,9.41482869 1.57694998,9.90913443 1.21926613,10.4438559 C1.00850494,10.7589152 0.811062577,11.082285 0.644522527,11.4238944 C0.584992387,11.5460383 0.586741987,11.65342 0.654407767,11.774711 C0.985278997,12.3678254 1.34410009,12.9407976 1.78908898,13.4573232 C2.65741546,14.4652241 3.68187187,15.2734955 4.88609968,15.8388131 C6.13004341,16.4228078 7.44289951,16.7245044 8.90840821,16.7128258 C9.24553426,16.7204147 9.66541639,16.6869755 10.0851892,16.6286701 C11.6428143,16.4123539 13.0418163,15.8170744 14.2994069,14.880601 C14.9106516,14.4254207 15.4511249,13.8943952 15.9280658,13.301915 C16.3263623,12.8071063 16.6695463,12.2742 16.9572024,11.706083 C17.0335725,11.5553112 17.0281487,11.4258845 16.9499853,11.2746535 C16.5347178,10.4712153 15.9999744,9.75446979 15.3715618,9.1093704 C14.7524877,8.47380633 14.041494,7.95811173 13.263425,7.52790696 C12.0482185,6.85601682 10.7451164,6.49986387 9.36726268,6.40969386 C8.12137252,6.3281625 6.90979639,6.52398648 5.73570544,6.93761379 Z M8.92004086,6.8644652 C11.4440794,6.90363437 13.509526,9.01021838 13.4930141,11.5274773 C13.5229979,13.9359547 11.5967758,16.2496695 8.8183891,16.2566829 C6.22852183,16.2632071 4.14686962,14.1208875 4.15210852,11.5674337 C4.15760779,8.89973114 6.3363628,6.82437749 8.92004086,6.8644652 Z M38.2885946,3.394033 C38.1088232,3.398407 38.0713818,3.44081293 38.0627431,3.61656025 L38.0583527,3.81304033 L38.0583527,3.81304033 L38.0587847,4.00971724 C38.0586316,5.75745829 38.0579755,7.50522121 38.059397,9.25296226 C38.059747,9.68985925 38.0646677,10.1268 38.0723222,10.5636314 C38.0754277,10.739663 38.1132628,10.7898984 38.2630723,10.7980559 C38.5899632,10.8158581 38.9185819,10.8435892 39.2444449,10.8270118 C39.5634625,10.8107842 39.8833332,10.7958908 40.2024383,10.7644198 C41.0344169,10.6823198 41.5994939,10.2433671 41.8977789,9.4828597 C42.1676984,8.79472015 42.323719,8.07578764 42.2981967,7.44929962 C42.2949381,6.78086494 42.2652167,6.23568958 42.15263,5.69939344 C42.065478,5.28423523 41.9333832,4.88320504 41.6951533,4.52593672 C41.316518,3.95814778 40.7582425,3.67171639 40.1135149,3.52214746 C39.8004459,3.44947345 39.4811876,3.41566243 39.1621262,3.39622 C38.8719113,3.3785053 38.5796843,3.38694712 38.2885946,3.394033 Z" id="Combined-Shape" fill="#2E2752"></path>
        <path d="M5.10829333,31.2616555 C8.02278373,30.9126498 10.7382685,32.7969509 11.4313284,35.6492706 L11.4313284,35.6492706 L8.85460617,35.6492706 C8.22986206,34.2133537 6.68764472,33.4082189 5.15234253,33.7164553 C3.61704034,34.0246917 2.50509166,35.3626926 2.4829865,36.9284748 C2.46088134,38.494257 3.53461554,39.8631146 5.06060445,40.2145692 C6.58659336,40.5660239 8.15092475,39.8047462 8.81595534,38.3870379 L8.81595534,38.3870379 L11.4313284,38.3870379 C10.7382685,41.2393576 8.02278373,43.1236587 5.10829333,42.774653 C2.19380292,42.4256473 4.4408921e-15,39.9534667 4.4408921e-15,37.0181543 C4.4408921e-15,34.0828418 2.19380292,31.6106612 5.10829333,31.2616555 Z M51.5150609,31.2616555 C54.4295513,30.9126498 57.1450361,32.7969509 57.838096,35.6492706 L57.838096,35.6492706 L55.2613738,35.6492706 C54.6366297,34.2133537 53.0944123,33.4082189 51.5591101,33.7164553 C50.0238079,34.0246917 48.9118593,35.3626926 48.8897541,36.9284748 C48.8676489,38.494257 49.9413831,39.8631146 51.467372,40.2145692 C52.993361,40.5660239 54.5576924,39.8047462 55.2227229,38.3870379 L55.2227229,38.3870379 L57.838096,38.3870379 C57.1450361,41.2393576 54.4295513,43.1236587 51.5150609,42.774653 C48.6005705,42.4256473 46.4067676,39.9534667 46.4067676,37.0181543 C46.4067676,34.0828418 48.6005705,31.6106612 51.5150609,31.2616555 Z M74.6447668,25.7482153 L74.6447668,32.2029046 C75.4836944,31.6234201 76.4622615,31.2786976 77.4791613,31.2044247 L77.4791613,31.2044247 L77.9043205,31.2044247 C80.4157788,31.1658283 82.6664484,32.7488287 83.4791596,35.1254677 C84.2918708,37.5021068 83.4817552,40.1317677 81.4725283,41.6390567 C79.4633014,43.1463456 76.7120043,43.1883978 74.6576505,41.7432187 L74.6576505,41.7432187 L74.6576505,42.3487484 L72.2935078,42.3487484 L72.2935078,25.7482153 L74.6447668,25.7482153 Z M115.190105,31.2012904 L115.460047,31.2044247 C118.61009,31.2044247 121,33.2464771 121,36.7508193 C121,37.0149333 121,37.2726056 120.974233,37.6848811 L120.974233,37.6848811 L112.213377,37.6848811 C112.213377,39.1278456 113.6499,40.6416699 115.582441,40.6416699 C117.012522,40.6416699 118.023886,40.1456509 118.590765,39.1278456 L118.590765,39.1278456 L120.903373,39.1278456 C120.595514,40.2991828 119.829409,41.2974406 118.777577,41.897822 C117.763964,42.4622027 116.620086,42.7509486 115.460047,42.7352567 C113.921161,42.7723654 112.435773,42.1697418 111.357727,41.0709404 C110.27968,39.972139 109.705489,38.4755307 109.771933,36.9376317 C109.704399,35.4052906 110.280411,33.9144669 111.360702,32.8256128 C112.440992,31.7367587 113.927221,31.1489925 115.460047,31.2044247 Z M91.805737,31.2430755 C92.8226368,31.3173485 93.8012039,31.662071 94.6401315,32.2415554 L94.6401315,32.2415554 L94.6401315,31.5973748 L96.9913905,31.5973748 L96.9913905,42.3487484 L94.6272478,42.3487484 L94.6272478,41.7367769 C92.8565378,42.9200135 90.5796495,43.0371939 88.6968255,42.0419869 C86.8140015,41.0467799 85.6283741,39.0994127 85.60872,36.9698407 C85.6473665,33.8056181 88.2161495,31.2569038 91.3805778,31.2430755 L91.3805778,31.2430755 Z M24.9848874,31.5973748 L24.9848874,36.7508193 C24.9486765,37.4521127 24.9984336,38.155202 25.1330489,38.8444061 L25.1330489,38.8444061 L25.1330489,38.8959406 C25.2727409,39.3539146 25.5875929,39.7382192 26.0091345,39.9652803 C26.794964,40.4663477 27.8000272,40.4663477 28.5858567,39.9652803 C29.0073984,39.7382192 29.3222503,39.3539146 29.4619423,38.8959406 L29.4619423,38.8959406 L29.4619423,38.8444061 C29.5965577,38.155202 29.6463148,37.4521127 29.6101038,36.7508193 L29.6101038,36.7508193 L29.6101038,31.5973748 L31.9484793,31.5973748 L31.9484793,42.3487484 L29.5972202,42.3487484 L29.5972202,41.9944491 C28.9049834,42.4523809 28.0952358,42.7006736 27.2652866,42.7094895 C26.4648625,42.7272787 25.6711678,42.5597209 24.9462366,42.2199123 C24.0754708,41.8512342 23.382373,41.1581364 23.0136949,40.2873706 C22.6902471,39.3814473 22.5522347,38.4197414 22.6078611,37.4594179 L22.6078611,37.4594179 L22.6078611,31.5973748 L24.9848874,31.5973748 Z M103.510498,31.1915411 C106.512379,31.2237501 107.858717,33.0081303 107.858717,34.7603014 L107.858717,34.7603014 L107.858717,34.8118358 L105.526783,34.8118358 L105.526783,34.7538596 C105.526783,33.8970994 104.489652,33.3624296 103.523381,33.3624296 C102.557111,33.3624296 101.51998,33.7231707 101.51998,34.740976 C101.51998,35.3915983 102.544227,35.6879214 102.98227,35.7845485 L102.98227,35.7845485 L104.979229,36.2354749 C107.259629,36.7637029 107.813624,38.0713895 107.865158,39.0956366 L107.865158,39.0956366 L107.865158,39.1278456 C107.865158,40.8864585 106.518821,42.7288149 103.51694,42.6966059 C100.515058,42.6643969 99.1687208,40.8800167 99.1687208,39.1278456 L99.1687208,39.1278456 L99.1687208,39.0956366 L101.507096,39.0956366 L101.507096,39.147171 C101.507096,40.0039312 102.544227,40.538601 103.510498,40.538601 C104.347933,40.538601 105.513899,40.0619074 105.513899,39.1536128 L105.513899,39.1536128 L105.489336,39.0270385 C105.327831,38.4586708 104.532598,38.1989372 104.051609,38.0907149 L104.051609,38.0907149 L102.05465,37.6397885 C99.8129014,37.1115604 99.2331389,35.8231993 99.1687208,34.8118358 L99.1687208,34.8118358 L99.1687208,34.6829997 L99.1757249,34.5259116 C99.2877966,32.8493507 100.599582,31.1603081 103.510498,31.1915411 Z M62.3924526,25.7482153 L62.3924526,31.9452323 C63.0846894,31.4873005 63.894437,31.2390078 64.7243862,31.2301919 C65.5248103,31.2124027 66.318505,31.3799605 67.0434362,31.7197691 C67.9142021,32.0884472 68.6072998,32.781545 68.9759779,33.6523108 C69.2994257,34.5582342 69.4374381,35.51994 69.3818117,36.4802635 L69.3818117,36.4802635 L69.3818117,42.3423066 L67.017669,42.3423066 L67.017669,37.1888621 C67.05388,36.4875687 67.0041229,35.7844794 66.8695075,35.0952753 L66.8695075,35.0952753 L66.8695075,35.0437408 C66.7298155,34.5857668 66.4149635,34.2014622 65.9934219,33.9744011 C65.2075924,33.4733337 64.2025292,33.4733337 63.4166997,33.9744011 C62.9889611,34.2003298 62.6689991,34.5875302 62.5277305,35.0501826 L62.5277305,35.0501826 L62.5277305,35.1017171 C62.3931151,35.7909212 62.343358,36.4940105 62.379569,37.1953039 L62.379569,37.1953039 L62.379569,42.3487484 L60.0154263,42.3487484 L60.0154263,25.7482153 L62.3924526,25.7482153 Z M18.2918514,31.2044247 C19.0922754,31.1866355 19.8859702,31.3541933 20.6109014,31.6940019 L20.6109014,31.6940019 L19.5866543,33.9744011 C18.8008248,33.4733337 17.7957616,33.4733337 17.0099321,33.9744011 C16.5821935,34.2003298 16.2622315,34.5875302 16.1209629,35.0501826 L16.1209629,35.0501826 L16.1209629,35.1017171 C15.9863475,35.7909212 15.9365904,36.4940105 15.9728014,37.1953039 L15.9728014,37.1953039 L15.9728014,42.3487484 L13.5893333,42.3487484 L13.5893333,31.5973748 L15.9599178,31.5973748 L15.9599178,31.9194651 C16.6521546,31.4615333 17.4619022,31.2132406 18.2918514,31.2044247 Z M39.6142279,31.2366337 C40.414652,31.2188445 41.2083468,31.3864023 41.933278,31.7262109 C42.8040438,32.094889 43.4971416,32.7879868 43.8658197,33.6587526 C44.1827117,34.5660142 44.3141472,35.5276836 44.252328,36.4867053 L44.252328,36.4867053 L44.252328,42.3487484 L41.8881853,42.3487484 L41.8881853,37.1953039 C41.9291671,36.4923962 41.8837349,35.7871156 41.7529074,35.0952753 L41.7529074,35.0952753 L41.7529074,35.0437408 C41.6132154,34.5857668 41.2983635,34.2014622 40.8768218,33.9744011 C40.0909923,33.4733337 39.0859291,33.4733337 38.3000996,33.9744011 C37.878558,34.2014622 37.563706,34.5857668 37.424014,35.0437408 L37.424014,35.0437408 L37.424014,35.0952753 C37.2845556,35.7860512 37.230469,36.491341 37.2629689,37.1953039 L37.2629689,37.1953039 L37.2629689,42.3487484 L34.8988262,42.3487484 L34.8988262,31.6295839 L37.2822943,31.6295839 L37.2822943,31.9516741 C37.9745312,31.4937423 38.7842787,31.2454496 39.6142279,31.2366337 Z M77.7722635,33.7316249 L77.6015556,33.7360543 C76.4438495,33.855971 75.4327358,34.571566 74.9346481,35.6235033 L74.9346481,35.6235033 L74.8474628,35.8251734 C74.5267129,36.6404563 74.5419378,37.5533452 74.8959973,38.3612707 L74.8959973,38.3612707 L74.9950867,38.5711212 L74.9950867,38.5711212 L75.1085768,38.7735463 L75.2368458,38.9638251 C75.3714664,39.1494991 75.5248841,39.3210505 75.6947812,39.4757031 L75.6947812,39.4757031 L75.8685016,39.6200934 C76.0469078,39.7584418 76.2390495,39.8784477 76.4420306,39.9781639 L76.4420306,39.9781639 L76.5064487,39.9781639 C76.7749028,40.1015357 77.0587442,40.1882049 77.3503252,40.2358362 L77.3503252,40.2358362 L77.4533941,40.2358362 C77.6027978,40.2567932 77.7534549,40.2675545 77.9043205,40.2680452 L77.9043205,40.2680452 L78.084691,40.2730198 L78.084691,40.2730198 L78.2650616,40.2680452 L78.3359215,40.2680452 L78.6515699,40.2165107 L78.8526453,40.1677232 C79.7805353,39.9119689 80.5570722,39.2669348 80.9770618,38.3934797 L80.9770618,38.3934797 L80.9770618,38.3419453 C81.0402029,38.2061975 81.0940096,38.0663003 81.1381069,37.9232279 L81.1381069,37.9232279 L81.1896002,37.7217334 L81.1896002,37.7217334 L81.2282922,37.5173942 L81.2282922,37.4143253 C81.2382287,37.2663304 81.2382287,37.1178356 81.2282922,36.9698407 L81.2282922,36.9698407 L81.2180099,36.786595 C81.0763323,35.0890173 79.6661527,33.7586664 77.9429713,33.7360543 L77.9429713,33.7360543 L77.7722635,33.7316249 L77.7722635,33.7316249 Z M91.5448439,33.6414397 L91.374136,33.645869 L91.1856685,33.6514778 C89.4390993,33.7523185 88.0535867,35.1987841 88.0501643,36.9698407 L88.0501643,36.9698407 L88.1028088,37.1551159 L88.1028088,37.1551159 L88.1661168,37.3370236 L88.1661168,37.4400925 C88.1876144,37.5771323 88.217736,37.7126795 88.2563021,37.8459263 L88.2563021,37.8459263 L88.3296832,38.0580317 L88.3296832,38.0580317 L88.4173472,38.2646436 L88.4173472,38.3161781 C88.8596964,39.2347074 89.6969749,39.9012095 90.6913046,40.1263255 L90.6913046,40.1263255 L91.0069531,40.1778599 L91.0520457,40.1778599 C91.1722013,40.1844927 91.2926313,40.1844927 91.4127868,40.1778599 L91.4127868,40.1778599 L91.6387982,40.1694303 L91.6387982,40.1694303 L91.8637132,40.1456509 L91.9667821,40.1456509 C92.2583631,40.0980196 92.5422045,40.0113505 92.8106587,39.8879787 L92.8106587,39.8879787 L92.8750767,39.8879787 C93.1457183,39.7550237 93.3970896,39.5859981 93.6223262,39.3855178 L93.6223262,39.3855178 L93.7866443,39.2253351 C93.9452976,39.0597251 94.0866989,38.8781417 94.2085305,38.683361 L94.2085305,38.683361 L94.3220206,38.4809359 L94.3220206,38.4809359 L94.4211101,38.2710854 L94.5025675,38.0670346 C94.8001744,37.2430219 94.759185,36.3309266 94.3824592,35.5333181 L94.3824592,35.5333181 L94.2893105,35.3512263 C93.7649098,34.3992543 92.8051574,33.7587318 91.7155517,33.645869 C91.6018231,33.6399632 91.4878646,33.6399632 91.374136,33.645869 Z M115.369862,33.2529189 C113.863194,33.1572804 112.511944,34.1748207 112.18761,35.6492706 L112.18761,35.6492706 L118.590765,35.6492706 C118.384627,34.2449569 117.025406,33.2529189 115.369862,33.2529189 Z" id="Combined-Shape" fill="#2E2752" fill-rule="nonzero"></path>
    </g>
</svg>