<?xml version="1.0" encoding="UTF-8"?>
<svg width="121px" height="46px" viewBox="0 0 121 46" version="1.1" xmlns="http://www.w3.org/2000/svg" xmlns:xlink="http://www.w3.org/1999/xlink">
    <!-- Generator: Sketch 64 (93537) - https://sketch.com -->
    <title>Social Proof / _parts / proof4</title>
    <desc>Created with Sketch.</desc>
    <g id="Social-Proof-/-_parts-/-proof4" stroke="none" stroke-width="1" fill="none" fill-rule="evenodd">
        <path d="M24.7992737,3.36206595 C28.1275572,3.37584425 31.456074,3.37460009 34.7844353,3.36340265 C35.1546507,3.36206595 35.2820993,3.47662121 35.2783717,3.84885833 C35.2625816,5.37062153 35.2655364,6.89285129 35.2767339,8.41477001 C35.2790667,8.73039785 35.1817112,8.83241897 34.8530974,8.83117481 C31.5506302,8.81896649 28.2480852,8.82301001 24.9455403,8.82316553 C24.3903339,8.82324329 24.3890897,8.82472073 24.3887787,9.38303753 C24.3881566,10.8147546 24.3879233,12.2464718 24.389012,13.6781111 C24.3894008,14.1955262 24.393522,14.2002695 24.9056494,14.2003473 C28.2081166,14.2009694 31.5105838,14.2066458 34.813051,14.1913271 C35.1780564,14.1896164 35.2811662,14.2952922 35.2779003,14.6465342 C35.2627371,16.3102871 35.2688024,17.9741178 35.2673249,19.6379486 L18.8709291,19.6379486 C18.8670411,19.4447927 18.8595761,19.2517146 18.8594984,19.0585588 C18.8587985,15.81169 18.8527332,12.5647434 18.8671188,9.31795241 C18.8688296,8.92464233 18.7497012,8.80955753 18.359346,8.81492297 C16.8976913,8.83498505 15.43557,8.83148585 13.9738376,8.81694473 C13.6240731,8.81344553 13.4984907,8.91943241 13.4996571,9.27891689 C13.5112433,12.7318497 13.5080552,16.184938 13.509066,19.6379486 L7.99183852,19.6379486 C7.9862398,19.4580119 7.97566444,19.2780753 7.97558668,19.0981386 L7.974916,14.2521646 L7.974916,14.2521646 L7.97465356,9.40613225 C7.97449804,8.82487625 7.97325388,8.82518729 7.39767436,8.82285449 C5.7825214,8.81647817 4.1674462,8.80979081 2.55229324,8.80318121 L2.55229324,3.38571977 C2.7075022,3.38050985 2.8626334,3.37055657 3.0177646,3.37047881 C8.13343948,3.36970121 13.2491144,3.36970121 18.3647115,3.37001225 C18.9413019,3.37009001 18.9427793,3.37117865 18.9431681,3.95227913 C18.9441012,5.39690441 18.9556097,6.84160745 18.9356254,8.28599945 C18.9301822,8.68102025 19.0616744,8.79579401 19.4496968,8.79081737 C20.9129067,8.77199945 22.3765832,8.77417673 23.8398708,8.78972873 C24.1944564,8.79353897 24.3121073,8.68257545 24.3081416,8.32550153 C24.2918897,6.84238505 24.311874,5.35887977 24.294378,3.87576329 C24.289868,3.49388393 24.3998206,3.36044777 24.7992737,3.36206595 Z M88.3417675,9.72939612 C88.8845323,9.74774748 89.4289301,9.7486806 89.9716949,9.72916284 C90.3484421,9.7156326 90.4632158,9.87123036 90.4585502,10.2333587 C90.4429205,11.4444707 90.4526405,12.6558937 90.4545067,13.8670835 C90.4548955,14.0855891 90.4591723,14.3021507 90.5331998,14.5153686 C90.6567605,14.8715094 90.9293093,14.9743081 91.2653102,14.955568 C91.6006891,14.9368278 91.8317918,14.7565801 91.8852907,14.4208902 C91.933813,14.1167708 91.9589294,13.8060419 91.9614178,13.4979568 C91.9702046,12.4027072 91.9756478,11.3072243 91.9587739,10.212208 C91.9534085,9.86742012 92.054963,9.71656572 92.4180245,9.72916284 C92.9736974,9.74836956 93.5307701,9.74378172 94.0868318,9.73071804 C94.3998158,9.7234086 94.5208104,9.83678268 94.5163781,10.1592534 C94.5015259,11.2414393 94.5107794,12.324014 94.5107794,13.4064332 C94.5107794,14.4630361 94.5014482,15.5198723 94.5164558,16.5763196 C94.5210437,16.896302 94.4056478,17.0144195 94.0901755,17.00711 C93.5211278,16.9937353 92.9516136,17.0060992 92.3824104,17.0019001 C92.1906542,17.0005782 92.0081515,17.0155081 91.9491317,16.7358054 C91.9034088,16.5193216 91.7577643,16.7122441 91.6877803,16.7534569 C91.0266648,17.1438899 90.3141499,17.1909347 89.5852277,17.0540771 C88.8476741,16.9155865 88.372405,16.4470825 88.1145528,15.7603062 C87.950868,15.3240726 87.859189,14.8682435 87.8581003,14.4001283 C87.8548344,13.0084576 87.8664984,11.6166313 87.8489246,10.2251939 C87.844259,9.85311228 87.974196,9.71695452 88.3417675,9.72939612 Z M78.4865429,7.74718486 C79.3388702,8.21996566 79.7751816,9.02299318 80.1138264,9.89118358 C80.1789893,10.0586009 80.1127378,10.1559564 79.9502971,10.2186309 C79.2871598,10.4748501 78.6250334,10.7339465 77.9650066,10.9980194 C77.7827371,11.0708805 77.6681189,11.0239913 77.5952578,10.8467762 C77.5414478,10.7156729 77.4863938,10.5845695 77.4230194,10.4578207 C77.1580133,9.9274975 76.7597266,9.62742166 76.1307259,9.65502646 C75.5101234,9.68224246 75.1539048,10.0410271 74.9453525,10.5602306 C74.6556965,11.2812213 74.6354789,12.0435804 74.7123835,12.806717 C74.74722,13.1522047 74.8080283,13.4963705 74.9492405,13.8196188 C75.4049918,14.8636245 76.5786235,15.0544476 77.342771,14.2079522 C77.3945592,14.1505653 77.4450254,14.0913122 77.4902818,14.0287154 C77.9543534,13.3874287 77.9530315,13.3891394 78.6667128,13.774829 C79.0533355,13.9836924 79.4336597,14.2094297 79.8363787,14.3818236 C80.208227,14.5409983 80.1938414,14.7266114 80.0101723,15.0309641 C79.156212,16.445574 77.9497656,17.1122105 76.1986104,17.1108885 C73.8382056,17.1859269 72.2085115,15.6210847 71.8557144,13.1924066 C71.6498059,11.7749196 71.8180786,10.4121756 72.5746834,9.16684918 C73.9449701,6.91126486 76.9210008,6.87876118 78.4865429,7.74718486 Z M110.25571,10.9771875 C110.425304,11.2201875 110.417062,11.3703421 110.164342,11.5439024 C109.749181,11.8291261 109.35175,12.1405549 108.953618,12.4496509 C108.771816,12.5907075 108.646078,12.5962285 108.525472,12.3739904 C108.440558,12.2173818 108.332549,12.0641946 108.203857,11.9417226 C107.793673,11.5517562 107.164827,11.6522998 106.946011,12.1704925 C106.617242,12.9489478 106.599901,13.7552413 106.931547,14.5392954 C107.146554,15.0476125 107.730143,15.1846256 108.205334,14.8712528 C108.311943,14.8009578 108.406344,14.7085011 108.495068,14.6155779 C108.954396,14.134399 108.952608,14.133777 109.494284,14.561457 C109.747859,14.7616112 109.995914,14.9702413 110.261308,15.1537549 C110.480436,15.3053091 110.496144,15.4399894 110.341479,15.6589616 C109.6166,16.6855491 108.810385,17.1133846 107.554872,17.110753 C105.573314,17.106464 104.331953,15.9204685 104.192063,13.8688486 C104.11508,12.7393069 104.244006,11.6481786 104.994779,10.7251674 C105.490655,10.115529 106.146482,9.78077215 106.920039,9.66786463 C108.282472,9.46903231 109.432853,9.79865695 110.25571,10.9771875 Z M52.2476128,9.66424102 C53.5835296,9.80895238 54.3913783,10.6049037 54.7658704,11.8617386 C54.9436298,12.4585466 55.0070819,13.071762 55.0095791,13.6953972 C55.0108922,14.0373079 54.863848,14.1488157 54.5399776,14.1408842 C53.9834493,14.1272762 53.4263767,14.137074 52.8696151,14.137074 L52.8696151,14.1390957 C52.2998675,14.1390957 51.7300423,14.1424394 51.1603725,14.1377738 C50.8324586,14.1350522 50.7783376,14.2854401 50.905864,14.5535565 C51.0832346,14.9264935 51.3808221,15.1191828 51.7919392,15.1451546 C52.3858701,15.1827127 52.9577171,15.0887009 53.4859408,14.8144413 C53.7388163,14.6832602 53.8832944,14.7315492 54.0161863,14.9739271 C54.2083312,15.3245469 54.4174279,15.6665354 54.6335229,16.0032362 C54.7573168,16.1962365 54.7460416,16.3153649 54.5297133,16.432938 C53.4950387,16.9949095 52.388825,17.2155146 51.228257,17.0631828 C50.08744,16.9134948 49.2561856,16.2897818 48.8239178,15.2219037 C48.2674672,13.8473402 48.2766429,12.4538033 48.9980224,11.1488349 C49.6926525,9.8923111 50.8826138,9.51641926 52.2476128,9.66424102 Z M62.1322618,10.9613089 C62.3188858,11.2210273 62.2944692,11.3774804 62.0294631,11.556484 C61.6442401,11.8168244 61.2766686,12.1040699 60.912985,12.3941147 C60.7079319,12.5575662 60.5617431,12.575762 60.428307,12.3168212 C60.3643882,12.192794 60.2702986,12.079731 60.1725543,11.9782542 C59.689898,11.4773243 59.0171962,11.6111492 58.7864046,12.2680657 C58.5538244,12.9298033 58.5516471,13.6137803 58.7270737,14.2867153 C58.9443351,15.119836 59.7327438,15.3091816 60.3670321,14.7112849 C60.5450247,14.5434788 60.6079326,14.1738078 60.9025652,14.2322833 C61.1195156,14.2752068 61.2997633,14.5054542 61.4943966,14.6546756 C61.7199783,14.8276916 61.9357623,15.0147822 62.1703642,15.174579 C62.386537,15.3217009 62.3724625,15.4598804 62.2317946,15.6536584 C61.5514724,16.5908996 60.6817268,17.1600251 59.549619,17.0984392 C57.628947,17.0963396 56.4134026,16.0183528 56.1669034,14.1846164 C56.0764686,13.5118369 56.1003409,12.8491662 56.2385204,12.1875064 C56.552282,10.6845611 57.6634724,9.74444268 59.2021095,9.6435102 C60.4227082,9.56349516 61.4077719,9.95369484 62.1322618,10.9613089 Z M100.704013,9.62917903 C101.620182,9.65802799 102.23643,10.1121464 102.589849,10.9350805 C102.790392,11.4021848 102.877017,11.8985269 102.879349,12.4048222 C102.88557,13.7708322 102.873595,15.1370754 102.888447,16.5029298 C102.892335,16.8607813 102.786348,17.0232997 102.405169,17.0089918 C101.849496,16.9879966 101.292268,16.9942952 100.736128,17.0065813 C100.409381,17.0136574 100.277966,16.89554 100.282165,16.5545624 C100.297329,15.3304645 100.286753,14.1060555 100.28862,12.8818021 C100.289008,12.6612747 100.275556,12.4446354 100.20114,12.2345278 C100.085588,11.9084024 99.8342678,11.7777656 99.5096198,11.7790875 C99.1991242,11.7803317 98.9672438,11.9149342 98.8450829,12.2180427 C98.7648346,12.4170306 98.7696557,12.6220837 98.7691891,12.8272146 C98.7667008,14.051468 98.7691114,15.2757992 98.766623,16.5000526 C98.7656122,16.9663016 98.7310867,16.9995051 98.2542624,17.0029266 C97.7237837,17.0068146 97.1926051,16.9883077 96.6628262,17.0089141 C96.2866234,17.0234552 96.1689725,16.8706568 96.1748045,16.5077509 C96.1918339,15.4513035 96.1808698,14.3943118 96.1809475,13.3375534 C96.1809475,12.2937032 96.1909008,11.2496197 96.1754266,10.2060805 C96.1702166,9.85476079 96.297432,9.71899183 96.6496848,9.72964495 C97.218577,9.74682991 97.7883245,9.73221103 98.3576054,9.73641007 C98.5393306,9.73780975 98.7263434,9.73399951 98.7692669,9.98586415 C98.8025482,10.1817416 98.9208211,10.0689896 98.9946931,10.0200786 C99.5159962,9.67443535 100.097641,9.61005007 100.704013,9.62917903 Z M114.380458,7.37466003 C114.375326,8.13530835 114.37727,8.89611219 114.381313,9.65676051 C114.382091,9.79470675 114.347021,9.93887379 114.447409,10.1181883 C114.99935,9.72946611 115.591337,9.60676083 116.232857,9.62550099 C117.245136,9.65512755 117.984323,10.1882501 118.282766,11.1537183 C118.382065,11.4749448 118.440307,11.8043362 118.439996,12.1431365 C118.438985,13.612956 118.431987,15.0830088 118.447617,16.5527506 C118.451272,16.8876629 118.344196,17.0177554 118.006484,17.0078799 C117.450189,16.9917058 116.892806,16.9917835 116.336588,17.0078021 C115.996155,17.0175999 115.889702,16.8798869 115.894523,16.5484738 C115.91023,15.4656658 115.905176,14.3823912 115.897089,13.2993499 C115.894756,12.9909538 115.867851,12.6811579 115.828893,12.3749391 C115.78146,12.0025464 115.544836,11.8037919 115.175632,11.7796863 C114.810315,11.7558917 114.552385,11.9131224 114.437456,12.2736178 C114.369416,12.487069 114.381624,12.7074408 114.38108,12.9256354 C114.378203,14.1117864 114.381002,15.2980152 114.378669,16.4843218 C114.377736,16.9661227 114.346166,16.9992485 113.880461,17.0027477 C113.323777,17.006869 112.767016,16.9986264 112.210332,17.0046139 C111.930707,17.0075688 111.784129,16.9208664 111.785058,16.6049275 C111.792761,13.8456917 111.790817,11.0863781 111.786384,8.32706451 C111.785995,8.10793683 111.848203,7.96376979 112.065543,7.87947795 C112.716627,7.62691347 113.363979,7.36455123 114.010476,7.10024499 C114.297643,6.98290515 114.382246,7.10180019 114.380458,7.37466003 Z M86.3718501,9.72612243 C86.6870891,9.81010323 86.849141,9.95893587 86.7435429,10.337316 C86.5707602,10.9563634 86.4533426,11.5908072 86.3152408,12.2193413 C86.258165,12.4787487 86.1589432,12.5533983 85.9362386,12.3439906 C85.7055247,12.1269624 85.4318095,11.9942261 85.1016405,11.9841951 C84.4781608,11.9653771 84.1736527,12.2176306 84.164477,12.8404882 C84.1527611,13.6302706 84.152692,14.4202258 84.1531874,15.2102155 L84.1529685,16.3952088 C84.1516466,16.9937275 84.1436373,17.0022034 83.5503285,17.0038363 C83.0718712,17.0051091 82.5933362,17.0060914 82.1148011,17.0034475 C81.5833893,17.0004149 81.5629384,16.9806639 81.5621608,16.4653483 L81.5618498,13.3742328 L81.5618498,13.3742328 C81.5619275,12.3180965 81.5735138,11.2617269 81.5554735,10.2059016 C81.5493304,9.84944979 81.6816779,9.72153459 82.0284098,9.73039923 C82.4074639,9.74009331 82.7868635,9.73772595 83.1662632,9.73619955 L83.7353195,9.73615347 C83.9163448,9.73731987 84.0990031,9.73086579 84.1540571,9.97860915 C84.2091112,10.2262747 84.3341493,10.0310971 84.4003231,9.98724051 C85.0167266,9.57938931 85.6794751,9.54159795 86.3718501,9.72612243 Z M48.3065338,7.39704713 C48.6656295,7.39199273 48.8283034,7.49082569 48.8074638,7.87573769 C48.7810254,8.36430377 48.790201,8.85574697 48.8045866,9.34532393 C48.8133735,9.64384457 48.6997662,9.76219529 48.3965799,9.75519689 C47.8013271,9.74135561 47.2048302,9.76903817 46.6102772,9.74539913 C46.2503262,9.73109129 46.1414622,9.86056169 46.1437172,10.212659 C46.1566254,12.2628791 46.1504046,14.313177 46.149627,16.363475 C46.1493937,16.9472193 46.1478385,16.9479191 45.5731921,16.9487745 C45.0164305,16.9496298 44.4588913,16.9305786 43.9032183,16.9551508 C43.5273265,16.9717137 43.4109975,16.8318234 43.4133303,16.4646407 C43.4263162,14.4144206 43.4197066,12.3641226 43.4191623,10.3139025 C43.4190846,9.75340841 43.4180737,9.75286409 42.8685438,9.75193097 C42.298874,9.75092009 41.7290487,9.74329961 41.1595345,9.75434153 C40.880065,9.75986249 40.7600036,9.65659721 40.7668465,9.37082921 C40.7792103,8.85535817 40.7837982,8.33879849 40.765058,7.82371625 C40.7531607,7.49930153 40.8851972,7.39611401 41.1984922,7.39899113 C42.4024503,7.40987753 43.6067194,7.40342345 44.8107553,7.40319017 C45.9760666,7.40303465 47.1415335,7.41314345 48.3065338,7.39704713 Z M66.2664267,7.48634671 C66.2710923,8.25959215 66.2739694,9.03307087 66.2651048,9.80623855 C66.2619166,10.0842306 66.3245134,10.1591912 66.5895972,10.0008718 C67.168676,9.65491759 67.808563,9.57684655 68.4647019,9.66712591 C69.4912116,9.80841583 70.172778,10.5664203 70.3048145,11.7629134 C70.4832737,13.3810213 70.3552808,15.0073717 70.3838964,16.6298341 C70.3884843,16.8881528 70.2365412,16.9526158 70.0073825,16.9502053 C69.412052,16.9439845 68.8164881,16.9377637 68.2216241,16.9526158 C67.9131502,16.9603141 67.8149393,16.8300661 67.8171166,16.538155 C67.8255924,15.3653787 67.8216267,14.1925246 67.818283,13.0196706 C67.8176609,12.827059 67.8157169,12.6311038 67.7815025,12.4425358 C67.6907566,11.9430834 67.4496228,11.741996 67.0007144,11.7632245 C66.5619147,11.7839086 66.3111387,12.0262088 66.2851668,12.5162523 C66.2586507,13.0176488 66.2697704,13.521067 66.2684484,14.0236299 C66.2664267,14.848508 66.2586507,15.6734638 66.2721032,16.4981864 C66.2774686,16.8225234 66.1763806,16.9680123 65.8277048,16.9544821 C65.2720318,16.9329426 64.7144148,16.9340312 64.1587419,16.9542488 C63.8199416,16.9665349 63.7026017,16.840797 63.7056344,16.5065067 C63.7176094,15.1533272 63.710611,13.7999144 63.7104555,12.4467349 C63.7103,11.1192162 63.7185425,9.79154191 63.7045457,8.46425647 C63.7009688,8.13229903 63.8072667,7.94676367 64.1317592,7.83370063 C64.6930308,7.63805647 65.2388283,7.39871119 65.7922462,7.18043887 C66.2165048,7.01317711 66.2637828,7.04148175 66.2664267,7.48634671 Z M50.8968439,12.0799332 C50.7738275,12.4135236 50.8275597,12.4994484 51.1771687,12.5108013 C51.3707911,12.5170999 51.5647245,12.5119677 51.7584247,12.5119677 L51.7584247,12.5104125 C51.9909271,12.5104125 52.2235072,12.5073799 52.4560096,12.5113457 C52.6744375,12.5150781 52.7158058,12.410802 52.6716381,12.2157799 C52.5829139,11.8237917 52.2743623,11.5570749 51.846449,11.5228605 C51.3606045,11.4840583 51.0492535,11.6667165 50.8968439,12.0799332 Z" id="Combined-Shape" fill="#2E2752"></path>
        <path d="M98.6181319,27.5 C99.7925824,27.5 100.71978,28.0975275 101.461538,29.375 C102.203297,30.5906593 102.677198,32.8571429 102.677198,34.9175824 C102.677198,37.081044 102.26511,39.4093407 101.358516,40.8928571 C100.71978,41.9024725 99.8543956,42.5 98.5563187,42.5 C97.4230769,42.5 96.4752747,41.8818681 95.8571429,40.9340659 C95.0123626,39.635989 94.5384615,37.4519231 94.5384615,35.1648352 C94.5384615,32.8777473 94.9711538,30.7142857 95.7747253,29.375 C96.4752747,28.2211538 97.3818681,27.5 98.6181319,27.5 Z M50.4244505,27.5206044 C51.3928571,27.5206044 52.0521978,28.2211538 52.3200549,28.7980769 L52.896978,27.6236264 L53.1648352,27.6236264 L53.206044,32.7953297 L52.8763736,32.7953297 C52.4436813,30.0961538 51.8049451,27.8502747 50.4038462,27.8502747 C48.6318681,27.8502747 47.9725275,30.5494505 47.9725275,35.0206044 C47.9725275,39.2239011 48.4876374,41.7582418 50.5892857,41.7582418 C52.0521978,41.7582418 52.896978,40.2541209 53.3090659,38.2760989 L53.7005495,38.3791209 C53.3296703,40.5837912 52.3406593,42.5 50.4244505,42.5 C47.7252747,42.5 46.282967,39.6978022 46.282967,35.1854396 C46.282967,30.3434066 48.0961538,27.5206044 50.4244505,27.5206044 Z M107.230769,27.603022 C107.931319,27.603022 108.673077,27.9532967 109.208791,28.6332418 L109.806319,27.8708791 L110.012363,27.8708791 L110.012363,32.1565934 L109.785714,32.1565934 C109.208791,29.6428571 108.611264,27.9326923 107.251374,27.9326923 C106.262363,27.9326923 105.561813,28.7568681 105.561813,30.2403846 C105.561813,31.3736264 106.118132,32.3626374 106.777473,32.9807692 C107.333791,33.5164835 108.013736,34.1758242 108.508242,34.6703297 C109.559066,35.7211538 110.79533,36.875 110.79533,38.9354396 C110.774725,41.4697802 109.126374,42.4381868 107.519231,42.4381868 C106.365385,42.4381868 105.603022,41.8200549 105.232143,41.3049451 L104.65522,42.1703297 L104.387363,42.1703297 L104.263736,37.4725275 L104.510989,37.4725275 C105.17033,40.6456044 106.159341,42.1085165 107.539835,42.1085165 C108.693681,42.1085165 109.394231,41.0989011 109.394231,39.4711538 C109.394231,38.3791209 108.673077,37.2458791 108.034341,36.5453297 C107.457418,35.9271978 106.798077,35.3296703 106.262363,34.8145604 C105.335165,33.907967 104.284341,32.5892857 104.284341,30.7348901 C104.284341,28.5096154 105.788462,27.603022 107.230769,27.603022 Z M18.5082418,27.8708791 L23.5975275,38.8942308 L23.5975275,31.6826923 C23.5975275,30.1785714 23.4532967,29.2307692 23.1854396,28.9423077 C22.7321429,28.489011 21.9285714,28.1799451 21.4958791,28.0769231 L21.4958791,27.8708791 L26.0700549,27.8708791 L26.0700549,28.0769231 C25.6373626,28.1593407 24.9368132,28.4065934 24.4835165,28.9010989 C24.1538462,29.2513736 24.0714286,30.157967 24.0714286,31.5384615 L24.0714286,42.3145604 L23.6799451,42.3145604 L18.3228022,30.9409341 L18.3228022,38.2760989 C18.3228022,40.0068681 18.3846154,40.6456044 18.5494505,40.9340659 C18.7348901,41.2431319 19.8063187,41.7994505 20.3626374,41.9642857 L20.3626374,42.1703297 L15.8502747,42.1703297 L15.8502747,41.9642857 C16.3035714,41.8200549 17.4162088,41.2637363 17.6016484,40.9546703 C17.757808,40.681391 17.8215047,40.075245 17.827777,38.628173 L17.8282967,30.8997253 C17.8282967,30.0343407 17.6840659,29.4368132 17.4368132,29.1071429 C17.1483516,28.7156593 16.3447802,28.282967 15.6854396,28.0769231 L15.6854396,27.8708791 L18.5082418,27.8708791 Z M38.5357143,27.8708791 L43.625,38.8942308 L43.625,31.6826923 C43.625,30.1785714 43.4807692,29.2307692 43.2129121,28.9423077 C42.7596154,28.489011 41.956044,28.1799451 41.5233516,28.0769231 L41.5233516,27.8708791 L46.0975275,27.8708791 L46.0975275,28.0769231 C45.6648352,28.1593407 44.9848901,28.4065934 44.510989,28.9010989 C44.1813187,29.2513736 44.0989011,30.157967 44.0989011,31.5384615 L44.0989011,42.3145604 L43.7074176,42.3145604 L38.3502747,30.9409341 L38.3502747,38.2760989 C38.3502747,40.0068681 38.4120879,40.6456044 38.5769231,40.9340659 C38.7623626,41.2431319 39.8337912,41.7994505 40.3901099,41.9642857 L40.3901099,42.1703297 L35.8777473,42.1703297 L35.8777473,41.9642857 C36.331044,41.8200549 37.4436813,41.2637363 37.6291209,40.9546703 C37.793956,40.6662088 37.8557692,40.0068681 37.8557692,38.3791209 L37.8557692,30.8997253 C37.8557692,30.0343407 37.7115385,29.4368132 37.4642857,29.1071429 C37.1758242,28.7156593 36.3722527,28.282967 35.7129121,28.0769231 L35.7129121,27.8708791 L38.5357143,27.8708791 Z M15.4381868,27.8708791 L15.4381868,28.0769231 C15.1497253,28.1387363 14.2019231,28.5096154 13.9134615,28.6744505 C13.6043956,28.8598901 13.4395604,28.9010989 13.4395604,29.375 L13.4395604,40.6662088 C13.4395604,41.0989011 13.6043956,41.1607143 13.9134615,41.3667582 C14.1813187,41.5315934 15.0879121,41.8818681 15.4381868,41.9642857 L15.4381868,42.1703297 L9.93681319,42.1703297 L9.93681319,41.9642857 C10.2252747,41.9024725 11.1524725,41.5315934 11.4615385,41.3667582 C11.7706044,41.2019231 11.9354396,41.1401099 11.9354396,40.6662088 L11.9354396,29.375 C11.9354396,28.9010989 11.7706044,28.8392857 11.4615385,28.6744505 C11.1730769,28.5302198 10.2870879,28.1593407 9.93681319,28.0769231 L9.93681319,27.8708791 L15.4381868,27.8708791 Z M65.9807692,27.6236264 C67.3200549,33.0013736 68.6181319,38.3585165 69.1126374,40.2953297 C69.2568681,40.8722527 69.3186813,40.9340659 69.7925824,41.2637363 C70.0192308,41.4285714 70.6991758,41.7994505 71.0494505,41.9024725 L71.0494505,42.1497253 L65.8777473,42.1497253 L65.8777473,41.9230769 C66.3104396,41.8200549 67.6497253,41.3461538 67.6497253,40.9546703 C67.6497253,40.8104396 67.6085165,40.5013736 67.5673077,40.3159341 L66.9285714,37.5549451 L63.3846154,37.5549451 C63.157967,38.5233516 63.0755495,38.7706044 62.9519231,39.4093407 C62.8695055,39.8626374 62.8076923,40.1923077 62.8076923,40.6868132 C62.8076923,41.2637363 64.146978,41.8612637 64.5178571,41.9230769 L64.5178571,42.1703297 L60.1703297,42.1703297 L60.1703297,41.9230769 C60.396978,41.9024725 61.282967,41.407967 61.5096154,41.1813187 C61.7980769,40.8928571 62.1277473,40.3983516 62.3337912,39.6771978 C63.2815934,36.0714286 64.3736264,31.6208791 65.3214286,27.6236264 L65.9807692,27.6236264 Z M30.7472527,27.6236264 C32.0865385,33.0013736 33.3846154,38.3585165 33.8791209,40.2953297 C34.0233516,40.8722527 34.0851648,40.9340659 34.5590659,41.2637363 C34.7857143,41.4285714 35.4656593,41.7994505 35.8159341,41.9024725 L35.8159341,42.1497253 L30.6442308,42.1497253 L30.6442308,41.9230769 C31.0769231,41.8200549 32.4162088,41.3461538 32.4162088,40.9546703 C32.4162088,40.8104396 32.375,40.5013736 32.3337912,40.3159341 L31.6950549,37.5549451 L28.1510989,37.5549451 C27.9244505,38.5233516 27.842033,38.7706044 27.7184066,39.4093407 C27.635989,39.8626374 27.5741758,40.1923077 27.5741758,40.6868132 C27.5741758,41.2637363 28.9134615,41.8612637 29.2843407,41.9230769 L29.2843407,42.1703297 L24.9368132,42.1703297 L24.9368132,41.9230769 C25.1634615,41.9024725 26.0494505,41.407967 26.2760989,41.1813187 C26.5645604,40.8928571 26.9148352,40.3983516 27.1002747,39.6771978 C28.0480769,36.0714286 29.1401099,31.6208791 30.0879121,27.6236264 L30.7472527,27.6236264 Z M59.9436813,27.8708791 L59.9436813,28.0769231 C59.6552198,28.1387363 58.7074176,28.5096154 58.418956,28.6744505 C58.1098901,28.8598901 57.9450549,28.9010989 57.9450549,29.375 L57.9450549,40.6662088 C57.9450549,41.0989011 58.1098901,41.1607143 58.418956,41.3667582 C58.6868132,41.5315934 59.5934066,41.8818681 59.9436813,41.9642857 L59.9436813,42.1703297 L54.4423077,42.1703297 L54.4423077,41.9642857 C54.7307692,41.9024725 55.657967,41.5315934 55.967033,41.3667582 C56.2760989,41.2019231 56.4409341,41.1401099 56.4409341,40.6662088 L56.4409341,29.375 C56.4615385,28.9010989 56.2967033,28.8392857 55.9876374,28.6744505 C55.6991758,28.5302198 54.8131868,28.1593407 54.4629121,28.0769231 L54.4629121,27.8708791 L59.9436813,27.8708791 Z M77.1483516,27.8502747 L77.1483516,28.0975275 C76.8598901,28.1593407 75.7472527,28.5508242 75.5,28.6538462 C75.1703297,28.7980769 75.0260989,28.8804945 75.0260989,29.3543956 L75.0260989,39.8832418 C75.0260989,41.7582418 75.1085165,41.8200549 76.5302198,41.8200549 C78.4258242,41.8200549 78.5494505,41.7582418 78.8379121,41.2431319 C79.1675824,40.6662088 79.8681319,38.8736264 80.0947802,38.1524725 L80.3214286,38.1524725 L80.135989,42.1703297 L71.4203297,42.1703297 L71.4203297,41.9642857 C71.7087912,41.9024725 72.8214286,41.510989 73.0686813,41.407967 C73.3983516,41.2637363 73.5425824,41.1813187 73.5425824,40.7074176 L73.5425824,29.375 C73.5425824,28.9010989 73.3983516,28.8186813 73.0480769,28.6744505 C72.8008242,28.5714286 71.75,28.2005495 71.3997253,28.1181319 L71.3997253,27.8502747 L77.1483516,27.8502747 Z M98.5975275,27.8502747 C96.8049451,27.8502747 96.2074176,30.2815934 96.2074176,35.0618132 C96.2074176,39.739011 96.7019231,42.1703297 98.5975275,42.1703297 C100.410714,42.1703297 100.946429,39.6565934 100.946429,34.9793956 C100.946429,30.2815934 100.431319,27.8502747 98.5975275,27.8502747 Z M119.593407,27.8502747 L119.593407,31.6002747 L119.387363,31.6002747 C118.583791,28.4065934 118.542582,28.3653846 117.491758,28.2623626 C117.244505,28.2417582 116.976648,28.2211538 116.502747,28.2211538 L116.173077,28.2211538 L116.173077,40.6456044 C116.173077,41.0989011 116.317308,41.1401099 116.646978,41.3461538 C116.914835,41.4903846 117.821429,41.8612637 118.171703,41.9642857 L118.171703,42.1703297 L112.690934,42.1703297 L112.690934,41.9642857 C112.979396,41.9024725 113.865385,41.5521978 114.215659,41.3461538 C114.524725,41.1813187 114.68956,41.1195055 114.68956,40.6456044 L114.68956,28.2211538 L114.380495,28.2211538 C113.927198,28.2211538 113.638736,28.2417582 113.391484,28.2623626 C112.361264,28.3653846 112.299451,28.385989 111.495879,31.6002747 L111.269231,31.6002747 L111.269231,27.8502747 L119.593407,27.8502747 Z M9.17445055,27.8502747 L9.17445055,31.25 L8.9478022,31.25 C8.80357143,30.3228022 7.95879121,28.4271978 7.40247253,28.3035714 C7.09340659,28.2417582 6.76373626,28.2211538 6.35164835,28.2211538 L4.88873626,28.2211538 L4.88873626,34.6291209 L5.91895604,34.6291209 C6.64010989,34.6291209 6.94917582,34.2376374 7.11401099,33.9697802 C7.29945055,33.6607143 7.5260989,32.4862637 7.56730769,31.9299451 L7.85576923,31.9299451 L7.85576923,37.7815934 L7.56730769,37.7815934 C7.5467033,37.1840659 7.25824176,35.9065934 7.11401099,35.6387363 C6.94917582,35.3502747 6.61950549,34.9793956 5.91895604,34.9793956 L4.88873626,34.9793956 L4.88873626,40.6456044 C4.88873626,41.0989011 5.03296703,41.1195055 5.36263736,41.3461538 C5.63049451,41.510989 6.49587912,41.8612637 6.88736264,41.9436813 L6.88736264,42.1497253 L1.40659341,42.1497253 L1.40659341,41.9436813 C1.71565934,41.8818681 2.62225275,41.510989 2.93131868,41.3461538 C3.24038462,41.1813187 3.40521978,41.1195055 3.40521978,40.6456044 L3.40521978,29.3543956 C3.40521978,28.9010989 3.26098901,28.8392857 2.93131868,28.6538462 C2.64285714,28.5096154 1.75686813,28.1387363 1.40659341,28.0563187 L1.40659341,27.8502747 L9.17445055,27.8502747 Z M89.8200549,27.8502747 C92.1895604,27.8502747 93.5494505,29.4162088 93.5494505,31.5796703 C93.5494505,34.4230769 91.489011,35.5975275 89.4697802,35.5975275 L88.2953297,35.5975275 L88.2953297,40.6456044 C88.2953297,41.0989011 88.4395604,41.1195055 88.7692308,41.3461538 C89.0370879,41.510989 89.9024725,41.8612637 90.293956,41.9436813 L90.293956,42.1497253 L84.7925824,42.1497253 L84.7925824,41.9436813 C85.1016484,41.8818681 86.0082418,41.510989 86.3173077,41.3461538 C86.6263736,41.1813187 86.7912088,41.1195055 86.7912088,40.6456044 L86.7912088,29.3543956 C86.7912088,28.9010989 86.646978,28.8392857 86.3173077,28.6538462 C86.0288462,28.5096154 85.1428571,28.1387363 84.7925824,28.0563187 L84.7925824,27.8502747 L89.8200549,27.8502747 Z M29.9436813,30.1167582 L28.2953297,37.1222527 L31.6332418,37.1222527 L29.9436813,30.1167582 Z M65.1978022,30.1167582 L63.5494505,37.1222527 L66.8873626,37.1222527 L65.1978022,30.1167582 Z M89.1401099,28.2211538 L88.2953297,28.2211538 L88.2953297,35.206044 L89.1195055,35.206044 C91.0563187,35.206044 91.8804945,33.5370879 91.8804945,31.7651099 C91.8804945,29.9931319 91.2211538,28.2211538 89.1401099,28.2211538 Z" id="Combined-Shape" fill="#2E2752" fill-rule="nonzero"></path>
    </g>
</svg>