<?xml version="1.0" encoding="UTF-8"?>
<svg width="121px" height="46px" viewBox="0 0 121 46" version="1.1" xmlns="http://www.w3.org/2000/svg" xmlns:xlink="http://www.w3.org/1999/xlink">
    <!-- Generator: Sketch 64 (93537) - https://sketch.com -->
    <title>Social Proof / _parts / proof3</title>
    <desc>Created with Sketch.</desc>
    <g id="Social-Proof-/-_parts-/-proof3" stroke="none" stroke-width="1" fill="none" fill-rule="evenodd">
        <path d="M30.3211729,1.70680987 C30.7990785,1.73960758 31.255921,1.88098255 31.6884925,2.09124073 C32.5357534,2.50309657 33.2098572,3.10382659 33.6820159,3.92379607 C33.9669043,4.41856837 34.1651607,4.94771545 34.237198,5.51273419 C34.2778544,5.8318102 34.2988374,6.15537685 34.2812758,6.48236494 C34.2569248,6.93541171 34.2753418,7.39075726 34.2746468,7.8451138 C34.2743527,8.04401173 34.2618698,8.06574322 34.0617156,8.09421067 C33.8331474,8.12674108 33.6023071,8.14251178 33.3730439,8.17055155 C33.0908285,8.20503325 32.809228,8.24462038 32.5273869,8.28204238 C32.223547,8.32237795 31.9197338,8.36300755 31.6158137,8.40291544 C31.4815489,8.42055724 31.443913,8.39078002 31.4430844,8.25630139 L31.4417212,7.25406004 L31.4417212,7.25406004 C31.4395561,6.7641526 31.4106075,6.27614299 31.3327162,5.79179539 C31.2275337,5.13779248 30.8058679,4.67560405 30.1640005,4.54885039 C29.7718179,4.47136012 29.3917173,4.4875585 29.0226562,4.62329344 C28.5740466,4.78832446 28.3701502,5.17018924 28.2429688,5.59653274 C28.1512047,5.90406139 28.1245816,6.22188109 28.1250093,6.54531409 C28.1292861,9.89506423 28.1278427,13.2448144 28.1273081,16.5945912 C28.1272279,17.0627672 28.2348964,17.5015936 28.4688908,17.9088786 C28.6023537,18.1411623 28.8056353,18.2922135 29.0506158,18.3752636 C29.5486491,18.5440636 30.0475111,18.5434755 30.5329814,18.3208414 C30.9163698,18.1450382 31.160575,17.8467046 31.2742043,17.4423866 C31.369764,17.1024078 31.3897313,16.7518973 31.4176107,16.4018947 C31.4615548,15.8502677 31.4313499,15.2981328 31.4427369,14.7463988 C31.4457307,14.6024311 31.4777532,14.5705422 31.6191817,14.587489 C32.0827066,14.6430339 32.5455365,14.7042456 33.0092218,14.7582402 C33.3842705,14.8019171 33.7598002,14.8418249 34.1358379,14.8756919 C34.2472485,14.8857423 34.298677,14.9320654 34.2988642,15.0407763 C34.2997997,15.5923499 34.3142072,16.1443244 34.2981959,16.6954168 C34.2794047,17.3424164 34.1929599,17.9789914 33.9256064,18.5805233 C33.62182,19.2640629 33.1918412,19.8470709 32.6097687,20.3199513 C31.9722582,20.8378985 31.249185,21.1715424 30.4381166,21.2734372 C29.9451352,21.3353706 29.4436537,21.3142004 28.947331,21.2316047 C28.3408006,21.1306188 27.7598508,20.9658016 27.2294474,20.6435982 C26.7208022,20.3346261 26.3216431,19.9193221 26.001792,19.421262 C25.7613289,19.0468549 25.5765177,18.6457445 25.4768415,18.2146163 C25.3920539,17.8478807 25.3213798,17.4757457 25.3218877,17.0941749 C25.3244003,15.2277527 25.3230103,13.3613304 25.3229836,11.4949082 C25.3229569,9.65075203 25.317504,7.80659587 25.3250686,5.96246644 C25.3292919,4.92911137 25.6285877,3.98776096 26.2822699,3.17631835 C26.776855,2.56241044 27.4161832,2.16164755 28.1695415,1.93372084 C28.8732088,1.72084312 29.5933417,1.6568515 30.3211729,1.70680987 Z M52.6429789,1.92617763 C53.7235926,2.296896 54.5712009,2.96423718 55.1602499,3.94677852 C55.5403238,4.58081412 55.7500473,5.26590402 55.7429372,6.01159083 C55.7389544,6.43028955 55.7428837,6.84906846 55.7417076,7.26782064 C55.7412264,7.42734528 55.722756,7.44602955 55.5651559,7.44645723 C55.1553048,7.44757989 54.7454805,7.44683145 54.3356294,7.44683145 L54.3356294,7.44602955 L53.1461979,7.44594936 L53.1461979,7.44594936 C52.9407778,7.44578898 52.9328657,7.43843823 52.932545,7.23809688 C52.9320104,6.91319373 52.9409115,6.5881302 52.8833885,6.26579313 C52.790475,5.74522638 52.6370983,5.25288651 52.2280491,4.88441346 C52.02867,4.70478786 51.7878594,4.60997655 51.5249699,4.55528697 C51.3177589,4.51219821 51.1113766,4.50409902 50.9019738,4.50527514 C50.2214013,4.5090708 49.6266855,4.93036233 49.4064036,5.57303172 C49.2009835,6.17231832 49.1624121,6.78986151 49.2131991,7.41657309 C49.2325249,7.65513834 49.2181709,7.8933561 49.2760146,8.13250941 C49.3908467,8.60720748 49.6730353,8.93804469 50.0843031,9.17556747 C50.4674776,9.39689187 50.8832628,9.54438801 51.2911626,9.71027439 C52.0819429,10.0319165 52.8975019,10.2973187 53.6540679,10.6973064 C54.4602714,11.1234895 55.064503,11.7467796 55.3825633,12.6159056 C55.532278,13.0249548 55.6227324,13.4470482 55.6722898,13.8839233 C55.7160201,14.2691828 55.7367358,14.6552175 55.7561418,15.0402899 C55.7757616,15.4298529 55.7406918,15.8221691 55.728797,16.2132557 C55.7277011,16.248673 55.716715,16.2839833 55.7172764,16.3192134 C55.7230233,16.6757114 55.6684407,17.0251795 55.6139382,17.3764919 C55.5413662,17.8442669 55.4245027,18.2976344 55.2441554,18.7342155 C55.0366236,19.2366058 54.7612779,19.6980458 54.3703784,20.0803115 C53.8542221,20.5850274 53.24419,20.9278129 52.5453342,21.1144151 C52.0737635,21.2403134 51.5946817,21.2849257 51.1077948,21.3001351 C50.4444631,21.3208508 49.8042796,21.2239813 49.1851593,20.9908155 C48.6298169,20.7816266 48.1323983,20.4765838 47.6919948,20.0760615 C47.0226489,19.4673125 46.6014375,18.7121365 46.3704636,17.8467795 C46.2706003,17.4726664 46.2232882,17.0883959 46.2256067,16.699421 C46.2273245,16.432121 46.2258543,16.1648477 46.2259612,15.8975477 C46.2260563,15.6841591 46.2278832,15.6585696 46.401716,15.6554799 L48.4131168,15.6550264 L48.4131168,15.6550264 C48.5556678,15.6550264 48.6982457,15.6540374 48.84077,15.6553739 C49.0382245,15.6572183 49.0564544,15.675555 49.0567484,15.8672091 C49.0570959,16.085513 49.0527122,16.3038704 49.0576572,16.5220407 C49.0706213,17.0914164 49.2285421,17.6108338 49.6201366,18.0376049 C49.8153993,18.2503757 50.0743595,18.3641119 50.3520842,18.4278897 C50.7927817,18.5291162 51.238157,18.5170342 51.6760746,18.4249761 C52.1388778,18.3276789 52.4808347,18.051959 52.6793851,17.6204833 C52.8221501,17.3102282 52.8677247,16.976317 52.883736,16.6351888 C52.9045854,16.1909094 52.9657436,15.7464697 52.9280543,15.302431 C52.8887612,14.8393604 52.906403,14.3673888 52.7541222,13.9180843 C52.6630264,13.6492339 52.5032612,13.430636 52.2750939,13.2604461 C51.8953942,12.9772685 51.4526652,12.8225285 51.0224994,12.6424752 C50.3613595,12.3657395 49.6945262,12.1021283 49.0386522,11.8135244 C48.4900992,11.5721258 47.9985077,11.2428924 47.5672994,10.8173775 C47.2362216,10.4907102 46.9960793,10.113149 46.8212116,9.69100206 C46.631883,9.23402598 46.5290794,8.75414229 46.4586993,8.26407447 C46.3951087,7.82123856 46.3864214,7.37808189 46.3822248,6.93302739 C46.3767986,6.36089847 46.4476866,5.80053075 46.5838759,5.24403888 C46.7512325,4.56017856 47.0233439,3.9268914 47.4503289,3.36842151 C48.0056446,2.64206049 48.7363092,2.1584346 49.6085358,1.89383433 C50.0571454,1.75772517 50.518719,1.70517399 50.9896482,1.69311876 C51.5568321,1.67857764 52.1080581,1.74264945 52.6429789,1.92617763 Z M73.498198,1.70373325 C74.0166531,1.73778727 74.515916,1.86635857 74.9970026,2.06373289 C75.5561407,2.29310302 76.0537196,2.61888826 76.476615,3.04859974 C77.0042384,3.58480354 77.3622066,4.2215656 77.5800561,4.94423788 C77.7246119,5.42374735 77.7704806,5.90884339 77.7695451,6.40500565 C77.7662573,8.1110479 77.7682888,9.81709015 77.7682888,11.5231057 L77.7668721,11.5231057 C77.7668721,13.3405051 77.7785798,15.1580114 77.7613924,16.9752238 C77.7540684,17.7497522 77.5049448,18.4665974 77.1086191,19.1339653 C76.6524449,19.9021588 76.0057928,20.4572072 75.2077953,20.8357575 C74.5991265,21.1244682 73.9554948,21.2814 73.2753767,21.2984003 C72.4751874,21.3184211 71.7201986,21.1553948 70.998649,20.8163248 C70.5137668,20.5884782 70.086755,20.2780895 69.7107976,19.900555 C69.4366814,19.6252627 69.2290428,19.298435 69.032898,18.9629735 C68.8166791,18.5932441 68.6751437,18.1949671 68.5865872,17.782443 C68.5028689,17.3923989 68.4628808,16.992331 68.4628273,16.5910869 C68.4623195,13.2903863 68.4650192,9.98968576 68.4591197,6.68898517 C68.4584703,6.30931225 68.4753904,5.93057488 68.5275139,5.55798541 C68.614333,4.93726135 68.824404,4.35438697 69.1605071,3.81831682 C69.4378308,3.37590859 69.7648456,2.97886117 70.1868589,2.67138598 C70.6642567,2.32354849 71.1821771,2.05146382 71.7546803,1.88688721 C72.3262211,1.72255117 72.9081065,1.66494802 73.498198,1.70373325 Z M85.2156009,1.83257906 C85.3588202,1.83093597 85.4380747,1.88108145 85.4849858,2.0143305 C85.7360607,2.72786112 85.9788493,3.44470626 86.2489292,4.15107324 C86.4635711,4.7124567 86.6632977,5.27891886 86.8685306,5.84348319 C87.1557712,6.63372891 87.4312506,7.4282247 87.7151766,8.2197 C87.901458,8.73911736 88.0960524,9.25554096 88.2824942,9.77490486 C88.4237622,10.1683705 88.5557282,10.565204 88.6960073,10.9590171 C88.9556625,11.6879442 89.2182045,12.4158021 89.480212,13.1439006 C89.4933899,13.180494 89.5127157,13.2148955 89.5291814,13.2503127 L89.5556441,13.2432293 L89.5556441,12.4293275 C89.5558312,8.99468289 89.5560183,5.56001154 89.5562321,2.12534019 C89.5562321,2.08524519 89.5568736,2.04517692 89.5572211,2.00508192 C89.55813,1.89206748 89.607233,1.8344376 89.728106,1.8347049 C90.5566826,1.83662946 91.3852858,1.83473163 92.2138891,1.83609486 C92.3644325,1.83633543 92.4216881,1.88829855 92.4096062,2.04063282 C92.3777707,2.44104822 92.3907081,2.84132997 92.3967758,3.24171864 C92.4001705,3.46403205 92.4126801,3.68631873 92.4127336,3.90860541 C92.4138295,9.01382157 92.4165827,14.1190645 92.4095794,19.2242806 C92.4088577,19.7401963 92.3909219,20.2567269 92.3902536,20.773097 C92.3901735,20.830914 92.3915367,20.8889983 92.3971767,20.9464678 C92.4129207,21.1073022 92.3719703,21.1569398 92.2068858,21.1572071 C91.4406704,21.1584367 90.6744015,21.1558706 89.908186,21.1600467 C89.7880347,21.1607087 89.731768,21.1073557 89.6942391,21.0030285 C89.3825139,20.1366557 89.0664049,19.2719669 88.7390426,18.4113144 C88.5114099,17.8127762 88.3029159,17.2069675 88.0845585,16.604901 C87.8282178,15.8980796 87.5698189,15.1920334 87.3135584,14.485212 C87.1197124,13.9505318 86.929876,13.4144082 86.7345599,12.8802626 L85.7584337,10.2245836 L85.7584337,10.2245836 C85.6976497,10.0590448 85.6398594,9.89240994 85.5806525,9.72614934 C85.52754,9.74213388 85.5320039,9.77736402 85.5329394,9.80593839 C85.5594823,10.6208826 85.5417069,11.436014 85.5429899,12.2510384 C85.5462243,14.3047043 85.556943,16.3585039 85.5379647,18.4120094 C85.5301061,19.2623709 85.5273796,20.1128125 85.5192002,20.963174 C85.5176232,21.128606 85.4892626,21.1574477 85.3225743,21.1575546 C84.5207011,21.1582228 83.7188545,21.1580625 82.9169813,21.1574477 C82.7371953,21.1572873 82.7114543,21.1308513 82.7112672,20.9449709 C82.7103049,19.9381855 82.7097669,18.9314 82.7097669,17.9246146 L82.711187,2.12779935 L82.711187,2.12779935 L82.7112939,2.04760935 L82.7112939,2.04760935 C82.7128443,1.85814711 82.7352173,1.83601467 82.9303195,1.83542661 L83.4916228,1.83542661 L83.4916228,1.83542661 C84.0662911,1.83542661 84.6410128,1.83938265 85.2156009,1.83257906 Z M41.2478649,1.83524217 C41.4654739,1.83542928 41.4694032,1.84018722 41.4694032,2.06311542 L41.469323,20.8930639 L41.469323,20.8930639 C41.469323,20.9242578 41.466944,20.9556389 41.4695903,20.9865922 C41.4803892,21.1124905 41.4255392,21.1609787 41.2980639,21.1597977 L40.5563665,21.1569419 L40.5563665,21.1569419 L38.8924708,21.1575573 L38.8924708,21.1575573 C38.6777754,21.1574771 38.6590644,21.1387928 38.6590644,20.9185643 L38.6590477,17.1698389 L38.6590477,17.1698389 L38.6580971,10.055332 C38.6582893,7.41443469 38.6588506,4.77356415 38.6592783,2.13269361 C38.6593264,1.86582931 38.6593962,1.83847169 38.8706397,1.83553241 L41.2478649,1.83524217 L41.2478649,1.83524217 Z M63.1279256,1.83347983 C63.2611479,1.83287389 63.3436902,1.86398761 63.3412043,2.01546652 C63.3398411,2.09958583 63.3561998,2.18394571 63.3562533,2.26819867 L63.3570585,4.36641346 L63.3570585,4.36641346 L63.3570819,6.46464829 C63.3570819,11.2527665 63.3570819,16.0408846 63.3570552,20.8289761 L63.3569483,20.9626261 L63.3569483,20.9626261 C63.3615191,21.0917052 63.2931705,21.152115 63.1709342,21.1556434 C63.0462922,21.159252 62.9214898,21.1573274 62.7967676,21.1573809 C62.1107155,21.1576214 61.42469,21.157889 60.7386378,21.157889 C60.5319615,21.157889 60.5237821,21.1497895 60.5237554,20.9368584 L60.5237286,18.3975885 L60.5237286,18.3975885 C60.5237286,17.6224453 60.534875,16.8471149 60.5217506,16.0721855 C60.4729149,13.190344 60.4936574,10.3082619 60.5077174,7.42655407 C60.5164848,5.63174149 60.51023,3.83687545 60.5239425,2.0420896 C60.5253324,1.86128788 60.5511269,1.83530632 60.7356975,1.83522613 C61.5331069,1.83482518 62.3305163,1.8370705 63.1279256,1.83347983 Z M72.3628145,4.65023461 C71.922117,4.82264311 71.5900235,5.12578804 71.4299108,5.58436792 C71.3340303,5.8590454 71.3007514,6.14874514 71.3003505,6.43734895 C71.2966617,9.21251101 71.2934274,11.9876998 71.3010455,14.7628351 C71.3031571,15.5321245 71.2458213,16.3035791 71.3500683,17.0707835 C71.3914998,17.3759599 71.4892247,17.6603671 71.7048823,17.8888819 C72.0888855,18.2957125 72.5625945,18.4870993 73.1234167,18.490975 C73.6092344,18.4942362 74.0336534,18.3430781 74.400683,18.0340525 C74.8002965,17.6975486 74.924885,17.2282499 74.928948,16.7401869 C74.9435158,14.9941298 74.9346682,13.2478856 74.9348018,11.5016949 C74.9348018,9.84015814 74.9339198,8.17862134 74.9358443,6.51708454 C74.9361116,6.28937167 74.9224793,6.06526735 74.8779739,5.84073535 C74.7883749,5.38851721 74.5644042,5.03316859 74.1668222,4.79265205 C73.5892938,4.44331768 72.9816675,4.40811427 72.3628145,4.65023461 Z M94.6944999,1.84740165 C95.1824294,1.84125375 95.7002429,2.19358188 95.6762928,2.83536918 C95.7204241,3.41351235 95.205337,3.83595327 94.7221922,3.83794029 C94.1630808,3.84020334 93.7229446,3.41185509 93.7188817,2.8627407 C93.7141505,2.2142709 94.1749489,1.85397723 94.6944999,1.84740165 Z M94.4618687,2.12817357 C94.1333036,2.22482925 93.9239275,2.6096076 93.9694754,2.95707087 C94.0148362,3.30333129 94.2823501,3.56138271 94.641628,3.59305776 C94.8002705,3.60703755 94.9584854,3.59479521 95.110686,3.44959785 C94.9351769,3.4521372 94.8863144,3.33570132 94.8208794,3.23792298 C94.7688628,3.16019214 94.7177818,3.08179305 94.6634664,3.00566601 C94.6407459,2.97377712 94.6131873,2.93539284 94.5659286,2.95487901 C94.5258069,2.97142488 94.5250585,3.01470075 94.5342536,3.04808652 C94.5588719,3.13739145 94.5240962,3.22538661 94.5350288,3.31380945 C94.5448921,3.3935985 94.5031131,3.43000476 94.4284028,3.43430829 C94.3504314,3.43879893 94.3126619,3.39832971 94.312555,3.32198883 C94.3121273,3.0057462 94.3123946,2.68950357 94.3119134,2.37326094 C94.3118065,2.29577067 94.3492553,2.25909711 94.4266921,2.25987228 C94.5780908,2.26134243 94.7300241,2.25423225 94.880808,2.26428273 C95.0465608,2.27534895 95.1553251,2.39646258 95.1698128,2.56200147 C95.1821353,2.70244089 95.1420938,2.82013308 95.0163826,2.89291887 C94.9394002,2.93747778 94.9297774,2.98206342 94.9828364,3.05185545 C95.0392902,3.12621831 95.0997802,3.20052771 95.139501,3.28389858 C95.1978526,3.40624179 95.2510453,3.35783376 95.2985177,3.28686561 C95.4481523,3.06334935 95.5039378,2.82601368 95.3899611,2.5671069 C95.205925,2.14907643 94.8494003,2.01419685 94.4618687,2.12817357 Z" id="Combined-Shape" fill="#2E2752"></path>
        <path d="M55.6692043,30.5950783 L55.6692043,37.5837565 L56.4539957,37.5837565 L56.4539957,40.2567826 L52.4945522,40.2567826 L52.4945522,39.2234609 C52.3123696,39.4172087 52.1988478,39.5513652 52.0715087,39.6708522 C51.6067696,40.1071043 51.0390391,40.3318957 50.4224913,40.453513 C50.3450652,40.4687304 50.269587,40.493687 50.1931957,40.5141391 L49.1590217,40.5141391 C48.9851783,40.4676957 48.8097522,40.4263043 48.6376739,40.3739565 C47.5633261,40.0473304 46.8853609,39.1882174 46.8496913,38.0042435 C46.8058652,36.5520174 46.8142043,35.0981478 46.8002652,33.6450696 C46.7990478,33.5261304 46.8000826,33.4072522 46.8000826,33.2632957 L46.0316652,33.2632957 L46.0316652,30.5987304 L50.321387,30.5987304 L50.321387,30.9382 C50.321387,32.7253304 50.3170043,34.5124609 50.3266826,36.2996522 C50.3279609,36.5368609 50.3710565,36.7837478 50.447387,37.0084174 C50.5680304,37.3633478 50.871587,37.5462 51.2498913,37.5371913 C51.6208913,37.5283043 51.8868304,37.3545826 52.0213522,37.0062261 C52.0717522,36.8756609 52.1274478,36.7356 52.1284826,36.5994348 C52.1371261,35.499887 52.1333522,34.4002783 52.1333522,33.2662783 L51.4691435,33.2662783 L51.4691435,30.5950783 L55.6692043,30.5950783 Z M94.60626,31.0101661 C95.8008861,31.6844183 96.37866,32.7773922 96.593773,34.0747052 C96.7014513,34.7242443 96.7117383,35.3897922 96.768773,36.0806617 L90.7754948,36.0806617 C90.7694687,36.6632443 90.786573,37.212653 91.0979209,37.6997922 C91.3490687,38.092827 91.7433817,38.1939922 92.1849296,38.1544878 C92.6027991,38.1171139 92.9107383,37.9107661 93.0794078,37.5266791 C93.155373,37.353627 93.19646,37.1653574 93.2592774,36.9650357 L96.5579817,36.9650357 C96.486947,37.655053 96.2743296,38.2913835 95.8684513,38.8550965 C95.2232948,39.7512183 94.3062948,40.1976357 93.2430861,40.3887661 C92.9874339,40.4347226 92.7303209,40.4725835 92.4739383,40.5141574 L91.68306,40.5141574 C91.3375643,40.4554791 90.9890252,40.4106183 90.6471209,40.3357487 C88.7717296,39.9256096 87.6016339,38.6875835 87.3147557,36.7935052 C87.1157122,35.4793922 87.1385991,34.1763574 87.6836861,32.93474 C88.3642078,31.3847574 89.6117296,30.5959487 91.2596513,30.4050617 C92.4303557,30.2694443 93.5644165,30.4221052 94.60626,31.0101661 Z M104.339742,30.9928183 C105.482385,31.5531835 105.913403,32.5568617 105.911333,33.78174 L105.91042,35.5082748 L105.91042,35.5082748 L105.910968,37.5901052 L106.683037,37.5901052 L106.683037,40.2485835 L102.661629,40.2485835 C102.631316,39.9055226 102.601672,39.5709226 102.580246,39.3278096 C102.418759,39.45174 102.220811,39.5904009 102.037837,39.7464704 C101.569872,40.145653 101.029046,40.3709313 100.422055,40.4517052 C100.346637,40.4616878 100.273959,40.4927922 100.200003,40.5141574 L99.5916113,40.5141574 C99.4449157,40.4856704 99.2978548,40.4588878 99.1516461,40.4283922 C97.9511765,40.177427 97.2722983,39.4804704 97.07922,38.1739052 C96.871533,36.7686704 97.2842287,35.5341748 98.6636548,34.8487835 C99.2026548,34.5809574 99.8272983,34.4444878 100.428994,34.3523922 C101.084133,34.25214 101.757898,34.2728965 102.491194,34.237653 C102.469037,33.8840009 102.484742,33.5109922 102.413281,33.1553922 C102.327942,32.73174 101.944829,32.4850357 101.538159,32.5145574 C101.096368,32.5465748 100.748681,32.8750878 100.68495,33.3241226 C100.66809,33.4427574 100.659629,33.5626096 100.645446,33.6999922 L97.4243504,33.6999922 C97.30462,32.4171052 97.9684026,31.3313139 99.1154287,30.8410096 C100.869994,30.090853 102.631742,30.1551922 104.339742,30.9928183 Z M24.73058,30.5444957 C26.5746843,31.0358348 27.55718,32.2920609 27.8585452,34.1167478 C27.946867,34.6513652 27.9499104,35.2001043 27.9861278,35.7427565 C27.9932496,35.8497043 27.97298,35.9584174 27.9639713,36.0861217 L22.0394757,36.0861217 C22.0241974,36.674487 22.0380148,37.2353391 22.375293,37.7229043 C22.8189104,38.3641652 23.9041539,38.2914261 24.2705278,37.5995217 C24.3727278,37.4064435 24.4237365,37.1864609 24.5067017,36.9553391 L27.8215974,36.9553391 C27.7405191,37.649313 27.536667,38.2898435 27.1287191,38.8533739 C26.3894583,39.8746435 25.3290496,40.3096783 24.116893,40.4563739 C23.9874235,40.4720174 23.8587452,40.4947217 23.7297626,40.5141391 L22.8780757,40.5141391 L22.0822579,40.3879948 C21.9502679,40.364515 21.8191481,40.3376986 21.6897191,40.3043826 C20.0883017,39.8920522 19.0645365,38.8850261 18.6635887,37.2828783 C18.3259452,35.933887 18.3262496,34.584713 18.7932409,33.2609826 C19.3994409,31.5425739 20.6685713,30.6427391 22.4423104,30.3973739 C23.2127974,30.2907304 23.9794496,30.3443565 24.73058,30.5444957 Z M71.6771635,30.6008183 C73.3496157,31.113827 74.2711809,32.29354 74.5758939,33.9620357 C74.7011635,34.6482183 74.7048765,35.3563748 74.7669026,36.0899748 L68.7392939,36.0899748 C68.8023548,36.5197748 68.8249374,36.9216357 68.9257983,37.3029226 C69.0821113,37.89354 69.4728939,38.1602704 70.0593113,38.1508357 C70.6212591,38.1417661 70.9858678,37.8522096 71.1520417,37.2806443 C71.1825983,37.1754617 71.2065809,37.0683313 71.2361026,36.9524357 L74.5519722,36.9524357 C74.5340765,38.3206617 73.5415983,39.6613139 72.128207,40.1490617 C71.6095374,40.3280183 71.052033,40.3956443 70.5122417,40.5141574 L69.6605548,40.5141574 C69.253033,40.4460443 68.8379635,40.4067835 68.439207,40.3046443 C66.8114939,39.887627 65.7813983,38.8571052 65.39792,37.2278096 C65.075433,35.8578791 65.0740939,34.4850878 65.5800417,33.1504617 C66.211807,31.4837313 67.4790504,30.6235226 69.2151722,30.3953835 C70.0487809,30.28594 70.87332,30.3542965 71.6771635,30.6008183 Z M43.8875713,27.5457078 L43.8875713,30.5698904 L45.4297626,30.5698904 L45.4297626,33.284247 L43.9058322,33.284247 C43.8988322,33.4149339 43.8884843,33.5206035 43.8883626,33.6263339 C43.8870843,34.6253861 43.8867191,35.6244383 43.8887278,36.6234296 C43.8890322,36.7438904 43.8986496,36.8652643 43.9150843,36.9846296 C44.0040757,37.6328296 44.4250496,37.9353513 45.0670409,37.8166557 C45.1457452,37.8021687 45.2248148,37.7900557 45.3468583,37.7696035 C45.3468583,38.5604209 45.3513017,39.3057078 45.3394322,40.0508122 C45.3383365,40.1194122 45.242467,40.2344557 45.1754496,40.246873 C44.1572843,40.435447 43.1364409,40.5778817 42.1052496,40.3287426 C40.9452583,40.0484991 40.415267,39.3855687 40.4130757,38.1920383 C40.4102757,36.6884383 40.4123452,35.1848383 40.4123452,33.6812383 L40.4123452,33.294473 L39.5839713,33.294473 L39.5839713,30.5890035 L40.6816322,30.5890035 L40.6816322,29.8773165 L40.6816322,29.8773165 C40.6816322,29.4130643 40.6724409,28.9485078 40.6900322,28.4849861 C40.6933191,28.3969078 40.7888843,28.2541687 40.8657626,28.2357861 C41.8571452,27.9983339 42.8528496,27.7787774 43.8875713,27.5457078 Z M111.461164,27.5587522 L111.461164,30.5797696 L113.012669,30.5797696 L113.012669,33.2747087 L111.531469,33.2747087 C111.497138,33.3223087 111.486121,33.3305261 111.486121,33.3387435 C111.487399,34.568187 111.453982,35.7991522 111.506269,37.0264652 C111.53293,37.6528739 112.025364,37.9442565 112.649095,37.8328043 C112.72646,37.8189261 112.803643,37.8045609 112.902799,37.7864217 L112.902799,40.2202913 C112.449199,40.2867 111.986286,40.3691783 111.519843,40.4195174 C110.778086,40.4996826 110.044364,40.4548217 109.33286,40.2061087 C108.559938,39.9359087 108.08473,39.4109087 108.047173,38.5840565 C108.002921,37.6069174 108.005173,36.6274652 107.996043,35.6489261 C107.988738,34.8733261 107.994521,34.0974826 107.994521,33.275987 C107.773199,33.275987 107.573425,33.2895 107.377243,33.2691696 C107.302312,33.2614391 107.174851,33.1771348 107.174121,33.126187 C107.161399,32.2905087 107.165051,31.4545261 107.165051,30.5870739 L108.284564,30.5870739 L108.284564,28.8092565 C108.284564,28.2731783 108.285234,28.2761 108.806825,28.159413 C109.674277,27.9653609 110.540756,27.7672304 111.461164,27.5587522 Z M81.6424548,27.0833426 C82.4145243,27.1001426 83.19962,27.1986296 83.95002,27.3788643 C85.2892113,27.7004991 85.963707,28.6061165 86.2000635,30.0055687 C86.3526026,30.9088122 86.2300113,31.7733426 85.6056722,32.4777252 C85.3178809,32.8023426 84.9191243,33.0311513 84.5624287,33.2920991 C84.4423939,33.3799948 84.2966722,33.4330122 84.1204548,33.5235861 C84.245907,33.5759339 84.331307,33.6220122 84.4224896,33.6479426 C85.6173591,33.9880817 86.2707939,34.8061078 86.5395939,35.9846035 C86.8727939,37.4452296 86.3224722,38.8681165 85.1120809,39.6225339 C84.522133,39.9903078 83.8612722,40.1772383 83.1828809,40.1923339 C80.681507,40.2480904 78.17922,40.2633687 75.6403504,40.2943513 L75.6403504,37.6073861 L76.8106896,37.6073861 L76.8106896,29.7438904 L75.6477157,29.7438904 L75.6477157,27.0699513 L75.9563852,27.0699513 C77.8518635,27.0699513 79.7478896,27.0423165 81.6424548,27.0833426 Z M12.7000209,27.0623852 L12.7000209,29.7294461 L11.548673,29.7294461 C12.1906643,32.2286287 12.8237687,34.692933 13.456873,37.1573591 C13.4761078,37.161133 13.4953426,37.164907 13.5145165,37.1686809 C14.1971078,34.7069939 14.87976,32.2452461 15.5701426,29.7553765 L14.44016,29.7553765 L14.44016,27.07742 L19.6300817,27.07742 L19.6300817,29.7478287 C19.4444296,29.7478287 19.2597513,29.7749765 19.0868817,29.7415591 C18.8203339,29.6899417 18.7458904,29.8142374 18.6755861,30.0402461 L15.5697774,39.9919939 L15.5697774,39.9919939 C15.5003861,40.2151417 15.3988557,40.2800896 15.1666383,40.2779515 C13.8394991,40.2652374 12.5122383,40.2718113 11.1645252,40.2718113 C10.8504991,39.2859678 10.5386643,38.3101678 10.2287165,37.3337591 C9.45774261,34.9046983 8.68354261,32.4766113 7.92340348,30.0442026 C7.84585565,29.7958548 7.74517739,29.699133 7.48313391,29.7428374 C7.32724696,29.7688896 7.16137739,29.7352896 7.00001217,29.728533 L7.00001217,27.0623852 L12.7000209,27.0623852 Z M36.9445087,30.5593843 C37.9601783,30.9297148 38.3722652,31.7684365 38.3864478,32.8007235 C38.4067783,34.2740713 38.3954565,35.7479061 38.3976478,37.2215583 L38.3976478,37.5733235 L38.3976478,37.5733235 L39.1762304,37.5733235 L39.1762304,40.255967 L34.8762826,40.255967 L34.8762826,34.5473148 C34.8762826,34.4666017 34.8782304,34.385767 34.8754304,34.3051148 C34.8568652,33.7678191 34.6449783,33.4650539 34.2264391,33.3753322 C33.7648652,33.2764191 33.3044478,33.49348 33.0967,33.9409322 C33.0094739,34.1287148 32.9413609,34.3444365 32.9381348,34.5486539 C32.9220652,35.546367 32.9308304,36.544567 32.9308304,37.58848 L33.5699609,37.58848 L33.5699609,40.2543843 L28.6590652,40.2543843 L28.6590652,37.5843409 C28.8335783,37.5843409 29.0112565,37.5780713 29.1883261,37.586167 C29.347013,37.5933496 29.4304652,37.5537843 29.429613,37.370567 C29.4236478,36.0584017 29.4258391,34.7462365 29.424013,33.4340713 C29.4239522,33.3957843 29.4076391,33.3575583 29.3917522,33.2883496 L28.6557174,33.2883496 L28.6557174,30.5929843 L32.4918391,30.5929843 C32.5311,31.0358713 32.5706043,31.4803409 32.6113261,31.9398452 C32.8452478,31.6740887 33.0363783,31.3987757 33.2826565,31.1871322 C34.3719174,30.2512017 35.6240043,30.077967 36.9445087,30.5593843 Z M63.8809652,30.479067 C64.5850435,30.5473626 64.4420609,30.4903278 64.4479043,31.0923278 C64.45614,31.9385365 64.4499739,32.784867 64.4499739,33.600093 C63.911887,33.6264496 63.4107478,33.5973539 62.9315217,33.6859191 C61.9993652,33.8581191 61.5371826,34.4355887 61.515513,35.3801626 C61.4990783,36.0953191 61.5122261,36.8111452 61.5122261,37.5694583 L62.5910783,37.5694583 L62.5910783,40.2517974 L57.2686435,40.2517974 L57.2686435,37.5935626 L58.0316435,37.5935626 L58.0316435,33.3001278 L57.2712,33.3001278 L57.2712,30.5972757 L61.0472435,30.5972757 C61.0830957,31.0866061 61.1187043,31.5720409 61.156687,32.0897974 C61.1977739,32.0388496 61.2236435,32.0196757 61.2317391,31.9948409 C61.6464435,30.727293 62.7093478,30.3653626 63.8809652,30.479067 Z M101.734403,35.9689661 C100.893124,36.0410357 100.376342,36.7701313 100.580194,37.5823748 C100.714229,38.1162617 101.168498,38.374653 101.696907,38.2107313 C102.066203,38.0961139 102.324472,37.839427 102.385281,37.471227 C102.464837,36.98914 102.472263,36.4950617 102.513898,35.9659226 C102.196585,35.9659226 101.963942,35.9492443 101.734403,35.9689661 Z M80.5310983,34.8824991 C80.3229852,34.8712991 80.2713678,34.9613861 80.2768461,35.1502643 C80.2873157,35.5135339 80.2798896,35.8772904 80.2800113,36.2408643 C80.2800113,36.6144209 80.2842113,36.98816 80.2780026,37.3617165 C80.2753852,37.5200991 80.3155591,37.6086035 80.4976809,37.6005687 C81.0032635,37.578047 81.5108548,37.583647 82.0146722,37.5419513 C82.3641852,37.5130383 82.6894722,37.3816209 82.8944809,37.0694209 C83.3196548,36.422073 83.144107,35.0697948 81.89622,34.9369165 C81.4444461,34.8887687 80.9858548,34.9071513 80.5310983,34.8824991 Z M90.9084948,34.264253 C91.6497643,34.264253 92.3766078,34.2665661 93.1033904,34.2592617 C93.1529991,34.2587139 93.2339557,34.1941313 93.2461296,34.14574 C93.370973,33.6500183 92.970147,32.9853226 92.4580513,32.8231661 C91.5246165,32.5274617 90.8032513,33.1721313 90.9084948,34.264253 Z M22.6269887,32.9624783 C22.1991974,33.2756522 22.1267626,33.7305304 22.144293,34.2344696 L24.4367017,34.2344696 C24.5295887,33.6936435 24.3494757,33.2065652 23.9762235,32.9637565 C23.5767365,32.7038435 22.9971365,32.6913652 22.6269887,32.9624783 Z M69.3905374,32.9558617 C68.9461287,33.2509574 68.8837983,33.7223313 68.8794157,34.2313226 L71.2305635,34.2313226 C71.218633,33.7090617 71.1740157,33.2263052 70.6830417,32.9456965 C70.2568939,32.7022183 69.805607,32.6803661 69.3905374,32.9558617 Z M80.2812896,29.6840557 C80.2812896,30.5306904 80.2781852,31.3752557 80.2882896,32.2196383 C80.28902,32.2764296 80.3906113,32.3811861 80.4442374,32.3805197 C80.9077591,32.3747339 81.380533,32.4012122 81.8321243,32.318247 C82.4368026,32.20716 82.8359852,31.5924383 82.801107,30.958847 C82.7638548,30.2817339 82.3566374,29.7667774 81.7200026,29.6942209 C81.2628722,29.6421165 80.794907,29.6840557 80.2812896,29.6840557 Z" id="Combined-Shape" fill="#2E2752"></path>
    </g>
</svg>