<?xml version="1.0" encoding="UTF-8"?>
<svg width="121px" height="46px" viewBox="0 0 121 46" version="1.1" xmlns="http://www.w3.org/2000/svg" xmlns:xlink="http://www.w3.org/1999/xlink">
    <!-- Generator: Sketch 64 (93537) - https://sketch.com -->
    <title>Social Proof / _parts / proof5</title>
    <desc>Created with Sketch.</desc>
    <g id="Social-Proof-/-_parts-/-proof5" stroke="none" stroke-width="1" fill="none" fill-rule="evenodd">
        <path d="M53.160306,0.996492419 C53.4899839,0.99846817 53.6384377,1.15659637 53.6304666,1.50882508 C53.611186,2.35730791 53.6224274,3.20647204 53.6251525,4.05543178 C53.6265151,4.46666049 53.6664389,4.50767435 54.0709228,4.50924133 L56.5212628,4.51135334 L56.5212628,4.51135334 C57.0504234,4.51366973 57.1581358,4.6241074 57.1590215,5.15142851 C57.1603841,5.97770118 57.1624961,6.80404198 57.1577271,7.63031464 C57.1552744,8.05298909 57.0313471,8.17603068 56.6054706,8.17834708 C55.766049,8.18297987 54.9266274,8.17827895 54.0871376,8.18052721 C53.6707992,8.18168541 53.6266514,8.22133669 53.626447,8.61846263 C53.6241306,11.6745406 53.6236537,14.7306866 53.6246756,17.7868327 C53.6248119,18.1813697 53.6707311,18.2227242 54.0865244,18.2238143 L56.6048575,18.225245 L56.6048575,18.225245 C57.1067663,18.2267438 57.2201336,18.3399748 57.2225862,18.8518987 C57.226674,19.6894808 57.2278322,20.5271311 57.2221093,21.3647132 C57.2183622,21.9122006 57.1008391,22.0291787 56.5641161,22.0295193 C54.5335211,22.0306775 52.5029941,22.0297237 50.4724672,22.0268623 C49.9375837,22.0261129 49.8764717,21.9600274 49.8762673,21.4115181 L49.8762805,6.01226198 C49.8766238,3.92811586 49.8771624,2.27080714 49.8779706,1.58417613 C49.8785156,1.08730883 49.9138747,1.01536425 50.4046104,1.0020109 C51.3225851,0.977007427 52.24165,0.990973942 53.160306,0.996492419 Z M68.7798435,4.51265461 C69.3581935,4.51326777 69.4154903,4.57322159 69.4156265,5.15933833 L69.4161205,5.45453192 C69.4238043,8.22205288 69.5179207,19.485638 69.4786462,21.2464475 C69.4636577,21.9203148 69.3811531,22.023122 68.715325,22.0239396 C65.5739492,22.0276185 62.4325052,22.0279592 59.2911293,22.0266647 C58.7617643,22.0264603 58.6577989,21.9168402 58.6576627,21.3840688 C58.656777,18.2608834 58.656777,15.1376981 58.6577308,12.0145809 C58.6578671,11.4923014 58.7190472,11.4311894 59.2480034,11.4313256 C61.2439888,11.4318706 63.239906,11.4355496 65.2358914,11.4361628 C65.7076189,11.4363672 65.7360289,11.4065947 65.7369827,10.9341858 C65.7386859,10.164733 65.7396397,9.39521208 65.736642,8.62575928 C65.7350751,8.22338738 65.6909272,8.17821763 65.2826962,8.1776726 L59.396866,8.17542433 L59.396866,8.17542433 C58.8114306,8.17508368 58.7276996,8.09073955 58.7272227,7.50544037 C58.7264052,6.7246781 58.7261327,5.94384771 58.7276315,5.16308544 C58.7285853,4.6164156 58.8296893,4.51456223 59.3896443,4.51381281 C61.1928918,4.51163267 62.9960711,4.51265461 64.7992504,4.51245022 C66.1260694,4.51231396 67.4530246,4.51122389 68.7798435,4.51265461 Z M44.2975029,4.46339709 C45.453726,4.49725738 46.608859,4.48281395 47.7641964,4.50734052 C48.2452577,4.51755992 48.3140683,4.57737748 48.3145452,5.06041452 L48.3152855,6.21096835 C48.3163279,8.64299979 48.3163847,13.2792205 48.3150221,14.59934 C48.3144771,15.0897351 48.2368096,15.1590907 47.738171,15.1707408 C45.7994824,15.2159106 43.862974,15.0766542 41.9244216,15.1061542 C41.3245428,15.1152836 41.3264504,15.1330653 41.3486606,15.71707 C41.3739366,16.3831706 41.3622864,17.0517239 41.337828,17.7181651 C41.3197056,18.2140786 41.373119,18.2992403 41.8701907,18.2941987 C43.796616,18.2747818 45.7230413,18.2497102 47.6494666,18.2313153 C48.2300648,18.2257968 48.3124332,18.3151825 48.3131826,18.9045013 C48.3141364,19.7305015 48.3137958,20.5565016 48.3131826,21.3825699 C48.3127738,21.9707305 48.2593604,22.0314338 47.6777402,22.0265966 C45.5469951,22.0087467 43.416318,21.9826532 41.2856409,21.9661659 C40.2423082,21.9580585 39.1989754,21.9658252 38.1556427,21.9629638 C37.7029913,21.9616693 37.6319324,21.8922455 37.6270952,21.4599649 C37.6042719,19.4133594 37.4911772,6.34758219 37.4906317,5.08139836 C37.4903596,4.58194215 37.6060433,4.44922619 38.1061808,4.44772734 C40.1700911,4.44166383 42.2352958,4.40303449 44.2975029,4.46339709 Z M81.3057638,4.50792363 C81.5843447,4.50623682 81.7216934,4.63697703 81.7622985,4.90227269 C81.8313136,5.35308455 81.8306323,7.32059184 81.7644105,7.85118316 C81.7305503,8.12261046 81.6155479,8.33694537 81.4170871,8.52743501 C80.5676505,9.34301138 79.7255037,10.166082 78.8847195,10.9905151 C78.7844331,11.0888939 78.5995301,11.1782115 78.6569631,11.337021 C78.718007,11.5059136 78.915037,11.4336965 79.0534759,11.4348547 C79.802013,11.4409182 80.55055,11.4349228 81.299019,11.43867 C81.7179463,11.440782 81.7977939,11.5184494 81.7982027,11.937513 C81.8000422,13.9858217 81.8346519,20.0239891 81.7975214,20.9947641 C81.7950006,21.0625528 81.797862,21.1305459 81.796772,21.1984708 C81.7855988,21.9230264 81.7424729,21.9659479 81.0260929,21.9659479 C80.220804,21.9659479 79.4155833,21.9677192 78.6103626,21.9652666 C78.1270531,21.9638358 78.0602863,21.8974097 78.0599457,21.4136914 L78.0561985,12.1453756 L78.0561985,12.1453756 C78.055926,11.5850118 78.0459791,11.5755418 77.4861603,11.5752012 C76.7488646,11.5747924 76.0117051,11.574043 75.2745456,11.5756099 C74.82387,11.5766319 74.7890559,11.6092658 74.7889197,12.0585788 C74.7882384,15.1367307 74.7895328,18.2148144 74.7898053,21.2928981 C74.7898735,21.9398543 74.7620086,21.9677873 74.1242498,21.9681961 C73.3076515,21.9688172 72.4910532,21.9693543 71.6744549,21.9679917 C71.1247419,21.9671651 71.0534944,21.9312637 71.0462499,21.4362641 L71.0462899,13.876788 C71.0463024,13.8325802 71.0463148,13.7903711 71.046327,13.7502622 L71.0467793,5.16286743 L71.0467793,5.16286743 C71.0468474,4.58765139 71.120904,4.51127839 71.6880126,4.50991581 C72.5046109,4.50792363 73.3212774,4.5082807 74.1378075,4.50984768 C74.7399347,4.51107401 74.7874889,4.56108094 74.7876933,5.17628891 C74.7883065,7.03220033 74.7875571,8.88811175 74.7911679,10.7440232 C74.7914404,10.8617507 74.732713,11.027305 74.8661102,11.0841249 C75.0023008,11.1420348 75.0753354,10.9801595 75.1584532,10.8981318 L76.4352737,9.62881397 C76.8625043,9.20738289 77.2946828,8.79106151 77.7417816,8.39015439 C77.9700149,8.18549384 78.0628071,7.94710927 78.0585149,7.64066349 C78.0462517,6.76942546 78.0520427,5.89791491 78.0551766,5.02654061 C78.0566755,4.61817333 78.1491951,4.51516177 78.5498638,4.51209595 C79.4684517,4.50494237 80.3871759,4.51352666 81.3057638,4.50792363 Z M91.785283,1.00511078 C92.2009402,1.02425513 92.2778582,1.14300457 92.2792889,1.57269633 C92.2818097,2.3307034 92.2799702,3.08871047 92.2799702,3.84671753 C92.2799702,4.51070611 92.2799021,4.51084237 92.9286297,4.51084237 C93.6996494,4.51084237 94.4706692,4.50811719 95.2417571,4.5113874 C95.7080343,4.51343128 95.819017,4.6263216 95.8207884,5.09893485 C95.8237179,5.93617634 95.824263,6.77341784 95.8204477,7.61065933 C95.8183357,8.05465825 95.6978149,8.17354396 95.2517721,8.17545158 C94.4240687,8.17878992 93.5962972,8.17381647 92.7685938,8.17769985 C92.3656088,8.17953934 92.2865787,8.25563982 92.2861018,8.65494589 C92.2825591,11.6983518 92.281469,14.7416895 92.2819459,17.7851635 C92.2820141,18.1809268 92.3331111,18.2277998 92.7412058,18.2290262 C93.5802187,18.2315469 94.4192997,18.2271867 95.2583807,18.2310019 C95.7010851,18.2330458 95.8199027,18.3530216 95.8217422,18.8009039 C95.8254893,19.6946246 95.8259662,20.5884816 95.8214016,21.4822023 C95.8194258,21.8791919 95.7361717,21.9635361 95.3397271,21.9642855 C93.2420928,21.9684309 91.1443903,21.9693952 89.0466878,21.9676238 C88.6076624,21.9672832 88.5380342,21.8867543 88.5378979,21.4076006 L88.5373195,18.7039705 C88.5369318,16.3986165 88.5365563,13.2508799 88.5362909,10.2416698 L88.5359903,1.61963745 C88.5360584,1.0799168 88.5396011,1.04537522 89.0663091,1.01069739 C89.971203,0.9512886 90.8796397,0.963551882 91.785283,1.00511078 Z M86.387511,7.91482278 C86.9332952,7.92408837 87.0382825,8.0453586 87.0386232,8.58971205 L87.0392861,10.1949994 C87.0396636,11.3286294 87.0400417,12.8054248 87.0403473,14.3261805 L87.0408033,21.418331 C87.0405989,21.9457203 87.0183887,21.9671129 86.4794856,21.9679304 C85.6290952,21.9692249 84.778841,21.9693611 83.9284505,21.9680667 C83.3813038,21.9672491 83.3644758,21.9483773 83.3642033,21.3871959 C83.3641352,21.2401728 83.3659066,21.0930815 83.3641352,20.9459903 C83.3433557,19.1373606 83.2993442,9.96081507 83.2997501,8.60429173 C83.2998892,8.04413227 83.4096456,7.92163571 83.9727346,7.91359645 C84.7774784,7.90221885 85.5827672,7.90112878 86.387511,7.91482278 Z M28.5533228,1.04392407 C28.9693206,1.04596795 29.047533,1.12717812 29.0495769,1.54767243 L29.0518252,4.05987381 L29.0518252,4.05987381 C29.0532559,4.46428959 29.0960411,4.50721107 29.5041359,4.50734733 L35.3901023,4.50503093 L35.3901023,4.50503093 C35.9401105,4.5049628 35.9922976,4.55817182 35.9924338,5.10763497 L35.9927434,13.2551549 L35.9927434,13.2551549 L35.9908669,13.2551549 L35.9907306,21.3348181 L35.9907306,21.3348181 C35.9906625,21.9287697 35.9527826,21.9669902 35.3512005,21.9667191 C32.1983789,21.9653551 29.0456254,21.9633794 25.892872,21.9607905 C25.2850901,21.9602454 25.2457795,21.9094891 25.23447,21.301094 C25.1568025,17.1157041 25.1909353,2.74259297 25.1756744,1.5896401 C25.1693383,1.10960075 25.2416236,1.04385594 25.7293615,1.04269774 C26.6707047,1.04031321 27.6119797,1.03922314 28.5533228,1.04392407 Z M29.4942571,8.17849696 C29.0531878,8.18013206 28.9859441,8.25112284 28.9812432,8.69580306 C28.9486774,11.7732055 29.0243691,14.8499947 29.0484187,17.9270565 C29.0489638,17.994777 29.0518252,18.0629745 29.0602732,18.1300819 C29.0787363,18.2762875 29.1696208,18.3679896 29.311943,18.3501397 C29.752263,18.2947505 30.1929235,18.4180646 30.6336523,18.3306547 C30.9242239,18.2729491 31.219769,18.2877332 31.5138152,18.3324261 C32.1367218,18.427194 32.3200579,18.2715184 32.3134493,17.6332146 C32.2966895,16.0047871 32.272163,14.3762914 32.2524736,12.7478638 L32.2505915,12.2555868 L32.2505915,12.2555868 L32.2504297,8.67345663 L32.2504297,8.67345663 C32.2498165,8.21978334 32.2119366,8.17958703 31.7742056,8.17822444 C31.0142228,8.17583992 30.2541718,8.1755674 29.4942571,8.17849696 Z M65.3418325,15.1017731 C64.5035691,15.1078575 63.6652375,15.1064267 62.8269741,15.102884 C62.5889983,15.1018621 62.4701126,15.2000365 62.4710664,15.4453021 C62.4741322,16.2591071 62.4735872,17.0729802 62.470994,17.8867852 C62.4701126,18.1707483 62.6066438,18.2961063 62.8889036,18.2946075 C63.6931705,18.2905197 64.4975055,18.2888846 65.3017724,18.2959701 C65.5853949,18.2984227 65.6807078,18.1616871 65.6751212,17.8980947 C65.6668095,17.502672 65.6729411,17.1069768 65.6727367,16.7113497 C65.6727367,16.2931036 65.6670138,15.8747895 65.674985,15.4566797 C65.6795496,15.2199984 65.5955462,15.0999545 65.3418325,15.1017731 Z M44.1914936,8.24592827 C43.3413757,8.25050286 42.4911896,8.24954905 41.6410036,8.24621071 C41.4152229,8.2452569 41.3060797,8.34336316 41.3066227,8.57125581 C41.308873,9.41953425 41.3085324,10.2678127 41.3078511,11.1160911 C41.3076467,11.3227274 41.4000301,11.4323476 41.6147057,11.432075 C42.4762012,11.4311212 43.3376967,11.4301674 44.1991923,11.4335799 C44.4141403,11.4344596 44.5078182,11.3382609 44.5055699,11.1253567 C44.5010053,10.6955968 44.5042073,10.2657688 44.5042073,9.8359408 L44.5053655,9.8359408 C44.5053655,9.41742224 44.500324,8.99883556 44.5073413,8.58045327 C44.5110884,8.35712528 44.4285156,8.24471187 44.1914936,8.24592827 Z" id="Combined-Shape" fill="#2E2752"></path>
        <path d="M40.6810132,23.602316 C46.1187099,23.6708584 50.5721378,28.2234951 50.5043062,33.6442339 C50.4341391,39.2530327 45.9228309,43.6357857 40.3016437,43.5562765 C34.8211969,43.4786967 30.4356006,38.9308326 30.5006905,33.3929117 C30.5648665,27.9340939 35.1416707,23.5325551 40.6810132,23.602316 Z M54.3779771,28.3340057 C54.581878,28.3428401 54.832794,28.4544373 54.9711988,28.6033012 C56.8200157,30.5917414 58.6523824,32.5956164 60.4906387,34.5940081 C60.5882227,34.7000203 60.7017492,34.7913086 60.8959019,34.9709405 L60.8959019,33.2660118 C60.8959019,32.1190691 60.8996591,30.9720248 60.8945818,29.8249805 C60.8906216,28.9318985 60.6228493,28.6518394 59.7355553,28.5831954 C59.6199979,28.5742595 59.5047452,28.5542553 59.3913202,28.5300877 C59.3688789,28.5253152 59.3554751,28.4783002 59.3012504,28.3934091 L62.5841773,28.3934091 C62.5309681,28.4949534 62.521626,28.543187 62.5000986,28.5494827 C61.5206024,28.8315727 61.5100418,28.8486322 61.5107526,29.8641766 L61.511768,33.6340591 L61.511768,33.6340591 L61.5115649,37.8966345 L61.3855485,37.9908676 L61.3855485,37.9908676 C61.2189143,37.8621095 61.0296358,37.7540663 60.8889969,37.6014453 C58.6143033,35.1341221 56.346007,32.6611125 54.0743597,30.1911492 C54.0446072,30.1587566 53.9907887,30.1486022 53.8517746,30.0815829 L53.8517746,30.6066685 C53.8517746,32.3944572 53.8501499,34.1821444 53.8536024,35.9700347 C53.8540086,36.1884565 53.8614213,36.4104323 53.899805,36.6246907 C54.0205412,37.2979294 54.2896336,37.5243731 54.9974988,37.5826596 C55.151643,37.5953526 55.305178,37.6158646 55.4590176,37.6327209 C55.455362,37.6803452 55.4517064,37.7277664 55.4480508,37.7753906 L51.960106,37.7753906 C51.9490377,37.7430995 51.9379694,37.7107069 51.926901,37.6784158 C52.081553,37.6308931 52.2340725,37.5736221 52.3913646,37.537777 C53.0650094,37.3843436 53.2201691,37.2245129 53.2227077,36.5436584 C53.231339,34.232815 53.2276834,31.9219716 53.2240278,29.6111282 C53.2234185,29.1867747 52.7490036,28.7380505 52.1790355,28.6039104 C52.0441847,28.5721271 51.9068968,28.5505997 51.7707259,28.5244013 L51.7691012,28.378279 C51.9135987,28.3603057 52.0579947,28.3281162 52.2025938,28.3268976 C52.9279247,28.3206019 53.6540679,28.3026285 54.3779771,28.3340057 Z M74.3945194,28.3744204 C74.3393808,28.4747461 74.3263831,28.5397345 74.2940921,28.551412 C73.6546677,28.7835423 73.5873438,28.8647777 73.8134829,29.487955 C74.5031718,31.3894734 75.2171296,33.2821574 75.9243856,35.1772785 C75.9512949,35.2497811 76.0062303,35.3118246 76.0840132,35.4361148 C76.4951661,34.3406551 76.889361,33.3052079 77.2664965,32.2634651 C77.3064034,32.1528833 77.2691366,31.9981299 77.2279097,31.8773937 C77.0261412,31.2874214 76.8233572,30.697246 76.5975227,30.116108 C76.3137064,29.3864107 76.1310282,28.5523259 75.0314051,28.5615665 C75.0578067,28.5090681 75.0840051,28.4565697 75.1103051,28.4039697 L78.9615753,28.4039697 C78.9683788,28.4414396 78.9753853,28.4789094 78.9821888,28.5163793 C78.8411438,28.5386175 78.7009111,28.5717209 78.5589522,28.5812661 C77.8422526,28.6294996 77.7132914,28.7827299 77.9506004,29.4721141 C78.4608604,30.9539499 79.0023961,32.4251236 79.5331681,33.8999528 C79.7121907,34.3973168 79.8973059,34.8925483 80.2038681,35.3860535 C80.4444266,34.6939276 80.6913823,34.0039342 80.9240202,33.3092697 C81.2771913,32.2546307 81.6282299,31.1991794 81.9654585,30.1394632 C82.3399538,28.9626664 82.2934465,28.8752368 81.2011346,28.4019389 L83.529139,28.4019389 C83.3123419,28.6935741 83.0505607,28.9496688 82.9070787,29.2602927 C82.6676372,29.7783717 82.4948088,30.328234 82.3099982,30.8701759 C81.548213,33.1038456 80.7967852,35.3409678 80.024744,37.5710835 C79.9714333,37.7249231 79.7800223,37.8311384 79.6529904,37.9593889 C79.5302233,37.8211871 79.3539424,37.7031926 79.293422,37.5418388 C78.8140315,36.2634977 78.3585038,34.9762208 77.89008,33.6937164 C77.8173743,33.494588 77.7159315,33.3059188 77.5845332,33.017533 C77.1004716,34.2993265 76.6549968,35.4784588 76.2097251,36.6575911 C76.0906136,36.9732923 75.9921157,37.2987417 75.844978,37.6006329 C75.7757248,37.7427949 75.614574,37.9305503 75.4935332,37.9317688 C75.3728986,37.9328858 75.1926575,37.7483799 75.1380266,37.6070302 C74.6702121,36.3963176 74.2267682,35.1763646 73.7728652,33.9603717 C73.218738,32.4755911 72.683295,30.9830931 72.091698,29.5133411 C71.9280086,29.1068593 71.5935217,28.7690215 71.3199614,28.3744204 L74.3945194,28.3744204 Z M88.6067698,28.3839249 C88.9450138,28.4066708 89.283664,28.4251519 89.7171566,28.4512488 L89.7171566,30.3232177 C89.6940045,30.3355046 89.6709539,30.347893 89.6478018,30.3601799 C89.5879922,30.2390375 89.5231054,30.1199261 89.4690839,29.9962451 C88.9107934,28.7175994 86.9175805,28.1356491 85.7429162,28.9094166 C84.9224383,29.4497338 84.9051758,30.5090438 85.7647482,31.0411359 C86.5360786,31.5185971 87.3795055,31.8780639 88.1698247,32.3268896 C88.635913,32.5915141 89.0995642,32.8855863 89.49579,33.2422099 C90.3084164,33.9736334 90.4744739,34.925408 90.1582649,35.929681 C89.8324093,36.9645189 89.0333573,37.5406812 88.0127357,37.8067272 C87.0439016,38.0591663 86.0721228,37.9410703 85.0989223,37.7834736 C84.7803779,37.7317875 84.4435554,37.798299 84.1151612,37.7966743 C84.0136169,37.796065 83.8330712,37.766211 83.8228152,37.7199068 C83.6757791,37.0629153 83.5517935,36.400745 83.4223245,35.7399963 C83.4709642,35.7225307 83.5197055,35.7049635 83.5683452,35.6874979 C83.6490729,35.8003136 83.7474693,35.904498 83.8078882,36.0272651 C84.5414441,37.5143812 86.8216212,37.8839009 88.1207788,37.1514619 C89.1248487,36.585454 89.2713771,35.3235632 88.3549399,34.6440288 C87.7787776,34.2168319 87.0970093,33.9339296 86.4736289,33.5674562 C85.8801025,33.21855 85.2653534,32.8909682 84.7236146,32.4717933 C83.8896314,31.8264794 83.5629634,30.957768 83.8748059,29.9138927 C84.1886793,28.8630109 84.9967687,28.3267555 86.0030726,28.2344517 C86.859091,28.155958 87.7379568,28.3256385 88.6067698,28.3839249 Z M70.2529848,28.4084174 L70.2529848,30.3672067 L70.1414891,30.3851801 L70.1414891,30.3851801 L70.0812621,30.2713451 C70.0730596,30.2522924 70.0673618,30.2331344 70.0665494,30.2137733 C70.0260333,29.2760118 69.3287286,28.8460733 68.3270958,28.8599848 C67.7191501,28.868413 67.1105952,28.8701393 66.5027511,28.8591725 C66.2436101,28.8545014 66.1362777,28.9503593 66.138004,29.2114296 C66.1448075,30.2067667 66.1287635,31.20251 66.1570943,32.1970348 C66.1605468,32.3193957 66.3726728,32.5296939 66.4992986,32.5385282 C67.0372802,32.5759981 67.5796283,32.5623912 68.1198439,32.5491904 C68.6919444,32.5351773 69.132342,32.3147246 69.3234483,31.7282048 C69.3551302,31.6309254 69.4374826,31.5499946 69.5956886,31.4872402 L69.5956886,34.3043834 C68.9330105,32.5125329 67.4246717,33.2404024 66.1639993,33.0558964 C66.147143,33.3524057 66.1225693,33.5956043 66.1213507,33.8389044 C66.1170859,34.6823313 66.1103839,35.5260628 66.1251079,36.3693881 C66.1367855,37.0341986 66.3458652,37.2420597 67.0166667,37.2566821 C67.6072483,37.2694767 68.1986422,37.2566821 68.7894269,37.2407396 C69.618333,37.2183999 70.2247554,36.8159799 70.6597712,36.1251741 C70.7283136,36.0164201 70.8334119,35.9306152 70.9217554,35.8342497 C70.9685674,35.8607528 71.0152777,35.8873574 71.0620897,35.9137589 C70.8672262,36.5110424 70.6802831,37.1111691 70.4670401,37.7019538 C70.4415525,37.7726286 70.2745122,37.8296965 70.1727648,37.8301027 C67.8923847,37.8378201 65.611903,37.8370077 63.3314214,37.8343676 C63.2749628,37.834266 63.2186057,37.79639 63.0052611,37.7198256 C63.262879,37.6487446 63.3721406,37.6040651 63.4851594,37.5898489 C64.2171922,37.4980529 64.3795615,37.3304032 64.386365,36.5822249 C64.3958086,35.5533782 64.3894113,34.5243284 64.3898175,33.4952785 C64.3905283,32.2637494 64.3898175,31.0323218 64.3924577,29.8008942 C64.3945901,28.7684934 64.3348821,28.6990371 63.3197438,28.5732238 C63.2765875,28.5678419 63.2371883,28.5317937 63.2019524,28.4084174 L70.2529848,28.4084174 Z M38.8636751,29.0369664 L37.3731064,29.0369664 L37.3738898,29.5219813 C37.3762459,30.5109565 37.3856269,32.7627313 37.4227616,33.8988054 C37.4645978,35.1824267 38.41424,36.3291664 39.6394734,36.6818297 C41.1615208,37.1198918 42.763585,36.4184238 43.375694,35.0459512 C44.0756388,33.4764827 43.6053872,31.8737076 42.1781822,31.0002237 C41.1209031,30.3531834 40.0393548,30.3935981 38.8641828,30.9840781 L38.8639954,30.1048721 C38.8638507,29.5806324 38.8636751,29.0369664 38.8636751,29.0369664 Z M47.0172753,30.7183367 C45.3830215,30.7013788 44.0175554,31.9771813 43.9417019,33.5920401 C43.8613803,35.2999135 45.1095627,36.6821344 46.8349017,36.795864 C48.2869851,36.8915187 49.7734919,35.7435605 49.9032655,34.3681431 C49.6777357,34.3888581 48.6180195,34.3644875 48.6180195,34.3644875 C48.6180195,34.3644875 48.2070697,35.66791 46.7902223,35.4838102 C45.6141363,35.2853927 45.2459367,34.4224693 45.2585282,33.7296326 C45.2720336,32.9902886 45.7847307,32.3219241 46.4954392,32.1171093 C47.1839095,31.9186918 47.9466086,32.202305 48.3714699,32.788114 C48.5168814,32.9886639 48.6746812,33.3083253 48.6746812,33.3083253 C48.6746812,33.3083253 49.5587258,33.3313759 49.9271284,33.3313759 C49.9090536,31.9590048 48.5067269,30.7337714 47.0172753,30.7183367 Z M33.6742542,30.5218485 C32.2235925,30.6440063 31.0412108,31.8926964 30.9636309,33.3844836 C30.8817862,34.9590293 31.9047434,36.3880621 33.3739877,36.5845503 C35.072519,36.8117049 35.608876,36.1355214 35.608876,36.1355214 L35.608876,36.7561601 L37.1551924,36.7558555 L37.1551197,33.8387308 C37.1550488,33.7919416 37.1549716,33.746926 37.1548878,33.7039419 C37.1510291,31.7363182 35.6406593,30.3562298 33.6742542,30.5218485 Z M40.6128973,31.9669659 C41.5393874,31.9668644 42.3035082,32.7497708 42.299664,33.6949451 C42.2958923,34.6372761 41.525882,35.3987567 40.5865973,35.3892115 C39.6420323,35.3794633 38.8863397,34.6099607 38.8977127,33.6692544 C38.9090857,32.7243848 39.6722925,31.9669659 40.6128973,31.9669659 Z M34.0736888,31.9263888 C34.9817994,31.9490332 35.737492,32.7341736 35.7191124,33.6361916 C35.7010376,34.5246025 34.8921358,35.2965422 33.9979367,35.2788735 C33.095208,35.2609002 32.3421556,34.4678393 32.3656123,33.5600333 C32.3894752,32.6375035 33.1567439,31.9036429 34.0736888,31.9263888 Z" id="Combined-Shape" fill="#2E2752"></path>
    </g>
</svg>