<?xml version="1.0" encoding="UTF-8"?>
<svg width="121px" height="46px" viewBox="0 0 121 46" version="1.1" xmlns="http://www.w3.org/2000/svg" xmlns:xlink="http://www.w3.org/1999/xlink">
    <!-- Generator: Sketch 64 (93537) - https://sketch.com -->
    <title>Social Proof / _parts / proof1</title>
    <desc>Created with Sketch.</desc>
    <g id="Social-Proof-/-_parts-/-proof1" stroke="none" stroke-width="1" fill="none" fill-rule="evenodd">
        <path d="M112.450059,5.94006816 C113.182566,6.21954246 113.79005,6.66571476 114.260376,7.29451776 C114.304149,7.35297546 114.350302,7.40956206 114.4476,7.53362166 C114.4476,7.04860986 114.458316,6.63900906 114.443574,6.23025876 C114.434502,5.98015506 114.508892,5.87684766 114.777934,5.88348156 C115.579785,5.90326986 116.38209,5.90009466 117.184225,5.90587806 L117.184225,17.3872879 C117.058691,18.1974175 116.907699,19.0002895 116.564664,19.7543995 C115.813276,21.4059004 114.525279,22.4739016 112.761455,22.7286547 C111.362496,22.9307902 109.90729,22.8820282 108.494213,22.7339278 C107.299147,22.6087342 106.235455,22.0288633 105.297694,21.2545114 C105.123228,21.1104367 105.123114,21.0107581 105.25137,20.8403746 C105.727933,20.2078294 106.197579,19.5698977 106.656566,18.9245383 C106.790775,18.7358407 106.885804,18.7337995 107.052786,18.8846782 C107.860931,19.6148041 108.785367,20.13514 109.876502,20.2818229 C111.008348,20.4338923 112.125224,20.4014599 113.108856,19.7069416 C113.758411,19.2482953 114.041287,18.5676685 114.19398,17.8186615 C114.320648,17.1976831 114.288273,16.5716584 114.287195,15.9543088 C114.194547,15.9298711 114.167105,15.9743806 114.1366,16.0066996 C113.305605,16.8895186 112.260737,17.3035987 111.071625,17.4088339 C107.932032,17.6866072 105.353883,15.6316858 104.9457,12.4757071 C104.702797,10.5974629 105.086033,8.85263376 106.351066,7.37673276 C107.205309,6.38000346 108.320371,5.84787396 109.608708,5.66473296 C110.576407,5.52712206 111.528343,5.58841476 112.450059,5.94006816 Z M73.4336999,0.13686852 C73.4398802,0.26835582 73.4512202,0.39978642 73.4513336,0.53121702 C73.4524109,2.66081232 73.4515604,4.79040762 73.4538284,6.92000292 C73.4539418,7.02829992 73.4220197,7.14334422 73.4835392,7.24489392 C73.5609914,7.25453292 73.5867332,7.19539482 73.6216037,7.15593162 C74.4823097,6.18409362 75.5893205,5.71149912 76.8598541,5.61800082 C78.4045322,5.50431732 79.7997491,5.90348532 80.9650475,6.95725482 C81.9765188,7.87193922 82.555766,9.03287172 82.7734373,10.3623733 C83.019572,11.8654336 82.882358,13.3333966 82.162835,14.7029284 C81.2976497,16.3498366 79.9202366,17.2767682 78.0763526,17.5216555 C77.0351138,17.6600035 76.0248899,17.5625362 75.0583817,17.1317296 C74.3690798,16.8244723 73.8213011,16.3453006 73.3286348,15.736456 L73.3285781,16.6371355 L73.3285781,16.6371355 C73.3284647,16.7690764 73.3229648,16.9011874 73.3284647,17.0328448 C73.3365728,17.2284598 73.2437549,17.2957627 73.0535831,17.2942885 C72.3077513,17.288335 71.5618061,17.2871443 70.8159176,17.2948555 C70.6076018,17.2970668 70.5184127,17.2173466 70.5332114,17.0129998 C70.5372938,16.9566967 70.5332114,16.8999967 70.5332114,16.8434101 L70.5336083,0.44747112 L70.5336083,0.44747112 C70.5336083,0.34393692 70.5400154,0.24040272 70.5434741,0.13686852 L73.4336999,0.13686852 Z M46.4975768,6.73549545 C47.9394578,7.73262165 48.7232219,9.13311165 48.9154349,10.8683584 C49.0941533,12.4812466 48.7525925,13.9645186 47.7528581,15.2588095 C46.7253974,16.5890482 45.3305774,17.2894633 43.680494,17.5184179 C43.3713089,17.5612831 43.0618403,17.5872517 42.7457945,17.5806745 C40.5632981,17.5261291 38.7130637,16.7767819 37.4825603,14.897914 C35.4038249,11.7239614 36.6357458,6.62396655 41.4461738,5.72549835 C43.254677,5.38773645 44.9665634,5.67673635 46.4975768,6.73549545 Z M92.5209894,6.02517486 C93.8627382,6.59200476 94.712898,7.61560986 95.2162239,8.95594116 C95.6351235,10.0716271 95.6981739,11.2315957 95.6695971,12.4056259 C95.6639838,12.6364516 95.5131618,12.6290239 95.3604687,12.6295909 L94.3974051,12.6310863 L94.3974051,12.6310863 L87.4013763,12.6316321 L87.4013763,12.6316321 C87.0404808,12.6319723 87.007935,12.6770488 87.0946293,13.0290991 C87.4123761,14.3189107 88.5083304,15.1754209 89.8419711,15.2321776 C91.072758,15.2845117 92.072379,14.8408342 92.8730397,13.9302322 C93.0329337,13.7482819 93.1379421,13.7277565 93.331686,13.8816403 C93.8634186,14.3038285 94.4081922,14.7101407 94.9569915,15.1101592 C95.1329883,15.2384146 95.1344058,15.329815 94.9933362,15.4886884 C93.5234454,17.1431377 91.6696389,17.7708634 89.4994464,17.5254658 C87.6161559,17.3125006 86.0892249,16.4701654 85.0321101,14.8736068 C84.4534866,13.9998031 84.1735587,13.0234291 84.1178226,11.9727781 C84.0350406,10.4133013 84.4154976,9.00056406 85.4149485,7.78769436 C86.448306,6.53371716 87.8126781,5.87106426 89.4113913,5.66155776 C90.4784853,5.52173556 91.5223323,5.60332686 92.5209894,6.02517486 Z M31.8861569,6.18595905 C33.85325,7.10228775 34.994621,8.64809985 35.2566317,10.804174 C35.493014,12.7492675 34.980446,14.4702259 33.5655542,15.8636851 C32.5778402,16.8364303 31.3591304,17.3568796 29.9848925,17.5202323 C29.8352612,17.5380361 29.6858,17.561113 29.535545,17.569618 C29.3849498,17.5781797 29.2335041,17.5714891 29.0824553,17.5714891 C27.4487582,17.5564636 25.9760891,17.0912968 24.7512557,15.9791263 C23.6558117,14.9844949 23.0698172,13.7319352 22.9194488,12.2661268 C22.7721422,10.8300292 23.0389724,9.48510525 23.8395197,8.27592105 C24.8669804,6.72392865 26.3591543,5.90892285 28.1813222,5.66335515 C29.4630824,5.49059025 30.7118432,5.63886075 31.8861569,6.18595905 Z M4.18427188,0.507639705 C6.38411848,0.51865797 8.58413518,0.50244177 10.7838684,0.51996207 C11.799252,0.52807017 12.7700127,0.77176677 13.647672,1.29493767 C14.9664006,2.08096977 15.5586321,3.26531937 15.5391273,4.78777107 C15.5210967,6.19262697 14.9053914,7.23613377 13.7104956,7.95786807 C13.4036352,8.14316367 13.0712031,8.27102217 12.6941481,8.41844217 C13.4880615,8.54771817 14.1750954,8.81273397 14.7634146,9.29491077 C15.8325498,10.1712093 16.3009485,11.3260749 16.2583101,12.6817719 C16.2076203,14.2960209 15.5181483,15.5576526 14.0858496,16.3735656 C13.4137278,16.756404 12.6860967,16.9799154 11.9302857,17.1195108 C11.2048092,17.2534929 10.4725287,17.2982003 9.73446478,17.2949406 C7.88400358,17.2868892 6.03337228,17.286549 4.18291108,17.2982003 C3.89549878,17.2999869 3.81555178,17.2135761 3.81594868,16.9295091 C3.82360318,11.577426 3.82371658,6.22528617 3.81577677,0.87320307 C3.81532498,0.58607427 3.89992138,0.50624067 4.18427188,0.507639705 Z M66.8526046,6.46425966 C67.647652,7.09153176 67.9915375,7.99153086 68.1739981,8.95866276 C68.2562698,9.39417546 68.2989649,9.83292006 68.2979075,10.2780718 C68.2927846,12.4835884 68.2960165,14.6891617 68.2957897,16.894735 C68.295733,17.2903309 68.294599,17.2915216 67.9126678,17.2919752 L65.7593719,17.2919752 L65.7593719,17.2919752 C65.3914456,17.2914649 65.3848684,17.2855114 65.3841313,16.9063018 C65.3801056,14.738434 65.3764201,12.5706796 65.3746624,10.4028118 C65.3744356,10.116817 65.3199469,9.83995086 65.2385824,9.56954856 C64.9824118,8.71876506 64.3655158,8.27934006 63.484171,8.23415016 C61.9904095,8.15754846 61.1998981,9.11884026 60.9856855,10.3681114 C60.9345988,10.6660699 60.9230887,10.966183 60.9234856,11.2684507 C60.926434,13.1534989 60.9200836,15.0386038 60.9301762,16.923652 C60.9316504,17.2021057 60.857827,17.3058667 60.5644612,17.2983823 C59.8283251,17.279728 59.0911117,17.2818826 58.3548055,17.2975318 C58.0788466,17.3034853 57.9999202,17.206585 58.0009975,16.9393012 C58.0092757,14.8091389 58.0033222,12.6789766 58.0071211,10.5488143 C58.0078582,10.1307085 57.9698125,9.72178806 57.8236399,9.32726946 C57.5783557,8.66507016 57.0207112,8.26817016 56.314456,8.23919646 C55.4521057,8.20387236 54.6778672,8.38707006 54.1209031,9.10829406 C53.7450388,9.59495016 53.5626916,10.1586049 53.5592896,10.7662021 C53.5478362,12.7926034 53.5521454,14.8190614 53.5501042,16.8455194 C53.5497073,17.2917484 53.5492537,17.2920886 53.094463,17.292202 C52.3767544,17.2923721 51.6588757,17.2853413 50.9412238,17.2959442 C50.7100579,17.2992895 50.6290336,17.2232548 50.6293727,16.9884034 C50.6348737,13.38784 50.6344768,9.78733326 50.6301676,6.18682656 C50.6299408,5.97352116 50.6912902,5.88189396 50.9191675,5.88501246 C51.6462316,5.89504836 52.3735792,5.89487826 53.1007,5.88512586 C53.3262526,5.88206406 53.397808,5.96943876 53.392705,6.18529566 C53.3820454,6.63645756 53.3894731,7.08801636 53.3894731,7.61260476 C54.3310333,5.92526946 55.9060459,5.44088136 57.6005254,5.64636216 C58.8263227,5.79502956 59.780527,6.34263816 60.3497383,7.46943726 C60.4672207,7.70196396 60.521029,7.53588966 60.5841928,7.44114396 C61.0627975,6.72388896 61.6654051,6.13846146 62.5008796,5.87990946 C64.0330837,5.40578406 65.5288864,5.41995906 66.8526046,6.46425966 Z M21.0124407,0.13689687 C21.0201519,0.25863177 21.0346671,0.38036667 21.0347238,0.50215827 L21.0356168,8.67277002 L21.0356168,8.67277002 L21.0355743,16.8433818 C21.0355743,17.291652 21.035064,17.2920489 20.5890051,17.292219 C19.8807654,17.2924458 19.1724123,17.2849047 18.4643994,17.2961384 C18.2294913,17.2997601 18.1560648,17.216808 18.1562346,16.985472 C18.1609977,11.4347121 18.1599771,5.88395217 18.1608843,0.33319227 C18.1608843,0.26781717 18.1726212,0.20232867 18.1788582,0.13689687 L21.0124407,0.13689687 Z M104.536927,5.70535851 C104.730501,5.75355351 104.79633,5.84535081 104.794515,6.03767721 C104.787314,6.78186471 104.782948,7.52633571 104.796556,8.27035311 C104.801263,8.52737421 104.711053,8.57698671 104.480341,8.51830221 C103.785142,8.34156831 103.085577,8.29626501 102.385332,8.49392121 C101.192194,8.83077591 100.375601,9.91907571 100.371802,11.19647 C100.366189,13.0900799 100.370384,14.9838032 100.369874,16.8774131 C100.369761,17.2913798 100.368797,17.2919468 99.9446241,17.2921736 C99.2177301,17.2925705 98.4907227,17.2859366 97.7639988,17.295783 C97.5365184,17.2987508 97.445685,17.227649 97.4459678,16.9902461 C97.4509581,13.391327 97.4509014,9.79246461 97.4460819,6.19360221 C97.4457417,5.95903431 97.5305082,5.88175221 97.7616174,5.88481401 C98.5261035,5.89484991 99.2909865,5.89717461 100.055359,5.88379341 C100.311757,5.87937081 100.381214,5.97870921 100.373786,6.21690591 C100.360122,6.65888241 100.369874,7.10159601 100.369874,7.54402611 C100.907674,6.66954201 101.627423,6.05270271 102.609864,5.76285231 C103.245585,5.57534541 103.886748,5.54342331 104.536927,5.70535851 Z M76.6844243,8.22892242 C74.7574748,8.25188592 73.3807421,9.62640732 73.3779027,11.5879438 C73.3750721,13.5384238 74.7431297,14.9198059 76.6499507,14.9516146 C78.428006,14.9812687 79.9608905,13.6732564 79.9670888,11.5946911 C79.9731377,9.55162002 78.445016,8.20794342 76.6844243,8.22892242 Z M42.7575314,8.23707826 C40.8394271,8.23458675 39.4457978,9.65055585 39.4461379,11.5992781 C39.4464215,13.5176092 40.8894365,15.0060409 42.7431296,14.9453152 C44.6440538,14.9458255 46.0443737,13.5263977 46.0441469,11.5991647 C46.0439201,9.66240615 44.6530124,8.23951965 42.7575314,8.23707826 Z M29.0964035,8.23708155 C27.1852166,8.23691145 25.7868812,9.66512775 25.7910111,11.6130562 C25.7951027,13.5349594 27.2030771,14.9483203 29.1105218,14.9452635 C31.0126934,14.94214 32.3907302,13.5299698 32.3893138,11.5852165 C32.3878952,9.64749405 31.0008998,8.23719495 29.0964035,8.23708155 Z M111.139608,8.23748875 C109.162706,8.23403676 107.800942,9.56728056 107.79463,11.5124308 C107.788638,13.3632322 109.235339,14.8173037 111.089088,14.8237368 C113.057542,14.8305715 114.443064,13.4817919 114.447042,11.5549558 C114.451172,9.54879636 113.147298,8.24101086 111.139608,8.23748875 Z M7.13114098,9.93173607 C6.91647478,9.92995077 6.85540888,10.0128462 6.85796038,10.2157188 C6.86663548,10.9031496 6.86130568,11.5906938 6.86119228,12.278238 C6.86119228,12.9657255 6.86969728,13.6534398 6.85654288,14.3407005 C6.85189348,14.5823559 6.92055718,14.673813 7.17491338,14.6700708 C8.14675138,14.6558391 9.11881618,14.6615091 10.0907676,14.6576535 C10.5843411,14.655669 11.066688,14.5737375 11.5388289,14.4345957 C12.6183402,14.116452 13.1340267,13.46667 13.1995152,12.3501336 C13.2664779,11.2091595 12.7602603,10.48425 11.6670843,10.1512509 C11.2493754,10.0240161 10.8180018,9.95518227 10.3866849,9.94684737 C9.30178708,9.92586837 8.21632228,9.94106397 7.13114098,9.93173607 Z M87.0708153,10.100374 C87.0209193,10.3397047 87.0891294,10.4222599 87.3361146,10.4194249 C88.1851971,10.4096158 89.034393,10.415626 89.8835322,10.415626 C90.742197,10.415626 91.6008051,10.4098993 92.4592998,10.4194816 C92.6836617,10.4219764 92.7695622,10.3462252 92.7433668,10.1239045 C92.6965326,9.72621066 92.5912407,9.34790826 92.3795229,9.00595056 C91.9153767,8.25626316 91.2041319,7.94412966 90.357204,7.82454936 C88.745223,7.59701226 87.4011495,8.51708316 87.0708153,10.100374 Z M7.09751788,3.12969297 C6.90711928,3.12561057 6.85818718,3.22477887 6.85960468,3.39550257 C6.86459428,3.99839367 6.86153248,4.60139817 6.86124898,5.20434597 C6.86124898,5.80729377 6.86879008,6.41041167 6.85727998,7.01313267 C6.85302748,7.23375237 6.92526328,7.30956027 7.14917158,7.30695207 C8.04588208,7.29663267 8.94315958,7.31823537 9.83941648,7.29561207 C10.4362407,7.28058657 11.0204208,7.16849067 11.5500555,6.86327457 C12.245481,6.46251897 12.5334603,5.84460237 12.4898013,5.06605467 C12.448467,4.32793407 12.1038444,3.78157287 11.4123879,3.47204757 C11.1170376,3.33982317 10.8097236,3.25052067 10.4908995,3.20935647 C9.36285298,3.06386427 8.22873958,3.15401727 7.09751788,3.12969297 Z" id="Combined-Shape" fill="#2E2752"></path>
        <path d="M68.0286786,25.6815713 C68.0736425,25.6823463 68.0799903,26.3103019 68.0569554,28.4717906 C68.0406049,30.0058528 68.0384889,31.2609945 68.0522907,31.2609945 C68.0660443,31.2609945 68.2455152,31.1832815 68.4510987,31.0883043 C69.0707348,30.8020262 69.6418483,30.6778104 70.4713479,30.6488604 C71.0235622,30.6296245 71.2794476,30.6416951 71.5627442,30.7002683 C73.4153045,31.0835915 74.7862463,32.5999085 75.2653161,34.7955409 C75.3903013,35.3682895 75.436756,36.7918415 75.3538493,37.5048197 C75.2831093,38.1125295 75.0813248,38.9313532 74.8713651,39.4626965 C74.0789908,41.4677975 72.3790672,42.775886 70.1238516,43.1158322 C69.6043864,43.1940742 67.973135,43.2039326 67.2733814,43.1330002 C66.7962833,43.084622 65.3383953,42.8420093 64.8291252,42.7262093 L64.4768199,42.6460918 L64.5042791,40.7646776 C64.5704505,36.2348663 64.5787701,33.7619966 64.5359221,31.3571258 C64.4939879,29.0013066 64.4817731,28.7522499 64.3908835,28.4037437 C64.2757567,27.9621839 64.1096067,27.6542173 63.9097939,27.5119198 C63.8321771,27.4566647 63.6212556,27.3783265 63.4411115,27.337835 C62.8423464,27.203328 62.874855,27.2248722 62.8588893,26.9517226 C62.8497041,26.7943731 62.8667279,26.6904031 62.906979,26.6585196 C62.9609357,26.6157197 67.8722427,25.678932 68.0286786,25.6815713 Z M84.4556947,30.9304257 C85.9427251,31.6756241 86.8176695,33.1635681 87.0396516,35.3245279 C87.0695634,35.6155188 87.0868276,35.9617167 87.0781715,36.0939634 L87.06235,36.334412 L79.9450712,36.3590821 L79.9585844,36.7795305 C79.9900351,37.7535397 80.1994177,38.6151152 80.5867804,39.3640645 C80.7628369,39.7045397 80.9029703,39.890118 81.2434456,40.2338152 C82.0124964,41.010368 82.7776039,41.3109288 83.9845597,41.3109288 C84.8596484,41.3109288 85.4889505,41.136315 86.1471545,40.7108171 C86.3314824,40.5916027 86.518311,40.4941249 86.5622169,40.4941249 C86.6626763,40.4941249 86.8939879,40.7918483 86.8939879,40.9212097 C86.8939879,41.1331892 86.2039965,41.816496 85.531029,42.2710882 C84.9798727,42.6433988 84.1057458,42.9806039 83.3478037,43.1131392 C82.8169894,43.2060966 81.6245085,43.2039326 81.0991764,43.1091477 C78.7133972,42.678889 77.0071739,40.9869964 76.4496698,38.4988342 C76.377968,38.1788452 76.3462769,37.820673 76.3282913,37.1278924 C76.2998222,36.0318796 76.3889805,35.3515543 76.6718443,34.5062332 C77.2149696,32.8832051 78.1883056,31.7330913 79.6022396,31.0437732 C81.0946079,30.3162238 83.1349586,30.2685669 84.4556947,30.9304257 Z M51.0670972,31.2310346 C52.5606196,32.1101147 53.4652835,33.672165 53.7170332,35.8062907 C53.7938806,36.4578583 53.7440115,37.8341862 53.6229697,38.4022701 C53.1275494,40.7276005 51.6847615,42.351927 49.5709297,42.9641091 C49.3431287,43.0300402 48.9899097,43.1072722 48.7860093,43.1355971 C48.3545002,43.1956612 47.0374189,43.1944108 46.6197597,43.1335773 C45.4536801,42.9638687 44.4337933,42.4702758 43.6549803,41.6987724 C43.0053362,41.0552838 42.5841184,40.3476436 42.2736511,39.3780586 C41.7888586,37.8641942 41.7887144,35.9178589 42.2731702,34.434868 C42.7427183,32.9977067 43.7999227,31.7467007 45.0937767,31.0972009 C46.8855997,30.1977307 49.4075209,30.2542362 51.0670972,31.2310346 Z M96.0359882,31.0325683 L96.2093517,31.1059532 L96.2402733,32.0851561 C96.2572971,32.6237129 96.2748979,33.3456358 96.2793703,33.6894773 L96.2875455,34.3145956 L96.0546951,34.401061 C95.6866164,34.5377319 95.6623792,34.520612 95.4576131,33.9780638 C94.8836142,32.4572744 94.216754,31.7377079 93.1776794,31.5178898 C92.544434,31.3839118 92.015447,31.5279405 91.6309216,31.9390115 C91.330986,32.2596737 91.2139356,32.5444611 91.1856108,33.0226653 C91.1548334,33.5407839 91.2474542,33.8208585 91.5640288,34.1672487 C91.9541807,34.5941893 92.5934374,34.9627008 93.8669013,35.4948617 C95.4266433,36.1466217 96.1707837,36.699942 96.5753625,37.5086188 C96.8381248,38.0338547 96.9125196,38.4533413 96.8861183,39.2608159 C96.8662573,39.8667464 96.8468771,39.9912506 96.7090039,40.3980416 C96.2595573,41.7243561 95.2450566,42.5975693 93.6777164,43.0070052 C93.1468539,43.1456478 93.0710645,43.1527651 92.015447,43.1644028 C91.4071601,43.170943 90.82287,43.167192 90.7171207,43.1558429 C89.8603543,43.0639915 88.4968183,42.7654986 88.0428032,42.5703024 L87.8210615,42.4750848 L87.7908131,41.376427 C87.774174,40.7722277 87.7550343,39.9642723 87.7482056,39.5810934 L87.7357984,38.8844176 L87.8687184,38.8206987 C87.9418148,38.7856894 88.089306,38.7529403 88.1965461,38.747939 L88.3914537,38.7388981 L88.5575075,39.1476607 C89.2054203,40.7423159 89.965286,41.602112 90.9577617,41.863624 C91.3363721,41.9634582 92.0462725,41.9643238 92.3265394,41.8653071 C93.1116522,41.5882141 93.5421995,40.9936809 93.5459505,40.1815898 C93.5503748,39.2197953 93.0217245,38.7577012 91.0245102,37.9775416 C89.7871617,37.4941918 89.3555084,37.2454718 88.8415735,36.7194183 C88.2871471,36.1519115 88.0210667,35.5060185 87.9711014,34.6063079 C87.9107488,33.5191916 88.2509355,32.6026977 89.0049343,31.8217687 C89.7636458,31.0358384 90.7486195,30.6098597 92.0904189,30.4874232 C93.2719834,30.3796061 95.0856872,30.6302016 96.0359882,31.0325683 Z M36.9514654,25.9815125 L43.5865486,25.99517 L43.6176146,26.1875289 C43.6347345,26.2933262 43.6628189,27.3785189 43.680035,28.599036 L43.7112933,30.8181843 L43.3692312,30.9221062 C42.8542864,31.078494 42.8573642,31.0804176 42.625716,30.467466 C42.0567184,28.961873 41.404237,28.0943344 40.5114033,27.656237 C39.9249377,27.3684773 39.6387875,27.3216678 38.1106751,27.3178623 L36.3585673,27.3175892 L36.3324545,27.5700603 C36.2834992,28.0435036 36.2063152,31.0890737 36.2068442,32.5233016 L36.2073732,33.9539708 L36.6522031,33.9514221 C36.8968836,33.9500275 37.3793197,33.9320419 37.7243154,33.9114114 C38.2428668,33.8803935 38.3969944,33.8528862 38.6139752,33.7524268 C39.1470498,33.5056303 39.5096944,32.962505 39.731917,32.078135 L39.846611,31.6215712 L40.2391193,31.6075771 L40.6316276,31.593583 L40.6316276,37.3721882 L40.238975,37.3581941 L39.8463224,37.3442 L39.7348504,36.8873477 C39.5254678,36.0289461 39.1224278,35.4144557 38.6244107,35.1941566 C38.3943975,35.0924469 37.8253038,35.0345949 36.7243377,35.0011245 L36.2073732,34.9853511 L36.2073732,36.0708323 C36.2073732,37.2536471 36.2724386,38.8538325 36.3557781,39.7222848 C36.4719628,40.9329917 36.7813721,41.6019197 37.3369526,41.8440514 C37.4430386,41.8902657 37.7787529,41.9652856 38.0828723,42.0108747 C38.3870398,42.0564156 38.6737988,42.1132577 38.7200611,42.1372064 C38.8374481,42.1977994 38.8443731,42.8248413 38.7281883,42.8693724 C38.6372025,42.9043817 30.1505689,42.9017368 30.0639112,42.8668236 C30.0239487,42.8506655 30.0037991,42.7308259 30.0037991,42.508988 C30.0037991,42.1104685 29.9784558,42.1283098 30.7491898,41.985339 C31.3404048,41.8756464 31.5518553,41.7635012 31.8129344,41.4212466 C32.3078311,40.7723089 32.4234245,39.5363018 32.4293965,34.5634014 L32.4291264,33.5540234 C32.4209111,29.1813929 32.3111305,28.2025553 31.8120207,27.4744098 C31.5797474,27.1356177 31.1883451,26.9516264 30.5327379,26.873144 L30.0277959,26.8126952 L30.013946,26.4184557 L30,26.0242643 L30.1582152,25.9960837 C30.2452576,25.9805988 33.3021769,25.9740586 36.9514654,25.9815125 Z M62.3896298,30.443373 C63.0523061,30.443373 63.7148382,30.6595844 63.7148382,30.875892 C63.7148382,31.0213153 62.5472679,34.1063671 62.4828757,34.1310372 C62.4514731,34.1430596 62.2234798,34.055921 61.9762505,33.9372356 C61.4606325,33.689814 60.9769461,33.5688683 60.5073981,33.5698782 C59.922627,33.5711285 59.2694244,33.7865224 59.0115673,34.0631345 C58.9012494,34.1814352 58.9007205,34.1885525 58.8733093,35.9554169 C58.8461867,37.7051615 58.9044715,39.8394795 59.002863,40.697881 C59.0866834,41.4291814 59.281014,41.7891811 59.6823227,41.9568699 C59.8162045,42.0127502 60.6632568,42.1288388 60.9396766,42.1291273 C60.9606437,42.1291273 60.9714158,42.2968643 60.9637214,42.5018227 L60.9496792,42.874518 L57.3910398,42.8859633 C55.433692,42.8923593 53.8041718,42.8796636 53.7697876,42.8576866 C53.7259298,42.8297946 53.711599,42.7188516 53.7216979,42.4855683 L53.7361248,42.1532683 L53.9044388,42.1174896 C53.9970115,42.0977728 54.1958625,42.0585797 54.3462872,42.0304953 C54.81194,41.943501 55.0795112,41.6907895 55.2301282,41.1957058 C55.347898,40.8086028 55.4024239,39.6041155 55.4090652,37.2161719 L55.4093999,36.3278733 C55.4035313,33.6476964 55.3264131,32.9672163 55.0267087,32.5704295 C54.8530567,32.3405126 54.7278791,32.2751586 54.306517,32.1942717 C54.098577,32.1543572 53.8797688,32.1115574 53.8202818,32.0991502 C53.72391,32.0790968 53.7120799,32.0476942 53.7120799,31.8120065 C53.7120799,31.582859 53.7265549,31.5414537 53.8202818,31.5028858 C53.9641663,31.4437354 58.7282226,30.4914628 58.8804266,30.4914628 L58.9991601,30.4914628 L58.9758847,31.2007862 C58.9630447,31.59089 58.9426066,32.1589739 58.9303918,32.4631414 L58.9081744,33.0161731 L59.0807684,32.7049365 C59.6332712,31.7086136 60.2528592,31.0900836 61.0767804,30.7125312 C61.5290642,30.5052164 61.8308753,30.443373 62.3896298,30.443373 Z M47.1132564,31.3935298 C46.3642109,31.7271763 45.8831694,32.714891 45.6554165,34.3867783 C45.493258,35.5773355 45.5100894,38.0070206 45.6880694,39.099571 C45.9687691,40.8230586 46.5289182,41.9123388 47.31884,42.2706554 C47.6371939,42.4150207 48.2197528,42.4070378 48.5490232,42.2536316 C49.4574861,41.8306344 49.9445388,40.6134355 50.103331,38.3691843 C50.3246399,35.2417655 49.8118112,32.6314073 48.7957234,31.7134707 C48.3382459,31.3001395 47.6267104,31.164815 47.1132564,31.3935298 Z M68.5458596,31.9921168 L68.3553521,32.0396633 L67.9706343,32.1506063 L67.927065,33.6654325 C67.8721466,35.5753158 67.9614011,42.1033031 68.0438269,42.2026565 C68.0736906,42.2386276 68.1777087,42.2764742 68.274898,42.2867173 C68.7089077,42.3325949 69.1963932,42.3166291 69.4237614,42.2490631 C69.7763072,42.1443237 70.2271483,41.8239499 70.4986629,41.4853502 C71.0586196,40.7866546 71.4608901,39.7053092 71.6820067,38.3041189 C71.7878521,37.6330269 71.8021829,35.7472846 71.7054745,35.2043036 C71.4087128,33.5374657 70.8371664,32.5190697 69.9672234,32.1067965 C69.5821636,31.9242693 69.0565537,31.8839262 68.5458596,31.9921168 Z M81.9647433,31.4071379 C81.0607046,31.408149 80.3382527,32.5703814 80.0378843,34.5070507 C80.0009514,34.7450948 79.9703664,35.0273815 79.9698855,35.1343811 L79.9690199,35.328904 L80.8707021,35.3143329 C81.3666514,35.3062057 82.1489269,35.2865851 82.6090975,35.2706193 L83.4457625,35.241525 L83.4156102,34.6471841 C83.3094281,32.5514822 82.7965512,31.4061774 81.9647433,31.4071379 Z" id="Combined-Shape" fill="#2E2752" fill-rule="nonzero"></path>
    </g>
</svg>